<svg width="106" height="24" viewBox="0 0 106 24" fill="none" xmlns="http://www.w3.org/2000/svg">
<path d="M8.19709 0C3.68175 0 0 3.84039 0 8.59083C0 15.307 8.16236 22.9332 8.16236 22.9332C8.16236 22.9332 16.4116 15.307 16.4116 8.59083C16.4116 3.84039 12.7298 0 8.19709 0ZM8.23183 15.2706C4.53272 15.2706 1.80614 12.4858 1.80614 8.62723C1.80614 4.76864 4.49798 1.9839 8.21446 1.9839C11.3752 1.9839 13.9628 4.0588 14.4839 6.98915H10.9931C10.559 5.9335 9.48223 5.24186 8.2492 5.24186C6.42569 5.24186 5.21002 6.62513 5.21002 8.64543C5.21002 10.6657 6.40832 12.0126 8.23183 12.0126C9.4996 12.0126 10.5937 11.3756 10.9758 10.3927H7.97133V8.19041H14.5881C14.6054 12.3402 12.0178 15.2706 8.23183 15.2706Z" fill="#FF6900"/>
<path d="M27.5294 9.76829C27.5294 10.0532 27.5121 10.3382 27.4601 10.6409H20.6043C20.8121 11.7272 21.4873 12.2971 22.4914 12.2971C23.2358 12.2971 23.8591 11.9588 24.1707 11.4067H27.339C26.6811 13.5794 24.8113 14.9328 22.4914 14.9328C19.6002 14.9328 17.4707 12.7602 17.4707 9.85734C17.4707 6.93671 19.6002 4.79967 22.4914 4.79967C25.4692 4.78186 27.5294 6.97233 27.5294 9.76829ZM20.6562 8.82443H24.3958C24.1188 7.88057 23.4436 7.36412 22.4914 7.36412C21.5565 7.36412 20.9159 7.88057 20.6562 8.82443Z" fill="#FF6900"/>
<path d="M35.4712 11.5379V14.4001H33.2031C31.0957 14.4001 29.8098 13.1201 29.8098 11.0046V7.43128H28.0596V6.66684L32.3458 2.13354H33.0245V4.90686H35.4177V7.43128H33.0959V10.4535C33.0959 11.129 33.5067 11.5379 34.2032 11.5379H35.4712Z" fill="#FF6900"/>
<path d="M51.3535 8.76147V14.9335H48.1461V9.18523C48.1461 8.15348 47.78 7.65603 47.1002 7.65603C46.2112 7.65603 45.758 8.30087 45.758 9.53529V14.9335H42.6377V9.18523C42.6377 8.19033 42.2891 7.65603 41.6092 7.65603C40.7376 7.65603 40.267 8.3193 40.267 9.53529V14.9335H37.0596V5.09508H39.3082L39.7615 6.14525C40.4413 5.31617 41.4175 4.80029 42.4808 4.80029C43.6139 4.80029 44.5726 5.33459 45.1478 6.2558C45.8102 5.37144 46.8561 4.80029 48.0066 4.80029C50.0287 4.80029 51.3535 6.44004 51.3535 8.76147Z" fill="#FF6900"/>
<path d="M63.0007 5.0679V14.6124H60.4907L60.2078 13.9345C59.4301 14.5589 58.4579 14.9335 57.362 14.9335C54.4807 14.9335 52.4126 12.8106 52.4126 9.84908C52.4126 6.8876 54.4807 4.80029 57.362 4.80029C58.4756 4.80029 59.4654 5.17494 60.2432 5.81719L60.579 5.08574L63.0007 5.0679ZM59.9073 9.84908C59.9073 8.6181 59.0059 7.67257 57.7862 7.67257C56.5665 7.67257 55.665 8.60026 55.665 9.84908C55.665 11.0979 56.5665 12.0256 57.7862 12.0256C59.0059 12.0256 59.9073 11.0979 59.9073 9.84908Z" fill="#FF6900"/>
<path d="M74.1185 8.93819V14.9335H70.9822V9.39796C70.9822 8.25774 70.5902 7.68763 69.7891 7.68763C68.8175 7.68763 68.255 8.42325 68.255 9.67382V14.9152H65.1187V5.09454H67.3175L67.7436 6.10603C68.4254 5.29684 69.4311 4.80029 70.6072 4.80029C72.7208 4.80029 74.1185 6.41867 74.1185 8.93819Z" fill="#FF6900"/>
<path d="M80.8026 14.9335C77.8472 14.9335 75.7041 12.7965 75.7041 9.84021C75.7041 6.90174 77.8299 4.80029 80.8199 4.80029C83.4123 4.80029 85.3653 6.49214 85.7109 9.021H82.6173C82.358 8.23741 81.6494 7.73876 80.8199 7.73876C79.6965 7.73876 78.9015 8.61139 78.9015 9.85802C78.9015 11.1046 79.7138 11.9951 80.8199 11.9951C81.6667 11.9951 82.3581 11.4608 82.6346 10.606H85.7628C85.3826 13.1883 83.4123 14.9335 80.8026 14.9335Z" fill="#FF6900"/>
<path d="M97.4099 5.0679V14.6124H94.8998L94.617 13.9345C93.8393 14.5589 92.8671 14.9335 91.7711 14.9335C88.8899 14.9335 86.8218 12.8106 86.8218 9.84908C86.8218 6.8876 88.8899 4.80029 91.7711 4.80029C92.8847 4.80029 93.8746 5.17494 94.6524 5.81719L94.9882 5.08574L97.4099 5.0679ZM94.2989 9.84908C94.2989 8.6181 93.3974 7.67257 92.1777 7.67257C90.958 7.67257 90.0565 8.60026 90.0565 9.84908C90.0565 11.0979 90.958 12.0256 92.1777 12.0256C93.3974 12.0256 94.2989 11.0979 94.2989 9.84908Z" fill="#FF6900"/>
<path d="M105.885 4.80005V7.81564H104.585C103.395 7.81564 102.901 8.33311 102.901 9.54648V14.4H99.5322V4.85358H101.784L102.315 5.90636C103.011 5.12124 103.853 4.80005 105.006 4.80005H105.885Z" fill="#FF6900"/>
<path d="M35.47 17.6465H33.9371V22.3997H33.297V17.6465H31.7642V17.0664H35.47V17.6465Z" fill="white"/>
<path d="M35.9951 22.9334V18.6667H37.4584C37.9581 18.6667 38.3507 18.7679 38.6183 18.9701C38.886 19.1723 39.0288 19.4554 39.0288 19.8396C39.0288 20.0418 38.9753 20.2238 38.8682 20.3653C38.7611 20.5069 38.6005 20.6484 38.4042 20.7293C38.6362 20.79 38.8146 20.9113 38.9574 21.0933C39.1002 21.2753 39.1715 21.4775 39.1715 21.7201C39.1715 22.1043 39.0466 22.4076 38.7968 22.6301C38.547 22.8525 38.1901 22.9334 37.7261 22.9334H35.9951ZM36.6375 20.4664H37.4763C38.083 20.4664 38.3864 20.2642 38.3864 19.8598C38.3864 19.4554 38.1008 19.2532 37.5298 19.2329H36.6554V20.4664H36.6375ZM36.6375 21.0528V22.347H37.7082C37.9759 22.347 38.1722 22.2863 38.315 22.1852C38.4399 22.0639 38.5113 21.9223 38.5113 21.6999C38.5113 21.2753 38.2436 21.0528 37.6904 21.0528H36.6375Z" fill="white"/>
<path d="M39.6982 20.7514C39.6982 20.3422 39.7641 19.9915 39.8957 19.6603C40.0274 19.3291 40.2084 19.0954 40.4553 18.92C40.7022 18.7447 40.9655 18.6667 41.2782 18.6667C41.7555 18.6667 42.1341 18.8616 42.4303 19.2512C42.7265 19.6409 42.8747 20.1474 42.8747 20.7903V20.8488C42.8747 21.2579 42.8088 21.6086 42.6772 21.9203C42.5455 22.232 42.3645 22.4853 42.1176 22.6606C41.8707 22.836 41.6074 22.9334 41.2947 22.9334C40.8174 22.9334 40.4389 22.7386 40.1426 22.3489C39.8464 21.9593 39.6982 21.4527 39.6982 20.8098V20.7514ZM40.3072 20.8488C40.3072 21.2969 40.3895 21.667 40.5705 21.9398C40.7516 22.2125 40.982 22.3489 41.2947 22.3489C41.5909 22.3489 41.8378 22.2125 42.0188 21.9203C42.1999 21.6475 42.2822 21.2384 42.2822 20.7514C42.2822 20.3033 42.1834 19.9331 42.0024 19.6603C41.8213 19.3876 41.5745 19.2317 41.2782 19.2317C40.982 19.2317 40.7516 19.3681 40.5705 19.6409C40.3895 19.9136 40.3072 20.3227 40.3072 20.8488Z" fill="white"/>
<path d="M45.6223 22.3489C45.853 22.3489 46.0482 22.271 46.2257 22.1151C46.4031 21.9593 46.4919 21.7644 46.5096 21.5501H47.113C47.0952 21.7839 47.0242 22.0177 46.8823 22.232C46.7403 22.4463 46.5628 22.6217 46.3322 22.7386C46.1015 22.8555 45.8708 22.9334 45.6046 22.9334C45.09 22.9334 44.6818 22.7386 44.3802 22.3684C44.0785 21.9982 43.9365 21.4722 43.9365 20.8293V20.7124C43.9365 20.3033 44.0075 19.9526 44.1317 19.6409C44.2559 19.3291 44.4511 19.0954 44.7173 18.92C44.9835 18.7447 45.2674 18.6667 45.6046 18.6667C46.0305 18.6667 46.3676 18.8031 46.6516 19.0759C46.9355 19.3486 47.0775 19.7188 47.0952 20.1474H46.5096C46.4919 19.8747 46.4031 19.6603 46.2257 19.485C46.066 19.3097 45.853 19.2317 45.6223 19.2317C45.3207 19.2317 45.09 19.3486 44.9125 19.5629C44.7351 19.7967 44.6286 20.1084 44.6109 20.4981H46.0127V21.0826H44.6109C44.6286 21.4917 44.7351 21.8034 44.9125 22.0177C45.09 22.232 45.3207 22.3489 45.6223 22.3489Z" fill="white"/>
<path d="M51.7103 22.8555C51.6738 22.7775 51.6372 22.6217 51.619 22.4268C51.3086 22.758 50.9435 22.9334 50.5237 22.9334C50.1403 22.9334 49.83 22.8165 49.5926 22.5827C49.3553 22.3489 49.2275 22.0567 49.2275 21.706C49.2275 21.2774 49.3736 20.9462 49.6839 20.7124C49.9943 20.4786 50.4141 20.3617 50.98 20.3617H51.619V20.0305C51.619 19.7772 51.546 19.5824 51.4182 19.446C51.2721 19.3097 51.0713 19.2317 50.8158 19.2317C50.5784 19.2317 50.3776 19.2902 50.2316 19.4266C50.0673 19.5629 49.9943 19.6993 49.9943 19.8941H49.3371C49.3371 19.6798 49.4101 19.485 49.5379 19.2902C49.6657 19.0954 49.8665 18.9395 50.0855 18.8421C50.3229 18.7252 50.5784 18.6667 50.8523 18.6667C51.2904 18.6667 51.6372 18.7836 51.8928 19.0174C52.1484 19.2512 52.2762 19.5824 52.2762 19.9915V21.8813C52.2762 22.2515 52.3127 22.5632 52.404 22.7775V22.836H51.7103V22.8555ZM50.6149 22.3099C50.8158 22.3099 51.0166 22.2515 51.1991 22.1346C51.3817 22.0177 51.5277 21.8813 51.6007 21.6865V20.8488H51.0896C50.2863 20.8488 49.8847 21.102 49.8847 21.6086C49.8847 21.8229 49.9577 21.9982 50.0855 22.1346C50.2133 22.2515 50.3959 22.3099 50.6149 22.3099Z" fill="white"/>
<path d="M53.4727 22.4001V18.6667H54.936C55.4356 18.6667 55.8282 18.7552 56.0959 18.9321C56.3636 19.1091 56.5063 19.3568 56.5063 19.693C56.5063 19.8699 56.4528 20.0291 56.3457 20.153C56.2386 20.2768 56.078 20.4007 55.8817 20.4715C56.1137 20.5246 56.2922 20.6307 56.4349 20.79C56.5777 20.9492 56.6491 21.1261 56.6491 21.3384C56.6491 21.6746 56.5242 21.94 56.2743 22.1347C56.0245 22.3293 55.6676 22.4001 55.2036 22.4001H53.4727ZM54.1151 20.2415H54.9538C55.5605 20.2415 55.8639 20.0645 55.8639 19.7107C55.8639 19.3568 55.5784 19.1799 55.0073 19.1622H54.1329V20.2415H54.1151ZM54.1151 20.7546V21.8869H55.1858C55.4535 21.8869 55.6498 21.8339 55.7925 21.7454C55.9174 21.6392 55.9888 21.5154 55.9888 21.3208C55.9888 20.9492 55.7211 20.7546 55.1679 20.7546H54.1151Z" fill="white"/>
<path d="M60.3522 19.1799H59.0781V22.4001H58.432V19.1799H57.1758V18.6667H60.3522V19.1799Z" fill="white"/>
<path d="M60.3535 20.7514C60.3535 20.3422 60.4193 19.9915 60.551 19.6603C60.6827 19.3291 60.8637 19.0954 61.1106 18.92C61.3575 18.7447 61.6208 18.6667 61.9335 18.6667C62.4108 18.6667 62.7893 18.8616 63.0856 19.2512C63.3818 19.6409 63.5299 20.1474 63.5299 20.7903V20.8488C63.5299 21.2579 63.4641 21.6086 63.3324 21.9203C63.2008 22.232 63.0197 22.4853 62.7729 22.6606C62.526 22.836 62.2627 22.9334 61.95 22.9334C61.4727 22.9334 61.0941 22.7386 60.7979 22.3489C60.5016 21.9593 60.3535 21.4527 60.3535 20.8098V20.7514ZM60.9625 20.8488C60.9625 21.2969 61.0448 21.667 61.2258 21.9398C61.4068 22.2125 61.6373 22.3489 61.95 22.3489C62.2462 22.3489 62.4931 22.2125 62.6741 21.9203C62.8552 21.6281 62.9374 21.2384 62.9374 20.7514C62.9374 20.3033 62.8552 19.9331 62.6577 19.6603C62.4602 19.3876 62.2297 19.2317 61.9335 19.2317C61.6373 19.2317 61.4068 19.3681 61.2258 19.6409C61.0448 19.9136 60.9625 20.3227 60.9625 20.8488Z" fill="white"/>
<path d="M66.1743 22.9334V18.6667H67.6376C68.1373 18.6667 68.5299 18.7679 68.7975 18.9701C69.0652 19.1723 69.208 19.4554 69.208 19.8396C69.208 20.0418 69.1544 20.2238 69.0474 20.3653C68.9403 20.5069 68.7797 20.6484 68.5834 20.7293C68.8154 20.79 68.9938 20.9113 69.1366 21.0933C69.2794 21.2753 69.3507 21.4775 69.3507 21.7201C69.3507 22.1043 69.2258 22.4076 68.976 22.6301C68.7262 22.8525 68.3693 22.9334 67.9053 22.9334H66.1743ZM66.8346 20.4664H67.6733C68.28 20.4664 68.5834 20.2642 68.5834 19.8598C68.5834 19.4554 68.2979 19.2532 67.7268 19.2329H66.8524V20.4664H66.8346ZM66.8346 21.0528V22.347H67.9053C68.173 22.347 68.3693 22.2863 68.512 22.1852C68.6548 22.0841 68.7083 21.9223 68.7083 21.6999C68.7083 21.2753 68.4406 21.0528 67.8874 21.0528H66.8346Z" fill="white"/>
<path d="M73.6809 22.3489C73.9128 22.3489 74.1091 22.271 74.2876 22.1151C74.466 21.9593 74.5553 21.7644 74.5731 21.5501H75.1798C75.162 21.7839 75.0906 22.0177 74.9657 22.232C74.8408 22.4463 74.6445 22.6217 74.4125 22.7386C74.1805 22.8555 73.9485 22.9334 73.6809 22.9334C73.1634 22.9334 72.7529 22.7386 72.4495 22.3684C72.1462 21.9982 72.0034 21.4917 72.0034 20.8293V20.7124C72.0034 20.3033 72.0748 19.9526 72.1997 19.6409C72.3246 19.3291 72.5209 19.0954 72.7886 18.92C73.0563 18.7447 73.3418 18.6667 73.6809 18.6667C74.1091 18.6667 74.4482 18.8031 74.7337 19.0759C75.0192 19.3486 75.162 19.7188 75.1798 20.1474H74.5731C74.5553 19.8747 74.466 19.6603 74.2876 19.485C74.1091 19.3097 73.9128 19.2317 73.6809 19.2317C73.3596 19.2317 73.092 19.3681 72.9135 19.6214C72.7351 19.8747 72.6458 20.2448 72.6458 20.7319V20.8683C72.6458 21.3358 72.7351 21.706 72.9135 21.9593C73.092 22.2125 73.3596 22.3489 73.6809 22.3489Z" fill="white"/>
<path d="M77.8421 21.9628L79.1342 18.6667H79.9418V22.9334H79.2957V19.8193L78.0754 22.9334H77.6088L76.3526 19.7587V22.9334H75.7065V18.6667H76.55L77.8421 21.9628Z" fill="white"/>
<path d="M83.4832 22.8555C83.4467 22.7775 83.4102 22.6217 83.3919 22.4268C83.0816 22.758 82.7165 22.9334 82.2966 22.9334C81.9133 22.9334 81.6029 22.8165 81.3656 22.5827C81.1283 22.3489 81.0005 22.0567 81.0005 21.706C81.0005 21.2774 81.1465 20.9462 81.4569 20.7124C81.7672 20.4786 82.1871 20.3617 82.753 20.3617H83.3919V20.0305C83.3919 19.7772 83.3189 19.5824 83.1911 19.446C83.0633 19.3097 82.8443 19.2317 82.5887 19.2317C82.3514 19.2317 82.1506 19.2902 82.0045 19.4266C81.8585 19.5629 81.7672 19.6993 81.7672 19.8941H81.11C81.11 19.6798 81.183 19.485 81.3108 19.2902C81.4386 19.0954 81.6394 18.9395 81.8585 18.8421C82.0776 18.7447 82.3514 18.6667 82.6252 18.6667C83.0633 18.6667 83.4102 18.7836 83.6658 19.0174C83.9213 19.2512 84.0491 19.5824 84.0491 19.9915V21.8813C84.0491 22.2515 84.0856 22.5632 84.1769 22.7775V22.836H83.4832V22.8555ZM82.3879 22.3099C82.5887 22.3099 82.7895 22.2515 82.9721 22.1346C83.1546 22.0177 83.3007 21.8813 83.3737 21.6865V20.8488H82.8625C82.0593 20.8488 81.6577 21.102 81.6577 21.6086C81.6577 21.8229 81.7307 21.9982 81.8585 22.1346C81.9863 22.271 82.1688 22.3099 82.3879 22.3099Z" fill="white"/>
<path d="M88.4152 20.678C88.4152 21.2526 88.291 21.7195 88.0248 22.0786C87.7586 22.4378 87.4037 22.5994 86.9601 22.5994C86.4987 22.5994 86.1438 22.4557 85.8776 22.1684V24H85.2388V18.7386H85.8244L85.8599 19.1516C86.126 18.8284 86.481 18.6667 86.9423 18.6667C87.386 18.6667 87.7409 18.8463 88.0071 19.1875C88.2732 19.5287 88.3975 20.0135 88.3975 20.6241V20.678H88.4152ZM87.7764 20.5882C87.7764 20.1572 87.6876 19.816 87.5102 19.5826C87.3327 19.3491 87.0843 19.2055 86.7649 19.2055C86.3745 19.2055 86.0906 19.385 85.8954 19.7262V21.5399C86.0906 21.8811 86.3745 22.0607 86.7826 22.0607C87.0843 22.0607 87.3327 21.935 87.5102 21.6836C87.6876 21.4322 87.7764 21.091 87.7764 20.5882Z" fill="white"/>
<path d="M91.5905 19.1799H90.3163V22.4001H89.6703V19.1799H88.4141V18.6667H91.5905V19.1799Z" fill="white"/>
<path d="M91.5859 20.6513C91.5859 20.0144 91.704 19.5049 91.9403 19.1409C92.1765 18.777 92.4802 18.595 92.8852 18.595C93.0708 18.595 93.2395 18.6314 93.3745 18.7042V17.0664H93.982V18.7406C94.1338 18.6496 94.3194 18.6132 94.5219 18.6132C94.9269 18.6132 95.2475 18.7952 95.4668 19.1591C95.6862 19.5231 95.8212 20.0508 95.8212 20.7423C95.8212 21.3064 95.7031 21.7614 95.4837 22.0889C95.2475 22.4165 94.9438 22.5985 94.5388 22.5985C94.3194 22.5985 94.1507 22.5621 93.9988 22.4893V23.9997H93.3914V22.4893C93.2395 22.5621 93.0877 22.5985 92.9021 22.5985C92.4971 22.5985 92.1934 22.4347 91.9572 22.0889C91.7209 21.7614 91.6197 21.3064 91.6197 20.7241V20.6513H91.5859ZM92.1934 20.7241C92.1934 21.1609 92.2609 21.4884 92.4127 21.7068C92.5477 21.9252 92.7671 22.0343 93.0371 22.0343C93.172 22.0343 93.2733 22.0161 93.3914 21.9616V19.1773C93.307 19.1409 93.1889 19.1227 93.0539 19.1227C92.784 19.1227 92.5815 19.2501 92.4296 19.5049C92.2778 19.7596 92.1934 20.1782 92.1934 20.7241ZM95.2137 20.6513C95.2137 20.16 95.1294 19.796 94.9775 19.5231C94.8256 19.2501 94.6063 19.1227 94.3363 19.1227C94.2013 19.1227 94.0832 19.1409 93.982 19.1955V21.9798C94.0832 22.0161 94.2013 22.0343 94.3532 22.0343C94.6232 22.0343 94.8425 21.9252 94.9944 21.6886C95.1462 21.4702 95.2137 21.1245 95.2137 20.6513Z" fill="white"/>
<path d="M96.8804 20.4901C96.8804 20.1321 96.9572 19.8252 97.1108 19.5354C97.2644 19.2456 97.4756 19.0411 97.7636 18.8876C98.0516 18.7342 98.3589 18.666 98.7237 18.666C99.2805 18.666 99.7222 18.8365 100.068 19.1774C100.413 19.5184 100.586 19.9616 100.586 20.5241V20.5753C100.586 20.9333 100.509 21.2401 100.356 21.5129C100.202 21.7856 99.991 22.0072 99.7029 22.1607C99.4149 22.3141 99.1077 22.3993 98.7429 22.3993C98.1861 22.3993 97.7444 22.2288 97.3988 21.8879C97.0532 21.547 96.8804 21.1037 96.8804 20.5412V20.4901ZM97.5716 20.5753C97.5716 20.9674 97.6676 21.2913 97.8788 21.5299C98.09 21.7686 98.3589 21.8879 98.7237 21.8879C99.0693 21.8879 99.3573 21.7686 99.5685 21.5129C99.7797 21.2742 99.8758 20.9162 99.8758 20.4901C99.8758 20.098 99.7798 19.7741 99.5493 19.5354C99.3381 19.2968 99.0501 19.1604 98.7045 19.1604C98.3589 19.1604 98.09 19.2797 97.8788 19.5184C97.6676 19.757 97.5716 20.115 97.5716 20.5753Z" fill="white"/>
<path d="M104.292 22.3993H103.616V20.8069H101.792V22.3993H101.116V18.666H101.792V20.2938H103.616V18.666H104.292V22.3993Z" fill="white"/>
<path d="M105.354 17.4553C105.354 17.3442 105.379 17.2516 105.417 17.1775C105.467 17.1034 105.53 17.0664 105.618 17.0664C105.706 17.0664 105.769 17.1034 105.82 17.1775C105.87 17.2516 105.883 17.3442 105.883 17.4553C105.883 17.5664 105.858 17.659 105.82 17.7331C105.769 17.8071 105.706 17.8442 105.618 17.8442C105.53 17.8442 105.467 17.8071 105.417 17.7331C105.379 17.6405 105.354 17.5479 105.354 17.4553ZM105.845 22.3997H105.391V18.4923H105.845V22.3997Z" fill="white"/>
</svg>
