<svg width="200" height="45" viewBox="0 0 200 45" fill="none" xmlns="http://www.w3.org/2000/svg">
<path d="M15.4834 0C6.95425 0 -0.000244141 7.20079 -0.000244141 16.1079C-0.000244141 28.7008 15.4177 43 15.4177 43C15.4177 43 30.9998 28.7008 30.9998 16.1079C30.9998 7.20079 24.0453 0 15.4834 0ZM15.549 28.6325C8.56166 28.6325 3.4114 23.4111 3.4114 16.1762C3.4114 8.94127 8.49605 3.71984 15.5162 3.71984C21.4865 3.71984 26.3744 7.61032 27.3585 13.1048H20.7648C19.9447 11.1254 17.9109 9.82857 15.5818 9.82857C12.1373 9.82857 9.84103 12.4222 9.84103 16.2103C9.84103 19.9984 12.1045 22.5238 15.549 22.5238C17.9437 22.5238 20.0103 21.3294 20.732 19.4865H15.0569V15.3571H27.5553C27.5881 23.1381 22.7003 28.6325 15.549 28.6325Z" fill="#FF6900"/>
<path d="M51.9998 18.3164C51.9998 18.8507 51.9671 19.385 51.8689 19.9526H38.9189C39.3113 21.9895 40.5867 23.058 42.4834 23.058C43.8896 23.058 45.0669 22.4236 45.6555 21.3885H51.64C50.3973 25.4622 46.8655 28 42.4834 28C37.0221 28 32.9998 23.9262 32.9998 18.4834C32.9998 13.0072 37.0221 9.0002 42.4834 9.0002C48.1082 8.96681 51.9998 13.074 51.9998 18.3164ZM39.017 16.5467H46.0806C45.5574 14.7769 44.282 13.8086 42.4834 13.8086C40.7175 13.8086 39.5075 14.7769 39.017 16.5467Z" fill="#FF6900"/>
<path d="M66.9998 21.6333V27H62.7154C58.7347 27 56.3058 24.6 56.3058 20.6333V13.9333H52.9998V12.5L61.0961 4H62.3781V9.2H66.8985V13.9333H62.513V19.6C62.513 20.8667 63.2889 21.6333 64.6046 21.6333H66.9998Z" fill="#FF6900"/>
<path d="M96.9998 16.4273V28H90.9412V17.2218C90.9412 15.2873 90.2498 14.3545 88.9656 14.3545C87.2863 14.3545 86.4303 15.5636 86.4303 17.8782V28H80.5363V17.2218C80.5363 15.3564 79.8778 14.3545 78.5937 14.3545C76.9473 14.3545 76.0583 15.5982 76.0583 17.8782V28H69.9998V9.55273H74.2473L75.1034 11.5218C76.3876 9.96727 78.2315 9 80.24 9C82.3802 9 84.1912 10.0018 85.2778 11.7291C86.529 10.0709 88.5046 9 90.6778 9C94.4973 9 96.9998 12.0745 96.9998 16.4273Z" fill="#FF6900"/>
<path d="M119 9.50176V27.3979H114.259L113.724 26.1268C112.255 27.2975 110.419 28 108.349 28C102.906 28 98.9998 24.0194 98.9998 18.4665C98.9998 12.9137 102.906 9 108.349 9C110.452 9 112.322 9.70246 113.791 10.9067L114.425 9.53521L119 9.50176ZM113.157 18.4665C113.157 16.1585 111.454 14.3856 109.15 14.3856C106.846 14.3856 105.143 16.125 105.143 18.4665C105.143 20.8081 106.846 22.5475 109.15 22.5475C111.454 22.5475 113.157 20.8081 113.157 18.4665Z" fill="#FF6900"/>
<path d="M140 16.7586V28H134.076V17.6207C134.076 15.4828 133.335 14.4138 131.822 14.4138C129.987 14.4138 128.924 15.7931 128.924 18.1379V27.9655H123V9.55172H127.153L127.958 11.4483C129.246 9.93103 131.146 9 133.367 9C137.36 9 140 12.0345 140 16.7586Z" fill="#FF6900"/>
<path d="M152.63 28C147.048 28 143 23.993 143 18.4499C143 12.9402 147.015 9 152.663 9C157.56 9 161.249 12.1722 161.902 16.9139H156.058C155.568 15.4446 154.23 14.5097 152.663 14.5097C150.541 14.5097 149.039 16.1459 149.039 18.4833C149.039 20.8207 150.574 22.4903 152.663 22.4903C154.263 22.4903 155.568 21.4886 156.091 19.8858H162C161.282 24.7276 157.56 28 152.63 28Z" fill="#FF6900"/>
<path d="M184 9.50176V27.3979H179.259L178.724 26.1268C177.255 27.2975 175.419 28 173.349 28C167.906 28 164 24.0194 164 18.4665C164 12.9137 167.906 9 173.349 9C175.452 9 177.322 9.70246 178.791 10.9067L179.425 9.53521L184 9.50176ZM178.123 18.4665C178.123 16.1585 176.42 14.3856 174.117 14.3856C171.813 14.3856 170.11 16.125 170.11 18.4665C170.11 20.8081 171.813 22.5475 174.117 22.5475C176.42 22.5475 178.123 20.8081 178.123 18.4665Z" fill="#FF6900"/>
<path d="M200 9V14.6543H197.544C195.297 14.6543 194.363 15.6245 194.363 17.8996V27H188V9.10037H192.253L193.256 11.0743C194.57 9.60223 196.161 9 198.34 9H200V9Z" fill="#FF6900"/>
<path d="M66.9998 33.0877H64.1043V42H62.8952V33.0877H59.9998V32H66.9998V33.0877Z" fill="white"/>
<path d="M67.9998 43V35H70.7638C71.7076 35 72.4492 35.1896 72.9548 35.5687C73.4604 35.9479 73.7301 36.4787 73.7301 37.1991C73.7301 37.5782 73.629 37.9194 73.4267 38.1848C73.2245 38.4502 72.9211 38.7156 72.5503 38.8673C72.9885 38.981 73.3256 39.2085 73.5953 39.5498C73.8649 39.891 73.9998 40.2701 73.9998 40.7251C73.9998 41.4455 73.7638 42.0142 73.2919 42.4313C72.82 42.8483 72.1458 43 71.2694 43H67.9998V43ZM69.2132 38.3744H70.7975C71.9436 38.3744 72.5166 37.9953 72.5166 37.237C72.5166 36.4787 71.9773 36.0995 70.8986 36.0616H69.2469V38.3744H69.2132ZM69.2132 39.4739V41.9005H71.2357C71.7413 41.9005 72.1121 41.7867 72.3818 41.5972C72.6177 41.3697 72.7526 41.1043 72.7526 40.6872C72.7526 39.891 72.2469 39.4739 71.202 39.4739H69.2132Z" fill="white"/>
<path d="M74.9998 38.9087C74.9998 38.1416 75.1241 37.484 75.3728 36.863C75.6215 36.242 75.9635 35.8037 76.4298 35.4749C76.8961 35.1461 77.3935 35 77.9842 35C78.8858 35 79.6008 35.3653 80.1604 36.0959C80.72 36.8265 80.9998 37.7763 80.9998 38.9817V39.0913C80.9998 39.8584 80.8754 40.516 80.6267 41.1005C80.378 41.6849 80.036 42.1598 79.5697 42.4886C79.1034 42.8174 78.606 43 78.0153 43C77.1137 43 76.3987 42.6347 75.8391 41.9041C75.2795 41.1735 74.9998 40.2237 74.9998 39.0183V38.9087ZM76.15 39.0913C76.15 39.9315 76.3055 40.6256 76.6474 41.137C76.9894 41.6484 77.4246 41.9041 78.0153 41.9041C78.5749 41.9041 79.0412 41.6484 79.3832 41.1005C79.7251 40.589 79.8806 39.8219 79.8806 38.9087C79.8806 38.0685 79.6941 37.3744 79.3521 36.863C79.0101 36.3516 78.5438 36.0594 77.9842 36.0594C77.4246 36.0594 76.9894 36.3151 76.6474 36.8265C76.3055 37.3379 76.15 38.105 76.15 39.0913Z" fill="white"/>
<path d="M86.1841 41.9041C86.6199 41.9041 86.9886 41.758 87.3238 41.4658C87.659 41.1735 87.8266 40.8082 87.8601 40.4064H88.9998C88.9662 40.8447 88.8322 41.2831 88.564 41.6849C88.2958 42.0868 87.9607 42.4155 87.5249 42.6347C87.0891 42.8539 86.6534 43 86.1506 43C85.1785 43 84.4076 42.6347 83.8377 41.9406C83.2679 41.2466 82.9998 40.2603 82.9998 39.0548V38.8356C82.9998 38.0685 83.1338 37.411 83.3685 36.8265C83.6031 36.242 83.9718 35.8037 84.4746 35.4749C84.9774 35.1461 85.5137 35 86.1506 35C86.9551 35 87.5919 35.2557 88.1282 35.7671C88.6646 36.2785 88.9327 36.9726 88.9662 37.7763H87.8601C87.8266 37.2648 87.659 36.863 87.3238 36.5342C87.0221 36.2055 86.6199 36.0594 86.1841 36.0594C85.6143 36.0594 85.1785 36.2785 84.8433 36.6804C84.5081 37.1187 84.307 37.7032 84.2735 38.4338H86.9215V39.5297H84.2735C84.307 40.2968 84.5081 40.8813 84.8433 41.2831C85.1785 41.6849 85.6143 41.9041 86.1841 41.9041Z" fill="white"/>
<path d="M97.6894 42.8539C97.6204 42.7078 97.5515 42.4155 97.517 42.0502C96.9308 42.6712 96.2411 43 95.448 43C94.7239 43 94.1377 42.7808 93.6894 42.3425C93.2411 41.9041 92.9998 41.3562 92.9998 40.6986C92.9998 39.895 93.2756 39.274 93.8618 38.8356C94.448 38.3973 95.2411 38.1781 96.3101 38.1781H97.517V37.5571C97.517 37.0822 97.3791 36.7169 97.1377 36.4612C96.8618 36.2055 96.4825 36.0594 95.9998 36.0594C95.5515 36.0594 95.1722 36.169 94.8963 36.4247C94.586 36.6804 94.448 36.9361 94.448 37.3014H93.2066C93.2066 36.8995 93.3446 36.5342 93.586 36.169C93.8273 35.8037 94.2066 35.5114 94.6204 35.3288C95.0687 35.1096 95.5515 35 96.0687 35C96.8963 35 97.5515 35.2192 98.0342 35.6575C98.517 36.0959 98.7584 36.7169 98.7584 37.484V41.0274C98.7584 41.7215 98.8273 42.3059 98.9998 42.7078V42.8174H97.6894V42.8539ZM95.6204 41.8311C95.9997 41.8311 96.3791 41.7215 96.7239 41.5023C97.0687 41.2831 97.3446 41.0274 97.4825 40.6621V39.0913H96.517C94.9998 39.0913 94.2411 39.5662 94.2411 40.516C94.2411 40.9178 94.3791 41.2466 94.6204 41.5023C94.8618 41.7215 95.2066 41.8311 95.6204 41.8311Z" fill="white"/>
<path d="M101 42V35H103.764C104.708 35 105.449 35.1659 105.955 35.4976C106.46 35.8294 106.73 36.2938 106.73 36.9242C106.73 37.2559 106.629 37.5545 106.427 37.7867C106.224 38.019 105.921 38.2512 105.55 38.3839C105.989 38.4834 106.326 38.6825 106.595 38.981C106.865 39.2796 107 39.6114 107 40.0095C107 40.6398 106.764 41.1374 106.292 41.5024C105.82 41.8673 105.146 42 104.269 42H101V42ZM102.213 37.9526H103.798C104.944 37.9526 105.517 37.6209 105.517 36.9573C105.517 36.2938 104.977 35.9621 103.899 35.9289H102.247V37.9526H102.213ZM102.213 38.9147V41.0379H104.236C104.741 41.0379 105.112 40.9384 105.382 40.7725C105.618 40.5735 105.753 40.3412 105.753 39.9763C105.753 39.2796 105.247 38.9147 104.202 38.9147H102.213Z" fill="white"/>
<path d="M114 35.9621H111.593V42H110.373V35.9621H108V35H114V35.9621V35.9621Z" fill="white"/>
<path d="M114 38.9087C114 38.1416 114.124 37.484 114.373 36.863C114.622 36.242 114.963 35.8037 115.43 35.4749C115.896 35.1461 116.394 35 116.984 35C117.886 35 118.601 35.3653 119.16 36.0959C119.72 36.8265 120 37.7763 120 38.9817V39.0913C120 39.8584 119.875 40.516 119.627 41.1005C119.378 41.6849 119.036 42.1598 118.57 42.4886C118.103 42.8174 117.606 43 117.015 43C116.114 43 115.399 42.6347 114.839 41.9041C114.28 41.1735 114 40.2237 114 39.0183V38.9087ZM115.15 39.0913C115.15 39.9315 115.305 40.6256 115.647 41.137C115.989 41.6484 116.425 41.9041 117.015 41.9041C117.575 41.9041 118.041 41.6484 118.383 41.1005C118.725 40.5525 118.881 39.8219 118.881 38.9087C118.881 38.0685 118.725 37.3744 118.352 36.863C117.979 36.3516 117.544 36.0594 116.984 36.0594C116.425 36.0594 115.989 36.3151 115.647 36.8265C115.305 37.3379 115.15 38.105 115.15 39.0913Z" fill="white"/>
<path d="M125 43V35H127.764C128.708 35 129.449 35.1896 129.955 35.5687C130.46 35.9479 130.73 36.4787 130.73 37.1991C130.73 37.5782 130.629 37.9194 130.427 38.1848C130.224 38.4502 129.921 38.7156 129.55 38.8673C129.989 38.981 130.326 39.2085 130.595 39.5498C130.865 39.891 131 40.2701 131 40.7251C131 41.4455 130.764 42.0142 130.292 42.4313C129.82 42.8483 129.146 43 128.269 43H125V43ZM126.247 38.3744H127.831C128.977 38.3744 129.55 37.9953 129.55 37.237C129.55 36.4787 129.011 36.0995 127.932 36.0616H126.281V38.3744H126.247ZM126.247 39.4739V41.9005H128.269C128.775 41.9005 129.146 41.7867 129.415 41.5972C129.685 41.4076 129.786 41.1043 129.786 40.6872C129.786 39.891 129.281 39.4739 128.236 39.4739H126.247Z" fill="white"/>
<path d="M139.168 41.9041C139.606 41.9041 139.977 41.758 140.314 41.4658C140.651 41.1735 140.82 40.8082 140.854 40.4064H142C141.966 40.8447 141.831 41.2831 141.595 41.6849C141.359 42.0868 140.989 42.4155 140.55 42.6347C140.112 42.8539 139.674 43 139.168 43C138.191 43 137.415 42.6347 136.842 41.9406C136.269 41.2466 136 40.2968 136 39.0548V38.8356C136 38.0685 136.135 37.411 136.371 36.8265C136.606 36.242 136.977 35.8037 137.483 35.4749C137.989 35.1461 138.528 35 139.168 35C139.977 35 140.618 35.2557 141.157 35.7671C141.696 36.2785 141.966 36.9726 142 37.7763H140.854C140.82 37.2648 140.651 36.863 140.314 36.5342C139.977 36.2055 139.606 36.0594 139.168 36.0594C138.562 36.0594 138.056 36.3151 137.719 36.79C137.382 37.2648 137.213 37.9589 137.213 38.8721V39.1279C137.213 40.0046 137.382 40.6986 137.719 41.1735C138.056 41.6484 138.562 41.9041 139.168 41.9041Z" fill="white"/>
<path d="M147.034 41.1801L149.474 35H151V43H149.779V37.1611L147.474 43H146.593L144.22 37.0474V43H143V35H144.593L147.034 41.1801Z" fill="white"/>
<path d="M157.689 42.8539C157.62 42.7078 157.551 42.4155 157.517 42.0502C156.931 42.6712 156.241 43 155.448 43C154.724 43 154.138 42.7808 153.689 42.3425C153.241 41.9041 153 41.3562 153 40.6986C153 39.895 153.276 39.274 153.862 38.8356C154.448 38.3973 155.241 38.1781 156.31 38.1781H157.517V37.5571C157.517 37.0822 157.379 36.7169 157.138 36.4612C156.896 36.2055 156.483 36.0594 156 36.0594C155.551 36.0594 155.172 36.169 154.896 36.4247C154.62 36.6804 154.448 36.9361 154.448 37.3014H153.207C153.207 36.8995 153.345 36.5342 153.586 36.169C153.827 35.8037 154.207 35.5114 154.62 35.3288C155.034 35.1461 155.551 35 156.069 35C156.896 35 157.551 35.2192 158.034 35.6575C158.517 36.0959 158.758 36.7169 158.758 37.484V41.0274C158.758 41.7215 158.827 42.3059 159 42.7078V42.8174H157.689V42.8539ZM155.62 41.8311C156 41.8311 156.379 41.7215 156.724 41.5023C157.069 41.2831 157.345 41.0274 157.483 40.6621V39.0913H156.517C155 39.0913 154.241 39.5662 154.241 40.516C154.241 40.9178 154.379 41.2466 154.62 41.5023C154.862 41.758 155.207 41.8311 155.62 41.8311Z" fill="white"/>
<path d="M167 38.771C167 39.8485 166.765 40.7239 166.262 41.3973C165.76 42.0707 165.089 42.3737 164.251 42.3737C163.38 42.3737 162.709 42.1044 162.206 41.5657V45H161V35.1347H162.106L162.173 35.9091C162.676 35.303 163.346 35 164.218 35C165.056 35 165.726 35.3367 166.229 35.9764C166.732 36.6162 166.966 37.5253 166.966 38.67V38.771H167ZM165.793 38.6027C165.793 37.7946 165.625 37.1549 165.29 36.7172C164.955 36.2795 164.486 36.0101 163.882 36.0101C163.145 36.0101 162.609 36.3468 162.24 36.9865V40.3872C162.609 41.0269 163.145 41.3636 163.916 41.3636C164.486 41.3636 164.955 41.1279 165.29 40.6566C165.625 40.1852 165.793 39.5455 165.793 38.6027Z" fill="white"/>
<path d="M173 35.9621H170.593V42H169.373V35.9621H167V35H173V35.9621Z" fill="white"/>
<path d="M173 38.7218C173 37.5276 173.223 36.5722 173.669 35.8898C174.115 35.2073 174.689 34.8661 175.454 34.8661C175.805 34.8661 176.123 34.9344 176.378 35.0709V32H177.526V35.1391C177.813 34.9685 178.163 34.9003 178.546 34.9003C179.311 34.9003 179.916 35.2415 180.33 35.9239C180.745 36.6063 181 37.5958 181 38.8924C181 39.9501 180.777 40.8032 180.362 41.4173C179.916 42.0315 179.342 42.3727 178.577 42.3727C178.163 42.3727 177.844 42.3045 177.558 42.168V45H176.41V42.168C176.123 42.3045 175.836 42.3727 175.486 42.3727C174.721 42.3727 174.147 42.0656 173.701 41.4173C173.255 40.8032 173.064 39.9501 173.064 38.8583V38.7218H173ZM174.147 38.8583C174.147 39.6772 174.275 40.2913 174.561 40.7008C174.816 41.1102 175.231 41.315 175.741 41.315C175.996 41.315 176.187 41.2808 176.41 41.1785V35.958C176.251 35.8898 176.028 35.8556 175.773 35.8556C175.263 35.8556 174.88 36.0945 174.593 36.5722C174.307 37.0499 174.147 37.8346 174.147 38.8583ZM179.852 38.7218C179.852 37.8005 179.693 37.1181 179.406 36.6063C179.119 36.0945 178.705 35.8556 178.195 35.8556C177.94 35.8556 177.717 35.8898 177.526 35.9921V41.2126C177.717 41.2808 177.94 41.315 178.227 41.315C178.737 41.315 179.151 41.1102 179.438 40.6667C179.725 40.2572 179.852 39.6089 179.852 38.7218Z" fill="white"/>
<path d="M183 38.4201C183 37.7489 183.145 37.1735 183.435 36.6301C183.725 36.0868 184.124 35.7032 184.668 35.4155C185.212 35.1279 185.793 35 186.482 35C187.533 35 188.368 35.3196 189.02 35.9589C189.673 36.5982 190 37.4292 190 38.484V38.5799C190 39.2511 189.855 39.8265 189.565 40.3379C189.274 40.8493 188.875 41.2648 188.331 41.5525C187.787 41.8402 187.207 42 186.518 42C185.466 42 184.632 41.6804 183.979 41.0411C183.326 40.4018 183 39.5708 183 38.516V38.4201ZM184.305 38.5799C184.305 39.3151 184.487 39.9224 184.886 40.3699C185.285 40.8174 185.793 41.0411 186.482 41.0411C187.134 41.0411 187.679 40.8174 188.077 40.3379C188.476 39.8904 188.658 39.2192 188.658 38.4201C188.658 37.6849 188.476 37.0776 188.041 36.6301C187.642 36.1826 187.098 35.9269 186.445 35.9269C185.792 35.9269 185.285 36.1507 184.886 36.5982C184.487 37.0457 184.305 37.7169 184.305 38.5799Z" fill="white"/>
<path d="M197 42H195.722V39.0142H192.278V42H191V35H192.278V38.0521H195.722V35H197V42Z" fill="white"/>
<path d="M199 32.7292C199 32.5208 199.047 32.3472 199.119 32.2083C199.214 32.0694 199.333 32 199.5 32C199.666 32 199.785 32.0694 199.881 32.2083C199.976 32.3472 200 32.5208 200 32.7292C200 32.9375 199.952 33.1111 199.881 33.25C199.785 33.3889 199.666 33.4583 199.5 33.4583C199.333 33.4583 199.214 33.3889 199.119 33.25C199.047 33.0764 199 32.9028 199 32.7292ZM199.928 42H199.071V34.6736H199.928V42Z" fill="white"/>
</svg>
