<svg width="366" height="81" viewBox="0 0 366 81" fill="none" xmlns="http://www.w3.org/2000/svg">
<path d="M28.9693 0C13.0116 0 0 12.7153 0 28.4437C0 50.6804 28.8466 75.9301 28.8466 75.9301C28.8466 75.9301 58 50.6804 58 28.4437C58 12.7153 44.9884 0 28.9693 0ZM29.0921 50.5598C16.019 50.5598 6.38307 41.3397 6.38307 28.5642C6.38307 15.7886 15.8963 6.56856 29.0307 6.56856C40.2011 6.56856 49.346 13.4384 51.1873 23.1406H38.8508C37.3164 19.6454 33.5111 17.3555 29.1534 17.3555C22.709 17.3555 18.4127 21.9354 18.4127 28.6245C18.4127 35.3135 22.6476 39.7729 29.0921 39.7729C33.5725 39.7729 37.4392 37.6638 38.7894 34.4096H28.1714V27.1179H51.5556C51.6169 40.8576 42.472 50.5598 29.0921 50.5598Z" fill="#FF6900"/>
<path d="M95 32.8348C95 33.7808 94.9398 34.7267 94.759 35.7317H70.9036C71.6265 39.3381 73.9759 41.2299 77.4699 41.2299C80.0602 41.2299 82.2289 40.1067 83.3133 38.2739H94.3373C92.0482 45.4866 85.5422 49.9798 77.4699 49.9798C67.4096 49.9798 60 42.7671 60 33.1304C60 23.4347 67.4096 16.3402 77.4699 16.3402C87.8313 16.2811 95 23.5529 95 32.8348ZM71.0843 29.7014H84.0964C83.1325 26.5681 80.7831 24.8536 77.4699 24.8536C74.2169 24.8536 71.988 26.5681 71.0843 29.7014Z" fill="#FF6900"/>
<path d="M122 39.3751V49.0185H114.349C107.241 49.0185 102.904 44.7059 102.904 37.5782V25.5388H97V22.9632L111.458 7.68945H113.747V17.0334H121.819V25.5388H113.988V35.7213C113.988 37.9974 115.374 39.3751 117.723 39.3751H122Z" fill="#FF6900"/>
<path d="M178 29.1143V49.0186H166.78V30.4809C166.78 27.1536 165.5 25.5493 163.122 25.5493C160.012 25.5493 158.427 27.6289 158.427 31.6098V49.0186H147.512V30.4809C147.512 27.2724 146.293 25.5493 143.915 25.5493C140.866 25.5493 139.22 27.6883 139.22 31.6098V49.0186H128V17.2905H135.866L137.451 20.6772C139.829 18.0035 143.244 16.3398 146.963 16.3398C150.927 16.3398 154.28 18.0629 156.293 21.0337C158.61 18.1817 162.268 16.3398 166.293 16.3398C173.366 16.3398 178 21.6279 178 29.1143Z" fill="#FF6900"/>
<path d="M219 17.2282V48.9137H210.229L209.24 46.6632C206.523 48.7361 203.125 49.9798 199.295 49.9798C189.227 49.9798 182 42.932 182 33.1006C182 23.2692 189.227 16.3398 199.295 16.3398C203.187 16.3398 206.646 17.5836 209.364 19.7157L210.538 17.2874L219 17.2282ZM208.19 33.1006C208.19 29.014 205.04 25.8751 200.778 25.8751C196.516 25.8751 193.366 28.9548 193.366 33.1006C193.366 37.2464 196.516 40.3261 200.778 40.3261C205.04 40.3261 208.19 37.2464 208.19 33.1006Z" fill="#FF6900"/>
<path d="M258 29.6842V49.0186H246.848V31.1669C246.848 27.4898 245.455 25.6512 242.606 25.6512C239.152 25.6512 237.152 28.0236 237.152 32.0565V48.9593H226V17.2888H233.818L235.333 20.5507C237.758 17.9412 241.333 16.3398 245.515 16.3398C253.03 16.3398 258 21.559 258 29.6842Z" fill="#FF6900"/>
<path d="M280.741 49.9798C270.457 49.9798 263 42.8852 263 33.0711C263 23.3161 270.397 16.3398 280.801 16.3398C289.821 16.3398 296.617 21.9564 297.82 30.3516H287.055C286.153 27.7502 283.687 26.0948 280.801 26.0948C276.892 26.0948 274.125 28.9918 274.125 33.1303C274.125 37.2687 276.952 40.2248 280.801 40.2248C283.747 40.2248 286.153 38.4512 287.115 35.6133H298C296.677 44.1859 289.821 49.9798 280.741 49.9798Z" fill="#FF6900"/>
<path d="M338 17.2282V48.9137H329.229L328.24 46.6632C325.523 48.7361 322.125 49.9798 318.295 49.9798C308.227 49.9798 301 42.932 301 33.1006C301 23.2692 308.227 16.3398 318.295 16.3398C322.187 16.3398 325.646 17.5836 328.364 19.7157L329.538 17.2874L338 17.2282ZM327.129 33.1006C327.129 29.014 323.978 25.8751 319.716 25.8751C315.454 25.8751 312.304 28.9548 312.304 33.1006C312.304 37.2464 315.454 40.3261 319.716 40.3261C323.978 40.3261 327.129 37.2464 327.129 33.1006Z" fill="#FF6900"/>
<path d="M366 17.3008V27.2641H361.703C357.769 27.2641 356.135 28.9738 356.135 32.9827V49.0184H345V17.4776H352.444L354.199 20.956C356.499 18.362 359.282 17.3008 363.095 17.3008H366Z" fill="#FF6900"/>
<path d="M124.273 70.213H126.605C126.484 71.2886 126.164 72.2512 125.645 73.1008C125.127 73.9504 124.394 74.6246 123.447 75.1235C122.499 75.6145 121.317 75.86 119.9 75.86C118.863 75.86 117.92 75.6729 117.069 75.2988C116.227 74.9246 115.502 74.3946 114.895 73.7088C114.288 73.0151 113.818 72.185 113.486 71.2185C113.162 70.2442 113 69.1608 113 67.9682V66.2729C113 65.0804 113.162 64.0009 113.486 63.0344C113.818 62.0601 114.292 61.2261 114.907 60.5324C115.531 59.8387 116.28 59.3048 117.154 58.9307C118.029 58.5565 119.013 58.3695 120.106 58.3695C121.442 58.3695 122.572 58.6111 123.495 59.0943C124.418 59.5776 125.135 60.2479 125.645 61.1053C126.164 61.9549 126.484 62.9409 126.605 64.0632H124.273C124.159 63.2682 123.949 62.5862 123.641 62.0172C123.333 61.4404 122.896 60.9962 122.329 60.6844C121.762 60.3726 121.021 60.2167 120.106 60.2167C119.321 60.2167 118.628 60.3609 118.029 60.6493C117.438 60.9377 116.94 61.3469 116.535 61.8769C116.138 62.4069 115.838 63.0422 115.636 63.7826C115.434 64.5231 115.332 65.3454 115.332 66.2496V67.9682C115.332 68.8022 115.421 69.5855 115.6 70.3182C115.786 71.0509 116.065 71.6939 116.438 72.2473C116.81 72.8007 117.284 73.2372 117.859 73.5568C118.434 73.8685 119.114 74.0245 119.9 74.0245C120.896 74.0245 121.689 73.8724 122.281 73.5685C122.872 73.2645 123.317 72.828 123.617 72.259C123.925 71.69 124.143 71.008 124.273 70.213ZM136.961 73.4632V66.951C136.961 66.4522 136.856 66.0196 136.645 65.6533C136.443 65.2792 136.135 64.9908 135.722 64.7881C135.309 64.5855 134.799 64.4841 134.191 64.4841C133.624 64.4841 133.126 64.5777 132.697 64.7647C132.276 64.9518 131.944 65.1973 131.701 65.5013C131.466 65.8053 131.349 66.1326 131.349 66.4834H129.102C129.102 66.0313 129.223 65.5831 129.466 65.1389C129.709 64.6946 130.057 64.2932 130.511 63.9346C130.972 63.5683 131.523 63.2799 132.163 63.0695C132.81 62.8512 133.531 62.7421 134.325 62.7421C135.28 62.7421 136.123 62.898 136.852 63.2097C137.588 63.5215 138.163 63.9931 138.576 64.6244C138.998 65.248 139.208 66.0313 139.208 66.9744V72.867C139.208 73.2879 139.245 73.736 139.317 74.2116C139.398 74.6869 139.516 75.0961 139.67 75.4391V75.6262H137.325C137.212 75.3768 137.123 75.0455 137.058 74.6323C136.993 74.2116 136.961 73.8218 136.961 73.4632ZM137.35 67.9565L137.374 69.4764H135.102C134.463 69.4764 133.892 69.5271 133.39 69.6284C132.887 69.7219 132.466 69.8661 132.126 70.061C131.786 70.2559 131.527 70.5014 131.349 70.7976C131.171 71.086 131.081 71.425 131.081 71.8147C131.081 72.2122 131.175 72.5747 131.361 72.902C131.547 73.2294 131.827 73.4905 132.199 73.6854C132.58 73.8724 133.045 73.966 133.596 73.966C134.284 73.966 134.892 73.8257 135.418 73.5451C135.945 73.2645 136.362 72.9215 136.669 72.5162C136.985 72.1109 137.155 71.7173 137.18 71.3354L138.139 72.3759C138.082 72.7033 137.929 73.0657 137.678 73.4632C137.427 73.8607 137.091 74.2427 136.669 74.609C136.256 74.9675 135.762 75.2677 135.187 75.5092C134.621 75.7431 133.981 75.86 133.268 75.86C132.377 75.86 131.596 75.6924 130.924 75.3573C130.26 75.0221 129.741 74.574 129.369 74.0127C129.004 73.4437 128.822 72.8085 128.822 72.107C128.822 71.4289 128.96 70.8326 129.235 70.3182C129.51 69.796 129.907 69.3634 130.426 69.0205C130.944 68.6697 131.567 68.4047 132.296 68.2254C133.025 68.0461 133.839 67.9565 134.738 67.9565H137.35ZM144.742 64.9635V75.6262H142.494V62.9759H144.681L144.742 64.9635ZM148.847 62.9058L148.835 64.9167C148.649 64.8777 148.471 64.8544 148.301 64.8466C148.139 64.831 147.953 64.8232 147.742 64.8232C147.224 64.8232 146.766 64.9011 146.369 65.057C145.972 65.2129 145.636 65.4311 145.361 65.7117C145.086 65.9923 144.867 66.3275 144.705 66.7172C144.551 67.0991 144.45 67.52 144.401 67.9799L143.77 68.3307C143.77 67.5668 143.847 66.8497 144.001 66.1794C144.162 65.5091 144.409 64.9167 144.742 64.4023C145.073 63.8801 145.495 63.4748 146.005 63.1864C146.523 62.8902 147.138 62.7421 147.851 62.7421C148.013 62.7421 148.2 62.7616 148.41 62.8006C148.62 62.8317 148.766 62.8668 148.847 62.9058ZM159.039 62.9759V75.6262H156.78V62.9759H159.039ZM156.61 59.6205C156.61 59.2697 156.719 58.9735 156.938 58.7319C157.165 58.4903 157.497 58.3695 157.934 58.3695C158.363 58.3695 158.691 58.4903 158.918 58.7319C159.153 58.9735 159.27 59.2697 159.27 59.6205C159.27 59.9556 159.153 60.244 158.918 60.4856C158.691 60.7195 158.363 60.8364 157.934 60.8364C157.497 60.8364 157.165 60.7195 156.938 60.4856C156.719 60.244 156.61 59.9556 156.61 59.6205ZM164.646 65.6767V75.6262H162.398V62.9759H164.524L164.646 65.6767ZM164.111 68.8217L163.176 68.7866C163.184 67.9214 163.318 67.1225 163.577 66.3899C163.836 65.6494 164.2 65.0064 164.67 64.4608C165.14 63.9151 165.698 63.4943 166.346 63.1981C167.002 62.8941 167.727 62.7421 168.521 62.7421C169.168 62.7421 169.752 62.8278 170.27 62.9993C170.788 63.163 171.23 63.428 171.594 63.7943C171.966 64.1607 172.25 64.6361 172.444 65.2207C172.639 65.7975 172.736 66.5029 172.736 67.3369V75.6262H170.476V67.3135C170.476 66.651 170.375 66.1209 170.173 65.7234C169.97 65.3181 169.675 65.0258 169.286 64.8466C168.897 64.6595 168.419 64.566 167.853 64.566C167.294 64.566 166.784 64.679 166.322 64.905C165.868 65.1311 165.476 65.4428 165.144 65.8403C164.82 66.2379 164.565 66.6938 164.378 67.2083C164.2 67.7149 164.111 68.2527 164.111 68.8217ZM185.515 74.3168L189.172 62.9759H191.577L186.305 77.5786C186.183 77.8904 186.021 78.2257 185.819 78.5841C185.625 78.9505 185.373 79.2973 185.066 79.6247C184.758 79.952 184.386 80.217 183.948 80.4196C183.519 80.6302 183.005 80.7354 182.406 80.7354C182.227 80.7354 182.001 80.7119 181.725 80.6652C181.45 80.6184 181.256 80.5795 181.142 80.5482L181.13 78.7945C181.195 78.8024 181.296 78.8102 181.434 78.8179C181.58 78.8335 181.681 78.8414 181.737 78.8414C182.248 78.8414 182.681 78.775 183.037 78.6426C183.394 78.5179 183.693 78.3035 183.936 77.9996C184.187 77.7033 184.402 77.2942 184.58 76.7719L185.515 74.3168ZM182.831 62.9759L186.244 72.7968L186.827 75.0766L185.212 75.8718L180.377 62.9759H182.831ZM192.567 69.4413V69.1724C192.567 68.2605 192.705 67.4148 192.98 66.6354C193.255 65.8481 193.652 65.1661 194.17 64.5894C194.689 64.0048 195.316 63.5527 196.053 63.2331C196.79 62.9058 197.616 62.7421 198.531 62.7421C199.455 62.7421 200.285 62.9058 201.022 63.2331C201.767 63.5527 202.398 64.0048 202.917 64.5894C203.443 65.1661 203.844 65.8481 204.119 66.6354C204.394 67.4148 204.532 68.2605 204.532 69.1724V69.4413C204.532 70.3533 204.394 71.199 204.119 71.9784C203.844 72.7578 203.443 73.4398 202.917 74.0245C202.398 74.6012 201.771 75.0532 201.034 75.3806C200.305 75.7002 199.479 75.86 198.556 75.86C197.632 75.86 196.802 75.7002 196.065 75.3806C195.328 75.0532 194.697 74.6012 194.17 74.0245C193.652 73.4398 193.255 72.7578 192.98 71.9784C192.705 71.199 192.567 70.3533 192.567 69.4413ZM194.814 69.1724V69.4413C194.814 70.0727 194.891 70.669 195.045 71.2302C195.199 71.7836 195.43 72.2746 195.738 72.7033C196.053 73.132 196.446 73.471 196.916 73.7204C197.386 73.962 197.932 74.083 198.556 74.083C199.171 74.083 199.71 73.962 200.171 73.7204C200.641 73.471 201.03 73.132 201.337 72.7033C201.645 72.2746 201.876 71.7836 202.03 71.2302C202.192 70.669 202.273 70.0727 202.273 69.4413V69.1724C202.273 68.5489 202.192 67.9604 202.03 67.407C201.876 66.8458 201.641 66.3509 201.325 65.9222C201.017 65.4857 200.629 65.1428 200.159 64.8933C199.698 64.6439 199.155 64.5192 198.531 64.5192C197.916 64.5192 197.373 64.6439 196.904 64.8933C196.442 65.1428 196.053 65.4857 195.738 65.9222C195.43 66.3509 195.199 66.8458 195.045 67.407C194.891 67.9604 194.814 68.5489 194.814 69.1724ZM215.143 72.7033V62.9759H217.403V75.6262H215.252L215.143 72.7033ZM215.568 70.0376L216.504 70.0142C216.504 70.856 216.41 71.6355 216.224 72.3525C216.046 73.0618 215.755 73.6776 215.35 74.1998C214.945 74.7221 214.414 75.1312 213.758 75.4274C213.102 75.7158 212.305 75.86 211.365 75.86C210.725 75.86 210.138 75.7703 209.604 75.5911C209.078 75.4119 208.624 75.1351 208.243 74.7609C207.863 74.3869 207.567 73.8997 207.357 73.2996C207.154 72.6994 207.053 71.9784 207.053 71.1366V62.9759H209.3V71.16C209.3 71.729 209.365 72.2005 209.495 72.5747C209.632 72.941 209.814 73.2333 210.041 73.4515C210.276 73.662 210.535 73.8101 210.819 73.8958C211.11 73.9815 211.41 74.0245 211.718 74.0245C212.673 74.0245 213.43 73.8491 213.989 73.4983C214.548 73.1398 214.949 72.6604 215.192 72.0602C215.443 71.4523 215.568 70.7781 215.568 70.0376ZM222.827 64.9635V75.6262H220.579V62.9759H222.766L222.827 64.9635ZM226.932 62.9058L226.92 64.9167C226.734 64.8777 226.556 64.8544 226.386 64.8466C226.224 64.831 226.038 64.8232 225.827 64.8232C225.309 64.8232 224.851 64.9011 224.454 65.057C224.057 65.2129 223.721 65.4311 223.446 65.7117C223.171 65.9923 222.952 66.3275 222.79 66.7172C222.636 67.0991 222.535 67.52 222.486 67.9799L221.855 68.3307C221.855 67.5668 221.932 66.8497 222.086 66.1794C222.247 65.5091 222.494 64.9167 222.827 64.4023C223.159 63.8801 223.58 63.4748 224.09 63.1864C224.608 62.8902 225.224 62.7421 225.936 62.7421C226.098 62.7421 226.285 62.7616 226.495 62.8006C226.706 62.8317 226.851 62.8668 226.932 62.9058ZM242.336 72.2707C242.336 71.9589 242.263 71.6705 242.117 71.4055C241.979 71.1327 241.692 70.8872 241.255 70.6689C240.825 70.4429 240.178 70.2481 239.311 70.0844C238.582 69.9363 237.922 69.7609 237.331 69.5583C236.748 69.3556 236.25 69.1101 235.837 68.8217C235.432 68.5333 235.12 68.1942 234.902 67.8045C234.683 67.4148 234.573 66.9588 234.573 66.4366C234.573 65.9378 234.687 65.4662 234.914 65.0219C235.149 64.5777 235.477 64.1841 235.898 63.8411C236.327 63.4981 236.841 63.2292 237.44 63.0344C238.039 62.8395 238.708 62.7421 239.445 62.7421C240.497 62.7421 241.396 62.9214 242.141 63.2799C242.886 63.6385 243.457 64.1178 243.854 64.718C244.251 65.3103 244.449 65.969 244.449 66.6938H242.202C242.202 66.3431 242.093 66.004 241.874 65.6767C241.663 65.3415 241.352 65.0648 240.939 64.8466C240.534 64.6283 240.036 64.5192 239.445 64.5192C238.821 64.5192 238.315 64.6127 237.926 64.7998C237.545 64.9791 237.266 65.209 237.088 65.4896C236.918 65.7702 236.833 66.0664 236.833 66.3782C236.833 66.612 236.873 66.8224 236.954 67.0095C237.043 67.1888 237.197 67.3563 237.416 67.5122C237.635 67.6603 237.942 67.8006 238.339 67.9331C238.736 68.0656 239.242 68.1981 239.858 68.3307C240.935 68.5645 241.821 68.8451 242.518 69.1724C243.214 69.4998 243.733 69.9012 244.073 70.3767C244.413 70.8521 244.583 71.4289 244.583 72.107C244.583 72.6604 244.462 73.167 244.218 73.6269C243.984 74.0867 243.639 74.4844 243.186 74.8194C242.74 75.1468 242.206 75.404 241.583 75.5911C240.967 75.7703 240.275 75.86 239.505 75.86C238.347 75.86 237.367 75.6612 236.566 75.2638C235.764 74.8663 235.157 74.3518 234.744 73.7204C234.331 73.0891 234.124 72.4227 234.124 71.7212H236.384C236.416 72.3136 236.594 72.7851 236.918 73.1359C237.242 73.4788 237.639 73.7243 238.108 73.8724C238.578 74.0127 239.044 74.083 239.505 74.083C240.121 74.083 240.635 74.005 241.048 73.8491C241.469 73.6932 241.789 73.4788 242.008 73.206C242.226 72.9332 242.336 72.6214 242.336 72.2707ZM249.521 65.4896V75.6262H247.262V62.9759H249.4L249.521 65.4896ZM249.059 68.8217L248.015 68.7866C248.023 67.9214 248.14 67.1225 248.367 66.3899C248.594 65.6494 248.93 65.0064 249.375 64.4608C249.821 63.9151 250.375 63.4943 251.04 63.1981C251.704 62.8941 252.473 62.7421 253.347 62.7421C253.963 62.7421 254.53 62.8278 255.048 62.9993C255.566 63.163 256.016 63.4241 256.396 63.7826C256.777 64.1412 257.073 64.601 257.283 65.1622C257.494 65.7234 257.599 66.4016 257.599 67.1966V75.6262H255.352V67.3018C255.352 66.6393 255.234 66.1093 255 65.7117C254.773 65.3142 254.449 65.0258 254.028 64.8466C253.607 64.6595 253.113 64.566 252.546 64.566C251.882 64.566 251.327 64.679 250.882 64.905C250.436 65.1311 250.08 65.4428 249.813 65.8403C249.545 66.2379 249.351 66.6938 249.23 67.2083C249.116 67.7149 249.059 68.2527 249.059 68.8217ZM257.575 67.6292L256.068 68.0734C256.077 67.3797 256.194 66.7133 256.421 66.0742C256.656 65.435 256.992 64.8661 257.429 64.3672C257.874 63.8684 258.421 63.4748 259.069 63.1864C259.717 62.8902 260.458 62.7421 261.292 62.7421C261.996 62.7421 262.62 62.8317 263.162 63.011C263.713 63.1903 264.175 63.467 264.547 63.8411C264.928 64.2074 265.215 64.679 265.41 65.2558C265.604 65.8326 265.701 66.5185 265.701 67.3135V75.6262H263.442V67.2901C263.442 66.5808 263.325 66.0313 263.09 65.6416C262.863 65.2441 262.539 64.9674 262.118 64.8115C261.705 64.6478 261.211 64.566 260.636 64.566C260.142 64.566 259.705 64.6478 259.324 64.8115C258.943 64.9752 258.624 65.2012 258.364 65.4896C258.105 65.7702 257.907 66.0937 257.769 66.46C257.64 66.8263 257.575 67.2161 257.575 67.6292ZM276.604 73.4632V66.951C276.604 66.4522 276.499 66.0196 276.288 65.6533C276.086 65.2792 275.778 64.9908 275.365 64.7881C274.952 64.5855 274.442 64.4841 273.834 64.4841C273.267 64.4841 272.769 64.5777 272.34 64.7647C271.919 64.9518 271.587 65.1973 271.344 65.5013C271.109 65.8053 270.992 66.1326 270.992 66.4834H268.744C268.744 66.0313 268.866 65.5831 269.109 65.1389C269.352 64.6946 269.7 64.2932 270.154 63.9346C270.615 63.5683 271.166 63.2799 271.806 63.0695C272.453 62.8512 273.174 62.7421 273.968 62.7421C274.923 62.7421 275.766 62.898 276.494 63.2097C277.231 63.5215 277.806 63.9931 278.219 64.6244C278.641 65.248 278.851 66.0313 278.851 66.9744V72.867C278.851 73.2879 278.888 73.736 278.96 74.2116C279.041 74.6869 279.159 75.0961 279.313 75.4391V75.6262H276.968C276.855 75.3768 276.766 75.0455 276.701 74.6323C276.636 74.2116 276.604 73.8218 276.604 73.4632ZM276.993 67.9565L277.017 69.4764H274.745C274.105 69.4764 273.535 69.5271 273.033 69.6284C272.53 69.7219 272.109 69.8661 271.769 70.061C271.429 70.2559 271.17 70.5014 270.992 70.7976C270.814 71.086 270.724 71.425 270.724 71.8147C270.724 72.2122 270.818 72.5747 271.004 72.902C271.19 73.2294 271.469 73.4905 271.842 73.6854C272.223 73.8724 272.688 73.966 273.239 73.966C273.927 73.966 274.535 73.8257 275.061 73.5451C275.587 73.2645 276.005 72.9215 276.312 72.5162C276.628 72.1109 276.798 71.7173 276.822 71.3354L277.782 72.3759C277.725 72.7033 277.571 73.0657 277.321 73.4632C277.069 73.8607 276.733 74.2427 276.312 74.609C275.899 74.9675 275.405 75.2677 274.83 75.5092C274.263 75.7431 273.624 75.86 272.911 75.86C272.02 75.86 271.239 75.6924 270.567 75.3573C269.903 75.0221 269.384 74.574 269.012 74.0127C268.647 73.4437 268.465 72.8085 268.465 72.107C268.465 71.4289 268.603 70.8326 268.878 70.3182C269.153 69.796 269.55 69.3634 270.069 69.0205C270.587 68.6697 271.21 68.4047 271.939 68.2254C272.668 68.0461 273.482 67.9565 274.381 67.9565H276.993ZM284.384 64.9635V75.6262H282.137V62.9759H284.324L284.384 64.9635ZM288.49 62.9058L288.478 64.9167C288.292 64.8777 288.114 64.8544 287.944 64.8466C287.782 64.831 287.595 64.8232 287.385 64.8232C286.867 64.8232 286.409 64.9011 286.012 65.057C285.615 65.2129 285.279 65.4311 285.004 65.7117C284.729 65.9923 284.51 66.3275 284.348 66.7172C284.194 67.0991 284.093 67.52 284.044 67.9799L283.413 68.3307C283.413 67.5668 283.49 66.8497 283.643 66.1794C283.805 65.5091 284.052 64.9167 284.384 64.4023C284.716 63.8801 285.138 63.4748 285.648 63.1864C286.166 62.8902 286.781 62.7421 287.494 62.7421C287.656 62.7421 287.842 62.7616 288.053 62.8006C288.263 62.8317 288.409 62.8668 288.49 62.9058ZM296.428 62.9759V64.6361H289.322V62.9759H296.428ZM291.728 59.901H293.974V72.4928C293.974 72.9215 294.044 73.245 294.182 73.4632C294.319 73.6815 294.497 73.8257 294.715 73.8958C294.934 73.966 295.169 74.001 295.421 74.001C295.607 74.001 295.801 73.9855 296.004 73.9543C296.213 73.9153 296.372 73.8841 296.478 73.8607L296.489 75.6262C296.311 75.6807 296.077 75.7313 295.785 75.7782C295.501 75.8328 295.158 75.86 294.753 75.86C294.202 75.86 293.695 75.7548 293.233 75.5442C292.773 75.3339 292.404 74.9831 292.128 74.4921C291.862 73.9932 291.728 73.3229 291.728 72.4811V59.901ZM301.063 65.4078V80.4899H298.804V62.9759H300.869L301.063 65.4078ZM309.919 69.1958V69.4413C309.919 70.3611 309.806 71.2146 309.578 72.0018C309.352 72.7812 309.02 73.4593 308.583 74.0361C308.153 74.613 307.623 75.0611 306.991 75.3806C306.36 75.7002 305.635 75.86 304.818 75.86C303.982 75.86 303.245 75.7274 302.605 75.4625C301.966 75.1974 301.424 74.8117 300.978 74.305C300.533 73.7984 300.176 73.1904 299.91 72.4811C299.65 71.7719 299.472 70.9729 299.375 70.0844V68.7749C299.472 67.8396 299.654 67.0017 299.922 66.2612C300.189 65.5208 300.54 64.8894 300.978 64.3672C301.424 63.8372 301.962 63.4358 302.595 63.163C303.225 62.8824 303.954 62.7421 304.78 62.7421C305.607 62.7421 306.339 62.898 306.978 63.2097C307.618 63.5137 308.157 63.9502 308.594 64.5192C309.033 65.0882 309.36 65.7702 309.578 66.5652C309.806 67.3524 309.919 68.2293 309.919 69.1958ZM307.659 69.4413V69.1958C307.659 68.5645 307.59 67.9721 307.453 67.4187C307.314 66.8575 307.101 66.3665 306.81 65.9456C306.525 65.5169 306.161 65.1817 305.715 64.9401C305.271 64.6907 304.739 64.566 304.125 64.566C303.558 64.566 303.064 64.6595 302.643 64.8466C302.229 65.0336 301.877 65.2869 301.585 65.6065C301.294 65.9183 301.056 66.2768 300.869 66.6821C300.691 67.0797 300.556 67.4928 300.468 67.9214V70.9495C300.629 71.4952 300.857 72.0096 301.148 72.4928C301.44 72.9683 301.829 73.3541 302.314 73.6503C302.801 73.9386 303.412 74.083 304.149 74.083C304.755 74.083 305.278 73.962 305.715 73.7204C306.161 73.471 306.525 73.132 306.81 72.7033C307.101 72.2746 307.314 71.7836 307.453 71.2302C307.59 70.669 307.659 70.0727 307.659 69.4413ZM314.785 57.668V75.6262H312.537V57.668H314.785ZM314.25 68.8217L313.313 68.7866C313.322 67.9214 313.456 67.1225 313.715 66.3899C313.974 65.6494 314.339 65.0064 314.808 64.4608C315.279 63.9151 315.837 63.4943 316.485 63.1981C317.141 62.8941 317.866 62.7421 318.659 62.7421C319.307 62.7421 319.89 62.8278 320.409 62.9993C320.926 63.163 321.368 63.428 321.733 63.7943C322.104 64.1607 322.388 64.6361 322.582 65.2207C322.778 65.7975 322.874 66.5029 322.874 67.3369V75.6262H320.615V67.3135C320.615 66.651 320.514 66.1209 320.311 65.7234C320.109 65.3181 319.814 65.0258 319.424 64.8466C319.035 64.6595 318.557 64.566 317.99 64.566C317.432 64.566 316.922 64.679 316.46 64.905C316.007 65.1311 315.615 65.4428 315.282 65.8403C314.959 66.2379 314.703 66.6938 314.516 67.2083C314.339 67.7149 314.25 68.2527 314.25 68.8217ZM325.395 69.4413V69.1724C325.395 68.2605 325.532 67.4148 325.807 66.6354C326.083 65.8481 326.481 65.1661 326.998 64.5894C327.517 64.0048 328.144 63.5527 328.882 63.2331C329.617 62.9058 330.443 62.7421 331.359 62.7421C332.283 62.7421 333.112 62.9058 333.85 63.2331C334.594 63.5527 335.225 64.0048 335.744 64.5894C336.27 65.1661 336.672 65.8481 336.947 66.6354C337.223 67.4148 337.359 68.2605 337.359 69.1724V69.4413C337.359 70.3533 337.223 71.199 336.947 71.9784C336.672 72.7578 336.27 73.4398 335.744 74.0245C335.225 74.6012 334.598 75.0532 333.862 75.3806C333.132 75.7002 332.308 75.86 331.383 75.86C330.459 75.86 329.63 75.7002 328.894 75.3806C328.156 75.0532 327.524 74.6012 326.998 74.0245C326.481 73.4398 326.083 72.7578 325.807 71.9784C325.532 71.199 325.395 70.3533 325.395 69.4413ZM327.643 69.1724V69.4413C327.643 70.0727 327.719 70.669 327.872 71.2302C328.027 71.7836 328.258 72.2746 328.565 72.7033C328.882 73.132 329.274 73.471 329.743 73.7204C330.212 73.962 330.76 74.083 331.383 74.083C331.998 74.083 332.537 73.962 332.999 73.7204C333.468 73.471 333.857 73.132 334.164 72.7033C334.474 72.2746 334.703 71.7836 334.857 71.2302C335.019 70.669 335.101 70.0727 335.101 69.4413V69.1724C335.101 68.5489 335.019 67.9604 334.857 67.407C334.703 66.8458 334.468 66.3509 334.154 65.9222C333.845 65.4857 333.457 65.1428 332.986 64.8933C332.526 64.6439 331.982 64.5192 331.359 64.5192C330.744 64.5192 330.202 64.6439 329.731 64.8933C329.271 65.1428 328.882 65.4857 328.565 65.9222C328.258 66.3509 328.027 66.8458 327.872 67.407C327.719 67.9604 327.643 68.5489 327.643 69.1724ZM342.177 65.6767V75.6262H339.929V62.9759H342.054L342.177 65.6767ZM341.642 68.8217L340.707 68.7866C340.714 67.9214 340.848 67.1225 341.107 66.3899C341.367 65.6494 341.731 65.0064 342.202 64.4608C342.671 63.9151 343.229 63.4943 343.877 63.1981C344.533 62.8941 345.258 62.7421 346.052 62.7421C346.699 62.7421 347.282 62.8278 347.801 62.9993C348.32 63.163 348.761 63.428 349.125 63.7943C349.498 64.1607 349.781 64.6361 349.976 65.2207C350.17 65.7975 350.267 66.5029 350.267 67.3369V75.6262H348.007V67.3135C348.007 66.651 347.906 66.1209 347.703 65.7234C347.501 65.3181 347.206 65.0258 346.817 64.8466C346.427 64.6595 345.951 64.566 345.384 64.566C344.825 64.566 344.315 64.679 343.853 64.905C343.399 65.1311 343.007 65.4428 342.674 65.8403C342.351 66.2379 342.095 66.6938 341.909 67.2083C341.731 67.7149 341.642 68.2527 341.642 68.8217ZM358.886 75.86C357.971 75.86 357.141 75.7118 356.395 75.4158C355.659 75.1117 355.023 74.6869 354.488 74.1413C353.962 73.5957 353.557 72.9488 353.274 72.2005C352.99 71.4523 352.848 70.6339 352.848 69.7453V69.2543C352.848 68.2254 353.006 67.3096 353.322 66.5068C353.638 65.6962 354.067 65.0103 354.61 64.4491C355.152 63.8879 355.767 63.4631 356.457 63.1747C357.144 62.8863 357.857 62.7421 358.594 62.7421C359.533 62.7421 360.343 62.898 361.024 63.2097C361.711 63.5215 362.275 63.958 362.712 64.5192C363.149 65.0726 363.474 65.7273 363.684 66.4834C363.893 67.2316 364 68.05 364 68.9386V69.909H354.184V68.1436H361.752V67.9799C361.72 67.4187 361.599 66.8731 361.388 66.3431C361.185 65.8131 360.862 65.3766 360.416 65.0336C359.97 64.6907 359.364 64.5192 358.594 64.5192C358.084 64.5192 357.614 64.6244 357.185 64.8349C356.755 65.0375 356.387 65.3415 356.08 65.7468C355.773 66.1521 355.533 66.6471 355.362 67.2316C355.193 67.8162 355.108 68.4904 355.108 69.2543V69.7453C355.108 70.3455 355.193 70.9106 355.362 71.4406C355.542 71.9628 355.796 72.4227 356.128 72.8202C356.467 73.2177 356.878 73.5295 357.354 73.7555C357.841 73.9815 358.392 74.0946 359.007 74.0946C359.801 74.0946 360.473 73.9386 361.024 73.6269C361.574 73.3151 362.056 72.8981 362.468 72.3759L363.829 73.4165C363.547 73.8296 363.186 74.2232 362.749 74.5972C362.312 74.9715 361.772 75.2754 361.132 75.5092C360.501 75.7431 359.751 75.86 358.886 75.86Z" fill="white"/>
</svg>
