<svg width="200" height="44" viewBox="0 0 200 44" fill="none" xmlns="http://www.w3.org/2000/svg">
<path d="M15.7075 0C7.05504 0 0 6.96013 0 15.5696C0 27.7416 15.6409 41.5629 15.6409 41.5629C15.6409 41.5629 31.4482 27.7416 31.4482 15.5696C31.4482 6.96013 24.3931 0 15.7075 0ZM15.774 27.6756C8.68569 27.6756 3.46096 22.6287 3.46096 15.6356C3.46096 8.64244 8.61913 3.59552 15.7407 3.59552C21.7974 3.59552 26.7559 7.35597 27.7543 12.6668H21.0653C20.2333 10.7536 18.1701 9.50009 15.8073 9.50009C12.313 9.50009 9.98355 12.0071 9.98355 15.6685C9.98355 19.33 12.2798 21.771 15.774 21.771C18.2033 21.771 20.2999 20.6165 21.032 18.8352H15.2748V14.8439H27.9539C27.9872 22.3648 23.0287 27.6756 15.774 27.6756Z" fill="#FF6900"/>
<path d="M52.2478 18.0755C52.2478 18.6033 52.2145 19.131 52.1147 19.6918H38.9364C39.3357 21.704 40.6336 22.7595 42.5637 22.7595C43.9947 22.7595 45.1927 22.1328 45.7917 21.1102H51.8817C50.6171 25.1346 47.023 27.6415 42.5637 27.6415C37.0062 27.6415 32.913 23.6172 32.913 18.2404C32.913 12.8306 37.0062 8.87227 42.5637 8.87227C48.2876 8.83928 52.2478 12.8966 52.2478 18.0755ZM39.0362 16.3272H46.2244C45.6919 14.5789 44.394 13.6223 42.5637 13.6223C40.7667 13.6223 39.5354 14.5789 39.0362 16.3272Z" fill="#FF6900"/>
<path d="M66.7905 21.7345V27.0453H62.5641C58.6373 27.0453 56.2412 24.6703 56.2412 20.7449V14.1146H52.9799V12.6962L60.9668 4.28467H62.2313V9.43055H66.6907V14.1146H62.3645V19.7223C62.3645 20.9758 63.1299 21.7345 64.4277 21.7345H66.7905Z" fill="#FF6900"/>
<path d="M96.9412 15.9959V27.0463H90.8179V16.7546C90.8179 14.9073 90.1191 14.0167 88.8212 14.0167C87.124 14.0167 86.2588 15.1712 86.2588 17.3813V27.0463H80.3019V16.7546C80.3019 14.9733 79.6364 14.0167 78.3385 14.0167C76.6746 14.0167 75.776 15.2042 75.776 17.3813V27.0463H69.6528V9.43159H73.9457L74.811 11.3118C76.1088 9.82743 77.9724 8.90381 80.0024 8.90381C82.1655 8.90381 83.9958 9.86041 85.094 11.5097C86.3586 9.92639 88.3553 8.90381 90.5517 8.90381C94.412 8.90381 96.9412 11.8396 96.9412 15.9959Z" fill="#FF6900"/>
<path d="M119.504 9.3986V27.0463H114.778L114.246 25.7929C112.781 26.9474 110.951 27.6401 108.888 27.6401C103.463 27.6401 99.5697 23.7147 99.5697 18.239C99.5697 12.7632 103.463 8.90381 108.888 8.90381C110.984 8.90381 112.848 9.59652 114.312 10.784L114.944 9.43159L119.504 9.3986ZM113.68 18.239C113.68 15.9629 111.983 14.2146 109.686 14.2146C107.39 14.2146 105.693 15.9299 105.693 18.239C105.693 20.548 107.39 22.2633 109.686 22.2633C111.983 22.2633 113.68 20.548 113.68 18.239Z" fill="#FF6900"/>
<path d="M140.969 16.3258V27.0793H134.846V17.1504C134.846 15.1053 134.08 14.0827 132.516 14.0827C130.619 14.0827 129.521 15.4021 129.521 17.6452V27.0463H123.398V9.43159H127.691L128.523 11.2458C129.854 9.79444 131.817 8.90381 134.114 8.90381C138.24 8.90381 140.969 11.8066 140.969 16.3258Z" fill="#FF6900"/>
<path d="M153.416 27.6413C147.725 27.6413 143.599 23.683 143.599 18.2072C143.599 12.7645 147.692 8.87207 153.449 8.87207C158.441 8.87207 162.201 12.0058 162.867 16.6899H156.91C156.411 15.2385 155.047 14.3148 153.449 14.3148C151.286 14.3148 149.755 15.9312 149.755 18.2402C149.755 20.5493 151.319 22.1986 153.449 22.1986C155.08 22.1986 156.411 21.209 156.943 19.6256H162.967C162.235 24.4087 158.441 27.6413 153.416 27.6413Z" fill="#FF6900"/>
<path d="M184.53 9.3986V27.0463H179.804L179.272 25.7929C177.807 26.9474 175.977 27.6401 173.914 27.6401C168.489 27.6401 164.596 23.7147 164.596 18.239C164.596 12.7632 168.489 8.90381 173.914 8.90381C176.01 8.90381 177.874 9.59652 179.338 10.784L179.97 9.43159L184.53 9.3986ZM178.673 18.239C178.673 15.9629 176.975 14.2146 174.679 14.2146C172.383 14.2146 170.686 15.9299 170.686 18.239C170.686 20.548 172.383 22.2633 174.679 22.2633C176.975 22.2633 178.673 20.548 178.673 18.239Z" fill="#FF6900"/>
<path d="M199.977 9.33984V14.9145H197.614C195.451 14.9145 194.552 15.8712 194.552 18.1142V27.0865H188.429V9.4388H192.522L193.487 11.385C194.752 9.9336 196.283 9.33984 198.379 9.33984H199.977Z" fill="#FF6900"/>
<g clip-path="url(#clip0_680_6414)">
<path d="M60.459 32.2598V41.2812H59.2465V32.2598H60.459ZM63.4453 32.2598V33.2388H56.2665V32.2598H63.4453ZM67.4048 38.3319H65.1394L65.1267 37.4149H66.9772C67.3431 37.4149 67.6473 37.3798 67.8897 37.3096C68.1365 37.2393 68.3216 37.134 68.4449 36.9935C68.5683 36.8531 68.63 36.6796 68.63 36.4731C68.63 36.312 68.5938 36.1715 68.5215 36.0518C68.4534 35.9278 68.3492 35.8266 68.2088 35.7482C68.0684 35.6655 67.894 35.6057 67.6855 35.5685C67.4814 35.5272 67.241 35.5065 66.9645 35.5065H65.4521V41.2812H64.2716V34.5771H66.9645C67.4027 34.5771 67.7962 34.6143 68.145 34.6886C68.4981 34.763 68.798 34.8766 69.0447 35.0294C69.2957 35.1781 69.4872 35.3681 69.6191 35.5995C69.7509 35.8308 69.8169 36.1034 69.8169 36.4173C69.8169 36.6197 69.7743 36.8118 69.6892 36.9935C69.6042 37.1753 69.4787 37.3364 69.3128 37.4768C69.1468 37.6173 68.9426 37.7329 68.7002 37.8238C68.4577 37.9106 68.179 37.9663 67.8642 37.9911L67.4048 38.3319ZM67.4048 41.2812H64.7119L65.299 40.3518H67.4048C67.7323 40.3518 68.0046 40.3125 68.2216 40.234C68.4385 40.1514 68.6002 40.0358 68.7065 39.8871C68.8172 39.7342 68.8724 39.5525 68.8724 39.3418C68.8724 39.1312 68.8172 38.9515 68.7065 38.8028C68.6002 38.6499 68.4385 38.5343 68.2216 38.4558C68.0046 38.3732 67.7323 38.3319 67.4048 38.3319H65.6117L65.6244 37.4149H67.8642L68.2918 37.7619C68.6704 37.7908 68.9916 37.8816 69.2553 38.0345C69.5191 38.1873 69.719 38.3814 69.8552 38.6169C69.9913 38.8482 70.0594 39.1002 70.0594 39.3728C70.0594 39.6867 69.9977 39.9635 69.8743 40.2031C69.7552 40.4426 69.5808 40.643 69.351 40.8041C69.1213 40.961 68.8427 41.0808 68.5151 41.1634C68.1875 41.2419 67.8174 41.2812 67.4048 41.2812ZM71.4599 38.0035V37.861C71.4599 37.3777 71.5322 36.9295 71.6769 36.5165C71.8215 36.0993 72.03 35.7378 72.3022 35.4322C72.5745 35.1224 72.9042 34.8828 73.2913 34.7134C73.6785 34.54 74.1124 34.4532 74.5931 34.4532C75.0781 34.4532 75.5141 34.54 75.9012 34.7134C76.2926 34.8828 76.6245 35.1224 76.8967 35.4322C77.1732 35.7378 77.3838 36.0993 77.5285 36.5165C77.6731 36.9295 77.7454 37.3777 77.7454 37.861V38.0035C77.7454 38.4868 77.6731 38.9349 77.5285 39.348C77.3838 39.7611 77.1732 40.1225 76.8967 40.4323C76.6245 40.738 76.2947 40.9776 75.9076 41.151C75.5247 41.3204 75.0908 41.4051 74.6058 41.4051C74.1209 41.4051 73.6848 41.3204 73.2977 41.151C72.9106 40.9776 72.5787 40.738 72.3022 40.4323C72.03 40.1225 71.8215 39.7611 71.6769 39.348C71.5322 38.9349 71.4599 38.4868 71.4599 38.0035ZM72.6404 37.861V38.0035C72.6404 38.3381 72.6808 38.6541 72.7617 38.9515C72.8425 39.2447 72.9638 39.505 73.1254 39.7322C73.2913 39.9594 73.4976 40.139 73.7444 40.2712C73.9911 40.3993 74.2783 40.4633 74.6058 40.4633C74.9292 40.4633 75.2121 40.3993 75.4546 40.2712C75.7013 40.139 75.9055 39.9594 76.0672 39.7322C76.2288 39.505 76.3501 39.2447 76.4309 38.9515C76.516 38.6541 76.5585 38.3381 76.5585 38.0035V37.861C76.5585 37.5305 76.516 37.2187 76.4309 36.9254C76.3501 36.628 76.2267 36.3657 76.0608 36.1385C75.8991 35.9072 75.6949 35.7255 75.4482 35.5933C75.2057 35.4611 74.9207 35.395 74.5931 35.395C74.2698 35.395 73.9848 35.4611 73.738 35.5933C73.4955 35.7255 73.2913 35.9072 73.1254 36.1385C72.9638 36.3657 72.8425 36.628 72.7617 36.9254C72.6808 37.2187 72.6404 37.5305 72.6404 37.861ZM82.2217 41.4051C81.7409 41.4051 81.305 41.3266 80.9136 41.1696C80.5265 41.0085 80.1925 40.7834 79.9118 40.4943C79.6352 40.2051 79.4225 39.8623 79.2736 39.4657C79.1247 39.0692 79.0502 38.6355 79.0502 38.1646V37.9044C79.0502 37.3591 79.1332 36.8738 79.2991 36.4483C79.465 36.0187 79.6905 35.6552 79.9755 35.3578C80.2607 35.0604 80.5839 34.8353 80.9454 34.6825C81.3071 34.5296 81.6814 34.4532 82.0686 34.4532C82.5622 34.4532 82.9874 34.5358 83.3449 34.701C83.7064 34.8663 84.0021 35.0976 84.2317 35.395C84.4616 35.6883 84.6317 36.0353 84.7423 36.4359C84.8529 36.8325 84.9082 37.2662 84.9082 37.7371V38.2513H79.7522V37.3157H83.7276V37.229C83.7106 36.9316 83.6469 36.6424 83.5363 36.3616C83.4298 36.0807 83.2597 35.8494 83.0256 35.6676C82.7918 35.4859 82.4728 35.395 82.0686 35.395C81.8004 35.395 81.5538 35.4508 81.3283 35.5623C81.1029 35.6697 80.9092 35.8308 80.7477 36.0456C80.586 36.2604 80.4604 36.5227 80.3711 36.8325C80.2819 37.1423 80.2371 37.4996 80.2371 37.9044V38.1646C80.2371 38.4826 80.2819 38.7821 80.3711 39.063C80.4649 39.3398 80.5988 39.5835 80.7732 39.7941C80.9519 40.0048 81.1666 40.17 81.4177 40.2898C81.673 40.4096 81.9622 40.4695 82.2856 40.4695C82.7024 40.4695 83.0555 40.3869 83.3449 40.2216C83.634 40.0564 83.8872 39.8354 84.1043 39.5587L84.8189 40.1101C84.67 40.3291 84.4807 40.5377 84.2508 40.7359C84.0212 40.9342 83.7384 41.0953 83.4023 41.2192C83.0704 41.3431 82.677 41.4051 82.2217 41.4051ZM80.0075 32.7865C80.0075 32.6006 80.067 32.4437 80.1862 32.3156C80.3052 32.1876 80.4775 32.1235 80.7029 32.1235C80.9328 32.1235 81.1071 32.1876 81.2264 32.3156C81.3454 32.4437 81.4049 32.6006 81.4049 32.7865C81.4049 32.9641 81.3454 33.1169 81.2264 33.245C81.1071 33.3689 80.9328 33.4309 80.7029 33.4309C80.4775 33.4309 80.3052 33.3689 80.1862 33.245C80.067 33.1169 80.0075 32.9641 80.0075 32.7865ZM82.7577 32.7989C82.7577 32.613 82.8151 32.456 82.93 32.328C83.0492 32.1999 83.2235 32.1359 83.4534 32.1359C83.6788 32.1359 83.8511 32.1999 83.9701 32.328C84.0935 32.456 84.1552 32.613 84.1552 32.7989C84.1552 32.9765 84.0935 33.1293 83.9701 33.2574C83.8511 33.3813 83.6788 33.4433 83.4534 33.4433C83.2235 33.4433 83.0492 33.3813 82.93 33.2574C82.8151 33.1293 82.7577 32.9765 82.7577 32.7989ZM93.8608 40.1349V36.6837C93.8608 36.4194 93.8055 36.1902 93.6949 35.996C93.5885 35.7977 93.427 35.6449 93.2099 35.5375C92.9929 35.4301 92.725 35.3764 92.406 35.3764C92.1082 35.3764 91.8466 35.426 91.6209 35.5251C91.3999 35.6243 91.2253 35.7544 91.0977 35.9155C90.9745 36.0765 90.9126 36.25 90.9126 36.4359H89.7322C89.7322 36.1963 89.796 35.9588 89.9236 35.7234C90.0513 35.4879 90.2342 35.2752 90.4725 35.0852C90.715 34.8911 91.0041 34.7382 91.3402 34.6267C91.6807 34.511 92.0592 34.4532 92.476 34.4532C92.9782 34.4532 93.4204 34.5358 93.8034 34.701C94.1906 34.8663 94.4925 35.1162 94.7096 35.4508C94.9308 35.7812 95.0414 36.1963 95.0414 36.6961V39.8189C95.0414 40.042 95.0606 40.2795 95.0988 40.5314C95.1413 40.7834 95.2029 41.0003 95.2839 41.182V41.2812H94.0522C93.9927 41.149 93.946 40.9734 93.9119 40.7545C93.8778 40.5314 93.8608 40.3249 93.8608 40.1349ZM94.065 37.2166L94.0778 38.0221H92.8844C92.5483 38.0221 92.2484 38.0489 91.9847 38.1026C91.721 38.1522 91.4998 38.2286 91.321 38.3319C91.1425 38.4351 91.0062 38.5653 90.9126 38.7222C90.819 38.8751 90.7724 39.0547 90.7724 39.2613C90.7724 39.4719 90.8212 39.664 90.9192 39.8375C91.0169 40.011 91.1637 40.1494 91.3593 40.2526C91.5593 40.3518 91.8039 40.4013 92.0933 40.4013C92.4547 40.4013 92.774 40.327 93.0503 40.1783C93.3268 40.0296 93.546 39.8478 93.7077 39.633C93.8736 39.4182 93.963 39.2096 93.9756 39.0072L94.4797 39.5587C94.4501 39.7322 94.3691 39.9242 94.2372 40.1349C94.1054 40.3456 93.9289 40.548 93.7077 40.7421C93.4907 40.9321 93.2312 41.0912 92.9292 41.2192C92.6314 41.3431 92.2954 41.4051 91.921 41.4051C91.4529 41.4051 91.0424 41.3163 90.6893 41.1387C90.3404 40.961 90.0683 40.7235 89.8725 40.4261C89.6811 40.1246 89.5854 39.7879 89.5854 39.4162C89.5854 39.0568 89.6578 38.7408 89.8023 38.4682C89.9469 38.1914 90.1553 37.9622 90.4277 37.7804C90.7 37.5946 91.0274 37.4541 91.4104 37.3591C91.7934 37.2641 92.2209 37.2166 92.693 37.2166H94.065ZM100.271 38.3319H98.0052L97.9926 37.4149H99.843C100.209 37.4149 100.513 37.3798 100.755 37.3096C101.002 37.2393 101.187 37.134 101.311 36.9935C101.434 36.8531 101.496 36.6796 101.496 36.4731C101.496 36.312 101.46 36.1715 101.387 36.0518C101.319 35.9278 101.215 35.8266 101.075 35.7482C100.934 35.6655 100.76 35.6057 100.551 35.5685C100.347 35.5272 100.107 35.5065 99.8304 35.5065H98.3179V41.2812H97.1376V34.5771H99.8304C100.268 34.5771 100.662 34.6143 101.011 34.6886C101.364 34.763 101.664 34.8766 101.911 35.0294C102.162 35.1781 102.353 35.3681 102.485 35.5995C102.617 35.8308 102.683 36.1034 102.683 36.4173C102.683 36.6197 102.64 36.8118 102.555 36.9935C102.47 37.1753 102.345 37.3364 102.179 37.4768C102.013 37.6173 101.808 37.7329 101.566 37.8238C101.324 37.9106 101.045 37.9663 100.73 37.9911L100.271 38.3319ZM100.271 41.2812H97.5777L98.1648 40.3518H100.271C100.598 40.3518 100.871 40.3125 101.087 40.234C101.304 40.1514 101.466 40.0358 101.572 39.8871C101.683 39.7342 101.738 39.5525 101.738 39.3418C101.738 39.1312 101.683 38.9515 101.572 38.8028C101.466 38.6499 101.304 38.5343 101.087 38.4558C100.871 38.3732 100.598 38.3319 100.271 38.3319H98.4776L98.4902 37.4149H100.73L101.158 37.7619C101.536 37.7908 101.857 37.8816 102.121 38.0345C102.385 38.1873 102.585 38.3814 102.721 38.6169C102.857 38.8482 102.925 39.1002 102.925 39.3728C102.925 39.6867 102.864 39.9635 102.74 40.2031C102.621 40.4426 102.447 40.643 102.217 40.8041C101.987 40.961 101.709 41.0808 101.381 41.1634C101.053 41.2419 100.683 41.2812 100.271 41.2812ZM107.376 34.5771V41.2812H106.189V34.5771H107.376ZM109.692 34.5771V35.5065H103.917V34.5771H109.692ZM110.404 38.0035V37.861C110.404 37.3777 110.476 36.9295 110.621 36.5165C110.765 36.0993 110.974 35.7378 111.246 35.4322C111.518 35.1224 111.848 34.8828 112.235 34.7134C112.622 34.54 113.056 34.4532 113.537 34.4532C114.022 34.4532 114.458 34.54 114.845 34.7134C115.236 34.8828 115.568 35.1224 115.841 35.4322C116.117 35.7378 116.328 36.0993 116.472 36.5165C116.617 36.9295 116.689 37.3777 116.689 37.861V38.0035C116.689 38.4868 116.617 38.9349 116.472 39.348C116.328 39.7611 116.117 40.1225 115.841 40.4323C115.568 40.738 115.239 40.9776 114.852 41.151C114.469 41.3204 114.035 41.4051 113.55 41.4051C113.065 41.4051 112.629 41.3204 112.242 41.151C111.854 40.9776 111.523 40.738 111.246 40.4323C110.974 40.1225 110.765 39.7611 110.621 39.348C110.476 38.9349 110.404 38.4868 110.404 38.0035ZM111.584 37.861V38.0035C111.584 38.3381 111.625 38.6541 111.705 38.9515C111.786 39.2447 111.908 39.505 112.069 39.7322C112.235 39.9594 112.442 40.139 112.688 40.2712C112.935 40.3993 113.222 40.4633 113.55 40.4633C113.873 40.4633 114.156 40.3993 114.398 40.2712C114.645 40.139 114.849 39.9594 115.011 39.7322C115.173 39.505 115.294 39.2447 115.375 38.9515C115.46 38.6541 115.502 38.3381 115.502 38.0035V37.861C115.502 37.5305 115.46 37.2187 115.375 36.9254C115.294 36.628 115.171 36.3657 115.005 36.1385C114.843 35.9072 114.639 35.7255 114.392 35.5933C114.15 35.4611 113.865 35.395 113.537 35.395C113.214 35.395 112.929 35.4611 112.682 35.5933C112.439 35.7255 112.235 35.9072 112.069 36.1385C111.908 36.3657 111.786 36.628 111.705 36.9254C111.625 37.2187 111.584 37.5305 111.584 37.861ZM124.914 38.3319H122.649L122.636 37.4149H124.487C124.853 37.4149 125.157 37.3798 125.399 37.3096C125.646 37.2393 125.831 37.134 125.955 36.9935C126.078 36.8531 126.14 36.6796 126.14 36.4731C126.14 36.312 126.103 36.1715 126.031 36.0518C125.963 35.9278 125.859 35.8266 125.718 35.7482C125.578 35.6655 125.404 35.6057 125.195 35.5685C124.991 35.5272 124.751 35.5065 124.474 35.5065H122.962V41.2812H121.781V34.5771H124.474C124.912 34.5771 125.306 34.6143 125.655 34.6886C126.008 34.763 126.308 34.8766 126.554 35.0294C126.805 35.1781 126.997 35.3681 127.129 35.5995C127.261 35.8308 127.327 36.1034 127.327 36.4173C127.327 36.6197 127.284 36.8118 127.199 36.9935C127.114 37.1753 126.988 37.3364 126.822 37.4768C126.657 37.6173 126.452 37.7329 126.21 37.8238C125.967 37.9106 125.689 37.9663 125.374 37.9911L124.914 38.3319ZM124.914 41.2812H122.222L122.809 40.3518H124.914C125.242 40.3518 125.514 40.3125 125.731 40.234C125.948 40.1514 126.11 40.0358 126.216 39.8871C126.327 39.7342 126.382 39.5525 126.382 39.3418C126.382 39.1312 126.327 38.9515 126.216 38.8028C126.11 38.6499 125.948 38.5343 125.731 38.4558C125.514 38.3732 125.242 38.3319 124.914 38.3319H123.121L123.134 37.4149H125.374L125.801 37.7619C126.18 37.7908 126.501 37.8816 126.765 38.0345C127.029 38.1873 127.229 38.3814 127.365 38.6169C127.501 38.8482 127.569 39.1002 127.569 39.3728C127.569 39.6867 127.507 39.9635 127.384 40.2031C127.265 40.4426 127.09 40.643 126.861 40.8041C126.631 40.961 126.352 41.0808 126.025 41.1634C125.697 41.2419 125.327 41.2812 124.914 41.2812ZM135.418 40.4633C135.699 40.4633 135.958 40.4075 136.196 40.296C136.434 40.1845 136.63 40.0316 136.783 39.8375C136.936 39.6392 137.024 39.4141 137.045 39.1621H138.168C138.147 39.5587 138.008 39.9284 137.753 40.2712C137.502 40.6099 137.172 40.8846 136.764 41.0953C136.356 41.3018 135.907 41.4051 135.418 41.4051C134.899 41.4051 134.446 41.3163 134.058 41.1387C133.676 40.961 133.356 40.7173 133.101 40.4075C132.85 40.0977 132.661 39.7425 132.533 39.3418C132.41 38.937 132.348 38.5095 132.348 38.0592V37.799C132.348 37.3488 132.41 36.9233 132.533 36.5227C132.661 36.1178 132.85 35.7606 133.101 35.4508C133.356 35.1409 133.676 34.8972 134.058 34.7196C134.446 34.542 134.899 34.4532 135.418 34.4532C135.958 34.4532 136.43 34.5606 136.834 34.7754C137.239 34.9861 137.555 35.2752 137.785 35.6428C138.019 36.0063 138.147 36.4194 138.168 36.882H137.045C137.024 36.6053 136.943 36.3554 136.802 36.1323C136.666 35.9093 136.479 35.7316 136.241 35.5995C136.007 35.4631 135.732 35.395 135.418 35.395C135.056 35.395 134.752 35.4652 134.505 35.6057C134.263 35.742 134.069 35.9278 133.924 36.1633C133.784 36.3946 133.682 36.6528 133.618 36.9378C133.559 37.2187 133.529 37.5057 133.529 37.799V38.0592C133.529 38.3525 133.559 38.6417 133.618 38.9267C133.678 39.2117 133.778 39.4699 133.918 39.7012C134.063 39.9325 134.256 40.1184 134.499 40.2588C134.745 40.3951 135.052 40.4633 135.418 40.4633ZM143.595 39.7569L145.943 34.5771H147.079L144.003 41.2812H143.187L140.124 34.5771H141.26L143.595 39.7569ZM140.915 34.5771V41.2812H139.734V34.5771H140.915ZM146.237 41.2812V34.5771H147.424V41.2812H146.237ZM153.527 40.1349V36.6837C153.527 36.4194 153.472 36.1902 153.361 35.996C153.255 35.7977 153.093 35.6449 152.876 35.5375C152.659 35.4301 152.392 35.3764 152.072 35.3764C151.774 35.3764 151.513 35.426 151.287 35.5251C151.066 35.6243 150.892 35.7544 150.764 35.9155C150.641 36.0765 150.579 36.25 150.579 36.4359H149.399C149.399 36.1963 149.462 35.9588 149.59 35.7234C149.718 35.4879 149.901 35.2752 150.139 35.0852C150.381 34.8911 150.671 34.7382 151.007 34.6267C151.347 34.511 151.726 34.4532 152.142 34.4532C152.644 34.4532 153.087 34.5358 153.47 34.701C153.857 34.8663 154.159 35.1162 154.376 35.4508C154.597 35.7812 154.708 36.1963 154.708 36.6961V39.8189C154.708 40.042 154.727 40.2795 154.765 40.5314C154.808 40.7834 154.869 41.0003 154.95 41.182V41.2812H153.719C153.659 41.149 153.612 40.9734 153.578 40.7545C153.544 40.5314 153.527 40.3249 153.527 40.1349ZM153.732 37.2166L153.744 38.0221H152.551C152.215 38.0221 151.915 38.0489 151.651 38.1026C151.388 38.1522 151.166 38.2286 150.988 38.3319C150.809 38.4351 150.673 38.5653 150.579 38.7222C150.486 38.8751 150.439 39.0547 150.439 39.2613C150.439 39.4719 150.488 39.664 150.585 39.8375C150.683 40.011 150.83 40.1494 151.026 40.2526C151.226 40.3518 151.47 40.4013 151.76 40.4013C152.121 40.4013 152.44 40.327 152.717 40.1783C152.993 40.0296 153.213 39.8478 153.374 39.633C153.54 39.4182 153.629 39.2096 153.642 39.0072L154.146 39.5587C154.117 39.7322 154.036 39.9242 153.904 40.1349C153.772 40.3456 153.595 40.548 153.374 40.7421C153.157 40.9321 152.898 41.0912 152.596 41.2192C152.298 41.3431 151.962 41.4051 151.587 41.4051C151.119 41.4051 150.709 41.3163 150.356 41.1387C150.007 40.961 149.735 40.7235 149.539 40.4261C149.348 40.1246 149.252 39.7879 149.252 39.4162C149.252 39.0568 149.324 38.7408 149.469 38.4682C149.613 38.1914 149.822 37.9622 150.094 37.7804C150.367 37.5946 150.694 37.4541 151.077 37.3591C151.46 37.2641 151.887 37.2166 152.36 37.2166H153.732ZM157.876 35.8659V43.8587H156.689V34.5771H157.774L157.876 35.8659ZM162.528 37.8734V38.0035C162.528 38.4909 162.468 38.9432 162.349 39.3604C162.23 39.7735 162.056 40.1328 161.826 40.4385C161.601 40.7442 161.322 40.9817 160.99 41.151C160.658 41.3204 160.277 41.4051 159.848 41.4051C159.41 41.4051 159.022 41.3349 158.686 41.1944C158.35 41.054 158.065 40.8495 157.831 40.581C157.597 40.3125 157.41 39.9903 157.27 39.6144C157.134 39.2386 157.04 38.8152 156.989 38.3443V37.6503C157.04 37.1547 157.136 36.7106 157.276 36.3182C157.416 35.9258 157.602 35.5912 157.831 35.3145C158.065 35.0336 158.348 34.8208 158.68 34.6763C159.012 34.5276 159.395 34.4532 159.829 34.4532C160.263 34.4532 160.647 34.5358 160.984 34.701C161.32 34.8621 161.603 35.0935 161.832 35.395C162.062 35.6965 162.234 36.058 162.349 36.4793C162.468 36.8965 162.528 37.3612 162.528 37.8734ZM161.341 38.0035V37.8734C161.341 37.5388 161.305 37.2249 161.233 36.9316C161.16 36.6342 161.047 36.374 160.894 36.1509C160.745 35.9237 160.554 35.7461 160.32 35.618C160.086 35.4859 159.807 35.4198 159.484 35.4198C159.186 35.4198 158.927 35.4694 158.706 35.5685C158.489 35.6676 158.303 35.8019 158.15 35.9712C157.997 36.1365 157.872 36.3265 157.774 36.5412C157.68 36.7519 157.61 36.9708 157.563 37.198V38.8028C157.648 39.0919 157.767 39.3645 157.921 39.6206C158.074 39.8726 158.278 40.0771 158.533 40.234C158.788 40.3869 159.11 40.4633 159.497 40.4633C159.816 40.4633 160.09 40.3993 160.32 40.2712C160.554 40.139 160.745 39.9594 160.894 39.7322C161.047 39.505 161.16 39.2447 161.233 38.9515C161.305 38.6541 161.341 38.3381 161.341 38.0035ZM166.468 34.5771V41.2812H165.281V34.5771H166.468ZM168.785 34.5771V35.5065H163.01V34.5771H168.785ZM177.504 38.0469V38.177C177.504 38.6479 177.451 39.0816 177.345 39.4781C177.238 39.8705 177.079 40.2113 176.866 40.5005C176.658 40.7896 176.398 41.0147 176.088 41.1758C175.777 41.3328 175.418 41.4113 175.009 41.4113C174.673 41.4113 174.378 41.3679 174.122 41.2812C173.867 41.1903 173.65 41.0602 173.471 40.8908C173.297 40.7214 173.157 40.5191 173.05 40.2836C172.948 40.044 172.878 39.7755 172.84 39.4781V36.5041C172.878 36.186 172.948 35.901 173.05 35.649C173.157 35.3971 173.297 35.1823 173.471 35.0047C173.65 34.827 173.865 34.6907 174.116 34.5957C174.367 34.5007 174.66 34.4532 174.996 34.4532C175.328 34.4532 175.626 34.511 175.89 34.6267C176.158 34.7382 176.392 34.8993 176.592 35.11C176.796 35.3206 176.964 35.5747 177.096 35.8721C177.232 36.1654 177.334 36.4958 177.402 36.8634C177.47 37.2311 177.504 37.6255 177.504 38.0469ZM176.324 38.177V38.0469C176.324 37.7577 176.303 37.483 176.26 37.2228C176.222 36.9584 176.16 36.7168 176.075 36.4979C175.994 36.2748 175.888 36.0807 175.756 35.9155C175.624 35.7502 175.464 35.6222 175.277 35.5313C175.094 35.4404 174.884 35.395 174.645 35.395C174.39 35.395 174.178 35.426 174.007 35.4879C173.842 35.5499 173.712 35.6325 173.618 35.7358C173.525 35.8349 173.456 35.9402 173.414 36.0518V39.9366C173.465 40.0275 173.54 40.1143 173.637 40.1969C173.735 40.2753 173.867 40.3414 174.033 40.3951C174.199 40.4447 174.407 40.4695 174.658 40.4695C174.956 40.4695 175.209 40.4117 175.418 40.296C175.63 40.1762 175.803 40.011 175.935 39.8003C176.071 39.5897 176.168 39.3459 176.228 39.0692C176.292 38.7924 176.324 38.495 176.324 38.177ZM169.305 38.177V38.0469C169.305 37.6255 169.338 37.2311 169.407 36.8634C169.475 36.4958 169.577 36.1654 169.713 35.8721C169.849 35.5747 170.017 35.3206 170.217 35.11C170.421 34.8993 170.655 34.7382 170.919 34.6267C171.187 34.511 171.487 34.4532 171.819 34.4532C172.146 34.4532 172.431 34.5007 172.674 34.5957C172.92 34.6907 173.129 34.827 173.299 35.0047C173.469 35.1823 173.605 35.3971 173.708 35.649C173.81 35.901 173.882 36.186 173.925 36.5041V39.3604C173.886 39.6743 173.816 39.9573 173.714 40.2092C173.612 40.4612 173.476 40.6781 173.305 40.8598C173.135 41.0375 172.925 41.1738 172.674 41.2688C172.427 41.3638 172.138 41.4113 171.806 41.4113C171.397 41.4113 171.038 41.3328 170.727 41.1758C170.417 41.0147 170.155 40.7896 169.943 40.5005C169.734 40.2113 169.575 39.8705 169.464 39.4781C169.358 39.0816 169.305 38.6479 169.305 38.177ZM170.491 38.0469V38.177C170.491 38.495 170.519 38.7924 170.574 39.0692C170.634 39.3459 170.725 39.5897 170.849 39.8003C170.976 40.011 171.142 40.1762 171.347 40.296C171.551 40.4117 171.802 40.4695 172.099 40.4695C172.355 40.4695 172.565 40.4385 172.731 40.3765C172.897 40.3146 173.029 40.234 173.127 40.1349C173.225 40.0358 173.299 39.9325 173.35 39.8251V36.0518C173.308 35.9402 173.237 35.8349 173.14 35.7358C173.046 35.6325 172.916 35.5499 172.75 35.4879C172.584 35.426 172.372 35.395 172.112 35.395C171.814 35.395 171.561 35.4652 171.353 35.6057C171.144 35.7461 170.976 35.9382 170.849 36.1819C170.725 36.4256 170.634 36.7085 170.574 37.0307C170.519 37.3488 170.491 37.6875 170.491 38.0469ZM172.763 43.8587V31.7642H173.95V43.8587H172.763ZM178.867 38.0035V37.861C178.867 37.3777 178.939 36.9295 179.083 36.5165C179.228 36.0993 179.437 35.7378 179.709 35.4322C179.981 35.1224 180.311 34.8828 180.698 34.7134C181.085 34.54 181.519 34.4532 182 34.4532C182.485 34.4532 182.921 34.54 183.308 34.7134C183.699 34.8828 184.031 35.1224 184.304 35.4322C184.58 35.7378 184.791 36.0993 184.935 36.5165C185.08 36.9295 185.152 37.3777 185.152 37.861V38.0035C185.152 38.4868 185.08 38.9349 184.935 39.348C184.791 39.7611 184.58 40.1225 184.304 40.4323C184.031 40.738 183.701 40.9776 183.314 41.151C182.932 41.3204 182.497 41.4051 182.013 41.4051C181.528 41.4051 181.092 41.3204 180.704 41.151C180.317 40.9776 179.985 40.738 179.709 40.4323C179.437 40.1225 179.228 39.7611 179.083 39.348C178.939 38.9349 178.867 38.4868 178.867 38.0035ZM180.047 37.861V38.0035C180.047 38.3381 180.088 38.6541 180.168 38.9515C180.249 39.2447 180.371 39.505 180.532 39.7322C180.698 39.9594 180.904 40.139 181.151 40.2712C181.398 40.3993 181.685 40.4633 182.013 40.4633C182.336 40.4633 182.619 40.3993 182.861 40.2712C183.108 40.139 183.312 39.9594 183.474 39.7322C183.636 39.505 183.757 39.2447 183.838 38.9515C183.923 38.6541 183.965 38.3381 183.965 38.0035V37.861C183.965 37.5305 183.923 37.2187 183.838 36.9254C183.757 36.628 183.634 36.3657 183.468 36.1385C183.306 35.9072 183.102 35.7255 182.855 35.5933C182.613 35.4611 182.327 35.395 182 35.395C181.676 35.395 181.392 35.4611 181.145 35.5933C180.902 35.7255 180.698 35.9072 180.532 36.1385C180.371 36.3657 180.249 36.628 180.168 36.9254C180.088 37.2187 180.047 37.5305 180.047 37.861ZM191.447 37.483V38.4124H187.797V37.483H191.447ZM188.046 34.5771V41.2812H186.865V34.5771H188.046ZM192.404 34.5771V41.2812H191.217V34.5771H192.404ZM197.302 41.4051C196.821 41.4051 196.385 41.3266 195.993 41.1696C195.606 41.0085 195.272 40.7834 194.992 40.4943C194.715 40.2051 194.503 39.8623 194.354 39.4657C194.205 39.0692 194.13 38.6355 194.13 38.1646V37.9044C194.13 37.3591 194.213 36.8738 194.379 36.4483C194.545 36.0187 194.77 35.6552 195.056 35.3578C195.341 35.0604 195.664 34.8353 196.025 34.6825C196.387 34.5296 196.762 34.4532 197.148 34.4532C197.642 34.4532 198.067 34.5358 198.425 34.701C198.786 34.8663 199.082 35.0976 199.312 35.395C199.541 35.6883 199.712 36.0353 199.822 36.4359C199.933 36.8325 199.988 37.2662 199.988 37.7371V38.2513H194.832V37.3157H198.808V37.229C198.791 36.9316 198.727 36.6424 198.616 36.3616C198.51 36.0807 198.34 35.8494 198.106 35.6676C197.872 35.4859 197.553 35.395 197.148 35.395C196.881 35.395 196.634 35.4508 196.408 35.5623C196.183 35.6697 195.989 35.8308 195.828 36.0456C195.666 36.2604 195.541 36.5227 195.451 36.8325C195.362 37.1423 195.317 37.4996 195.317 37.9044V38.1646C195.317 38.4826 195.362 38.7821 195.451 39.063C195.545 39.3398 195.679 39.5835 195.853 39.7941C196.032 40.0048 196.247 40.17 196.498 40.2898C196.753 40.4096 197.042 40.4695 197.365 40.4695C197.783 40.4695 198.136 40.3869 198.425 40.2216C198.714 40.0564 198.967 39.8354 199.184 39.5587L199.899 40.1101C199.75 40.3291 199.561 40.5377 199.331 40.7359C199.101 40.9342 198.818 41.0953 198.482 41.2192C198.15 41.3431 197.757 41.4051 197.302 41.4051Z" fill="white"/>
</g>
<defs>
<clipPath id="clip0_680_6414">
<rect width="143.756" height="12.2361" fill="white" transform="translate(56.2438 31.7642)"/>
</clipPath>
</defs>
</svg>
