<svg width="17" height="17" viewBox="0 0 17 17" fill="none" xmlns="http://www.w3.org/2000/svg">
<path d="M13.4352 10.4543C13.0872 10.1029 12.6674 9.91502 12.2225 9.91502C11.7811 9.91502 11.3578 10.0994 10.9954 10.4508L9.86159 11.5468C9.7683 11.4981 9.67501 11.4528 9.58531 11.4076C9.45615 11.345 9.33416 11.2858 9.2301 11.2232C8.16807 10.5691 7.2029 9.7167 6.27721 8.61378C5.82871 8.06406 5.52732 7.60133 5.30846 7.13163C5.60267 6.87069 5.87536 6.5993 6.14087 6.33836C6.24133 6.24094 6.34179 6.14004 6.44225 6.04263C7.19573 5.31199 7.19573 4.36563 6.44225 3.63499L5.46274 2.68516C5.35151 2.5773 5.2367 2.46597 5.12906 2.35463C4.91378 2.13892 4.68774 1.91625 4.45452 1.70749C4.10649 1.37349 3.69028 1.19604 3.25255 1.19604C2.81482 1.19604 2.39144 1.37349 2.03264 1.70749C2.02906 1.71097 2.02906 1.71097 2.02547 1.71445L0.80556 2.90783C0.3463 3.35317 0.0843784 3.89594 0.026971 4.52568C-0.0591402 5.54162 0.249425 6.48797 0.486231 7.10727C1.06748 8.6277 1.93577 10.0368 3.23102 11.5468C4.80255 13.3664 6.69341 14.8034 8.85337 15.8158C9.6786 16.195 10.7801 16.6439 12.0108 16.7204C12.0861 16.7239 12.1651 16.7274 12.2368 16.7274C13.0656 16.7274 13.7617 16.4386 14.3071 15.8645C14.3107 15.8576 14.3178 15.8541 14.3214 15.8471C14.508 15.6279 14.7233 15.4296 14.9493 15.2174C15.1036 15.0747 15.2615 14.9251 15.4158 14.7686C15.771 14.4102 15.9575 13.9927 15.9575 13.5647C15.9575 13.1333 15.7674 12.7193 15.405 12.3714L13.4352 10.4543ZM14.7197 14.1179C14.7161 14.1179 14.7161 14.1214 14.7197 14.1179C14.5798 14.2641 14.4362 14.3963 14.282 14.5424C14.0487 14.7581 13.8119 14.9843 13.5895 15.2383C13.2271 15.614 12.8001 15.7915 12.2404 15.7915C12.1866 15.7915 12.1292 15.7915 12.0754 15.788C11.0097 15.7219 10.0195 15.3183 9.27675 14.9738C7.24596 14.0205 5.46274 12.6671 3.98091 10.9518C2.75741 9.52187 1.93936 8.19976 1.39757 6.78023C1.06389 5.91389 0.941902 5.23892 0.995722 4.60222C1.0316 4.19515 1.19306 3.85766 1.49086 3.56889L2.71436 2.38247C2.89017 2.22242 3.07674 2.13544 3.25973 2.13544C3.48577 2.13544 3.66876 2.26765 3.78357 2.37899C3.78716 2.38247 3.79075 2.38595 3.79434 2.38942C4.0132 2.58774 4.2213 2.79302 4.44017 3.01221C4.5514 3.12354 4.66621 3.23488 4.78103 3.34969L5.76054 4.29953C6.14087 4.66833 6.14087 5.00929 5.76054 5.37809C5.65649 5.47899 5.55603 5.57989 5.45198 5.67731C5.15059 5.97652 4.86355 6.25486 4.5514 6.52624C4.54422 6.5332 4.53704 6.53668 4.53346 6.54364C4.22489 6.84285 4.2823 7.13511 4.34688 7.33342C4.35047 7.34386 4.35406 7.3543 4.35765 7.36474C4.61239 7.96317 4.97119 8.5268 5.51656 9.1983L5.52015 9.20178C6.51043 10.3847 7.55452 11.3067 8.70626 12.013C8.85337 12.1035 9.00406 12.1765 9.14758 12.2461C9.27675 12.3087 9.39874 12.3679 9.50279 12.4305C9.51714 12.4375 9.53149 12.4479 9.54585 12.4549C9.66784 12.514 9.78265 12.5418 9.90105 12.5418C10.1989 12.5418 10.3854 12.3609 10.4464 12.3018L11.6735 11.1119C11.7955 10.9936 11.9892 10.8509 12.2153 10.8509C12.4377 10.8509 12.6207 10.9866 12.732 11.1049C12.7355 11.1084 12.7355 11.1084 12.7391 11.1119L14.7161 13.0289C15.0857 13.3838 15.0857 13.7491 14.7197 14.1179Z" fill="white"/>
<path d="M9.18728 4.1637C10.1273 4.31679 10.9813 4.74821 11.663 5.40927C12.3447 6.07032 12.786 6.89838 12.9475 7.80994C12.9869 8.03957 13.1914 8.19962 13.4247 8.19962C13.4534 8.19962 13.4785 8.19614 13.5072 8.19266C13.7727 8.15091 13.9485 7.90736 13.9055 7.6499C13.7117 6.54698 13.1735 5.54148 12.3519 4.74473C11.5302 3.94799 10.4933 3.4261 9.35591 3.23822C9.0904 3.19647 8.84283 3.36695 8.79619 3.62094C8.74955 3.87492 8.92177 4.12195 9.18728 4.1637Z" fill="white"/>
<path d="M16.9801 7.51425C16.6607 5.69808 15.7781 4.04544 14.4219 2.73029C13.0656 1.41514 11.3613 0.559245 9.4884 0.249592C9.22648 0.204362 8.97891 0.378324 8.93226 0.632309C8.88921 0.889773 9.06502 1.12984 9.33053 1.17507C11.0025 1.44993 12.5274 2.21884 13.7401 3.39135C14.9529 4.56733 15.7422 6.04601 16.0257 7.66733C16.0651 7.89696 16.2697 8.05701 16.5029 8.05701C16.5316 8.05701 16.5567 8.05353 16.5854 8.05005C16.8473 8.01178 17.0267 7.76823 16.9801 7.51425Z" fill="white"/>
</svg>
