<svg width="200" height="45" viewBox="0 0 200 45" fill="none" xmlns="http://www.w3.org/2000/svg">
<path d="M15.4836 0C6.9545 0 0 6.92098 0 15.482C0 27.5855 15.418 41.3291 15.418 41.3291C15.418 41.3291 31 27.5855 31 15.482C31 6.92098 24.0455 0 15.4836 0ZM15.5492 27.5199C8.56191 27.5199 3.41164 22.5014 3.41164 15.5476C3.41164 8.59382 8.4963 3.57529 15.5164 3.57529C21.4868 3.57529 26.3746 7.31459 27.3587 12.5955H20.7651C19.945 10.6931 17.9111 9.44664 15.582 9.44664C12.1376 9.44664 9.84127 11.9395 9.84127 15.5804C9.84127 19.2213 12.1048 21.6486 15.5492 21.6486C17.9439 21.6486 20.0106 20.5005 20.7323 18.7293H15.0571V14.7604H27.5556C27.5884 22.239 22.7005 27.5199 15.5492 27.5199Z" fill="#FF6900"/>
<path d="M52 17.6046C52 18.1181 51.9673 18.6316 51.8692 19.1772H38.9191C39.3115 21.1349 40.5869 22.1619 42.4836 22.1619C43.8898 22.1619 45.0671 21.5521 45.6558 20.5572H51.6403C50.3976 24.4727 46.8657 26.9118 42.4836 26.9118C37.0224 26.9118 33 22.9964 33 17.765C33 12.5016 37.0224 8.65034 42.4836 8.65034C48.1084 8.61825 52 12.5658 52 17.6046ZM39.0172 15.9036H46.0809C45.5577 14.2026 44.2823 13.2719 42.4836 13.2719C40.7177 13.2719 39.5077 14.2026 39.0172 15.9036Z" fill="#FF6900"/>
<path d="M67 20.7926V25.9507H62.7157C58.7349 25.9507 56.306 23.644 56.306 19.8315V13.3918H53V12.0142L61.0964 3.84448H62.3783V8.84242H66.8988V13.3918H62.5133V18.8383C62.5133 20.0557 63.2892 20.7926 64.6048 20.7926H67Z" fill="#FF6900"/>
<path d="M97 15.7888V26.9118H90.9415V16.5525C90.9415 14.6931 90.25 13.7966 88.9659 13.7966C87.2866 13.7966 86.4305 14.9587 86.4305 17.1833V26.9118H80.5366V16.5525C80.5366 14.7595 79.878 13.7966 78.5939 13.7966C76.9476 13.7966 76.0585 14.9919 76.0585 17.1833V26.9118H70V9.1814H74.2476L75.1037 11.074C76.3878 9.57983 78.2317 8.65015 80.2402 8.65015C82.3805 8.65015 84.1915 9.61304 85.2781 11.2732C86.5293 9.67944 88.5049 8.65015 90.6781 8.65015C94.4976 8.65015 97 11.6052 97 15.7888Z" fill="#FF6900"/>
<path d="M120 9.13241V26.3331H115.259L114.725 25.1114C113.255 26.2367 111.419 26.9118 109.349 26.9118C103.907 26.9118 100 23.0859 100 17.7488C100 12.4118 103.907 8.65015 109.349 8.65015C111.452 8.65015 113.322 9.32531 114.791 10.4827L115.426 9.16456L120 9.13241ZM114.157 17.7488C114.157 15.5304 112.454 13.8264 110.15 13.8264C107.846 13.8264 106.144 15.4983 106.144 17.7488C106.144 19.9994 107.846 21.6712 110.15 21.6712C112.454 21.6712 114.157 19.9994 114.157 17.7488Z" fill="#FF6900"/>
<path d="M142 16.1073V26.9118H135.727V16.9358C135.727 14.881 134.943 13.8536 133.341 13.8536C131.398 13.8536 130.273 15.1793 130.273 17.433V26.8787H124V9.18043H128.398L129.25 11.0033C130.614 9.545 132.625 8.65015 134.977 8.65015C139.205 8.65015 142 11.5667 142 16.1073Z" fill="#FF6900"/>
<path d="M153.631 26.9118C148.048 26.9118 144 23.0605 144 17.7328C144 12.4373 148.015 8.65015 153.663 8.65015C158.56 8.65015 162.249 11.6991 162.902 16.2565H157.058C156.569 14.8444 155.23 13.9457 153.663 13.9457C151.541 13.9457 150.04 15.5183 150.04 17.7649C150.04 20.0115 151.574 21.6163 153.663 21.6163C155.263 21.6163 156.569 20.6534 157.091 19.1129H163C162.282 23.7666 158.56 26.9118 153.631 26.9118Z" fill="#FF6900"/>
<path d="M185 9.13241V26.3331H180.259L179.725 25.1114C178.255 26.2367 176.419 26.9118 174.349 26.9118C168.907 26.9118 165 23.0859 165 17.7488C165 12.4118 168.907 8.65015 174.349 8.65015C176.452 8.65015 178.322 9.32531 179.791 10.4827L180.426 9.16456L185 9.13241ZM179.124 17.7488C179.124 15.5304 177.421 13.8264 175.117 13.8264C172.813 13.8264 171.11 15.4983 171.11 17.7488C171.11 19.9994 172.813 21.6712 175.117 21.6712C177.421 21.6712 179.124 19.9994 179.124 17.7488Z" fill="#FF6900"/>
<path d="M200 8.65015V14.0847H197.545C195.297 14.0847 194.363 15.0173 194.363 17.2039V25.9507H188V8.74662H192.254L193.256 10.6439C194.571 9.22897 196.161 8.65015 198.34 8.65015H200Z" fill="#FF6900"/>
<path d="M68.1528 38.513H69.4258C69.3595 39.0956 69.185 39.617 68.9021 40.0772C68.6192 40.5374 68.2191 40.9026 67.702 41.1729C67.1848 41.4388 66.5395 41.5718 65.766 41.5718C65.2002 41.5718 64.6852 41.4704 64.2211 41.2678C63.7614 41.0651 63.3658 40.778 63.0343 40.4065C62.7028 40.0308 62.4464 39.5811 62.2652 39.0576C62.0884 38.5299 62 37.943 62 37.2971V36.3788C62 35.7328 62.0884 35.1481 62.2652 34.6246C62.4464 34.0968 62.705 33.6451 63.0409 33.2693C63.3813 32.8936 63.7902 32.6044 64.2675 32.4017C64.7449 32.1991 65.282 32.0977 65.8787 32.0977C66.608 32.0977 67.2246 32.2286 67.7285 32.4904C68.2324 32.7522 68.6236 33.1152 68.9021 33.5797C69.185 34.0398 69.3595 34.5739 69.4258 35.1819H68.1528C68.091 34.7512 67.976 34.3818 67.8081 34.0736C67.6401 33.7612 67.4014 33.5205 67.092 33.3517C66.7826 33.1828 66.3782 33.0983 65.8787 33.0983C65.4499 33.0983 65.072 33.1765 64.7449 33.3327C64.4222 33.4889 64.1504 33.7105 63.9294 33.9976C63.7128 34.2847 63.5493 34.6288 63.4388 35.0299C63.3283 35.431 63.273 35.8764 63.273 36.3661V37.2971C63.273 37.7488 63.3216 38.1731 63.4189 38.57C63.5205 38.9668 63.673 39.3152 63.8764 39.6149C64.0797 39.9147 64.3383 40.1511 64.6521 40.3242C64.9659 40.4931 65.3372 40.5775 65.766 40.5775C66.3096 40.5775 66.7428 40.4952 67.0655 40.3305C67.3882 40.1659 67.6313 39.9295 67.7948 39.6213C67.9628 39.3131 68.0821 38.9436 68.1528 38.513ZM75.0782 40.2735V36.7461C75.0782 36.4759 75.0208 36.2416 74.9059 36.0432C74.7954 35.8405 74.6274 35.6843 74.402 35.5745C74.1765 35.4648 73.898 35.4099 73.5665 35.4099C73.2571 35.4099 72.9853 35.4605 72.751 35.5618C72.5211 35.6632 72.34 35.7962 72.2074 35.9608C72.0792 36.1255 72.0151 36.3028 72.0151 36.4928H70.7885C70.7885 36.2479 70.8548 36.0052 70.9874 35.7645C71.12 35.5239 71.31 35.3064 71.5576 35.1122C71.8095 34.9138 72.1101 34.7576 72.4593 34.6436C72.8129 34.5254 73.2063 34.4663 73.6395 34.4663C74.1611 34.4663 74.6208 34.5507 75.0186 34.7196C75.4208 34.8885 75.7346 35.1439 75.9601 35.4859C76.1899 35.8236 76.3049 36.2479 76.3049 36.7588V39.9506C76.3049 40.1785 76.3247 40.4213 76.3645 40.6789C76.4087 40.9363 76.4728 41.158 76.5567 41.3438V41.4451H75.2771C75.2153 41.3101 75.1667 41.1306 75.1313 40.9068C75.096 40.6789 75.0782 40.4678 75.0782 40.2735ZM75.2904 37.2907L75.3037 38.114H74.0638C73.7146 38.114 73.403 38.1415 73.129 38.1963C72.8549 38.247 72.625 38.3251 72.4394 38.4307C72.2537 38.5362 72.1123 38.6692 72.0151 38.8296C71.9179 38.9858 71.8692 39.1695 71.8692 39.3806C71.8692 39.5959 71.9201 39.7922 72.0217 39.9696C72.1234 40.1469 72.2759 40.2883 72.4792 40.3939C72.6869 40.4952 72.9411 40.5459 73.2417 40.5459C73.6174 40.5459 73.9489 40.4699 74.2362 40.3179C74.5235 40.1659 74.7512 39.9801 74.9191 39.7606C75.0915 39.541 75.1843 39.3278 75.1976 39.1209L75.7214 39.6846C75.6904 39.8619 75.6064 40.0582 75.4695 40.2735C75.3324 40.4889 75.149 40.6958 74.9191 40.8942C74.6937 41.0884 74.4241 41.251 74.1102 41.3818C73.8008 41.5085 73.4517 41.5718 73.0626 41.5718C72.5764 41.5718 72.1499 41.481 71.7831 41.2995C71.4206 41.1179 71.1377 40.8752 70.9344 40.5711C70.7355 40.263 70.636 39.9189 70.636 39.5389C70.636 39.1716 70.7111 38.8486 70.8614 38.57C71.0117 38.2871 71.2283 38.0528 71.5112 37.867C71.7941 37.677 72.1344 37.5335 72.5322 37.4364C72.9301 37.3393 73.3743 37.2907 73.865 37.2907H75.2904ZM79.325 35.6695V41.4451H78.0984V34.5929H79.2919L79.325 35.6695ZM81.566 34.5549L81.5594 35.6442C81.4578 35.6231 81.3605 35.6104 81.2677 35.6062C81.1793 35.5977 81.0777 35.5935 80.9627 35.5935C80.6798 35.5935 80.4301 35.6357 80.2135 35.7202C79.9969 35.8046 79.8135 35.9228 79.6632 36.0748C79.5129 36.2268 79.3935 36.4084 79.3052 36.6195C79.2212 36.8263 79.1659 37.0543 79.1394 37.3034L78.7946 37.4934C78.7946 37.0796 78.8366 36.6912 78.9206 36.3281C79.009 35.9651 79.1438 35.6442 79.325 35.3655C79.5062 35.0827 79.7361 34.8631 80.0146 34.7069C80.2975 34.5465 80.6334 34.4663 81.0224 34.4663C81.1107 34.4663 81.2125 34.4768 81.3273 34.4979C81.4423 34.5148 81.5219 34.5338 81.566 34.5549ZM87.1291 34.5929V41.4451H85.8959V34.5929H87.1291ZM85.8031 32.7754C85.8031 32.5854 85.8627 32.425 85.982 32.2941C86.1059 32.1632 86.287 32.0977 86.5257 32.0977C86.76 32.0977 86.939 32.1632 87.0628 32.2941C87.191 32.425 87.255 32.5854 87.255 32.7754C87.255 32.9569 87.191 33.1131 87.0628 33.244C86.939 33.3707 86.76 33.434 86.5257 33.434C86.287 33.434 86.1059 33.3707 85.982 33.244C85.8627 33.1131 85.8031 32.9569 85.8031 32.7754ZM90.1891 36.0558V41.4451H88.9624V34.5929H90.1227L90.1891 36.0558ZM89.8973 37.7594L89.3868 37.7404C89.3912 37.2717 89.4642 36.839 89.6056 36.4421C89.7471 36.041 89.9459 35.6927 90.2024 35.3972C90.4587 35.1017 90.7636 34.8737 91.1173 34.7132C91.4754 34.5486 91.8709 34.4663 92.304 34.4663C92.6577 34.4663 92.976 34.5127 93.2588 34.6056C93.5417 34.6942 93.7827 34.8378 93.9815 35.0362C94.1849 35.2346 94.3396 35.4922 94.4457 35.8088C94.5517 36.1213 94.6048 36.5033 94.6048 36.9551V41.4451H93.3715V36.9424C93.3715 36.5836 93.3163 36.2965 93.2058 36.0812C93.0953 35.8616 92.934 35.7033 92.7218 35.6062C92.5097 35.5049 92.2489 35.4542 91.9395 35.4542C91.6344 35.4542 91.356 35.5154 91.104 35.6379C90.8565 35.7603 90.6421 35.9292 90.4609 36.1445C90.2841 36.3598 90.1448 36.6068 90.0432 36.8854C89.9459 37.1599 89.8973 37.4512 89.8973 37.7594ZM101.58 40.7359L103.576 34.5929H104.888L102.011 42.5027C101.945 42.6716 101.856 42.8532 101.746 43.0474C101.64 43.2458 101.503 43.4337 101.335 43.611C101.167 43.7883 100.963 43.9318 100.725 44.0416C100.49 44.1556 100.21 44.2126 99.8827 44.2126C99.7854 44.2126 99.6617 44.1999 99.5114 44.1746C99.3611 44.1492 99.2551 44.1282 99.1932 44.1113L99.1865 43.1613C99.2219 43.1656 99.2771 43.1698 99.3523 43.174C99.4319 43.1824 99.4871 43.1867 99.518 43.1867C99.7965 43.1867 100.033 43.1508 100.228 43.079C100.422 43.0115 100.585 42.8953 100.718 42.7307C100.855 42.5703 100.972 42.3487 101.069 42.0657L101.58 40.7359ZM100.115 34.5929L101.978 39.9126L102.296 41.1475L101.414 41.5782L98.7755 34.5929H100.115ZM105.429 38.095V37.9494C105.429 37.4554 105.504 36.9973 105.654 36.5751C105.805 36.1487 106.021 35.7793 106.304 35.4669C106.587 35.1502 106.93 34.9053 107.332 34.7322C107.734 34.5549 108.185 34.4663 108.684 34.4663C109.188 34.4663 109.641 34.5549 110.044 34.7322C110.45 34.9053 110.795 35.1502 111.078 35.4669C111.365 35.7793 111.584 36.1487 111.734 36.5751C111.885 36.9973 111.96 37.4554 111.96 37.9494V38.095C111.96 38.589 111.885 39.0471 111.734 39.4693C111.584 39.8915 111.365 40.2609 111.078 40.5775C110.795 40.8899 110.453 41.1348 110.05 41.3121C109.652 41.4852 109.202 41.5718 108.698 41.5718C108.194 41.5718 107.741 41.4852 107.338 41.3121C106.936 41.1348 106.592 40.8899 106.304 40.5775C106.021 40.2609 105.805 39.8915 105.654 39.4693C105.504 39.0471 105.429 38.589 105.429 38.095ZM106.656 37.9494V38.095C106.656 38.437 106.698 38.76 106.782 39.064C106.866 39.3637 106.992 39.6297 107.16 39.8619C107.332 40.0941 107.546 40.2778 107.803 40.4129C108.059 40.5437 108.357 40.6092 108.698 40.6092C109.034 40.6092 109.328 40.5437 109.58 40.4129C109.836 40.2778 110.048 40.0941 110.216 39.8619C110.384 39.6297 110.51 39.3637 110.594 39.064C110.682 38.76 110.727 38.437 110.727 38.095V37.9494C110.727 37.6116 110.682 37.2928 110.594 36.9931C110.51 36.6891 110.382 36.421 110.209 36.1888C110.041 35.9524 109.829 35.7666 109.573 35.6315C109.321 35.4964 109.025 35.4289 108.684 35.4289C108.349 35.4289 108.052 35.4964 107.796 35.6315C107.544 35.7666 107.332 35.9524 107.16 36.1888C106.992 36.421 106.866 36.6891 106.782 36.9931C106.698 37.2928 106.656 37.6116 106.656 37.9494ZM117.751 39.8619V34.5929H118.985V41.4451H117.811L117.751 39.8619ZM117.983 38.418L118.494 38.4053C118.494 38.8613 118.443 39.2835 118.341 39.6719C118.244 40.0561 118.085 40.3896 117.864 40.6725C117.643 40.9554 117.354 41.177 116.996 41.3375C116.638 41.4937 116.202 41.5718 115.689 41.5718C115.34 41.5718 115.02 41.5232 114.728 41.4261C114.441 41.329 114.193 41.1792 113.985 40.9765C113.778 40.7738 113.616 40.51 113.501 40.1849C113.391 39.8598 113.336 39.4693 113.336 39.0133V34.5929H114.562V39.026C114.562 39.3342 114.598 39.5896 114.668 39.7922C114.744 39.9907 114.843 40.149 114.967 40.2672C115.095 40.3812 115.236 40.4614 115.391 40.5079C115.55 40.5543 115.714 40.5775 115.882 40.5775C116.403 40.5775 116.817 40.4825 117.122 40.2925C117.427 40.0983 117.645 39.8387 117.778 39.5136C117.915 39.1843 117.983 38.8191 117.983 38.418ZM121.945 35.6695V41.4451H120.719V34.5929H121.912L121.945 35.6695ZM124.186 34.5549L124.18 35.6442C124.078 35.6231 123.981 35.6104 123.888 35.6062C123.799 35.5977 123.698 35.5935 123.583 35.5935C123.3 35.5935 123.05 35.6357 122.834 35.7202C122.617 35.8046 122.434 35.9228 122.283 36.0748C122.133 36.2268 122.014 36.4084 121.925 36.6195C121.841 36.8263 121.786 37.0543 121.76 37.3034L121.415 37.4934C121.415 37.0796 121.457 36.6912 121.541 36.3281C121.629 35.9651 121.764 35.6442 121.945 35.3655C122.126 35.0827 122.356 34.8631 122.635 34.7069C122.918 34.5465 123.253 34.4663 123.643 34.4663C123.731 34.4663 123.833 34.4768 123.947 34.4979C124.062 34.5148 124.142 34.5338 124.186 34.5549ZM132.594 39.6276C132.594 39.4587 132.554 39.3025 132.474 39.159C132.399 39.0112 132.242 38.8782 132.003 38.76C131.769 38.6375 131.416 38.532 130.943 38.4433C130.545 38.3631 130.185 38.2681 129.862 38.1583C129.544 38.0486 129.272 37.9156 129.046 37.7594C128.825 37.6032 128.655 37.4195 128.536 37.2084C128.416 36.9973 128.357 36.7503 128.357 36.4675C128.357 36.1973 128.419 35.9418 128.542 35.7012C128.671 35.4605 128.85 35.2473 129.08 35.0616C129.314 34.8758 129.595 34.7301 129.922 34.6246C130.249 34.519 130.613 34.4663 131.016 34.4663C131.59 34.4663 132.081 34.5634 132.487 34.7576C132.894 34.9518 133.206 35.2114 133.422 35.5365C133.639 35.8574 133.747 36.2141 133.747 36.6068H132.521C132.521 36.4168 132.461 36.2331 132.342 36.0558C132.227 35.8743 132.057 35.7244 131.831 35.6062C131.61 35.488 131.338 35.4289 131.016 35.4289C130.675 35.4289 130.399 35.4795 130.187 35.5808C129.979 35.678 129.827 35.8025 129.729 35.9545C129.637 36.1065 129.59 36.2669 129.59 36.4358C129.59 36.5625 129.612 36.6764 129.656 36.7778C129.705 36.8749 129.789 36.9656 129.908 37.0501C130.028 37.1303 130.196 37.2063 130.412 37.2781C130.629 37.3498 130.905 37.4216 131.241 37.4934C131.829 37.62 132.313 37.772 132.693 37.9494C133.073 38.1267 133.356 38.3441 133.542 38.6016C133.727 38.8592 133.82 39.1716 133.82 39.5389C133.82 39.8387 133.754 40.1131 133.621 40.3622C133.493 40.6113 133.305 40.8267 133.058 41.0081C132.815 41.1855 132.523 41.3248 132.183 41.4261C131.847 41.5232 131.469 41.5718 131.049 41.5718C130.417 41.5718 129.882 41.4641 129.444 41.2488C129.007 41.0335 128.675 40.7549 128.45 40.4129C128.224 40.0709 128.112 39.7099 128.112 39.3299H129.345C129.362 39.6508 129.46 39.9062 129.637 40.0962C129.813 40.282 130.03 40.415 130.286 40.4952C130.543 40.5711 130.797 40.6092 131.049 40.6092C131.385 40.6092 131.665 40.567 131.891 40.4825C132.121 40.3981 132.295 40.282 132.415 40.1342C132.534 39.9865 132.594 39.8176 132.594 39.6276ZM136.516 35.9545V41.4451H135.282V34.5929H136.449L136.516 35.9545ZM136.264 37.7594L135.693 37.7404C135.698 37.2717 135.762 36.839 135.886 36.4421C136.009 36.041 136.193 35.6927 136.436 35.3972C136.679 35.1017 136.982 34.8737 137.344 34.7132C137.707 34.5486 138.127 34.4663 138.604 34.4663C138.94 34.4663 139.249 34.5127 139.532 34.6056C139.815 34.6942 140.06 34.8357 140.268 35.0299C140.476 35.2241 140.637 35.4732 140.752 35.7772C140.867 36.0812 140.925 36.4485 140.925 36.8791V41.4451H139.698V36.9361C139.698 36.5772 139.634 36.2901 139.506 36.0748C139.382 35.8595 139.205 35.7033 138.975 35.6062C138.745 35.5049 138.476 35.4542 138.166 35.4542C137.804 35.4542 137.501 35.5154 137.258 35.6379C137.015 35.7603 136.82 35.9292 136.675 36.1445C136.529 36.3598 136.423 36.6068 136.356 36.8854C136.294 37.1599 136.264 37.4512 136.264 37.7594ZM140.911 37.1134L140.089 37.3541C140.094 36.9783 140.158 36.6173 140.281 36.2711C140.41 35.9249 140.593 35.6167 140.832 35.3465C141.075 35.0763 141.373 34.8631 141.727 34.7069C142.08 34.5465 142.485 34.4663 142.94 34.4663C143.325 34.4663 143.665 34.5148 143.961 34.6119C144.262 34.709 144.514 34.8589 144.717 35.0616C144.925 35.26 145.082 35.5154 145.188 35.8278C145.294 36.1403 145.347 36.5118 145.347 36.9424V41.4451H144.114V36.9298C144.114 36.5456 144.05 36.2479 143.921 36.0368C143.798 35.8215 143.621 35.6716 143.391 35.5872C143.166 35.4985 142.896 35.4542 142.582 35.4542C142.313 35.4542 142.074 35.4985 141.866 35.5872C141.658 35.6758 141.484 35.7983 141.342 35.9545C141.201 36.1065 141.092 36.2817 141.017 36.4801C140.947 36.6786 140.911 36.8897 140.911 37.1134ZM151.298 40.2735V36.7461C151.298 36.4759 151.24 36.2416 151.125 36.0432C151.015 35.8405 150.847 35.6843 150.621 35.5745C150.396 35.4648 150.117 35.4099 149.786 35.4099C149.477 35.4099 149.205 35.4605 148.97 35.5618C148.741 35.6632 148.559 35.7962 148.427 35.9608C148.299 36.1255 148.234 36.3028 148.234 36.4928H147.008C147.008 36.2479 147.074 36.0052 147.207 35.7645C147.339 35.5239 147.529 35.3064 147.777 35.1122C148.029 34.9138 148.33 34.7576 148.679 34.6436C149.032 34.5254 149.426 34.4663 149.859 34.4663C150.381 34.4663 150.84 34.5507 151.238 34.7196C151.64 34.8885 151.954 35.1439 152.179 35.4859C152.409 35.8236 152.524 36.2479 152.524 36.7588V39.9506C152.524 40.1785 152.544 40.4213 152.584 40.6789C152.628 40.9363 152.692 41.158 152.776 41.3438V41.4451H151.497C151.435 41.3101 151.386 41.1306 151.351 40.9068C151.315 40.6789 151.298 40.4678 151.298 40.2735ZM151.51 37.2907L151.523 38.114H150.283C149.934 38.114 149.622 38.1415 149.348 38.1963C149.074 38.247 148.844 38.3251 148.659 38.4307C148.473 38.5362 148.332 38.6692 148.234 38.8296C148.137 38.9858 148.089 39.1695 148.089 39.3806C148.089 39.5959 148.139 39.7922 148.241 39.9696C148.343 40.1469 148.495 40.2883 148.699 40.3939C148.906 40.4952 149.161 40.5459 149.461 40.5459C149.837 40.5459 150.168 40.4699 150.456 40.3179C150.743 40.1659 150.971 39.9801 151.139 39.7606C151.311 39.541 151.404 39.3278 151.417 39.1209L151.941 39.6846C151.91 39.8619 151.826 40.0582 151.689 40.2735C151.552 40.4889 151.368 40.6958 151.139 40.8942C150.913 41.0884 150.644 41.251 150.33 41.3818C150.02 41.5085 149.671 41.5718 149.282 41.5718C148.796 41.5718 148.369 41.481 148.003 41.2995C147.64 41.1179 147.357 40.8752 147.154 40.5711C146.955 40.263 146.855 39.9189 146.855 39.5389C146.855 39.1716 146.931 38.8486 147.081 38.57C147.231 38.2871 147.448 38.0528 147.731 37.867C148.014 37.677 148.354 37.5335 148.752 37.4364C149.15 37.3393 149.594 37.2907 150.084 37.2907H151.51ZM155.544 35.6695V41.4451H154.318V34.5929H155.511L155.544 35.6695ZM157.785 34.5549L157.779 35.6442C157.677 35.6231 157.58 35.6104 157.487 35.6062C157.399 35.5977 157.297 35.5935 157.182 35.5935C156.899 35.5935 156.65 35.6357 156.433 35.7202C156.216 35.8046 156.033 35.9228 155.883 36.0748C155.732 36.2268 155.613 36.4084 155.525 36.6195C155.441 36.8263 155.385 37.0543 155.359 37.3034L155.014 37.4934C155.014 37.0796 155.056 36.6912 155.14 36.3281C155.228 35.9651 155.363 35.6442 155.544 35.3655C155.726 35.0827 155.956 34.8631 156.234 34.7069C156.517 34.5465 156.853 34.4663 157.242 34.4663C157.33 34.4663 157.432 34.4768 157.547 34.4979C157.662 34.5148 157.741 34.5338 157.785 34.5549ZM162.118 34.5929V35.4922H158.24V34.5929H162.118ZM159.553 32.9274H160.779V39.7479C160.779 39.9801 160.817 40.1553 160.892 40.2735C160.967 40.3918 161.064 40.4699 161.183 40.5079C161.303 40.5459 161.431 40.5648 161.568 40.5648C161.67 40.5648 161.776 40.5564 161.887 40.5396C162.001 40.5184 162.087 40.5015 162.145 40.4889L162.151 41.4451C162.054 41.4747 161.926 41.5021 161.767 41.5275C161.612 41.557 161.425 41.5718 161.204 41.5718C160.903 41.5718 160.627 41.5148 160.374 41.4008C160.123 41.2868 159.921 41.0968 159.771 40.8308C159.626 40.5606 159.553 40.1975 159.553 39.7416V32.9274ZM164.648 35.9102V44.0797H163.415V34.5929H164.542L164.648 35.9102ZM169.482 37.962V38.095C169.482 38.5932 169.42 39.0555 169.296 39.4819C169.172 39.9041 168.991 40.2714 168.752 40.5838C168.518 40.8963 168.229 41.139 167.883 41.3121C167.539 41.4852 167.143 41.5718 166.697 41.5718C166.241 41.5718 165.839 41.5 165.49 41.3565C165.141 41.2129 164.845 41.004 164.601 40.7295C164.359 40.4551 164.164 40.1258 164.018 39.7416C163.877 39.3574 163.78 38.9246 163.726 38.4433V37.734C163.78 37.2274 163.879 36.7736 164.025 36.3725C164.171 35.9714 164.363 35.6294 164.601 35.3465C164.845 35.0594 165.139 34.842 165.484 34.6942C165.828 34.5423 166.226 34.4663 166.677 34.4663C167.128 34.4663 167.527 34.5507 167.877 34.7196C168.226 34.8842 168.52 35.1207 168.758 35.4289C168.998 35.7371 169.176 36.1065 169.296 36.5371C169.42 36.9635 169.482 37.4385 169.482 37.962ZM168.248 38.095V37.962C168.248 37.62 168.21 37.2992 168.136 36.9994C168.06 36.6954 167.944 36.4295 167.785 36.2015C167.629 35.9693 167.431 35.7877 167.187 35.6568C166.945 35.5217 166.655 35.4542 166.319 35.4542C166.01 35.4542 165.74 35.5049 165.51 35.6062C165.284 35.7075 165.092 35.8447 164.933 36.0178C164.774 36.1867 164.644 36.3809 164.542 36.6005C164.445 36.8158 164.371 37.0395 164.323 37.2717V38.912C164.411 39.2075 164.535 39.4862 164.694 39.7479C164.853 40.0054 165.066 40.2144 165.331 40.3749C165.596 40.531 165.93 40.6092 166.333 40.6092C166.663 40.6092 166.948 40.5437 167.187 40.4129C167.431 40.2778 167.629 40.0941 167.785 39.8619C167.944 39.6297 168.06 39.3637 168.136 39.064C168.21 38.76 168.248 38.437 168.248 38.095ZM172.137 31.7178V41.4451H170.911V31.7178H172.137ZM171.846 37.7594L171.334 37.7404C171.339 37.2717 171.412 36.839 171.554 36.4421C171.695 36.041 171.894 35.6927 172.15 35.3972C172.407 35.1017 172.712 34.8737 173.066 34.7132C173.424 34.5486 173.819 34.4663 174.252 34.4663C174.606 34.4663 174.924 34.5127 175.207 34.6056C175.489 34.6942 175.731 34.8378 175.93 35.0362C176.133 35.2346 176.288 35.4922 176.393 35.8088C176.5 36.1213 176.552 36.5033 176.552 36.9551V41.4451H175.32V36.9424C175.32 36.5836 175.264 36.2965 175.154 36.0812C175.043 35.8616 174.882 35.7033 174.67 35.6062C174.457 35.5049 174.197 35.4542 173.887 35.4542C173.583 35.4542 173.304 35.5154 173.052 35.6379C172.805 35.7603 172.59 35.9292 172.409 36.1445C172.233 36.3598 172.093 36.6068 171.991 36.8854C171.894 37.1599 171.846 37.4512 171.846 37.7594ZM177.929 38.095V37.9494C177.929 37.4554 178.003 36.9973 178.154 36.5751C178.304 36.1487 178.521 35.7793 178.804 35.4669C179.087 35.1502 179.429 34.9053 179.832 34.7322C180.233 34.5549 180.684 34.4663 181.184 34.4663C181.688 34.4663 182.141 34.5549 182.544 34.7322C182.95 34.9053 183.294 35.1502 183.578 35.4669C183.865 35.7793 184.084 36.1487 184.234 36.5751C184.384 36.9973 184.459 37.4554 184.459 37.9494V38.095C184.459 38.589 184.384 39.0471 184.234 39.4693C184.084 39.8915 183.865 40.2609 183.578 40.5775C183.294 40.8899 182.952 41.1348 182.55 41.3121C182.152 41.4852 181.702 41.5718 181.197 41.5718C180.693 41.5718 180.24 41.4852 179.839 41.3121C179.436 41.1348 179.091 40.8899 178.804 40.5775C178.521 40.2609 178.304 39.8915 178.154 39.4693C178.003 39.0471 177.929 38.589 177.929 38.095ZM179.156 37.9494V38.095C179.156 38.437 179.197 38.76 179.281 39.064C179.365 39.3637 179.491 39.6297 179.659 39.8619C179.832 40.0941 180.046 40.2778 180.302 40.4129C180.558 40.5437 180.857 40.6092 181.197 40.6092C181.533 40.6092 181.827 40.5437 182.079 40.4129C182.335 40.2778 182.547 40.0941 182.715 39.8619C182.884 39.6297 183.009 39.3637 183.094 39.064C183.182 38.76 183.226 38.437 183.226 38.095V37.9494C183.226 37.6116 183.182 37.2928 183.094 36.9931C183.009 36.6891 182.881 36.421 182.709 36.1888C182.541 35.9524 182.329 35.7666 182.072 35.6315C181.821 35.4964 181.524 35.4289 181.184 35.4289C180.848 35.4289 180.552 35.4964 180.295 35.6315C180.044 35.7666 179.832 35.9524 179.659 36.1888C179.491 36.421 179.365 36.6891 179.281 36.9931C179.197 37.2928 179.156 37.6116 179.156 37.9494ZM187.089 36.0558V41.4451H185.862V34.5929H187.022L187.089 36.0558ZM186.797 37.7594L186.286 37.7404C186.29 37.2717 186.363 36.839 186.505 36.4421C186.646 36.041 186.845 35.6927 187.102 35.3972C187.358 35.1017 187.663 34.8737 188.017 34.7132C188.375 34.5486 188.77 34.4663 189.204 34.4663C189.557 34.4663 189.875 34.5127 190.158 34.6056C190.442 34.6942 190.682 34.8378 190.881 35.0362C191.085 35.2346 191.239 35.4922 191.346 35.8088C191.451 36.1213 191.505 36.5033 191.505 36.9551V41.4451H190.271V36.9424C190.271 36.5836 190.216 36.2965 190.105 36.0812C189.994 35.8616 189.833 35.7033 189.621 35.6062C189.409 35.5049 189.149 35.4542 188.839 35.4542C188.534 35.4542 188.255 35.5154 188.003 35.6379C187.756 35.7603 187.542 35.9292 187.36 36.1445C187.184 36.3598 187.044 36.6068 186.942 36.8854C186.845 37.1599 186.797 37.4512 186.797 37.7594ZM196.209 41.5718C195.709 41.5718 195.256 41.4915 194.849 41.3312C194.447 41.1665 194.1 40.9363 193.808 40.6408C193.521 40.3453 193.3 39.9949 193.146 39.5896C192.99 39.1843 192.913 38.741 192.913 38.2597V37.9937C192.913 37.4364 192.999 36.9403 193.172 36.5055C193.344 36.0664 193.578 35.6948 193.875 35.3909C194.171 35.0869 194.506 34.8568 194.883 34.7006C195.258 34.5444 195.647 34.4663 196.05 34.4663C196.562 34.4663 197.004 34.5507 197.375 34.7196C197.751 34.8885 198.058 35.1249 198.297 35.4289C198.535 35.7286 198.713 36.0833 198.827 36.4928C198.942 36.8981 199 37.3414 199 37.8227V38.3483H193.642V37.3921H197.773V37.3034C197.756 36.9994 197.69 36.7039 197.574 36.4168C197.464 36.1297 197.287 35.8933 197.044 35.7075C196.8 35.5217 196.47 35.4289 196.05 35.4289C195.771 35.4289 195.514 35.4859 195.28 35.5999C195.046 35.7096 194.845 35.8743 194.677 36.0938C194.509 36.3134 194.378 36.5815 194.285 36.8981C194.193 37.2147 194.147 37.5799 194.147 37.9937V38.2597C194.147 38.5848 194.193 38.8909 194.285 39.1779C194.383 39.4608 194.522 39.7099 194.703 39.9252C194.889 40.1406 195.113 40.3094 195.373 40.4319C195.638 40.5543 195.939 40.6155 196.275 40.6155C196.708 40.6155 197.075 40.531 197.375 40.3622C197.676 40.1933 197.939 39.9675 198.164 39.6846L198.907 40.2482C198.753 40.472 198.556 40.6852 198.317 40.8878C198.079 41.0905 197.784 41.2551 197.435 41.3818C197.09 41.5085 196.681 41.5718 196.209 41.5718Z" fill="white"/>
</svg>
