<svg width="200" height="44" viewBox="0 0 200 44" fill="none" xmlns="http://www.w3.org/2000/svg">
<path d="M15.4836 0C6.9545 0 0 6.88772 0 15.4076C0 27.4529 15.418 41.1304 15.418 41.1304C15.418 41.1304 31 27.4529 31 15.4076C31 6.88772 24.0455 0 15.4836 0ZM15.5492 27.3876C8.56191 27.3876 3.41164 22.3932 3.41164 15.4729C3.41164 8.55252 8.4963 3.55811 15.5164 3.55811C21.4868 3.55811 26.3746 7.27943 27.3587 12.535H20.7651C19.945 10.6417 17.9111 9.40124 15.582 9.40124C12.1376 9.40124 9.84127 11.8821 9.84127 15.5055C9.84127 19.1289 12.1048 21.5445 15.5492 21.5445C17.9439 21.5445 20.0106 20.402 20.7323 18.6393H15.0571V14.6894H27.5556C27.5884 22.1321 22.7005 27.3876 15.5492 27.3876Z" fill="#FF6900"/>
<path d="M52 17.5205C52 18.0316 51.9673 18.5426 51.8692 19.0856H38.9191C39.3115 21.0339 40.5869 22.056 42.4836 22.056C43.8898 22.056 45.0671 21.4491 45.6558 20.459H51.6403C50.3976 24.3556 46.8657 26.783 42.4836 26.783C37.0224 26.783 33 22.8864 33 17.6802C33 12.4421 37.0224 8.60932 42.4836 8.60932C48.1084 8.57738 52 12.506 52 17.5205ZM39.0172 15.8277H46.0809C45.5577 14.1349 44.2823 13.2086 42.4836 13.2086C40.7177 13.2086 39.5077 14.1349 39.0172 15.8277Z" fill="#FF6900"/>
<path d="M67 20.6928V25.8262H62.7157C58.7349 25.8262 56.306 23.5305 56.306 19.7363V13.3276H53V11.9566L61.0964 3.82617H62.3783V8.80009H66.8988V13.3276H62.5133V18.7479C62.5133 19.9595 63.2892 20.6928 64.6048 20.6928H67Z" fill="#FF6900"/>
<path d="M97 15.7132V26.7828H90.9415V16.4732C90.9415 14.6228 90.25 13.7306 88.9659 13.7306C87.2866 13.7306 86.4305 14.8871 86.4305 17.1011V26.7828H80.5366V16.4732C80.5366 14.6889 79.878 13.7306 78.5939 13.7306C76.9476 13.7306 76.0585 14.9202 76.0585 17.1011V26.7828H70V9.13758H74.2476L75.1037 11.0211C76.3878 9.5341 78.2317 8.60889 80.2402 8.60889C82.3805 8.60889 84.1915 9.56715 85.2781 11.2193C86.5293 9.63323 88.5049 8.60889 90.6781 8.60889C94.4976 8.60889 97 11.5498 97 15.7132Z" fill="#FF6900"/>
<path d="M120 9.08883V26.2069H115.259L114.725 24.991C113.255 26.1109 111.419 26.7828 109.349 26.7828C103.907 26.7828 100 22.9752 100 17.6638C100 12.3525 103.907 8.60889 109.349 8.60889C111.452 8.60889 113.322 9.28081 114.791 10.4327L115.426 9.12083L120 9.08883ZM114.157 17.6638C114.157 15.4561 112.454 13.7603 110.15 13.7603C107.846 13.7603 106.144 15.4241 106.144 17.6638C106.144 19.9036 107.846 21.5674 110.15 21.5674C112.454 21.5674 114.157 19.9036 114.157 17.6638Z" fill="#FF6900"/>
<path d="M142 16.0302V26.7828H135.727V16.8548C135.727 14.8098 134.943 13.7873 133.341 13.7873C131.398 13.7873 130.273 15.1066 130.273 17.3495V26.7498H124V9.13662H128.398L129.25 10.9507C130.614 9.49944 132.625 8.60889 134.977 8.60889C139.205 8.60889 142 11.5114 142 16.0302Z" fill="#FF6900"/>
<path d="M153.631 26.7828C148.048 26.7828 144 22.95 144 17.6479C144 12.3778 148.015 8.60889 153.663 8.60889C158.56 8.60889 162.249 11.6432 162.902 16.1787H157.058C156.569 14.7733 155.23 13.879 153.663 13.879C151.541 13.879 150.04 15.4441 150.04 17.6799C150.04 19.9157 151.574 21.5127 153.663 21.5127C155.263 21.5127 156.569 20.5545 157.091 19.0214H163C162.282 23.6527 158.56 26.7828 153.631 26.7828Z" fill="#FF6900"/>
<path d="M185 9.08883V26.2069H180.259L179.725 24.991C178.255 26.1109 176.419 26.7828 174.349 26.7828C168.907 26.7828 165 22.9752 165 17.6638C165 12.3525 168.907 8.60889 174.349 8.60889C176.452 8.60889 178.322 9.28081 179.791 10.4327L180.426 9.12083L185 9.08883ZM179.124 17.6638C179.124 15.4561 177.421 13.7603 175.117 13.7603C172.813 13.7603 171.11 15.4241 171.11 17.6638C171.11 19.9036 172.813 21.5674 175.117 21.5674C177.421 21.5674 179.124 19.9036 179.124 17.6638Z" fill="#FF6900"/>
<path d="M200 8.60913V14.0176H197.545C195.297 14.0176 194.363 14.9456 194.363 17.1218V25.8265H188V8.70514H192.254L193.256 10.5933C194.571 9.18518 196.161 8.60913 198.34 8.60913H200V8.60913Z" fill="#FF6900"/>
<path d="M68.1528 38.328H69.4258C69.3595 38.9078 69.185 39.4267 68.9021 39.8847C68.6192 40.3427 68.2191 40.7061 67.702 40.9751C67.1848 41.2398 66.5395 41.3721 65.766 41.3721C65.2002 41.3721 64.6852 41.2712 64.2211 41.0696C63.7614 40.8678 63.3658 40.5821 63.0343 40.2124C62.7028 39.8385 62.4464 39.391 62.2652 38.87C62.0884 38.3448 62 37.7608 62 37.1179V36.2041C62 35.5612 62.0884 34.9793 62.2652 34.4583C62.4464 33.9331 62.705 33.4835 63.0409 33.1095C63.3813 32.7356 63.7902 32.4478 64.2675 32.2461C64.7449 32.0444 65.282 31.9436 65.8787 31.9436C66.608 31.9436 67.2246 32.0738 67.7285 32.3343C68.2324 32.5948 68.6236 32.9562 68.9021 33.4184C69.185 33.8763 69.3595 34.4078 69.4258 35.0129H68.1528C68.091 34.5843 67.976 34.2167 67.8081 33.91C67.6401 33.599 67.4014 33.3595 67.092 33.1915C66.7826 33.0234 66.3782 32.9394 65.8787 32.9394C65.4499 32.9394 65.072 33.0171 64.7449 33.1726C64.4222 33.328 64.1504 33.5486 63.9294 33.8343C63.7128 34.12 63.5493 34.4625 63.4388 34.8616C63.3283 35.2608 63.273 35.7041 63.273 36.1914V37.1179C63.273 37.5675 63.3216 37.9898 63.4189 38.3847C63.5205 38.7797 63.673 39.1263 63.8764 39.4246C64.0797 39.7229 64.3383 39.9582 64.6521 40.1305C64.9659 40.2986 65.3372 40.3826 65.766 40.3826C66.3096 40.3826 66.7428 40.3007 67.0655 40.1368C67.3882 39.9729 67.6313 39.7376 67.7948 39.4309C67.9628 39.1242 68.0821 38.7566 68.1528 38.328ZM75.0782 40.0801V36.5696C75.0782 36.3007 75.0208 36.0675 74.9059 35.87C74.7954 35.6683 74.6274 35.5129 74.402 35.4036C74.1765 35.2944 73.898 35.2398 73.5665 35.2398C73.2571 35.2398 72.9853 35.2902 72.751 35.391C72.5211 35.4919 72.34 35.6242 72.2074 35.7881C72.0792 35.952 72.0151 36.1284 72.0151 36.3175H70.7885C70.7885 36.0738 70.8548 35.8322 70.9874 35.5927C71.12 35.3532 71.31 35.1368 71.5576 34.9436C71.8095 34.7461 72.1101 34.5906 72.4593 34.4772C72.8129 34.3595 73.2063 34.3007 73.6395 34.3007C74.1611 34.3007 74.6208 34.3847 75.0186 34.5528C75.4208 34.7209 75.7346 34.9751 75.9601 35.3154C76.1899 35.6515 76.3049 36.0738 76.3049 36.5822V39.7587C76.3049 39.9855 76.3247 40.2271 76.3645 40.4835C76.4087 40.7397 76.4728 40.9603 76.5567 41.1452V41.246H75.2771C75.2153 41.1116 75.1667 40.933 75.1313 40.7103C75.096 40.4835 75.0782 40.2734 75.0782 40.0801ZM75.2904 37.1116L75.3037 37.9309H74.0638C73.7146 37.9309 73.403 37.9582 73.129 38.0129C72.8549 38.0633 72.625 38.141 72.4394 38.2461C72.2537 38.3511 72.1123 38.4834 72.0151 38.6431C71.9179 38.7986 71.8692 38.9813 71.8692 39.1914C71.8692 39.4057 71.9201 39.6011 72.0217 39.7776C72.1234 39.954 72.2759 40.0948 72.4792 40.1998C72.6869 40.3007 72.9411 40.3511 73.2417 40.3511C73.6174 40.3511 73.9489 40.2755 74.2362 40.1242C74.5235 39.9729 74.7512 39.7881 74.9191 39.5696C75.0915 39.3511 75.1843 39.1389 75.1976 38.933L75.7214 39.4939C75.6904 39.6704 75.6064 39.8658 75.4695 40.0801C75.3324 40.2944 75.149 40.5003 74.9191 40.6977C74.6937 40.891 74.4241 41.0528 74.1102 41.183C73.8008 41.3091 73.4517 41.3721 73.0626 41.3721C72.5764 41.3721 72.1499 41.2817 71.7831 41.1011C71.4206 40.9204 71.1377 40.6788 70.9344 40.3763C70.7355 40.0696 70.636 39.7271 70.636 39.349C70.636 38.9834 70.7111 38.662 70.8614 38.3847C71.0117 38.1032 71.2283 37.87 71.5112 37.6851C71.7941 37.4961 72.1344 37.3532 72.5322 37.2566C72.9301 37.1599 73.3743 37.1116 73.865 37.1116H75.2904ZM79.325 35.4982V41.246H78.0984V34.4268H79.2919L79.325 35.4982ZM81.566 34.3889L81.5594 35.473C81.4578 35.452 81.3605 35.4393 81.2677 35.4352C81.1793 35.4267 81.0777 35.4225 80.9627 35.4225C80.6798 35.4225 80.4301 35.4646 80.2135 35.5486C79.9969 35.6326 79.8135 35.7503 79.6632 35.9015C79.5129 36.0528 79.3935 36.2335 79.3052 36.4436C79.2212 36.6494 79.1659 36.8763 79.1394 37.1242L78.7946 37.3133C78.7946 36.9015 78.8366 36.515 78.9206 36.1536C79.009 35.7923 79.1438 35.473 79.325 35.1957C79.5062 34.9141 79.7361 34.6957 80.0146 34.5402C80.2975 34.3805 80.6334 34.3007 81.0224 34.3007C81.1107 34.3007 81.2125 34.3112 81.3273 34.3322C81.4423 34.349 81.5219 34.3679 81.566 34.3889ZM87.1291 34.4268V41.246H85.8959V34.4268H87.1291ZM85.8031 32.6179C85.8031 32.4289 85.8627 32.2692 85.982 32.139C86.1059 32.0087 86.287 31.9436 86.5257 31.9436C86.76 31.9436 86.939 32.0087 87.0628 32.139C87.191 32.2692 87.255 32.4289 87.255 32.6179C87.255 32.7986 87.191 32.9541 87.0628 33.0843C86.939 33.2104 86.76 33.2734 86.5257 33.2734C86.287 33.2734 86.1059 33.2104 85.982 33.0843C85.8627 32.9541 85.8031 32.7986 85.8031 32.6179ZM90.1891 35.8826V41.246H88.9624V34.4268H90.1227L90.1891 35.8826ZM89.8973 37.578L89.3868 37.5591C89.3912 37.0927 89.4642 36.662 89.6056 36.2671C89.7471 35.8679 89.9459 35.5213 90.2024 35.2272C90.4587 34.9331 90.7636 34.7062 91.1173 34.5465C91.4754 34.3826 91.8709 34.3007 92.304 34.3007C92.6577 34.3007 92.976 34.3469 93.2588 34.4394C93.5417 34.5276 93.7827 34.6705 93.9815 34.8679C94.1849 35.0654 94.3396 35.3217 94.4457 35.6368C94.5517 35.9478 94.6048 36.328 94.6048 36.7776V41.246H93.3715V36.765C93.3715 36.4078 93.3163 36.1221 93.2058 35.9078C93.0953 35.6893 92.934 35.5318 92.7218 35.4352C92.5097 35.3343 92.2489 35.2839 91.9395 35.2839C91.6344 35.2839 91.356 35.3448 91.104 35.4667C90.8565 35.5885 90.6421 35.7566 90.4609 35.9709C90.2841 36.1851 90.1448 36.4309 90.0432 36.7082C89.9459 36.9814 89.8973 37.2713 89.8973 37.578ZM101.58 40.5402L103.576 34.4268H104.888L102.011 42.2985C101.945 42.4666 101.856 42.6473 101.746 42.8406C101.64 43.0381 101.503 43.225 101.335 43.4015C101.167 43.578 100.963 43.7208 100.725 43.83C100.49 43.9435 100.21 44.0002 99.8827 44.0002C99.7854 44.0002 99.6617 43.9876 99.5114 43.9624C99.3611 43.9372 99.2551 43.9162 99.1932 43.8994L99.1865 42.954C99.2219 42.9582 99.2771 42.9625 99.3523 42.9666C99.4319 42.975 99.4871 42.9792 99.518 42.9792C99.7965 42.9792 100.033 42.9435 100.228 42.8721C100.422 42.8049 100.585 42.6893 100.718 42.5254C100.855 42.3658 100.972 42.1452 101.069 41.8637L101.58 40.5402ZM100.115 34.4268L101.978 39.7208L102.296 40.9498L101.414 41.3784L98.7755 34.4268H100.115ZM105.429 37.912V37.7671C105.429 37.2755 105.504 36.8196 105.654 36.3994C105.805 35.9751 106.021 35.6074 106.304 35.2965C106.587 34.9814 106.93 34.7377 107.332 34.5654C107.734 34.3889 108.185 34.3007 108.684 34.3007C109.188 34.3007 109.641 34.3889 110.044 34.5654C110.45 34.7377 110.795 34.9814 111.078 35.2965C111.365 35.6074 111.584 35.9751 111.734 36.3994C111.885 36.8196 111.96 37.2755 111.96 37.7671V37.912C111.96 38.4036 111.885 38.8595 111.734 39.2797C111.584 39.6998 111.365 40.0675 111.078 40.3826C110.795 40.6935 110.453 40.9372 110.05 41.1136C109.652 41.286 109.202 41.3721 108.698 41.3721C108.194 41.3721 107.741 41.286 107.338 41.1136C106.936 40.9372 106.592 40.6935 106.304 40.3826C106.021 40.0675 105.805 39.6998 105.654 39.2797C105.504 38.8595 105.429 38.4036 105.429 37.912ZM106.656 37.7671V37.912C106.656 38.2524 106.698 38.5738 106.782 38.8763C106.866 39.1746 106.992 39.4393 107.16 39.6704C107.332 39.9015 107.546 40.0843 107.803 40.2187C108.059 40.349 108.357 40.4141 108.698 40.4141C109.034 40.4141 109.328 40.349 109.58 40.2187C109.836 40.0843 110.048 39.9015 110.216 39.6704C110.384 39.4393 110.51 39.1746 110.594 38.8763C110.682 38.5738 110.727 38.2524 110.727 37.912V37.7671C110.727 37.4309 110.682 37.1137 110.594 36.8154C110.51 36.5129 110.382 36.2461 110.209 36.015C110.041 35.7797 109.829 35.5948 109.573 35.4604C109.321 35.3259 109.025 35.2587 108.684 35.2587C108.349 35.2587 108.052 35.3259 107.796 35.4604C107.544 35.5948 107.332 35.7797 107.16 36.015C106.992 36.2461 106.866 36.5129 106.782 36.8154C106.698 37.1137 106.656 37.4309 106.656 37.7671ZM117.751 39.6704V34.4268H118.985V41.246H117.811L117.751 39.6704ZM117.983 38.2334L118.494 38.2208C118.494 38.6746 118.443 39.0948 118.341 39.4813C118.244 39.8637 118.085 40.1956 117.864 40.4771C117.643 40.7587 117.354 40.9792 116.996 41.1389C116.638 41.2943 116.202 41.3721 115.689 41.3721C115.34 41.3721 115.02 41.3238 114.728 41.2271C114.441 41.1305 114.193 40.9813 113.985 40.7796C113.778 40.578 113.616 40.3154 113.501 39.9918C113.391 39.6683 113.336 39.2797 113.336 38.8259V34.4268H114.562V38.8385C114.562 39.1452 114.598 39.3994 114.668 39.6011C114.744 39.7986 114.843 39.9561 114.967 40.0738C115.095 40.1872 115.236 40.267 115.391 40.3133C115.55 40.3595 115.714 40.3826 115.882 40.3826C116.403 40.3826 116.817 40.2881 117.122 40.099C117.427 39.9057 117.645 39.6473 117.778 39.3238C117.915 38.9961 117.983 38.6326 117.983 38.2334ZM121.945 35.4982V41.246H120.719V34.4268H121.912L121.945 35.4982ZM124.186 34.3889L124.18 35.473C124.078 35.452 123.981 35.4393 123.888 35.4352C123.799 35.4267 123.698 35.4225 123.583 35.4225C123.3 35.4225 123.05 35.4646 122.834 35.5486C122.617 35.6326 122.434 35.7503 122.283 35.9015C122.133 36.0528 122.014 36.2335 121.925 36.4436C121.841 36.6494 121.786 36.8763 121.76 37.1242L121.415 37.3133C121.415 36.9015 121.457 36.515 121.541 36.1536C121.629 35.7923 121.764 35.473 121.945 35.1957C122.126 34.9141 122.356 34.6957 122.635 34.5402C122.918 34.3805 123.253 34.3007 123.643 34.3007C123.731 34.3007 123.833 34.3112 123.947 34.3322C124.062 34.349 124.142 34.3679 124.186 34.3889ZM132.594 39.4372C132.594 39.2692 132.554 39.1137 132.474 38.9708C132.399 38.8238 132.242 38.6914 132.003 38.5738C131.769 38.4519 131.416 38.3469 130.943 38.2587C130.545 38.1788 130.185 38.0843 129.862 37.9751C129.544 37.8658 129.272 37.7335 129.046 37.578C128.825 37.4225 128.655 37.2398 128.536 37.0297C128.416 36.8196 128.357 36.5738 128.357 36.2923C128.357 36.0234 128.419 35.7692 128.542 35.5297C128.671 35.2902 128.85 35.078 129.08 34.8931C129.314 34.7083 129.595 34.5633 129.922 34.4583C130.249 34.3532 130.613 34.3007 131.016 34.3007C131.59 34.3007 132.081 34.3973 132.487 34.5906C132.894 34.7839 133.206 35.0423 133.422 35.3658C133.639 35.6851 133.747 36.0402 133.747 36.4309H132.521C132.521 36.2419 132.461 36.0591 132.342 35.8826C132.227 35.702 132.057 35.5528 131.831 35.4352C131.61 35.3175 131.338 35.2587 131.016 35.2587C130.675 35.2587 130.399 35.3091 130.187 35.4099C129.979 35.5066 129.827 35.6305 129.729 35.7818C129.637 35.933 129.59 36.0927 129.59 36.2608C129.59 36.3868 129.612 36.5003 129.656 36.6011C129.705 36.6977 129.789 36.7881 129.908 36.8721C130.028 36.9519 130.196 37.0276 130.412 37.099C130.629 37.1704 130.905 37.2419 131.241 37.3133C131.829 37.4393 132.313 37.5906 132.693 37.7671C133.073 37.9435 133.356 38.1599 133.542 38.4162C133.727 38.6725 133.82 38.9834 133.82 39.349C133.82 39.6473 133.754 39.9204 133.621 40.1683C133.493 40.4162 133.305 40.6305 133.058 40.8111C132.815 40.9876 132.523 41.1263 132.183 41.2271C131.847 41.3238 131.469 41.3721 131.049 41.3721C130.417 41.3721 129.882 41.2649 129.444 41.0507C129.007 40.8364 128.675 40.5591 128.45 40.2187C128.224 39.8784 128.112 39.5192 128.112 39.141H129.345C129.362 39.4603 129.46 39.7145 129.637 39.9036C129.813 40.0885 130.03 40.2208 130.286 40.3007C130.543 40.3763 130.797 40.4141 131.049 40.4141C131.385 40.4141 131.665 40.3721 131.891 40.2881C132.121 40.204 132.295 40.0885 132.415 39.9414C132.534 39.7944 132.594 39.6263 132.594 39.4372ZM136.515 35.7818V41.246H135.282V34.4268H136.449L136.515 35.7818ZM136.264 37.578L135.693 37.5591C135.698 37.0927 135.762 36.662 135.886 36.2671C136.009 35.8679 136.193 35.5213 136.436 35.2272C136.679 34.9331 136.982 34.7062 137.344 34.5465C137.707 34.3826 138.127 34.3007 138.604 34.3007C138.94 34.3007 139.249 34.3469 139.532 34.4394C139.815 34.5276 140.06 34.6683 140.268 34.8616C140.476 35.0549 140.637 35.3028 140.752 35.6053C140.867 35.9078 140.925 36.2734 140.925 36.7019V41.246H139.698V36.7587C139.698 36.4015 139.634 36.1158 139.506 35.9015C139.382 35.6872 139.205 35.5318 138.975 35.4352C138.745 35.3343 138.476 35.2839 138.166 35.2839C137.804 35.2839 137.501 35.3448 137.258 35.4667C137.015 35.5885 136.82 35.7566 136.675 35.9709C136.529 36.1851 136.423 36.4309 136.356 36.7082C136.294 36.9814 136.264 37.2713 136.264 37.578ZM140.911 36.9351L140.089 37.1746C140.094 36.8007 140.158 36.4414 140.281 36.0969C140.41 35.7524 140.593 35.4457 140.832 35.1767C141.075 34.9078 141.373 34.6957 141.727 34.5402C142.08 34.3805 142.485 34.3007 142.94 34.3007C143.325 34.3007 143.665 34.349 143.961 34.4457C144.262 34.5423 144.514 34.6915 144.717 34.8931C144.925 35.0906 145.082 35.3448 145.188 35.6557C145.294 35.9667 145.347 36.3364 145.347 36.765V41.246H144.114V36.7524C144.114 36.37 144.05 36.0738 143.921 35.8637C143.798 35.6494 143.621 35.5003 143.391 35.4162C143.166 35.328 142.896 35.2839 142.582 35.2839C142.313 35.2839 142.074 35.328 141.866 35.4162C141.658 35.5045 141.484 35.6263 141.342 35.7818C141.201 35.933 141.092 36.1074 141.017 36.3049C140.947 36.5024 140.911 36.7125 140.911 36.9351ZM151.298 40.0801V36.5696C151.298 36.3007 151.24 36.0675 151.125 35.87C151.015 35.6683 150.847 35.5129 150.621 35.4036C150.396 35.2944 150.117 35.2398 149.786 35.2398C149.477 35.2398 149.205 35.2902 148.97 35.391C148.741 35.4919 148.559 35.6242 148.427 35.7881C148.299 35.952 148.234 36.1284 148.234 36.3175H147.008C147.008 36.0738 147.074 35.8322 147.207 35.5927C147.339 35.3532 147.529 35.1368 147.777 34.9436C148.029 34.7461 148.33 34.5906 148.679 34.4772C149.032 34.3595 149.426 34.3007 149.859 34.3007C150.381 34.3007 150.84 34.3847 151.238 34.5528C151.64 34.7209 151.954 34.9751 152.179 35.3154C152.409 35.6515 152.524 36.0738 152.524 36.5822V39.7587C152.524 39.9855 152.544 40.2271 152.584 40.4835C152.628 40.7397 152.692 40.9603 152.776 41.1452V41.246H151.497C151.435 41.1116 151.386 40.933 151.351 40.7103C151.315 40.4835 151.298 40.2734 151.298 40.0801ZM151.51 37.1116L151.523 37.9309H150.283C149.934 37.9309 149.622 37.9582 149.348 38.0129C149.074 38.0633 148.844 38.141 148.659 38.2461C148.473 38.3511 148.332 38.4834 148.234 38.6431C148.137 38.7986 148.089 38.9813 148.089 39.1914C148.089 39.4057 148.139 39.6011 148.241 39.7776C148.343 39.954 148.495 40.0948 148.699 40.1998C148.906 40.3007 149.161 40.3511 149.461 40.3511C149.837 40.3511 150.168 40.2755 150.456 40.1242C150.743 39.9729 150.971 39.7881 151.139 39.5696C151.311 39.3511 151.404 39.1389 151.417 38.933L151.941 39.4939C151.91 39.6704 151.826 39.8658 151.689 40.0801C151.552 40.2944 151.368 40.5003 151.139 40.6977C150.913 40.891 150.644 41.0528 150.33 41.183C150.02 41.3091 149.671 41.3721 149.282 41.3721C148.796 41.3721 148.369 41.2817 148.003 41.1011C147.64 40.9204 147.357 40.6788 147.154 40.3763C146.955 40.0696 146.855 39.7271 146.855 39.349C146.855 38.9834 146.931 38.662 147.081 38.3847C147.231 38.1032 147.448 37.87 147.731 37.6851C148.014 37.4961 148.354 37.3532 148.752 37.2566C149.15 37.1599 149.594 37.1116 150.084 37.1116H151.51ZM155.544 35.4982V41.246H154.318V34.4268H155.511L155.544 35.4982ZM157.785 34.3889L157.779 35.473C157.677 35.452 157.58 35.4393 157.487 35.4352C157.399 35.4267 157.297 35.4225 157.182 35.4225C156.899 35.4225 156.65 35.4646 156.433 35.5486C156.216 35.6326 156.033 35.7503 155.883 35.9015C155.732 36.0528 155.613 36.2335 155.525 36.4436C155.441 36.6494 155.385 36.8763 155.359 37.1242L155.014 37.3133C155.014 36.9015 155.056 36.515 155.14 36.1536C155.228 35.7923 155.363 35.473 155.544 35.1957C155.726 34.9141 155.956 34.6957 156.234 34.5402C156.517 34.3805 156.853 34.3007 157.242 34.3007C157.33 34.3007 157.432 34.3112 157.547 34.3322C157.662 34.349 157.741 34.3679 157.785 34.3889ZM162.118 34.4268V35.3217H158.24V34.4268H162.118ZM159.553 32.7692H160.779V39.557C160.779 39.7881 160.817 39.9624 160.892 40.0801C160.967 40.1977 161.064 40.2755 161.183 40.3133C161.303 40.3511 161.431 40.37 161.568 40.37C161.67 40.37 161.776 40.3616 161.887 40.3448C162.001 40.3238 162.087 40.307 162.145 40.2944L162.151 41.246C162.054 41.2754 161.926 41.3027 161.767 41.328C161.612 41.3574 161.425 41.3721 161.204 41.3721C160.903 41.3721 160.627 41.3154 160.374 41.2019C160.123 41.0885 159.921 40.8994 159.771 40.6347C159.626 40.3657 159.553 40.0044 159.553 39.5507V32.7692ZM164.648 35.7377V43.8679H163.415V34.4268H164.542L164.648 35.7377ZM169.482 37.7797V37.912C169.482 38.4078 169.42 38.8679 169.296 39.2923C169.172 39.7124 168.991 40.078 168.752 40.3889C168.518 40.6999 168.229 40.9414 167.883 41.1136C167.539 41.286 167.143 41.3721 166.697 41.3721C166.241 41.3721 165.839 41.3006 165.49 41.1578C165.141 41.0149 164.845 40.807 164.601 40.5338C164.359 40.2608 164.164 39.933 164.018 39.5507C163.877 39.1683 163.78 38.7377 163.726 38.2587V37.5528C163.78 37.0486 163.879 36.5969 164.025 36.1977C164.171 35.7986 164.363 35.4583 164.601 35.1767C164.845 34.891 165.139 34.6747 165.484 34.5276C165.828 34.3763 166.226 34.3007 166.677 34.3007C167.128 34.3007 167.527 34.3847 167.877 34.5528C168.226 34.7167 168.52 34.952 168.758 35.2587C168.998 35.5654 169.176 35.933 169.296 36.3616C169.42 36.786 169.482 37.2587 169.482 37.7797ZM168.248 37.912V37.7797C168.248 37.4393 168.21 37.12 168.136 36.8217C168.06 36.5192 167.944 36.2545 167.785 36.0276C167.629 35.7965 167.431 35.6158 167.187 35.4856C166.945 35.3511 166.655 35.2839 166.319 35.2839C166.01 35.2839 165.74 35.3343 165.51 35.4352C165.284 35.536 165.092 35.6725 164.933 35.8448C164.774 36.0129 164.644 36.2062 164.542 36.4246C164.445 36.6389 164.371 36.8616 164.323 37.0927V38.725C164.411 39.0192 164.535 39.2965 164.694 39.557C164.853 39.8133 165.066 40.0213 165.331 40.1809C165.596 40.3363 165.93 40.4141 166.333 40.4141C166.663 40.4141 166.948 40.349 167.187 40.2187C167.431 40.0843 167.629 39.9015 167.785 39.6704C167.944 39.4393 168.06 39.1746 168.136 38.8763C168.21 38.5738 168.248 38.2524 168.248 37.912ZM172.137 31.5654V41.246H170.911V31.5654H172.137ZM171.846 37.578L171.334 37.5591C171.339 37.0927 171.412 36.662 171.554 36.2671C171.695 35.8679 171.894 35.5213 172.15 35.2272C172.407 34.9331 172.712 34.7062 173.066 34.5465C173.424 34.3826 173.819 34.3007 174.252 34.3007C174.606 34.3007 174.924 34.3469 175.207 34.4394C175.489 34.5276 175.731 34.6705 175.93 34.8679C176.133 35.0654 176.288 35.3217 176.393 35.6368C176.5 35.9478 176.552 36.328 176.552 36.7776V41.246H175.32V36.765C175.32 36.4078 175.264 36.1221 175.154 35.9078C175.043 35.6893 174.882 35.5318 174.67 35.4352C174.457 35.3343 174.197 35.2839 173.887 35.2839C173.583 35.2839 173.304 35.3448 173.052 35.4667C172.805 35.5885 172.59 35.7566 172.409 35.9709C172.233 36.1851 172.093 36.4309 171.991 36.7082C171.894 36.9814 171.846 37.2713 171.846 37.578ZM177.929 37.912V37.7671C177.929 37.2755 178.003 36.8196 178.154 36.3994C178.304 35.9751 178.521 35.6074 178.804 35.2965C179.087 34.9814 179.429 34.7377 179.832 34.5654C180.233 34.3889 180.684 34.3007 181.184 34.3007C181.688 34.3007 182.141 34.3889 182.544 34.5654C182.95 34.7377 183.294 34.9814 183.578 35.2965C183.865 35.6074 184.084 35.9751 184.234 36.3994C184.384 36.8196 184.459 37.2755 184.459 37.7671V37.912C184.459 38.4036 184.384 38.8595 184.234 39.2797C184.084 39.6998 183.865 40.0675 183.578 40.3826C183.294 40.6935 182.952 40.9372 182.55 41.1136C182.152 41.286 181.702 41.3721 181.197 41.3721C180.693 41.3721 180.24 41.286 179.839 41.1136C179.436 40.9372 179.091 40.6935 178.804 40.3826C178.521 40.0675 178.304 39.6998 178.154 39.2797C178.003 38.8595 177.929 38.4036 177.929 37.912ZM179.156 37.7671V37.912C179.156 38.2524 179.197 38.5738 179.281 38.8763C179.365 39.1746 179.491 39.4393 179.659 39.6704C179.832 39.9015 180.046 40.0843 180.302 40.2187C180.558 40.349 180.857 40.4141 181.197 40.4141C181.533 40.4141 181.827 40.349 182.079 40.2187C182.335 40.0843 182.547 39.9015 182.715 39.6704C182.884 39.4393 183.009 39.1746 183.094 38.8763C183.182 38.5738 183.226 38.2524 183.226 37.912V37.7671C183.226 37.4309 183.182 37.1137 183.094 36.8154C183.009 36.5129 182.881 36.2461 182.709 36.015C182.541 35.7797 182.329 35.5948 182.072 35.4604C181.821 35.3259 181.524 35.2587 181.184 35.2587C180.848 35.2587 180.552 35.3259 180.295 35.4604C180.044 35.5948 179.832 35.7797 179.659 36.015C179.491 36.2461 179.365 36.5129 179.281 36.8154C179.197 37.1137 179.156 37.4309 179.156 37.7671ZM187.089 35.8826V41.246H185.862V34.4268H187.022L187.089 35.8826ZM186.797 37.578L186.286 37.5591C186.29 37.0927 186.363 36.662 186.505 36.2671C186.646 35.8679 186.845 35.5213 187.102 35.2272C187.358 34.9331 187.663 34.7062 188.017 34.5465C188.375 34.3826 188.77 34.3007 189.204 34.3007C189.557 34.3007 189.875 34.3469 190.158 34.4394C190.442 34.5276 190.682 34.6705 190.881 34.8679C191.085 35.0654 191.239 35.3217 191.345 35.6368C191.451 35.9478 191.505 36.328 191.505 36.7776V41.246H190.271V36.765C190.271 36.4078 190.216 36.1221 190.105 35.9078C189.994 35.6893 189.833 35.5318 189.621 35.4352C189.409 35.3343 189.149 35.2839 188.839 35.2839C188.534 35.2839 188.255 35.3448 188.003 35.4667C187.756 35.5885 187.542 35.7566 187.36 35.9709C187.184 36.1851 187.044 36.4309 186.942 36.7082C186.845 36.9814 186.797 37.2713 186.797 37.578ZM196.209 41.3721C195.709 41.3721 195.256 41.2922 194.849 41.1326C194.447 40.9687 194.1 40.7397 193.808 40.4456C193.521 40.1515 193.3 39.8028 193.146 39.3994C192.99 38.9961 192.913 38.5549 192.913 38.0759V37.8112C192.913 37.2566 192.999 36.7629 193.172 36.3301C193.344 35.8931 193.578 35.5234 193.875 35.2209C194.171 34.9183 194.506 34.6894 194.883 34.5339C195.258 34.3784 195.647 34.3007 196.05 34.3007C196.562 34.3007 197.004 34.3847 197.375 34.5528C197.751 34.7209 198.058 34.9562 198.297 35.2587C198.535 35.557 198.713 35.9099 198.827 36.3175C198.942 36.7209 199 37.162 199 37.641V38.1641H193.642V37.2124H197.773V37.1242C197.756 36.8217 197.69 36.5276 197.574 36.2419C197.464 35.9562 197.287 35.7209 197.044 35.536C196.8 35.3511 196.47 35.2587 196.05 35.2587C195.771 35.2587 195.514 35.3154 195.28 35.4288C195.046 35.5381 194.845 35.702 194.677 35.9204C194.509 36.1389 194.378 36.4057 194.285 36.7209C194.193 37.036 194.147 37.3994 194.147 37.8112V38.0759C194.147 38.3994 194.193 38.704 194.285 38.9897C194.383 39.2713 194.522 39.5192 194.703 39.7334C194.889 39.9477 195.113 40.1158 195.373 40.2376C195.638 40.3595 195.939 40.4204 196.275 40.4204C196.708 40.4204 197.075 40.3363 197.375 40.1683C197.676 40.0002 197.939 39.7755 198.164 39.4939L198.907 40.0549C198.753 40.2775 198.556 40.4897 198.317 40.6914C198.079 40.8931 197.784 41.0569 197.435 41.183C197.09 41.3091 196.681 41.3721 196.209 41.3721Z" fill="white"/>
</svg>
