<?xml version="1.0" standalone="no"?>
<!DOCTYPE svg PUBLIC "-//W3C//DTD SVG 1.1//EN" "http://www.w3.org/Graphics/SVG/1.1/DTD/svg11.dtd" >
<svg>
<metadata>
Created by FontForge 20090914 at Thu Aug 18 10:33:28 2022
 By www-data
Modern and elegant sans serif font family.
</metadata>
<defs>
<font id="Mont-Heavy" horiz-adv-x="0" >
  <font-face 
    font-family="Mont Heavy"
    font-weight="900"
    font-stretch="normal"
    units-per-em="1000"
    panose-1="0 0 10 0 0 0 0 0 0 0"
    ascent="800"
    descent="-200"
    x-height="540"
    cap-height="700"
    bbox="-808 -328.002 1329 1002"
    underline-thickness="50"
    underline-position="-150"
    unicode-range="U+0020-U+25CA"
  />
<missing-glyph horiz-adv-x="465" 
d="M381 735v-930h-295v930h295zM310 673h-154v-31h61v-34h-62v-31h155v31h-62v34h62v31zM248 553h-93v-97h155v32h-62v65zM217 521v-33h-31v33h31zM310 431h-155v-31h62v-34h-62v-31h93v65h62v31zM310 375h-31v-61h-124v-32h155v93zM310 262h-93v-52h31v21h31v-44h-93v75
h-31v-105h155v105zM310 101h-155v-105h155v105zM279 70v-44h-93v44h93zM310 -26h-155v-30h65l-65 -44v-31h155v31h-95l65 44h30v30z" />
    <glyph glyph-name="f_f.liga" unicode="ff" horiz-adv-x="823" 
d="M812 531l-0.000976562 -146.001h-121v-385h-186v385h-207v-385h-186v385h-89v146h92v52c0 36 6.5 66.833 19.5 92.5s32.5 45.167 58.5 58.5s58 20 96 20h125v-142h-78c-13.333 0 -24 -3.83301 -32 -11.5s-12 -18.5 -12 -32.5v-37h215v52
c0 54.667 14.833 96.834 44.5 126.501s72.834 44.5 129.501 44.5h130v-142h-82c-14 0 -24.833 -3.83301 -32.5 -11.5s-11.5 -18.5 -11.5 -32.5v-37h127z" />
    <glyph glyph-name="f_f_t.liga" unicode="fft" horiz-adv-x="1247" 
d="M1155 168l60.999 -0.000976562v-168h-95c-74 0 -130.833 19.833 -170.5 59.5s-59.5 96.5 -59.5 170.5v155h-199v-385h-186v385h-208v-385h-186v385h-89v146h92v52c0 36 6.5 66.833 19.5 92.5s32.5 45.167 58.5 58.5s58 20 96 20h125v-142h-78c-13.333 0 -24 -4 -32 -12
s-12 -18.667 -12 -32v-37h217v52c0 54.667 14.833 96.834 44.5 126.501s72.834 44.5 129.501 44.5h117v-142h-70c-5.33301 0 -10.333 -0.666992 -15 -2s-8.83398 -3.16602 -12.501 -5.49902s-6.66699 -5.33301 -9 -9s-4.16602 -7.83398 -5.49902 -12.501s-2 -9.66699 -2 -15
v-37h205v158h186v-158h138v-146h-138v-139c0 -52 26 -78 78 -78z" />
    <glyph glyph-name="f_t.liga" unicode="ft" horiz-adv-x="872" 
d="M780 168h60.999v-168h-96c-73.333 -0 -129.833 19.833 -169.5 59.5s-59.5 96.5 -59.5 170.5v156h-218v-386h-186v386h-89v146h92v50c0 54.667 14.833 97 44.5 127s72.834 45 129.501 45h130v-143h-83c-13.333 0 -24 -3.83301 -32 -11.5s-12 -18.5 -12 -32.5v-35h224v157
h186v-157h138v-146h-138v-140c0 -52 26 -78 78 -78z" />
    <glyph glyph-name="f_t_t.liga" unicode="ftt" horiz-adv-x="1288" 
d="M1196 168h61v-168h-95c-74 -0 -130.833 19.833 -170.5 59.5s-59.5 96.5 -59.5 170.5v156h-241v-140c0 -52 26 -78 78 -78h61v-168h-95c-74 -0 -130.833 19.833 -170.5 59.5s-59.5 96.5 -59.5 170.5v156h-207v-386h-186v386h-89v146h92v51c0 36 6.5 66.833 19.5 92.5
s32.5 45.167 58.5 58.5s58 20 96 20h130v-142h-83c-13.333 0 -24 -3.83301 -32 -11.5s-12 -18.5 -12 -32.5v-36h213v157h186v-157h241v157h186v-157h138v-146h-138v-140c0 -52 26 -78 78 -78z" />
    <glyph glyph-name="r_f.liga" unicode="rf" horiz-adv-x="847" 
d="M835 540l0.000976562 -149.001h-121v-391h-186v391h-89v149h92v43c0 54.667 14.667 96.834 44 126.501s72.666 44.5 129.999 44.5h129v-138h-82c-14 0 -24.833 -3.83301 -32.5 -11.5s-11.5 -18.5 -11.5 -32.5v-32h127zM212.001 479.999c36 42 85.668 63 149.001 63h36
v-167h-59c-32.667 0 -56.334 -7.66699 -71.001 -23s-22 -40.333 -22 -75v-278h-186v540h124z" />
    <glyph glyph-name="r_t.liga" unicode="rt" horiz-adv-x="903" 
d="M812 168h61v-168h-95c-74 -0 -130.833 19.833 -170.5 59.5s-59.5 96.5 -59.5 170.5v160h-109v150h109v149h186v-149h136v-150h-136v-144c0 -52 26 -78 78 -78zM212 480c36 42 85.668 63 149.001 63h36v-167h-59c-32.667 0 -56.334 -7.66699 -71.001 -23
s-22 -40.333 -22 -75v-278h-186v540h124z" />
    <glyph glyph-name="s_t.liga" unicode="st" horiz-adv-x="986" 
d="M880 163h71v-163h-127c-40 0 -74.333 7.66699 -103 23s-50.667 37.5 -66 66.5s-23 63.5 -23 103.5v205h-99v42l242 258h38v-158h135v-142h-130v-173c0 -19.333 5.5 -34.5 16.5 -45.5s26.167 -16.5 45.5 -16.5zM307 339c14 -2.66699 23.8301 -4.5 29.4971 -5.5
s15.5 -3.16699 29.5 -6.5s24.167 -6.16602 30.5 -8.49902s15.5 -6.16602 27.5 -11.499s21 -10.666 27 -15.999s13.167 -12.166 21.5 -20.499s14.5 -17.166 18.5 -26.499s7.5 -20.5 10.5 -33.5s4.5 -26.833 4.5 -41.5c0 -56.667 -21.833 -102 -65.5 -136
s-101.5 -51 -173.5 -51c-73.333 0 -131.166 17.667 -173.499 53s-64.166 82.666 -65.499 141.999h180c0 -18.667 5.66699 -33 17 -43s26.333 -15 45 -15c14.667 0 27.167 3.66699 37.5 11s15.5 17.666 15.5 30.999c0 10 -4.5 18.333 -13.5 25s-19.167 11.5 -30.5 14.5
s-27.5 6.16699 -48.5 9.5s-38.833 6.66602 -53.5 9.99902s-31.667 9.16602 -51 17.499s-34.833 18.166 -46.5 29.499s-21.834 26.666 -30.501 45.999s-13 41.666 -13 66.999c0 54 21 97.167 63 129.5s97.667 48.5 167 48.5c68.667 0 123.834 -16.833 165.501 -50.5
s62.834 -78.167 63.501 -133.5h-174c0 17.333 -5.16699 30.333 -15.5 39s-24.166 13 -41.499 13c-15.333 0 -27.5 -3.66699 -36.5 -11s-13.5 -17 -13.5 -29c0 -7.33301 2.16699 -13.666 6.5 -18.999s11.666 -9.66602 21.999 -12.999s19.333 -6 27 -8
s20.167 -4.33301 37.5 -7z" />
    <glyph glyph-name="t_f.liga" unicode="tf" horiz-adv-x="839" 
d="M827 532l0.000976562 -146h-121v-386h-186v386h-231v-161c0 -19.333 5.5 -34.5 16.5 -45.5s26.167 -16.5 45.5 -16.5h66v-163h-122c-60 0 -107 17.167 -141 51.5s-51 81.5 -51 141.5v193h-99v43l247 272h33v-169h238v54c0 54.667 14.833 97 44.5 127
s72.834 45 129.501 45h130v-143h-83c-8.66699 0 -16.334 -1.66699 -23.001 -5s-11.834 -8.33301 -15.501 -15s-5.5 -14.667 -5.5 -24v-39h128z" />
    <glyph glyph-name=".notdef" horiz-adv-x="465" 
d="M381 735v-930h-295v930h295zM310 673h-154v-31h61v-34h-62v-31h155v31h-62v34h62v31zM248 553h-93v-97h155v32h-62v65zM217 521v-33h-31v33h31zM310 431h-155v-31h62v-34h-62v-31h93v65h62v31zM310 375h-31v-61h-124v-32h155v93zM310 262h-93v-52h31v21h31v-44h-93v75
h-31v-105h155v105zM310 101h-155v-105h155v105zM279 70v-44h-93v44h93zM310 -26h-155v-30h65l-65 -44v-31h155v31h-95l65 44h30v30z" />
    <glyph glyph-name="space" unicode=" " horiz-adv-x="217" 
 />
    <glyph glyph-name="exclam" unicode="!" horiz-adv-x="315" 
d="M71 233v487h174v-487h-174zM67 0v173h181v-173h-181z" />
    <glyph glyph-name="quotedbl" unicode="&#x22;" horiz-adv-x="489" 
d="M53 432v270h158v-270h-158zM279 432v270h157v-270h-157z" />
    <glyph glyph-name="numbersign" unicode="#" horiz-adv-x="655" 
d="M614 399h-73l-15 -101h65v-148h-89l-22 -149h-156l22 149h-89l-24 -149h-157l24 149h-60v148h84l16 101h-77v143h100l24 158h157l-24 -158h85l24 158h156l-24 -158h53v-143zM371 298l15 101h-90l-17 -101h92z" />
    <glyph glyph-name="dollar" unicode="$" horiz-adv-x="609" 
d="M575 206c0 -58 -17.332 -105.329 -51.999 -141.996s-81.667 -60.334 -141 -71.001v-70h-149v69c-62 11.333 -110.5 36.5 -145.5 75.5s-52.5 88.5 -52.5 148.5h192c0 -14.667 3.66699 -27.167 11 -37.5s16.833 -18 28.5 -23s24.5 -7.5 38.5 -7.5c20.667 0 38.5 5 53.5 15
s22.5 23.333 22.5 40c0 8 -2.16699 15.167 -6.5 21.5s-9.16602 11.5 -14.499 15.5s-13.833 8.16699 -25.5 12.5s-21.5 7.66602 -29.5 9.99902s-20.333 5.5 -37 9.5h-3c-18.667 5.33301 -33 9.16602 -43 11.499s-24.167 6.83301 -42.5 13.5s-32.5 13 -42.5 19
s-21.833 14.333 -35.5 25s-24 22.167 -31 34.5s-13.167 27.333 -18.5 45s-8 37.167 -8 58.5c0 54 16 98.167 48 132.5s76.667 56.833 134 67.5v65h150v-66c28 -5.33301 53 -14 75 -26s40.667 -26.833 56 -44.5s26.833 -38.167 34.5 -61.5s11.5 -49 11.5 -77h-186
c0 12.667 -3.16699 23.5 -9.5 32.5s-14.666 15.5 -24.999 19.5s-21.833 6 -34.5 6c-18 0 -33.5 -3.66699 -46.5 -11s-19.5 -17.666 -19.5 -30.999c0 -6.66699 1.16699 -12.5 3.5 -17.5s6.5 -9.66699 12.5 -14s11.667 -7.83301 17 -10.5s13.5 -5.83398 24.5 -9.50098
s19.667 -6.33398 26 -8.00098s16.833 -4.16699 31.5 -7.5l44 -12c10 -2.66699 24.5 -7.5 43.5 -14.5s33.667 -13.667 44 -20s22.666 -15 36.999 -26s25.166 -22.667 32.499 -35s13.666 -27.5 18.999 -45.5s8 -37.667 8 -59z" />
    <glyph glyph-name="percent" unicode="%" horiz-adv-x="942" 
d="M215.5 366c-56.333 0 -102.001 16.834 -137.001 50.501s-52.5 77.5 -52.5 131.5c0 35.333 7.83301 66.833 23.5 94.5s38 49.167 67 64.5s62.167 23 99.5 23c56.667 0 102.5 -17 137.5 -51s52.5 -77.833 52.5 -131.5s-17.667 -97.334 -53 -131.001
s-81.166 -50.5 -137.499 -50.5zM159.999 -3.99902l425 705h182l-425 -705h-182zM215.999 495.001c15.333 0 27.833 5 37.5 15s14.5 22.667 14.5 38c0 10 -2.16699 19 -6.5 27s-10.5 14.167 -18.5 18.5s-17 6.5 -27 6.5c-15.333 0 -27.833 -4.83301 -37.5 -14.5
s-14.5 -22.167 -14.5 -37.5s4.83301 -28 14.5 -38s22.167 -15 37.5 -15zM725.999 -11.999c-56 0 -101.833 16.833 -137.5 50.5s-53.5 77.5 -53.5 131.5s17.833 97.833 53.5 131.5s81.5 50.5 137.5 50.5s101.667 -16.833 137 -50.5s53 -77.5 53 -131.5
s-17.667 -97.833 -53 -131.5s-81 -50.5 -137 -50.5zM725.999 118.001c15.333 0 27.833 4.83301 37.5 14.5s14.5 22.167 14.5 37.5s-4.83301 27.833 -14.5 37.5s-22.167 14.5 -37.5 14.5s-28 -4.83301 -38 -14.5s-15 -22.167 -15 -37.5s5 -27.833 15 -37.5
s22.667 -14.5 38 -14.5z" />
    <glyph glyph-name="ampersand" unicode="&#x26;" horiz-adv-x="663" 
d="M669 0l-183.002 -0.000976562l-34 37c-57.333 -34.667 -121.333 -52 -192 -52c-67.333 0 -122.166 19 -164.499 57s-63.5 87.667 -63.5 149c0 30 6 58 18 84s26.167 47.333 42.5 64s36.833 33 61.5 49c-26 36.667 -43.5 66.834 -52.5 90.501s-13.5 46.834 -13.5 69.501
c0 54.667 20 97.667 60 129s90.667 47 152 47c60 0 110 -15.667 150 -47s60 -74.333 60 -129c0 -22.667 -3.83301 -43.834 -11.5 -63.501s-19.167 -37.5 -34.5 -53.5s-30.5 -29.667 -45.5 -41s-33.5 -23.666 -55.5 -36.999l85 -99c12 26 19 53 21 81h152
c-3.33301 -76.667 -25.666 -144.334 -66.999 -203.001zM299.998 593.999c-15.333 0 -28 -4.66797 -38 -14.001s-15 -21.666 -15 -36.999c0 -19.333 11.333 -46.333 34 -81c15.333 8.66699 27.833 16.834 37.5 24.501s17.667 16.5 24 26.5s9.5 20 9.5 30
c0 15.333 -5 27.666 -15 36.999s-22.333 14 -37 14zM274.998 131.998c25.333 0 50.332 6 74.999 18l-108 124c-28 -24 -42 -49.667 -42 -77c0 -19.333 6.83301 -35 20.5 -47s31.834 -18 54.501 -18z" />
    <glyph glyph-name="quotesingle" unicode="'" horiz-adv-x="264" 
d="M53 432v270h158v-270h-158z" />
    <glyph glyph-name="parenleft" unicode="(" horiz-adv-x="372" 
d="M181 -164c-46 66.667 -81.667 140.999 -107 222.999s-38 167.667 -38 257c0 180 48.333 340.667 145 482h198c-43.333 -56 -81.333 -126.667 -114 -212s-49 -175.333 -49 -270c0 -95.333 16.167 -185.666 48.5 -270.999s69.833 -155 112.5 -209h-196z" />
    <glyph glyph-name="parenright" unicode=")" horiz-adv-x="372" 
d="M191 -164l-196 0.000976562c43.333 54 81 123.667 113 209s48 175.666 48 270.999c0 94.667 -16.333 184.667 -49 270s-70.667 156 -114 212h198c96.667 -141.333 145 -302 145 -482c0 -89.333 -12.667 -175 -38 -257s-61 -156.333 -107 -223z" />
    <glyph glyph-name="asterisk" unicode="*" horiz-adv-x="431" 
d="M402 544l-82 -29l58 -67l-96 -81l-67 80l-65 -80l-97 81l57 67l-81 29l41 118l83 -30v90h125v-90l83 30z" />
    <glyph glyph-name="plus" unicode="+" horiz-adv-x="547" 
d="M516 406v-157h-159v-170h-167v170h-159v157h159v166h167v-166h159z" />
    <glyph glyph-name="comma" unicode="," horiz-adv-x="285" 
d="M59 -175l0.000976562 92c26 2.66699 45.833 11.5 59.5 26.5s20.5 33.833 20.5 56.5h-87v173h181v-158c0 -54 -15.833 -98 -47.5 -132s-73.834 -53.333 -126.501 -58z" />
    <glyph glyph-name="hyphen" unicode="-" horiz-adv-x="475" 
d="M54 192v169h367v-169h-367z" />
    <glyph glyph-name="period" unicode="." horiz-adv-x="284" 
d="M52 0v173h180v-173h-180z" />
    <glyph glyph-name="slash" unicode="/" horiz-adv-x="539" 
d="M18 -84l307 845h195l-307 -845h-195z" />
    <glyph glyph-name="zero" unicode="0" horiz-adv-x="660" 
d="M330 -18c-58.667 0 -110.002 14.3311 -154.002 42.998s-77.833 69.334 -101.5 122.001s-35.5 114.334 -35.5 185.001c0 106 26.333 190.667 79 254s123.334 95 212.001 95s159.334 -31.667 212.001 -95s79 -148 79 -254c0 -106.667 -26.5 -191.667 -79.5 -255
s-123.5 -95 -211.5 -95zM329.498 140.998c35 0 62 16.334 81 49.001s28.5 79.667 28.5 141s-9.5 108.666 -28.5 141.999s-45.833 50 -80.5 50c-35.333 0 -62.333 -16.5 -81 -49.5s-28 -80.167 -28 -141.5s9.33301 -108.5 28 -141.5s45.5 -49.5 80.5 -49.5z" />
    <glyph glyph-name="one" unicode="1" horiz-adv-x="377" 
d="M30 665h277v-665h-179v514h-98v151z" />
    <glyph glyph-name="two" unicode="2" horiz-adv-x="565" 
d="M337 158l185 0.000976562v-158h-495v40l200.5 241.5c39.667 49.667 66.834 87.5 81.501 113.5s22 49 22 69c0 18 -5.33301 32.5 -16 43.5s-24.334 16.5 -41.001 16.5c-8 0 -15.167 -0.833008 -21.5 -2.5s-11.833 -4.5 -16.5 -8.5s-8.66699 -8.5 -12 -13.5s-6 -11 -8 -18
s-3 -14.5 -3 -22.5v-13h-175v13c0 67.333 20.833 121.333 62.5 162s98.5 61 170.5 61c70.667 0 128.167 -19.667 172.5 -59s66.5 -90.333 66.5 -153c0 -42.667 -11.5 -85.334 -34.5 -128.001s-69.167 -104 -138.5 -184z" />
    <glyph glyph-name="three" unicode="3" horiz-adv-x="567" 
d="M373 421c48 -12 86.168 -36.3311 114.501 -72.998s42.5 -80.334 42.5 -131.001c0 -68 -23.667 -123.667 -71 -167s-107.333 -65 -180 -65c-71.333 0 -129.5 21.167 -174.5 63.5s-68.5 98.166 -70.5 167.499h170c1.33301 -24 8.83301 -43 22.5 -57s31.167 -21 52.5 -21
c23.333 0 42.166 7.5 56.499 22.5s21.5 34.667 21.5 59s-7.66699 43.5 -23 57.5s-36 21 -62 21h-107v37l109 178h-224v152h457v-31z" />
    <glyph glyph-name="four" unicode="4" horiz-adv-x="586" 
d="M562 268v-149h-61v-119h-170v119h-320v33l213 513h177l-165 -397h107l39 147h119v-147h61z" />
    <glyph glyph-name="five" unicode="5" horiz-adv-x="564" 
d="M279 438c74.667 0 135.167 -20.6699 181.5 -62.0029s69.5 -94.666 69.5 -159.999c0 -67.333 -23.167 -122.666 -69.5 -165.999s-105.833 -65 -178.5 -65s-132 21.5 -178 64.5s-69 98.167 -69 165.5h170c0 -22.667 7.16699 -41.167 21.5 -55.5s32.833 -21.5 55.5 -21.5
c22 0 40 7.33301 54 22s21 33.334 21 56.001c0 12 -2 23 -6 33s-9.5 18.5 -16.5 25.5s-15.667 12.333 -26 16s-21.5 5.5 -33.5 5.5h-207l-17 22l37 347h395v-152h-257l-9 -75h62z" />
    <glyph glyph-name="six" unicode="6" horiz-adv-x="583" 
d="M338 449c43.333 0 82.167 -9.16797 116.5 -27.501s61 -44.166 80 -77.499s28.5 -71 28.5 -113c0 -48 -11 -90.667 -33 -128s-53 -66.333 -93 -87s-85.667 -31 -137 -31c-78.667 0 -142.5 22.667 -191.5 68s-73.5 104.333 -73.5 177c0 68 25.333 144.333 76 229l122 206
h192l-67.5 -114l-63.5 -106c14 2.66699 28.667 4 44 4zM299.001 136.999c27.333 0 49.668 8.66699 67.001 26s26 40 26 68s-8.66699 50.667 -26 68s-39.666 26 -66.999 26c-26.667 0 -48.834 -8.66699 -66.501 -26s-26.5 -40 -26.5 -68c0 -18.667 4 -35 12 -49
s19.167 -25 33.5 -33s30.166 -12 47.499 -12z" />
    <glyph glyph-name="seven" unicode="7" horiz-adv-x="550" 
d="M24 665h511v-26l-252 -639h-188l204 509h-275v156z" />
    <glyph glyph-name="eight" unicode="8" horiz-adv-x="602" 
d="M476 352c58.667 -38 87.999 -89.998 87.999 -155.998c0 -62.667 -24.333 -113.5 -73 -152.5s-112.167 -58.5 -190.5 -58.5s-141.666 19.5 -189.999 58.5s-72.5 89.833 -72.5 152.5c0 66.667 29.333 118.667 88 156c-46.667 38 -70 83.667 -70 137
c0 37.333 10.333 70.666 31 99.999s49.5 52.166 86.5 68.499s79.667 24.5 128 24.5s91 -8 128 -24s65.667 -38.667 86 -68s30.5 -63 30.5 -101c0 -54 -23.333 -99.667 -70 -137zM301.499 550.002c-15 0 -28.333 -2.83301 -40 -8.5s-20.667 -13.667 -27 -24
s-9.5 -21.833 -9.5 -34.5c0 -19.333 7.16699 -35.166 21.5 -47.499s32.666 -18.5 54.999 -18.5s40.5 6.16699 54.5 18.5s21 28.166 21 47.499c0 12.667 -3.16699 24.167 -9.5 34.5s-15.166 18.333 -26.499 24s-24.5 8.5 -39.5 8.5zM301.499 123.002
c27 0 48.502 7.33301 64.502 22s24 33.667 24 57c0 15.333 -3.5 29 -10.5 41s-17.333 21.333 -31 28s-29.334 10 -47.001 10s-33.334 -3.33301 -47.001 -10s-24.167 -16 -31.5 -28s-11 -25.667 -11 -41c0 -23.333 8.16699 -42.333 24.5 -57s38 -22 65 -22z" />
    <glyph glyph-name="nine" unicode="9" horiz-adv-x="583" 
d="M284 682c78 0 141.501 -22.834 190.501 -68.501s73.5 -104.5 73.5 -176.5c0 -67.333 -25.333 -143.666 -76 -228.999l-122 -208h-193l67.5 112.5l65.5 108.5c-14 -2 -28.667 -3 -44 -3c-66.667 0 -121 20.167 -163 60.5s-63 92.833 -63 157.5c0 48 11 90.667 33 128
s53.167 66.333 93.5 87s86.166 31 137.499 31zM284.001 339.999c28.667 0 52.167 8.83203 70.5 26.499s27.5 40.834 27.5 69.501c0 18 -4.16699 34.333 -12.5 49s-20 25.834 -35 33.501s-31.833 11.5 -50.5 11.5c-28.667 0 -52 -8.66699 -70 -26s-27 -40 -27 -68
c0 -28.667 9 -51.834 27 -69.501s41.333 -26.5 70 -26.5z" />
    <glyph glyph-name="colon" unicode=":" horiz-adv-x="289" 
d="M54 361v173h181v-173h-181zM54 0v173h181v-173h-181z" />
    <glyph glyph-name="semicolon" unicode=";" horiz-adv-x="291" 
d="M56 361v173h180v-173h-180zM62 -175l0.000976562 92c26 2.66699 45.667 11.5 59 26.5s20 33.833 20 56.5h-87v173h182v-158c0 -54 -15.833 -98 -47.5 -132s-73.834 -53.333 -126.501 -58z" />
    <glyph glyph-name="less" unicode="&#x3c;" horiz-adv-x="522" 
d="M454 622v-195l-202 -102l202 -100v-195l-430 264v57z" />
    <glyph glyph-name="equal" unicode="=" horiz-adv-x="584" 
d="M57 360v152h469v-152h-469zM57 139v151h469v-151h-469z" />
    <glyph glyph-name="greater" unicode="&#x3e;" horiz-adv-x="522" 
d="M68 622l430 -271v-57l-430 -264v195l202 100l-202 102v195z" />
    <glyph glyph-name="question" unicode="?" horiz-adv-x="559" 
d="M179 223l0.000976562 18.9971c0 26.667 2.83301 50.5 8.5 71.5s14.5 39 26.5 54s22.333 26.333 31 34s21 17.167 37 28.5c14 10 24.5 18 31.5 24s13.667 14.5 20 25.5s9.5 22.833 9.5 35.5c0 20.667 -6.66699 37.334 -20 50.001s-30 19 -50 19
c-9.33301 0 -18.5 -1.66699 -27.5 -5s-16.833 -8 -23.5 -14s-12.167 -13.667 -16.5 -23s-6.5 -19.666 -6.5 -30.999h-174c0 72 23.667 128.167 71 168.5s106.666 60.5 177.999 60.5c72 0 131.5 -20.5 178.5 -61.5s70.5 -95.167 70.5 -162.5c0 -22 -2.66699 -42 -8 -60
s-13.833 -34.167 -25.5 -48.5s-21.667 -25.333 -30 -33s-20.5 -17.834 -36.5 -30.501c-12 -9.33301 -21 -16.666 -27 -21.999s-13 -12.5 -21 -21.5s-13.667 -18.167 -17 -27.5s-5 -19.666 -5 -30.999v-19h-174zM175.001 -0.00292969v173h180v-173h-180z" />
    <glyph glyph-name="at" unicode="@" horiz-adv-x="1015" 
d="M509 684c64 0 124.502 -9.83594 181.502 -29.5029s107 -47.5 150 -83.5s77.167 -81.333 102.5 -136s38 -115 38 -181c0 -75.333 -20.167 -134.333 -60.5 -177s-89.833 -64 -148.5 -64c-64.667 0 -111.334 21.667 -140.001 65c-40 -43.333 -90.333 -65 -151 -65
c-66 0 -120 21.333 -162 64s-63 97.334 -63 164.001s21 121.167 63 163.5s96 63.5 162 63.5c56.667 0 104.667 -19 144 -57l16 26h78v-227c0 -19.333 5.16699 -34.666 15.5 -45.999s23.833 -17 40.5 -17c20 0 36.667 9.16699 50 27.5s20 44.833 20 79.5
c0 87.333 -31 159 -93 215s-141.667 84 -239 84c-99.333 0 -181.5 -29.333 -246.5 -88s-97.5 -133 -97.5 -223c0 -58 13.333 -110 40 -156s64 -81.667 112 -107s102.333 -38 163 -38c54 0 105.667 10 155 30v-129c-60.667 -22 -119 -33 -175 -33
c-82 0 -155.833 18.5 -221.5 55.5s-117.334 88.5 -155.001 154.5s-56.5 140.333 -56.5 223c0 67.333 12.833 129.333 38.5 186s60.5 103.334 104.5 140.001s94.833 65.167 152.5 85.5s118.5 30.5 182.5 30.5zM496.002 152.997c25.333 0 46.502 8.33398 63.502 25.001
s25.5 38 25.5 64c0 16.667 -3.83301 31.834 -11.5 45.501s-18.334 24.167 -32.001 31.5s-28.834 11 -45.501 11c-25.333 0 -46.333 -8.33301 -63 -25s-25 -37.834 -25 -63.501s8.33301 -46.834 25 -63.501s37.667 -25 63 -25z" />
    <glyph glyph-name="A" unicode="A" horiz-adv-x="744" 
d="M532 0l-39 114h-248l-39 -114h-206l275 700h188l281 -700h-212zM446 265l-77 217l-77 -217h154z" />
    <glyph glyph-name="B" unicode="B" horiz-adv-x="651" 
d="M510 370c33.333 -16 59.498 -39.001 78.498 -69.001s28.5 -64 28.5 -102c0 -56.667 -21.667 -104 -65 -142s-97.333 -57 -162 -57h-322v700h316c40.667 0 77.334 -7.66699 110.001 -23s58.334 -36.666 77.001 -63.999s28 -58 28 -92c0 -30.667 -8 -59.5 -24 -86.5
s-37.667 -48.5 -65 -64.5zM415.998 488.999c0 18 -6 32.667 -18 44s-28 17 -48 17h-97v-122h97c13.333 0 25 2.5 35 7.5s17.667 12.167 23 21.5s8 20 8 32zM357.998 157.999c20.667 0 37.334 6 50.001 18s19 27.333 19 46s-6.33301 34 -19 46s-29.334 18 -50.001 18h-105
v-128h105z" />
    <glyph glyph-name="C" unicode="C" horiz-adv-x="784" 
d="M403 -18c-106 0 -194.503 35.002 -265.503 105.002s-106.5 157.333 -106.5 262c0 105.333 35.5 193.166 106.5 263.499s159.5 105.5 265.5 105.5c92 0 170.5 -27.667 235.5 -83s104.5 -127.333 118.5 -216h-195c-8 24 -19.667 44.833 -35 62.5s-33.666 31.5 -54.999 41.5
s-44 15 -68 15c-50 0 -91.167 -17.833 -123.5 -53.5s-48.5 -80.834 -48.5 -135.501c0 -35.333 7.33301 -67.166 22 -95.499s35.167 -50.5 61.5 -66.5s55.833 -24 88.5 -24c25.333 0 48.833 5.33301 70.5 16s40 25.667 55 45s25.833 41.666 32.5 66.999h197
c-13.333 -92 -52.666 -166.5 -117.999 -223.5s-144.666 -85.5 -237.999 -85.5z" />
    <glyph glyph-name="D" unicode="D" horiz-adv-x="745" 
d="M351 700c106 0 192.667 -32.668 260 -98.001s101 -149.166 101 -251.499s-33.833 -186.333 -101.5 -252s-154.167 -98.5 -259.5 -98.5h-283v700h283zM342 176.999c51.333 0 93 16 125 48s48 74 48 126c0 51.333 -15.833 92.833 -47.5 124.5s-73.5 47.5 -125.5 47.5h-81
v-346h81z" />
    <glyph glyph-name="E" unicode="E" horiz-adv-x="567" 
d="M260 167h264v-167h-456v700h448v-167h-256v-103h230v-158h-230v-105z" />
    <glyph glyph-name="F" unicode="F" horiz-adv-x="548" 
d="M513 526h-251v-112h225v-169h-225v-245h-194v700h445v-174z" />
    <glyph glyph-name="G" unicode="G" horiz-adv-x="803" 
d="M389 374h384c0 -75.333 -15.333 -142.833 -46 -202.5s-74 -106.167 -130 -139.5s-120 -50 -192 -50c-108 0 -197.167 34.667 -267.5 104s-105.5 157 -105.5 263c0 106.667 34.833 194.834 104.5 264.501s158.5 104.5 266.5 104.5c91.333 0 171 -26 239 -78
s109.333 -118.667 124 -200h-202c-12.667 29.333 -33.5 52.833 -62.5 70.5s-61.167 26.5 -96.5 26.5c-52.667 0 -95.167 -17.333 -127.5 -52s-48.5 -80 -48.5 -136c0 -36 7.16699 -68.167 21.5 -96.5s34.833 -50.333 61.5 -66s57.667 -23.5 93 -23.5
c36.667 0 69.5 8.16699 98.5 24.5s48.833 38.166 59.5 65.499h-174v121z" />
    <glyph glyph-name="H" unicode="H" horiz-adv-x="734" 
d="M472 700h195v-700h-195v269h-210v-269h-194v700h194v-253h210v253z" />
    <glyph glyph-name="I" unicode="I" horiz-adv-x="331" 
d="M68 0v700h195v-700h-195z" />
    <glyph glyph-name="J" unicode="J" horiz-adv-x="622" 
d="M289 -18c-80.667 0 -146.332 24 -196.999 72s-76 110 -76 186v28h194v-18c0 -26.667 7.16699 -48 21.5 -64s33.5 -24 57.5 -24c23.333 0 42.166 8 56.499 24s21.5 37.333 21.5 64v450h194v-460c0 -76 -25 -138 -75 -186s-115.667 -72 -197 -72z" />
    <glyph glyph-name="K" unicode="K" horiz-adv-x="677" 
d="M690 0h-229l-200 309v-309h-193v700h193v-295l185 295h223l-224 -339z" />
    <glyph glyph-name="L" unicode="L" horiz-adv-x="531" 
d="M263 177h249v-177h-444v700h195v-523z" />
    <glyph glyph-name="M" unicode="M" horiz-adv-x="982" 
d="M954 0h-194l-55 403l-185 -404h-57l-186 404l-54 -403h-195l106 700h192l165 -381l166 381h193z" />
    <glyph glyph-name="N" unicode="N" horiz-adv-x="760" 
d="M505 700h187v-700h-159l-278 380v-380h-187v700h168l269 -367v367z" />
    <glyph glyph-name="O" unicode="O" horiz-adv-x="832" 
d="M417 -18c-112.667 0 -205.167 34.5 -277.5 103.5s-108.5 157.167 -108.5 264.5s36.167 195.5 108.5 264.5s164.833 103.5 277.5 103.5c112 0 204 -34.5 276 -103.5s108 -157.167 108 -264.5s-36 -195.5 -108 -264.5s-164 -103.5 -276 -103.5zM417 162
c53.333 0 97.166 17.667 131.499 53s51.5 80.333 51.5 135s-17.167 99.667 -51.5 135s-78.166 53 -131.499 53s-97.5 -17.667 -132.5 -53s-52.5 -80.333 -52.5 -135s17.5 -99.667 52.5 -135s79.167 -53 132.5 -53z" />
    <glyph glyph-name="P" unicode="P" horiz-adv-x="645" 
d="M366 700c74.667 0 136.5 -23.833 185.5 -71.5s73.5 -108.167 73.5 -181.5s-24.667 -134 -74 -182s-111 -72 -185 -72h-105v-193h-193v700h298zM343 362c24.667 0 44.834 7.83301 60.501 23.5s23.5 36.167 23.5 61.5c0 16 -3.5 30.5 -10.5 43.5s-16.833 23.167 -29.5 30.5
s-27.334 11 -44.001 11h-82v-170h82z" />
    <glyph glyph-name="Q" unicode="Q" horiz-adv-x="833" 
d="M833 -95h-205l-79 97c-41.333 -13.333 -85.333 -20 -132 -20c-112.667 0 -205.167 34.5 -277.5 103.5s-108.5 157.167 -108.5 264.5s36.167 195.5 108.5 264.5s164.833 103.5 277.5 103.5c112 0 204 -34.5 276 -103.5s108 -157.167 108 -264.5
c0 -54 -9.83301 -104.167 -29.5 -150.5s-47.5 -85.833 -83.5 -118.5zM232 350c0 -54.667 17.5 -99.667 52.5 -135s79.167 -53 132.5 -53s97.166 17.667 131.499 53s51.5 80.333 51.5 135s-17.167 99.667 -51.5 135s-78.166 53 -131.499 53s-97.5 -17.667 -132.5 -53
s-52.5 -80.333 -52.5 -135z" />
    <glyph glyph-name="R" unicode="R" horiz-adv-x="676" 
d="M444 0l-113.998 214h-69v-214h-193v700h303c50 0 94.667 -10.333 134 -31s70.166 -50 92.499 -88s33.5 -81 33.5 -129c0 -28 -4.33301 -54.5 -13 -79.5s-21.334 -47.5 -38.001 -67.5s-36.667 -36.667 -60 -50l139 -255h-215zM261.002 529v-152h88c26 0 46.667 7 62 21
s23 32.333 23 55c0 14.667 -3.33301 27.667 -10 39s-16.5 20.333 -29.5 27s-28.167 10 -45.5 10h-88z" />
    <glyph glyph-name="S" unicode="S" horiz-adv-x="629" 
d="M316 -17c-86.667 0 -155.335 21.4961 -206.002 64.4961s-76 102.5 -76 178.5h199c0 -24 7.83301 -42.333 23.5 -55s35.167 -19 58.5 -19c21.333 0 39.833 5.33301 55.5 16s23.5 25 23.5 43c0 6 -0.666992 11.167 -2 15.5s-3.83301 8.5 -7.5 12.5s-7.16699 7.5 -10.5 10.5
s-8.5 6 -15.5 9s-12.833 5.33301 -17.5 7s-11.834 3.83398 -21.501 6.50098l-22 6c-5 1.33301 -13.167 3.33301 -24.5 6l-45 12c-10 2.66699 -24.667 7.33398 -44 14.001s-34.333 13.167 -45 19.5s-23 15.166 -37 26.499s-24.667 23.333 -32 36
s-13.666 28.334 -18.999 47.001s-8 39 -8 61c0 68 23.5 121.167 70.5 159.5s112.167 57.5 195.5 57.5s148.166 -20.333 194.499 -61s69.5 -96.667 69.5 -168h-193c0 21.333 -7 37.5 -21 48.5s-31.333 16.5 -52 16.5c-18.667 0 -34.667 -4 -48 -12s-20 -20 -20 -36
c0 -6 1.33301 -11.667 4 -17s7 -10.166 13 -14.499s11.833 -8 17.5 -11s14 -6.33301 25 -10s20 -6.5 27 -8.5s17.833 -4.66699 32.5 -8l46 -12.5c10.667 -3 25.834 -8 45.501 -15s35 -13.833 46 -20.5s23.833 -15.667 38.5 -27s25.834 -23.666 33.501 -36.999
s14.334 -29.333 20.001 -48s8.5 -39 8.5 -61c0 -74 -25.667 -131.167 -77 -171.5s-119 -60.5 -203 -60.5z" />
    <glyph glyph-name="T" unicode="T" horiz-adv-x="611" 
d="M593 700v-174h-191v-526h-193v526h-190v174h574z" />
    <glyph glyph-name="U" unicode="U" horiz-adv-x="732" 
d="M365.5 -18c-89.667 0 -163 26.667 -220 80s-85.5 123 -85.5 209v429h197v-426c0 -34 10 -61.167 30 -81.5s46.167 -30.5 78.5 -30.5s58.5 10.167 78.5 30.5s30 47.5 30 81.5v426h197v-429c0 -86 -28.5 -155.667 -85.5 -209s-130.333 -80 -220 -80z" />
    <glyph glyph-name="V" unicode="V" horiz-adv-x="724" 
d="M502 700h219l-268 -700h-179l-274 700h220l143 -435z" />
    <glyph glyph-name="W" unicode="W" horiz-adv-x="1050" 
d="M839 700h205l-216 -700h-169l-135 338l-131 -338h-170l-219 700h207l113 -403l167 400h67l170 -401z" />
    <glyph glyph-name="X" unicode="X" horiz-adv-x="664" 
d="M667 0h-219l-115 215l-116 -215h-219l210 364l-198 336h217l105 -198l106 198h215l-197 -339z" />
    <glyph glyph-name="Y" unicode="Y" horiz-adv-x="699" 
d="M692 700l-245 -426v-274h-196v274l-243 426h214l128 -253l128 253h214z" />
    <glyph glyph-name="Z" unicode="Z" horiz-adv-x="603" 
d="M307 180h270v-180h-554v40l259 480h-242v180h525v-44z" />
    <glyph glyph-name="bracketleft" unicode="[" horiz-adv-x="363" 
d="M70 -163v970h259v-142h-97v-685h99v-143h-261z" />
    <glyph glyph-name="backslash" unicode="\" horiz-adv-x="539" 
d="M521 -84h-195l-307 845h195z" />
    <glyph glyph-name="bracketright" unicode="]" horiz-adv-x="363" 
d="M294 -163h-261v143h99v685h-97v142h259v-970z" />
    <glyph glyph-name="asciicircum" unicode="^" horiz-adv-x="581" 
d="M25 339l239 363h54l238 -363h-193l-73 134l-72 -134h-193z" />
    <glyph glyph-name="underscore" unicode="_" horiz-adv-x="524" 
d="M0 -200v163h524v-163h-524z" />
    <glyph glyph-name="grave" unicode="`" horiz-adv-x="535" 
d="M351 600h-136l-110 165h189z" />
    <glyph glyph-name="a" unicode="a" horiz-adv-x="692" 
d="M495 541h138v-540h-143l-16 38c-46.667 -38 -101 -57 -163 -57c-54.667 0 -103.5 12.333 -146.5 37s-76.667 59 -101 103s-36.5 93.667 -36.5 149c0 83.333 26.667 151.833 80 205.5s121.333 80.5 204 80.5c62.667 0 117.667 -19.333 165 -58zM335.5 147
c35 0 63.834 11.667 86.501 35s34 52.666 34 87.999s-11.333 64.666 -34 87.999s-51.334 35 -86.001 35c-35.333 0 -64.333 -11.667 -87 -35s-34 -52.666 -34 -87.999s11.333 -64.666 34 -87.999s51.5 -35 86.5 -35z" />
    <glyph glyph-name="b" unicode="b" horiz-adv-x="687" 
d="M377 557c82.667 0 150.5 -26.833 203.5 -80.5s79.5 -122.5 79.5 -206.5s-26.5 -153 -79.5 -207s-120.833 -81 -203.5 -81c-62.667 0 -117 19.333 -163 58l-18 -40h-137v735h183v-215c40.667 24.667 85.667 37 135 37zM352 147c34.667 0 63.502 11.6689 86.502 35.002
s34.5 52.666 34.5 87.999s-11.5 64.666 -34.5 87.999s-51.833 35 -86.5 35s-63.5 -11.667 -86.5 -35s-34.5 -52.666 -34.5 -87.999c0 -23.333 5.16699 -44.333 15.5 -63s24.666 -33.334 42.999 -44.001s39.166 -16 62.499 -16z" />
    <glyph glyph-name="c" unicode="c" horiz-adv-x="636" 
d="M326 -18c-57.333 0 -108.665 12.3311 -153.998 36.998s-80.833 59 -106.5 103s-38.5 93.5 -38.5 148.5s12.833 104.333 38.5 148s61.167 77.667 106.5 102s96.666 36.5 153.999 36.5c50 0 95.5 -10 136.5 -30s74.5 -48 100.5 -84s42.333 -77.667 49 -125h-181
c-8 22 -21.5 39.5 -40.5 52.5s-40.5 19.5 -64.5 19.5c-32.667 0 -59.5 -11.167 -80.5 -33.5s-31.5 -51.166 -31.5 -86.499s10.5 -64.333 31.5 -87s47.833 -34 80.5 -34c24.667 0 46.5 7.16699 65.5 21.5s32.167 33.5 39.5 57.5h183
c-10.667 -73.333 -42.334 -132.666 -95.001 -177.999s-117 -68 -193 -68z" />
    <glyph glyph-name="d" unicode="d" horiz-adv-x="687" 
d="M445 735h184v-735h-138l-17 40c-46.667 -38.667 -101 -58 -163 -58c-82.667 0 -150.667 27 -204 81s-80 123 -80 207s26.667 153 80 207s121.333 81 204 81c49.333 0 94 -12.667 134 -38v215zM336 146c34.667 0 63.5 11.834 86.5 35.501s34.5 53.167 34.5 88.5
c0 17.333 -3.16699 33.666 -9.5 48.999s-14.833 28.5 -25.5 39.5s-23.5 19.667 -38.5 26s-30.833 9.5 -47.5 9.5c-34.667 0 -63.5 -11.833 -86.5 -35.5s-34.5 -53.167 -34.5 -88.5s11.5 -64.833 34.5 -88.5s51.833 -35.5 86.5 -35.5z" />
    <glyph glyph-name="e" unicode="e" horiz-adv-x="641" 
d="M615 275c0 -15.333 -1.33496 -31.668 -4.00195 -49.001h-401c6 -30.667 18.5 -54 37.5 -70s43.167 -24 72.5 -24c14.667 0 28.334 2 41.001 6s23.834 9.83301 33.501 17.5s17.5 16.834 23.5 27.501h185c-18.667 -62 -53.5 -111 -104.5 -147s-110.5 -54 -178.5 -54
c-84 0 -153.833 27.5 -209.5 82.5s-83.5 123.5 -83.5 205.5c0 54.667 12.667 104 38 148s60.333 78.333 105 103s94.667 37 150 37c57.333 0 108.5 -12.5 153.5 -37.5s79.833 -59 104.5 -102s37 -90.833 37 -143.5zM319.998 411.998c-26.667 0 -49.167 -7.16699 -67.5 -21.5
s-31.5 -34.833 -39.5 -61.5h219c-16.667 55.333 -54 83 -112 83z" />
    <glyph glyph-name="f" unicode="f" horiz-adv-x="432" 
d="M420 531v-146h-122v-385h-186v385h-89v146h92v52c0 36 6.5 66.833 19.5 92.5s32.5 45.167 58.5 58.5s58 20 96 20h130v-142h-83c-13.333 0 -24 -3.83301 -32 -11.5s-12 -18.5 -12 -32.5v-37h128z" />
    <glyph glyph-name="g" unicode="g" horiz-adv-x="676" 
d="M491 540h125.998v-480c0 -84.667 -26 -151.667 -78 -201s-122.333 -74 -211 -74c-51.333 0 -97 8.16699 -137 24.5s-72.667 40 -98 71s-42.333 67.5 -51 109.5h180c6 -17.333 18.833 -30.833 38.5 -40.5s41.5 -14.5 65.5 -14.5c32 0 58.667 9.5 80 28.5
s32 44.167 32 75.5v16c-42.667 -27.333 -89.667 -41 -141 -41c-77.333 0 -141.666 25.833 -192.999 77.5s-77 116.5 -77 194.5c0 76.667 25.833 141 77.5 193s115.834 78 192.501 78c64.667 0 121.667 -20.667 171 -62zM327.998 167c33.333 0 60.833 11.167 82.5 33.5
s32.5 50.833 32.5 85.5c0 34 -10.833 62 -32.5 84s-49.167 33 -82.5 33s-60.833 -11 -82.5 -33s-32.5 -50 -32.5 -84c0 -34.667 10.833 -63.167 32.5 -85.5s49.167 -33.5 82.5 -33.5z" />
    <glyph glyph-name="h" unicode="h" horiz-adv-x="645" 
d="M389 556c62 0 111.333 -20.999 148 -62.999s55 -98 55 -168v-325h-186v304c0 62.667 -23.333 94 -70 94c-11.333 0 -21.833 -1.66699 -31.5 -5s-18.167 -8 -25.5 -14s-13.5 -13.333 -18.5 -22s-8.83301 -18.834 -11.5 -30.501s-4 -24.5 -4 -38.5v-288h-186v735h186v-231
c42 34.667 90 52 144 52z" />
    <glyph glyph-name="i" unicode="i" horiz-adv-x="303" 
d="M60 608v157h183v-157h-183zM59 0v540h186v-540h-186z" />
    <glyph glyph-name="j" unicode="j" horiz-adv-x="315" 
d="M72 608v157h183v-157h-183zM-42 -206v164h45c45.333 0 68 24 68 72v510h186v-525c0 -69.333 -20.167 -123.5 -60.5 -162.5s-96.833 -58.5 -169.5 -58.5h-69z" />
    <glyph glyph-name="k" unicode="k" horiz-adv-x="597" 
d="M607 0h-219l-135 228v-228h-186v735h186v-407l128 212h209l-168 -257z" />
    <glyph glyph-name="l" unicode="l" horiz-adv-x="303" 
d="M59 0v735h186v-735h-186z" />
    <glyph glyph-name="m" unicode="m" horiz-adv-x="939" 
d="M694 556c58 0 104.664 -20.167 139.997 -60.5s53 -92.5 53 -156.5v-339h-186v316c0 55.333 -20 83 -60 83c-52 0 -78 -34.333 -78 -103v-296h-181v316c0 55.333 -19.667 83 -59 83c-25.333 0 -44.666 -8.83301 -57.999 -26.5s-20 -43.167 -20 -76.5v-296h-186v540h130
l27 -58c42 49.333 94.667 74 158 74c32.667 0 62.334 -7 89.001 -21s48.334 -33.667 65.001 -59c13.333 16.667 28.5 31 45.5 43s35.833 21.167 56.5 27.5s42 9.5 64 9.5z" />
    <glyph glyph-name="n" unicode="n" horiz-adv-x="645" 
d="M385 556c62.667 0 112.832 -20.668 150.499 -62.001s56.5 -96.333 56.5 -165v-329h-186v304c0 62.667 -23.333 94 -70 94c-19.333 0 -35.833 -4.33301 -49.5 -13s-24 -21.167 -31 -37.5s-10.5 -36.166 -10.5 -59.499v-288h-186v540h130l26 -56
c42.667 48 99.334 72 170.001 72z" />
    <glyph glyph-name="o" unicode="o" horiz-adv-x="660" 
d="M330 -18c-88 0 -160.501 27.166 -217.501 81.499s-85.5 123.166 -85.5 206.499c0 84 28.5 153 85.5 207s129.5 81 217.5 81s160.5 -27.167 217.5 -81.5s85.5 -123.166 85.5 -206.499s-28.667 -152.166 -86 -206.499s-129.666 -81.5 -216.999 -81.5zM329.999 148.999
c34 0 61.834 11.3311 83.501 33.998s32.5 51.667 32.5 87s-10.833 64.333 -32.5 87s-49.5 34 -83.5 34c-22.667 0 -42.834 -5.16699 -60.501 -15.5s-31.5 -24.666 -41.5 -42.999s-15 -39.166 -15 -62.499c0 -35.333 11 -64.333 33 -87s50 -34 84 -34z" />
    <glyph glyph-name="p" unicode="p" horiz-adv-x="684" 
d="M374 558c82.667 0 150.5 -27 203.5 -81s79.5 -123 79.5 -207s-26.5 -153 -79.5 -207s-120.833 -81 -203.5 -81c-48 0 -92 12 -132 36v-213h-183v735h126l23 -43c46.667 40.667 102 61 166 61zM349 146c34.667 0 63.499 11.833 86.499 35.5s34.5 53.167 34.5 88.5
s-11.5 64.833 -34.5 88.5s-51.833 35.5 -86.5 35.5s-63.5 -11.833 -86.5 -35.5s-34.5 -53.167 -34.5 -88.5c0 -23.333 5.16699 -44.5 15.5 -63.5s24.833 -33.833 43.5 -44.5s39.334 -16 62.001 -16z" />
    <glyph glyph-name="q" unicode="q" horiz-adv-x="684" 
d="M500 540h126v-735h-184v213c-40 -24 -84 -36 -132 -36c-82.667 0 -150.5 27 -203.5 81s-79.5 123 -79.5 207s26.5 153 79.5 207s120.833 81 203.5 81c64 0 119.333 -20.333 166 -61zM335 146c34.667 0 63.501 11.834 86.501 35.501s34.5 53.167 34.5 88.5
c0 17.333 -3 33.666 -9 48.999s-14.333 28.5 -25 39.5s-23.5 19.667 -38.5 26s-31.167 9.5 -48.5 9.5c-22.667 0 -43.334 -5.5 -62.001 -16.5s-33.167 -25.833 -43.5 -44.5s-15.5 -39.667 -15.5 -63c0 -35.333 11.5 -64.833 34.5 -88.5s51.833 -35.5 86.5 -35.5z" />
    <glyph glyph-name="r" unicode="r" horiz-adv-x="422" 
d="M361 543h49.001v-171h-72c-32.667 0 -56.334 -7.66699 -71.001 -23s-22 -40 -22 -74v-275h-186v540h124l29 -60c36 42 85.667 63 149 63z" />
    <glyph glyph-name="s" unicode="s" horiz-adv-x="534" 
d="M267 -18c-73.333 0 -131.172 17.665 -173.505 52.998s-63.833 82.666 -64.5 141.999h179c0 -18.667 5.66699 -33 17 -43s26.333 -15 45 -15c9.33301 0 18 1.5 26 4.5s14.5 7.83301 19.5 14.5s7.5 14.334 7.5 23.001c0 10 -4.5 18.333 -13.5 25s-19.167 11.5 -30.5 14.5
s-27.5 6.16699 -48.5 9.5s-38.667 6.66602 -53 9.99902s-31.166 9.16602 -50.499 17.499s-35 18.166 -47 29.499s-22.333 26.666 -31 45.999s-13 41.666 -13 66.999c0 54 21 97.167 63 129.5s97.667 48.5 167 48.5c68.667 0 123.834 -16.667 165.501 -50
s62.834 -77.666 63.501 -132.999h-174c0 11.333 -2.5 20.833 -7.5 28.5s-11.667 13.334 -20 17.001s-18.166 5.5 -29.499 5.5c-15.333 0 -27.5 -3.66699 -36.5 -11s-13.5 -17 -13.5 -29c0 -5.33301 1 -10 3 -14s5.5 -7.5 10.5 -10.5s9.5 -5.5 13.5 -7.5s10.5 -4 19.5 -6
s16.167 -3.5 21.5 -4.5l25 -4.5c14 -2.66699 23.833 -4.5 29.5 -5.5s15.5 -3.16699 29.5 -6.5s24.333 -6.16602 31 -8.49902s15.834 -6.16602 27.501 -11.499s20.5 -10.666 26.5 -15.999s13.167 -12.166 21.5 -20.499s14.5 -17.166 18.5 -26.499s7.5 -20.5 10.5 -33.5
s4.5 -26.833 4.5 -41.5c0 -56.667 -21.833 -102 -65.5 -136s-101.5 -51 -173.5 -51z" />
    <glyph glyph-name="t" unicode="t" horiz-adv-x="451" 
d="M351 163h72v-163h-128c-60 0 -107 17.167 -141 51.5s-51 81.5 -51 141.5v204h-99v43l242 258h38v-158h136v-143h-131v-172c0 -19.333 5.5 -34.5 16.5 -45.5s26.167 -16.5 45.5 -16.5z" />
    <glyph glyph-name="u" unicode="u" horiz-adv-x="635" 
d="M318 -18c-80 0 -144.333 22.834 -193 68.501s-73 106.167 -73 181.5v308h186v-300c0 -28.667 7 -51 21 -67s33.5 -24 58.5 -24s44.667 8.16699 59 24.5s21.5 38.5 21.5 66.5v300h186v-308c0 -50 -11 -93.833 -33 -131.5s-53.167 -66.834 -93.5 -87.501
s-86.833 -31 -139.5 -31z" />
    <glyph glyph-name="v" unicode="v" horiz-adv-x="607" 
d="M407 540h199l-217 -540h-169l-220 540h204l102 -320z" />
    <glyph glyph-name="w" unicode="w" horiz-adv-x="867" 
d="M672 540h190l-172 -540h-150l-107 242l-104 -242h-150l-177 540h195l82 -284l128 282h50l134 -284z" />
    <glyph glyph-name="x" unicode="x" horiz-adv-x="580" 
d="M586 0h-208l-88 160l-91 -160h-205l179 280l-166 260h205l78 -136l82 136h202l-167 -255z" />
    <glyph glyph-name="y" unicode="y" horiz-adv-x="620" 
d="M423 540h200.001l-226 -516c-37.333 -84 -76 -142.5 -116 -175.5s-94.333 -49.5 -163 -49.5h-64v160h51c35.333 0 60.666 5.66699 75.999 17s29.333 34.333 42 69l-223 495h202l114 -297z" />
    <glyph glyph-name="z" unicode="z" horiz-adv-x="516" 
d="M281 165h206v-165h-467v28l207 348h-188v164h446v-30z" />
    <glyph glyph-name="braceleft" unicode="{" horiz-adv-x="389" 
d="M275 439c0 -30 -7.33203 -56.6709 -21.999 -80.0039s-34.334 -39.666 -59.001 -48.999c24 -9.33301 43.167 -25.666 57.5 -48.999s21.5 -49.666 21.5 -78.999v-206h77v-147h-117c-36 0 -66.833 12.667 -92.5 38s-38.5 56.333 -38.5 93v231
c0 14.667 -5.16699 27.334 -15.5 38.001s-23.5 16 -39.5 16h-20v130h20c16 0 29.167 5.16699 39.5 15.5s15.5 23.5 15.5 39.5v232c0 36 12.833 66.667 38.5 92s56.5 38 92.5 38h117v-146h-75v-207z" />
    <glyph glyph-name="bar" unicode="|" horiz-adv-x="317" 
d="M70 -190v1030h177v-1030h-177z" />
    <glyph glyph-name="braceright" unicode="}" horiz-adv-x="389" 
d="M341 375l21 0.00390625v-130h-21c-15.333 0 -28.333 -5.33301 -39 -16s-16 -23.334 -16 -38.001v-231c0 -36.667 -12.833 -67.667 -38.5 -93s-56.5 -38 -92.5 -38h-116v147h76v206c0 29.333 7.16699 55.666 21.5 78.999s33.833 39.666 58.5 48.999
c-24.667 9.33301 -44.5 25.666 -59.5 48.999s-22.5 50 -22.5 80v207h-74v146h116c36 0 66.833 -12.667 92.5 -38s38.5 -56 38.5 -92v-232c0 -16 5.33301 -29.167 16 -39.5s23.667 -15.5 39 -15.5z" />
    <glyph glyph-name="asciitilde" unicode="~" horiz-adv-x="589" 
d="M387 223c-12.667 0 -25 1.16797 -37 3.50098s-23.333 5.66602 -34 9.99902s-19.167 8.33301 -25.5 12l-24.5 14.5c-24 13.333 -41.333 20 -52 20c-11.333 0 -21 -4 -29 -12s-12 -18.667 -12 -32v-14h-124v18c0 54.667 13.833 98.167 41.5 130.5s66.834 48.5 117.501 48.5
c16.667 0 33 -2.33301 49 -7s27.667 -9.16699 35 -13.5s17.666 -10.833 30.999 -19.5c26 -15.333 45 -23 57 -23c12.667 0 22.5 4 29.5 12s10.5 19.333 10.5 34v16h125v-18c0 -56 -14 -100 -42 -132s-66.667 -48 -116 -48z" />
    <glyph glyph-name="uni00A0" unicode="&#xa0;" horiz-adv-x="217" 
 />
    <glyph glyph-name="exclamdown" unicode="&#xa1;" horiz-adv-x="305" 
d="M243 540v-173h-180v173h180zM240 307v-487h-174v487h174z" />
    <glyph glyph-name="cent" unicode="&#xa2;" horiz-adv-x="619" 
d="M593 217c-8.66699 -56 -30.833 -103.5 -66.5 -142.5s-80.5 -65.167 -134.5 -78.5v-73h-149v74c-62.667 14.667 -112.834 45.667 -150.501 93s-56.5 103.333 -56.5 168c0 65.333 18.833 121.666 56.5 168.999s87.834 78.333 150.501 93v83h149v-83
c54 -12.667 98.667 -38.167 134 -76.5s57 -85.166 65 -140.499h-174c-7.33301 20.667 -20 37 -38 49s-38 18 -60 18c-20 0 -38 -4.83301 -54 -14.5s-28.5 -23 -37.5 -40s-13.5 -36.167 -13.5 -57.5c0 -32.667 10 -59.667 30 -81s45 -32 75 -32c22.667 0 43 6.5 61 19.5
s30.667 30.5 38 52.5h175z" />
    <glyph glyph-name="sterling" unicode="&#xa3;" horiz-adv-x="614" 
d="M424 209h153v-209h-538v107l60 27v126h-47v127h47v95c0 61.333 21.167 110.333 63.5 147s98.833 55 169.5 55c68 0 121.833 -18.167 161.5 -54.5s59.5 -85.5 59.5 -147.5v-15h-160v12c0 20 -5.5 36 -16.5 48s-25.833 18 -44.5 18s-33.667 -6 -45 -18s-17 -28 -17 -48v-92
h120v-127h-120v-118h154v67z" />
    <glyph glyph-name="currency" unicode="&#xa4;" horiz-adv-x="623" 
d="M589 129l-104 -104l-71 72c-32.667 -16.667 -67 -25 -103 -25s-70.333 8.33301 -103 25l-69 -71l-105 104l69 70c-16.667 33.333 -25 68 -25 104c0 38.667 9 75 27 109l-67 69l103 104l72 -71c31.333 14.667 64 22 98 22c34 0.666992 67 -7 99 -23l71 72l104 -104
l-69 -69c18.667 -34 28 -70.333 28 -109c0 -36 -8.66699 -70.667 -26 -104zM221 305c0 -16 4.16797 -30.833 12.501 -44.5s19.333 -24.667 33 -33s28.5 -12.5 44.5 -12.5c24.667 0.666992 45.5 9.66699 62.5 27s25.5 38.333 25.5 63c0 24 -8.66699 44.667 -26 62
s-38 26 -62 26c-24.667 0 -45.834 -8.5 -63.501 -25.5s-26.5 -37.833 -26.5 -62.5z" />
    <glyph glyph-name="yen" unicode="&#xa5;" horiz-adv-x="695" 
d="M671 665l-226 -363h148v-98h-157v-44h157v-92h-157v-68h-177v68h-158v92h158v44h-158v98h147l-224 363h190l133 -239l134 239h190z" />
    <glyph glyph-name="brokenbar" unicode="&#xa6;" horiz-adv-x="317" 
d="M70 400v440h177v-440h-177zM70 -190v450h177v-450h-177z" />
    <glyph glyph-name="section" unicode="&#xa7;" horiz-adv-x="541" 
d="M504 319c0 -50.667 -19.9961 -93.002 -59.9961 -127.002c24.667 -26 37 -58 37 -96c0 -53.333 -18.667 -94.666 -56 -123.999s-88.333 -44 -153 -44c-65.333 0 -117.333 16 -156 48s-58 75.667 -58 131h154c0 -16 6 -28.167 18 -36.5s26.333 -12.5 43 -12.5
c9.33301 0 17.833 1.33301 25.5 4s13.834 6.66699 18.501 12s7 12 7 20c0 7.33301 -2.16699 13.833 -6.5 19.5s-11.833 10.834 -22.5 15.501s-20.334 8.33398 -29.001 11.001s-21.334 6 -38.001 10l-37.5 9.5c-9 2.33301 -21.167 6.16602 -36.5 11.499
s-27.5 10.666 -36.5 15.999s-19.167 12.333 -30.5 21s-20.166 18.167 -26.499 28.5s-11.833 22.833 -16.5 37.5s-7 31 -7 49c0 53.333 20.667 96 62 128c-25.333 25.333 -38 57 -38 95c0 26.667 4.83301 50.667 14.5 72s23.5 39.166 41.5 53.499s39.667 25.166 65 32.499
s54 11 86 11c64.667 0 116.167 -16.167 154.5 -48.5s57.5 -76.166 57.5 -131.499h-153c0 16 -5.83301 28.167 -17.5 36.5s-25.834 12.5 -42.501 12.5c-14 0 -25.667 -3.16699 -35 -9.5s-14 -15.166 -14 -26.499c0 -14 7.66699 -24.833 23 -32.5s39.666 -15.5 72.999 -23.5
c16 -4 28.5 -7.33301 37.5 -10s21.167 -6.66699 36.5 -12s27.5 -10.666 36.5 -15.999s19.167 -12.333 30.5 -21s20.166 -18.167 26.499 -28.5s11.666 -22.833 15.999 -37.5s6.5 -30.667 6.5 -48zM195.004 330.998c0 -16 8.66797 -28.833 26.001 -38.5s43 -18.5 77 -26.5
c4 -0.666992 8 -2 12 -4c25.333 11.333 37.666 28.333 36.999 51c0 12 -5 22.5 -15 31.5s-22 16 -36 21s-33 10.167 -57 15.5l-6 3c-26 -11.333 -38.667 -29 -38 -53z" />
    <glyph glyph-name="dieresis" unicode="&#xa8;" horiz-adv-x="629" 
d="M432 763v-157h-186v157h186z" />
    <glyph glyph-name="copyright" unicode="&#xa9;" horiz-adv-x="831" 
d="M416 -15c-110 0 -200.833 34.168 -272.5 102.501s-107.5 155.5 -107.5 261.5s35.833 193.333 107.5 262s162.5 103 272.5 103c71.333 0 136 -15.5 194 -46.5s103.333 -74.333 136 -130s49 -118.5 49 -188.5s-16.333 -132.833 -49 -188.5s-78 -98.834 -136 -129.501
s-122.667 -46 -194 -46zM415.5 84.001c79 0 144.003 24.667 195.003 74s76.5 113 76.5 191c0 38.667 -6.83301 74.5 -20.5 107.5s-32.334 61.167 -56.001 84.5s-52.334 41.5 -86.001 54.5s-69.834 19.5 -108.501 19.5c-52.667 0 -99.667 -11.167 -141 -33.5
s-73.5 -53.833 -96.5 -94.5s-34.5 -86.667 -34.5 -138c0 -78 25.5 -141.667 76.5 -191s116 -74 195 -74zM417.003 161.001c-57.333 0 -104.666 17.833 -141.999 53.5s-56 80.834 -56 135.501c0 56 18.5 101.667 55.5 137s84.5 53 142.5 53c33.333 0 63.5 -6.5 90.5 -19.5
s49 -31.333 66 -55s27.5 -51.167 31.5 -82.5h-120c-4.66699 14 -13.167 25.167 -25.5 33.5s-26.5 12.5 -42.5 12.5c-14 0 -26.833 -3.33301 -38.5 -10s-20.667 -16 -27 -28s-9.5 -25.667 -9.5 -41c0 -22 7 -40.333 21 -55s32 -22 54 -22c16 0 30.167 4.5 42.5 13.5
s21.166 21.167 26.499 36.5h121c-7.33301 -48.667 -28.333 -87.834 -63 -117.501s-77 -44.5 -127 -44.5z" />
    <glyph glyph-name="ordfeminine" unicode="&#xaa;" horiz-adv-x="455" 
d="M312 709h88.001v-331h-90l-12 27c-28.667 -24 -62.334 -36 -101.001 -36c-48 0 -88 16.5 -120 49.5s-48 74.833 -48 125.5c0 49.333 16 90.5 48 123.5s72 49.5 120 49.5c39.333 0 73.333 -12.333 102 -37zM215.001 470c20.667 0 37.835 6.99902 51.502 20.999
s20.5 31.667 20.5 53c0 20.667 -6.83301 38 -20.5 52s-30.834 21 -51.501 21s-37.834 -7 -51.501 -21s-20.5 -31.333 -20.5 -52c0 -14 3.16699 -26.667 9.5 -38s15 -20.166 26 -26.499s23.167 -9.5 36.5 -9.5z" />
    <glyph glyph-name="guillemotleft" unicode="&#xab;" horiz-adv-x="724" 
d="M183 45l-157 213v18l157 213h207l-160 -222l160 -222h-207zM489 45l-157 213v18l157 213h207l-160 -222l160 -222h-207z" />
    <glyph glyph-name="logicalnot" unicode="&#xac;" horiz-adv-x="608" 
d="M44 446h503v-326h-171v164h-332v162z" />
    <glyph glyph-name="registered" unicode="&#xae;" horiz-adv-x="512" 
d="M256 714c63.333 0 115.833 -20.832 157.5 -62.499s62.5 -94.334 62.5 -158.001s-20.833 -116.5 -62.5 -158.5s-94.167 -63 -157.5 -63s-116 21 -158 63s-63 94.667 -63 158s21 116 63 158s94.667 63 158 63zM256 340.001c44 0 80.501 14.499 109.501 43.499
s43.5 65.5 43.5 109.5c0 44.667 -14.5 81.334 -43.5 110.001s-65.5 43 -109.5 43c-44.667 0 -81.334 -14.5 -110.001 -43.5s-43 -65.5 -43 -109.5s14.5 -80.5 43.5 -109.5s65.5 -43.5 109.5 -43.5zM349.001 521c0 -26.667 -10.333 -46.667 -31 -60l38 -68h-69l-30 56h-18
v-56h-65v204h99c22.667 0 41 -7 55 -21s21 -32.333 21 -55zM239.001 542v-40h23c14.667 0 22 6.66699 22 20s-7.33301 20 -22 20h-23z" />
    <glyph glyph-name="macron" unicode="&#xaf;" horiz-adv-x="510" 
d="M87 615v129h335v-129h-335z" />
    <glyph glyph-name="degree" unicode="&#xb0;" horiz-adv-x="389" 
d="M194 512c-47.333 0 -87.667 16 -121 48s-50 70.667 -50 116c0 30 7.66699 57.5 23 82.5s36 44.833 62 59.5s54.667 22 86 22c47.333 0 87.833 -16 121.5 -48s50.5 -70.667 50.5 -116s-16.833 -84 -50.5 -116s-74.167 -48 -121.5 -48zM194.499 623
c15.667 0 28.667 5.16699 39 15.5s15.5 23 15.5 38s-5.16699 27.5 -15.5 37.5s-23.333 15 -39 15s-28.667 -5 -39 -15s-15.5 -22.5 -15.5 -37.5s5.16699 -27.667 15.5 -38s23.333 -15.5 39 -15.5z" />
    <glyph glyph-name="plusminus" unicode="&#xb1;" horiz-adv-x="577" 
d="M204 214v135h-151v157h151v142h168v-142h151v-157h-151v-135h-168zM51 138h476v-150h-476v150z" />
    <glyph glyph-name="acute" unicode="&#xb4;" horiz-adv-x="539" 
d="M94 600l57 165h190l-110 -165h-137z" />
    <glyph glyph-name="paragraph" unicode="&#xb6;" horiz-adv-x="720" 
d="M683 700l-0.000976562 -162.999h-92v-624h-158v624h-72v-624h-158v341c-53.333 13.333 -96.166 39.666 -128.499 78.999s-48.5 85 -48.5 137c0 66.667 23.5 121.667 70.5 165s107.5 65 181.5 65h405z" />
    <glyph glyph-name="periodcentered" unicode="&#xb7;" horiz-adv-x="289" 
d="M54 273v173h181v-173h-181z" />
    <glyph glyph-name="cedilla" unicode="&#xb8;" horiz-adv-x="478" 
d="M206 -33c19.333 -2 36.333 -7.16602 51 -15.499s26 -19.333 34 -33s12 -29.5 12 -47.5c0 -30.667 -12 -55.5 -36 -74.5s-55 -28.5 -93 -28.5h-77v81h64c9.33301 0 16.833 2.5 22.5 7.5s8.5 11.667 8.5 20s-2.83301 15.166 -8.5 20.499s-13.167 8 -22.5 8h-46l-9 12
l39 139h86z" />
    <glyph glyph-name="ordmasculine" unicode="&#xba;" horiz-adv-x="425" 
d="M212.5 370c-53.667 0 -97.667 16.332 -132 48.999s-51.5 74.334 -51.5 125.001s17.167 92.167 51.5 124.5s78.333 48.5 132 48.5s97.667 -16.167 132 -48.5s51.5 -74 51.5 -125s-17.167 -92.667 -51.5 -125s-78.333 -48.5 -132 -48.5zM213 474.999
c19.333 0 35.333 6.33398 48 19.001s19 29.334 19 50.001c0 20 -6.33301 36.333 -19 49s-28.667 19 -48 19c-10 0 -19.167 -1.66699 -27.5 -5s-15.5 -8 -21.5 -14s-10.667 -13.333 -14 -22s-5 -17.834 -5 -27.501s1.66699 -18.834 5 -27.501s8 -16 14 -22
s13.167 -10.667 21.5 -14s17.5 -5 27.5 -5z" />
    <glyph glyph-name="guillemotright" unicode="&#xbb;" horiz-adv-x="724" 
d="M235 45h-207l160 222l-160 222h207l157 -213v-18zM541 45h-207l160 222l-160 222h207l157 -213v-18z" />
    <glyph glyph-name="onequarter" unicode="&#xbc;" horiz-adv-x="773" 
d="M482 732h126l-404 -760h-126zM83 298v304h-64v98h184v-402h-120zM753 165v-95h-37v-70h-111v70h-194v26l128 306h115l-98 -237h58l28 90h74v-90h37z" />
    <glyph glyph-name="onehalf" unicode="&#xbd;" horiz-adv-x="794" 
d="M482 732h126l-404 -760h-126zM83 298v304h-64v98h184v-402h-120zM654 101l110.001 -0.000976562v-101h-308v32c80 92 130.667 152.5 152 181.5s32 51.5 32 67.5c0 10.667 -2.83301 19.167 -8.5 25.5s-13.167 9.5 -22.5 9.5c-10.667 0 -19 -3.5 -25 -10.5
s-9 -16.167 -9 -27.5v-10h-113v7c0 44 13 78.167 39 102.5s62 36.5 108 36.5c28.667 0 54.167 -5.33301 76.5 -16s39.666 -25.667 51.999 -45s18.5 -41.666 18.5 -66.999c0 -26 -7.5 -52 -22.5 -78s-41.5 -61.667 -79.5 -107z" />
    <glyph glyph-name="threequarters" unicode="&#xbe;" horiz-adv-x="873" 
d="M581 732h126l-404 -760h-126zM330 430c0 -27.333 -6.66699 -51.666 -20 -72.999s-31.666 -38.166 -54.999 -50.499s-50 -18.5 -80 -18.5c-44.667 0 -80.834 13 -108.501 39s-41.834 60 -42.501 102h105c0 -8.66699 2 -16.667 6 -24s9.5 -13 16.5 -17s15 -6 24 -6
s17 2.16699 24 6.5s12.5 10.166 16.5 17.499s6 15.666 6 24.999c0 14.667 -4.66699 26.167 -14 34.5s-21.666 12.5 -36.999 12.5h-65v24l62 103h-134v95h282v-19l-80 -128c28.667 -7.33301 51.5 -22 68.5 -44s25.5 -48.333 25.5 -79zM853 165v-95h-37v-70h-111v70h-195v26
l129 306h115l-98 -237h57l28 90h75v-90h37z" />
    <glyph glyph-name="questiondown" unicode="&#xbf;" horiz-adv-x="551" 
d="M379 540v-173h-181v173h181zM375 317l0.000976562 -19.001c0 -26.667 -2.83301 -50.5 -8.5 -71.5s-14.5 -39 -26.5 -54s-22.333 -26.333 -31 -34s-21 -17.167 -37 -28.5l-24.5 -18.5c-5.66699 -4.33301 -11.834 -10 -18.501 -17s-11.5 -14.5 -14.5 -22.5
s-4.5 -17 -4.5 -27s2 -19.5 6 -28.5s9.16699 -16.333 15.5 -22s13.666 -10.167 21.999 -13.5s17.166 -5 26.499 -5c20.667 0 38.167 6.5 52.5 19.5s21.5 30.833 21.5 53.5h175c0 -72 -23.667 -128.167 -71 -168.5s-106.666 -60.5 -177.999 -60.5
c-72.667 0 -132.5 20.5 -179.5 61.5s-70.5 95.167 -70.5 162.5c0 22 2.66699 42 8 60s13.833 34.167 25.5 48.5s21.834 25.333 30.501 33s21 17.834 37 30.501s28 22.5 36 29.5s15.667 17.167 23 30.5s11 27.333 11 42v19h174z" />
    <glyph glyph-name="Agrave" unicode="&#xc0;" horiz-adv-x="744" 
d="M307 762l-129 155h195l70 -155h-136zM532 0l-39 114h-248l-39 -114h-206l275 700h188l281 -700h-212zM446 265l-77 217l-77 -217h154z" />
    <glyph glyph-name="Aacute" unicode="&#xc1;" horiz-adv-x="744" 
d="M558 917l-128 -155h-137l71 155h194zM532 0l-39 114h-248l-39 -114h-206l275 700h188l281 -700h-212zM446 265l-77 217l-77 -217h154z" />
    <glyph glyph-name="Acircumflex" unicode="&#xc2;" horiz-adv-x="744" 
d="M368 833l-71 -71h-145l118 155h196l119 -155h-145zM532 0l-39 114h-248l-39 -114h-206l275 700h188l281 -700h-212zM446 265l-77 217l-77 -217h154z" />
    <glyph glyph-name="Atilde" unicode="&#xc3;" horiz-adv-x="744" 
d="M441 758c-12.667 0 -25.667 2.00098 -39 6.00098s-23 7.5 -29 10.5s-15.667 8.16699 -29 15.5c-20 11.333 -34.333 17 -43 17c-9.33301 0.666992 -17.166 -2.5 -23.499 -9.5s-9.5 -15.833 -9.5 -26.5v-10h-101v13c0 44.667 11.167 80.167 33.5 106.5
s54.166 39.5 95.499 39.5c28.667 0 59.667 -10.333 93 -31c20 -13.333 35.333 -20 46 -20c10 0 17.833 3.33301 23.5 10s8.5 15.667 8.5 27v11h102v-13c0 -22.667 -3 -43 -9 -61s-14.5 -33.333 -25.5 -46s-24.333 -22.334 -40 -29.001s-33.5 -10 -53.5 -10zM532 0.000976562
l-39 114h-248l-39 -114h-206l275 700h188l281 -700h-212zM446 265.001l-77 217l-77 -217h154z" />
    <glyph glyph-name="Adieresis" unicode="&#xc4;" horiz-adv-x="744" 
d="M156 762v155h171v-155h-171zM411 762v155h171v-155h-171zM532 0l-39 114h-248l-39 -114h-206l275 700h188l281 -700h-212zM446 265l-77 217l-77 -217h154z" />
    <glyph glyph-name="Aring" unicode="&#xc5;" horiz-adv-x="744" 
d="M368 734c-27.333 0 -51.666 5.5 -72.999 16.5s-38 26.833 -50 47.5s-18 44 -18 70c0 40 13.167 72.333 39.5 97s60.166 37 101.499 37s75.166 -12.333 101.499 -37s39.5 -57 39.5 -97c0 -20 -3.5 -38.333 -10.5 -55s-16.667 -30.667 -29 -42s-27.166 -20.333 -44.499 -27
s-36.333 -10 -57 -10zM368 815c10.667 0 20.167 2.16797 28.5 6.50098s14.833 10.666 19.5 18.999s7 17.5 7 27.5c0 15.333 -5.16699 28 -15.5 38s-23.5 15 -39.5 15s-29.167 -5 -39.5 -15s-15.5 -22.667 -15.5 -38s5.33301 -28 16 -38s23.667 -15 39 -15zM532 0.000976562
l-39 114h-248l-39 -114h-206l275 700h188l281 -700h-212zM446 265.001l-77 217l-77 -217h154z" />
    <glyph glyph-name="AE" unicode="&#xc6;" horiz-adv-x="948" 
d="M647 167h258v-167h-444v113h-206l-63 -113h-213l402 700h515v-166h-249v-104h223v-158h-223v-105zM338 262h123v222z" />
    <glyph glyph-name="Ccedilla" unicode="&#xc7;" horiz-adv-x="784" 
d="M759 291c-12 -84.667 -46.333 -154.663 -103 -209.996s-126.334 -87.333 -209.001 -96l-4 -16c28 -6 49.833 -17.5 65.5 -34.5s23.5 -38.5 23.5 -64.5c0 -20 -5.16699 -38 -15.5 -54s-25.666 -28.833 -45.999 -38.5s-43.5 -14.5 -69.5 -14.5h-91v85h75
c10 0 18 2.66699 24 8s9 12.333 9 21c0 5.33301 -1.33301 10.166 -4 14.499s-6.5 7.66602 -11.5 9.99902s-10.833 3.5 -17.5 3.5h-51l-8 10l17 72c-60 8.66699 -113.667 29.667 -161 63s-84.333 76 -111 128s-40 109 -40 171c0 105.333 35.5 193.166 106.5 263.499
s159.5 105.5 265.5 105.5c92 0 170.5 -27.667 235.5 -83s104.5 -127.333 118.5 -216h-195c-12 36 -32.167 64.833 -60.5 86.5s-60.833 32.5 -97.5 32.5c-50 0 -91.167 -17.833 -123.5 -53.5s-48.5 -80.834 -48.5 -135.501c0 -35.333 7.33301 -67.166 22 -95.499
s35.167 -50.5 61.5 -66.5s55.833 -24 88.5 -24c25.333 0 48.833 5.33301 70.5 16s40 25.667 55 45s25.833 41.666 32.5 66.999h197z" />
    <glyph glyph-name="Egrave" unicode="&#xc8;" horiz-adv-x="567" 
d="M232 762l-128 155h194l71 -155h-137zM260 167h264v-167h-456v700h448v-167h-256v-103h230v-158h-230v-105z" />
    <glyph glyph-name="Eacute" unicode="&#xc9;" horiz-adv-x="567" 
d="M483 917l-128 -155h-136l70 155h194zM260 167h264v-167h-456v700h448v-167h-256v-103h230v-158h-230v-105z" />
    <glyph glyph-name="Ecircumflex" unicode="&#xca;" horiz-adv-x="567" 
d="M293 833l-71 -71h-145l118 155h196l119 -155h-145zM260 167h264v-167h-456v700h448v-167h-256v-103h230v-158h-230v-105z" />
    <glyph glyph-name="Edieresis" unicode="&#xcb;" horiz-adv-x="567" 
d="M81 762v155h171v-155h-171zM336 762v155h171v-155h-171zM260 167h264v-167h-456v700h448v-167h-256v-103h230v-158h-230v-105z" />
    <glyph glyph-name="Igrave" unicode="&#xcc;" horiz-adv-x="331" 
d="M235 762h-140l-86 155h190zM68 0v700h195v-700h-195z" />
    <glyph glyph-name="Iacute" unicode="&#xcd;" horiz-adv-x="331" 
d="M94 762l56 155h189l-111 -155h-134zM68 0v700h195v-700h-195z" />
    <glyph glyph-name="Icircumflex" unicode="&#xce;" horiz-adv-x="331" 
d="M165 829l-59 -67h-141l108 155h184l109 -155h-141zM68 0v700h195v-700h-195z" />
    <glyph glyph-name="Idieresis" unicode="&#xcf;" horiz-adv-x="331" 
d="M-38 762v155h170v-155h-170zM198 762v155h169v-155h-169zM68 0v700h195v-700h-195z" />
    <glyph glyph-name="Eth" unicode="&#xd0;" horiz-adv-x="781" 
d="M387 700c106 0 192.667 -32.668 260 -98.001s101 -149.166 101 -251.499s-33.833 -186.333 -101.5 -252s-154.167 -98.5 -259.5 -98.5h-283v273h-84v155h84v272h283zM378 176.999c34 0 64.168 7.16797 90.501 21.501s46.666 34.666 60.999 60.999s21.5 56.833 21.5 91.5
c0 51.333 -15.833 92.833 -47.5 124.5s-73.5 47.5 -125.5 47.5h-81v-95h117v-155h-117v-96h81z" />
    <glyph glyph-name="Ntilde" unicode="&#xd1;" horiz-adv-x="760" 
d="M282 771l0.00195312 -10h-101v13c0 29.333 4.83301 55 14.5 77s24.167 39 43.5 51s42.666 18 69.999 18c28.667 0 59.667 -10.333 93 -31c20.667 -13.333 36.334 -20 47.001 -20c10 0 17.833 3.33301 23.5 10s8.5 15.667 8.5 27v11h102v-13
c0 -45.333 -11.5 -81 -34.5 -107s-54.167 -39 -93.5 -39c-12.667 0 -25.834 2 -39.501 6s-23.334 7.5 -29.001 10.5l-28.5 15.5c-20.667 11.333 -35 17 -43 17c-10 0.666992 -18 -2.5 -24 -9.5s-9 -15.833 -9 -26.5zM505.002 700h187v-700h-159l-278 380v-380h-187v700h168
l269 -367v367z" />
    <glyph glyph-name="Ograve" unicode="&#xd2;" horiz-adv-x="832" 
d="M355 762l-128 155h194l71 -155h-137zM417 -18c-112.667 0 -205.167 34.5 -277.5 103.5s-108.5 157.167 -108.5 264.5s36.167 195.5 108.5 264.5s164.833 103.5 277.5 103.5c112 0 204 -34.5 276 -103.5s108 -157.167 108 -264.5s-36 -195.5 -108 -264.5
s-164 -103.5 -276 -103.5zM417 162c53.333 0 97.166 17.667 131.499 53s51.5 80.333 51.5 135s-17.167 99.667 -51.5 135s-78.166 53 -131.499 53s-97.5 -17.667 -132.5 -53s-52.5 -80.333 -52.5 -135s17.5 -99.667 52.5 -135s79.167 -53 132.5 -53z" />
    <glyph glyph-name="Oacute" unicode="&#xd3;" horiz-adv-x="832" 
d="M342 762l70 155h195l-129 -155h-136zM417 -18c-112.667 0 -205.167 34.5 -277.5 103.5s-108.5 157.167 -108.5 264.5s36.167 195.5 108.5 264.5s164.833 103.5 277.5 103.5c112 0 204 -34.5 276 -103.5s108 -157.167 108 -264.5s-36 -195.5 -108 -264.5
s-164 -103.5 -276 -103.5zM417 162c53.333 0 97.166 17.667 131.499 53s51.5 80.333 51.5 135s-17.167 99.667 -51.5 135s-78.166 53 -131.499 53s-97.5 -17.667 -132.5 -53s-52.5 -80.333 -52.5 -135s17.5 -99.667 52.5 -135s79.167 -53 132.5 -53z" />
    <glyph glyph-name="Ocircumflex" unicode="&#xd4;" horiz-adv-x="832" 
d="M633 762h-144l-73 71l-71 -71h-145l119 155h195zM417 -18c-112.667 0 -205.167 34.5 -277.5 103.5s-108.5 157.167 -108.5 264.5s36.167 195.5 108.5 264.5s164.833 103.5 277.5 103.5c112 0 204 -34.5 276 -103.5s108 -157.167 108 -264.5s-36 -195.5 -108 -264.5
s-164 -103.5 -276 -103.5zM417 162c53.333 0 97.166 17.667 131.499 53s51.5 80.333 51.5 135s-17.167 99.667 -51.5 135s-78.166 53 -131.499 53s-97.5 -17.667 -132.5 -53s-52.5 -80.333 -52.5 -135c0 -36 8 -68.333 24 -97s38 -51 66 -67s59.667 -24 95 -24z" />
    <glyph glyph-name="Otilde" unicode="&#xd5;" horiz-adv-x="832" 
d="M489 758c-12 0 -24.8311 2 -38.498 6s-23.334 7.5 -29.001 10.5l-28.5 15.5c-20.667 11.333 -35.334 17 -44.001 17c-9.33301 0.666992 -17.166 -2.5 -23.499 -9.5s-9.5 -15.833 -9.5 -26.5v-10h-101v13c0 29.333 5 55 15 77s24.667 39 44 51s42.666 18 69.999 18
c28.667 0 59.667 -10.333 93 -31c20 -13.333 35.333 -20 46 -20c10 0 18 3.33301 24 10s9 15.667 9 27v11h101v-13c0 -45.333 -11.333 -81 -34 -107s-54 -39 -94 -39zM417.002 -18c-112.667 0 -205.167 34.5 -277.5 103.5s-108.5 157.167 -108.5 264.5
s36.167 195.5 108.5 264.5s164.833 103.5 277.5 103.5c112 0 204 -34.5 276 -103.5s108 -157.167 108 -264.5s-36 -195.5 -108 -264.5s-164 -103.5 -276 -103.5zM417.002 162c53.333 0 97.167 17.667 131.5 53s51.5 80.333 51.5 135s-17.167 99.667 -51.5 135
s-78.166 53 -131.499 53s-97.5 -17.667 -132.5 -53s-52.5 -80.333 -52.5 -135c0 -36 7.83301 -68.333 23.5 -97s37.667 -51 66 -67s60.166 -24 95.499 -24z" />
    <glyph glyph-name="Odieresis" unicode="&#xd6;" horiz-adv-x="832" 
d="M204 762v155h171v-155h-171zM459 762v155h171v-155h-171zM417 -18c-112.667 0 -205.167 34.5 -277.5 103.5s-108.5 157.167 -108.5 264.5s36.167 195.5 108.5 264.5s164.833 103.5 277.5 103.5c112 0 204 -34.5 276 -103.5s108 -157.167 108 -264.5
s-36 -195.5 -108 -264.5s-164 -103.5 -276 -103.5zM417 162c53.333 0 97.166 17.667 131.499 53s51.5 80.333 51.5 135s-17.167 99.667 -51.5 135s-78.166 53 -131.499 53s-97.5 -17.667 -132.5 -53s-52.5 -80.333 -52.5 -135s17.5 -99.667 52.5 -135s79.167 -53 132.5 -53z
" />
    <glyph glyph-name="multiply" unicode="&#xd7;" horiz-adv-x="564" 
d="M529 459l-132 -133l132 -133l-116 -113l-131 131l-131 -131l-115 113l131 133l-131 133l116 114l130 -131l130 131z" />
    <glyph glyph-name="Oslash" unicode="&#xd8;" horiz-adv-x="851" 
d="M679 627c43.333 -34 77.5 -75.999 102.5 -125.999s37.5 -102.667 37.5 -158c0 -105.333 -35.833 -191.833 -107.5 -259.5s-163.5 -101.5 -275.5 -101.5c-42 0 -84 6.33301 -126 19l-36 -60h-188l84 133c-43.333 34 -77.333 75.667 -102 125s-37 101.333 -37 156
c0 105.333 36 192.166 108 260.499s164 102.5 276 102.5c41.333 0 82.333 -6 123 -18l34 57h188zM416 546.001c-55.333 0 -100.833 -18.166 -136.5 -54.499s-53.5 -82.5 -53.5 -138.5c0 -46.667 15 -87.334 45 -122.001l182 311c-12 2.66699 -24.333 4 -37 4zM433 154.002
c36.667 0 69.667 8.00195 99 24.002s52.166 38.667 68.499 68s24.5 62.666 24.5 99.999c0 47.333 -15.667 88.666 -47 123.999l-183 -312c12.667 -2.66699 25.334 -4 38.001 -4z" />
    <glyph glyph-name="Ugrave" unicode="&#xd9;" horiz-adv-x="732" 
d="M305 762l-129 155h194l71 -155h-136zM365.5 -18c-89.667 0 -162.998 26.667 -219.998 80s-85.5 123 -85.5 209v429h197v-426c0 -22 4.66699 -41.667 14 -59s22.166 -30.5 38.499 -39.5s35.166 -13.5 56.499 -13.5c32 0 58 10.167 78 30.5s30 47.5 30 81.5v426h197v-429
c0 -86 -28.5 -155.667 -85.5 -209s-130.333 -80 -220 -80z" />
    <glyph glyph-name="Uacute" unicode="&#xda;" horiz-adv-x="732" 
d="M291 762l71 155h194l-129 -155h-136zM365.5 -18c-89.667 0 -163 26.667 -220 80s-85.5 123 -85.5 209v429h197v-426c0 -34 10 -61.167 30 -81.5s46.167 -30.5 78.5 -30.5s58.5 10.167 78.5 30.5s30 47.5 30 81.5v426h197v-429c0 -86 -28.5 -155.667 -85.5 -209
s-130.333 -80 -220 -80z" />
    <glyph glyph-name="Ucircumflex" unicode="&#xdb;" horiz-adv-x="732" 
d="M583 762h-145l-73 71l-71 -71h-145l119 155h195zM365.5 -18c-89.667 0 -163 26.667 -220 80s-85.5 123 -85.5 209v429h197v-426c0 -34 10 -61.167 30 -81.5s46.167 -30.5 78.5 -30.5s58.5 10.167 78.5 30.5s30 47.5 30 81.5v426h197v-429
c0 -86 -28.5 -155.667 -85.5 -209s-130.333 -80 -220 -80z" />
    <glyph glyph-name="Udieresis" unicode="&#xdc;" horiz-adv-x="732" 
d="M153 762v155h171v-155h-171zM408 762v155h171v-155h-171zM365.5 -18c-89.667 0 -163 26.667 -220 80s-85.5 123 -85.5 209v429h197v-426c0 -34 10 -61.167 30 -81.5s46.167 -30.5 78.5 -30.5s58.5 10.167 78.5 30.5s30 47.5 30 81.5v426h197v-429
c0 -86 -28.5 -155.667 -85.5 -209s-130.333 -80 -220 -80z" />
    <glyph glyph-name="Yacute" unicode="&#xdd;" horiz-adv-x="699" 
d="M540 917l-128 -155h-137l71 155h194zM692 700l-245 -426v-274h-196v274l-243 426h214l128 -253l128 253h214z" />
    <glyph glyph-name="Thorn" unicode="&#xde;" horiz-adv-x="653" 
d="M366 604c74.667 0 136.501 -23.8311 185.501 -71.498s73.5 -108.167 73.5 -181.5c0 -48.667 -11.167 -92.334 -33.5 -131.001s-53.333 -68.834 -93 -90.501s-83.834 -32.5 -132.501 -32.5h-105v-97h-193v700h193v-96h105zM343.001 265.002c24.667 0 44.834 8 60.501 24
s23.5 36.5 23.5 61.5s-7.83301 45.333 -23.5 61s-35.834 23.5 -60.501 23.5h-82v-170h82z" />
    <glyph glyph-name="germandbls" unicode="&#xdf;" horiz-adv-x="641" 
d="M509 389c69.333 -38 104.002 -94.668 104.002 -170.001c0 -66.667 -25 -119.834 -75 -159.501s-117 -59.5 -201 -59.5h-44v156h42c30 0 53.167 6.66699 69.5 20s24.5 32 24.5 56s-8.33301 42.667 -25 56s-40.334 20 -71.001 20h-36v145h28c26.667 0 48.167 7 64.5 21
s24.5 32 24.5 54c0 8.66699 -1.33301 16.834 -4 24.501s-6.33398 14.5 -11.001 20.5s-10.5 11.167 -17.5 15.5s-14.667 7.66602 -23 9.99902s-17.5 3.5 -27.5 3.5c-27.333 0 -48.5 -9.16699 -63.5 -27.5s-22.5 -43.166 -22.5 -74.499v-500h-186v477
c0 85.333 23.833 152.166 71.5 200.499s113.5 72.5 197.5 72.5c76 0 137.667 -19.667 185 -59s71 -90.666 71 -153.999c0 -59.333 -25 -108.666 -75 -147.999z" />
    <glyph glyph-name="agrave" unicode="&#xe0;" horiz-adv-x="692" 
d="M420 600h-137l-110 165h190zM495 541h138v-540h-143l-16 38c-46.667 -38 -101 -57 -163 -57c-54.667 0 -103.5 12.333 -146.5 37s-76.667 59 -101 103s-36.5 93.667 -36.5 149c0 83.333 26.667 151.833 80 205.5s121.333 80.5 204 80.5c62.667 0 117.667 -19.333 165 -58
zM336 147c34.667 0 63.334 11.667 86.001 35s34 52.666 34 87.999s-11.333 64.666 -34 87.999s-51.334 35 -86.001 35c-35.333 0 -64.333 -11.667 -87 -35s-34 -52.666 -34 -87.999c0 -17.333 3 -33.666 9 -48.999s14.333 -28.333 25 -39s23.5 -19.167 38.5 -25.5
s31.167 -9.5 48.5 -9.5z" />
    <glyph glyph-name="aacute" unicode="&#xe1;" horiz-adv-x="692" 
d="M508 765l-110 -165h-137l57 165h190zM495 541h138v-540h-143l-16 38c-46.667 -38 -101 -57 -163 -57c-54.667 0 -103.5 12.333 -146.5 37s-76.667 59 -101 103s-36.5 93.667 -36.5 149c0 83.333 26.667 151.833 80 205.5s121.333 80.5 204 80.5
c62.667 0 117.667 -19.333 165 -58zM336 147c34.667 0 63.334 11.667 86.001 35s34 52.666 34 87.999s-11.333 64.666 -34 87.999s-51.334 35 -86.001 35c-35.333 0 -64.333 -11.667 -87 -35s-34 -52.666 -34 -87.999c0 -17.333 3 -33.666 9 -48.999s14.333 -28.333 25 -39
s23.5 -19.167 38.5 -25.5s31.167 -9.5 48.5 -9.5z" />
    <glyph glyph-name="acircumflex" unicode="&#xe2;" horiz-adv-x="692" 
d="M343 676l-71 -76h-145l118 165h196l120 -165h-145zM495 541h138v-540h-143l-16 38c-46.667 -38 -101 -57 -163 -57c-54.667 0 -103.5 12.333 -146.5 37s-76.667 59 -101 103s-36.5 93.667 -36.5 149c0 83.333 26.667 151.833 80 205.5s121.333 80.5 204 80.5
c62.667 0 117.667 -19.333 165 -58zM336 147c34.667 0 63.334 11.667 86.001 35s34 52.666 34 87.999s-11.333 64.666 -34 87.999s-51.334 35 -86.001 35c-35.333 0 -64.333 -11.667 -87 -35s-34 -52.666 -34 -87.999c0 -17.333 3 -33.666 9 -48.999s14.333 -28.333 25 -39
s23.5 -19.167 38.5 -25.5s31.167 -9.5 48.5 -9.5z" />
    <glyph glyph-name="atilde" unicode="&#xe3;" horiz-adv-x="692" 
d="M244 615l-0.000976562 -9.99902h-101v12c0 29.333 4.83301 54.833 14.5 76.5s24.167 38.5 43.5 50.5s42.666 18 69.999 18c29.333 0 60.333 -10.333 93 -31c20 -12.667 35.667 -19 47 -19c10 0 17.833 3.16699 23.5 9.5s8.5 15.166 8.5 26.499v11h102v-12
c0 -30 -5.16699 -56 -15.5 -78s-25.166 -38.667 -44.499 -50s-42 -17 -68 -17c-12.667 0 -25.667 1.83301 -39 5.5s-23.166 7.16699 -29.499 10.5l-28.5 15c-20.667 11.333 -35 17 -43 17c-10 0 -18 -3.33301 -24 -10s-9 -15 -9 -25zM494.999 541.001h138v-540h-144l-15 38
c-46.667 -38 -101 -57 -163 -57c-82.667 0 -150.667 27.167 -204 81.5s-80 123.5 -80 207.5c0 83.333 26.667 151.833 80 205.5s121.333 80.5 204 80.5c62.667 0 117.667 -19.333 165 -58zM335.499 147.001c35 0 63.834 11.667 86.501 35s34 52.666 34 87.999
s-11.333 64.666 -34 87.999s-51.667 35 -87 35c-34.667 0 -63.334 -11.667 -86.001 -35s-34 -52.666 -34 -87.999s11.333 -64.666 34 -87.999s51.5 -35 86.5 -35z" />
    <glyph glyph-name="adieresis" unicode="&#xe4;" horiz-adv-x="692" 
d="M299 763v-157h-168v157h168zM553 763v-157h-168v157h168zM495 541h138v-540h-143l-16 38c-46.667 -38 -101 -57 -163 -57c-54.667 0 -103.5 12.333 -146.5 37s-76.667 59 -101 103s-36.5 93.667 -36.5 149c0 83.333 26.667 151.833 80 205.5s121.333 80.5 204 80.5
c62.667 0 117.667 -19.333 165 -58zM335.5 147c35 0 63.834 11.667 86.501 35s34 52.666 34 87.999s-11.333 64.666 -34 87.999s-51.334 35 -86.001 35c-35.333 0 -64.333 -11.667 -87 -35s-34 -52.666 -34 -87.999s11.333 -64.666 34 -87.999s51.5 -35 86.5 -35z" />
    <glyph glyph-name="aring" unicode="&#xe5;" horiz-adv-x="692" 
d="M342 581c-25.333 0 -48 5.33105 -68 15.998s-35.667 25.5 -47 44.5s-17 40.833 -17 65.5s5.66699 46.5 17 65.5s27 33.833 47 44.5s42.667 16 68 16c39.333 0 71.333 -11.667 96 -35s37 -53.666 37 -90.999s-12.333 -67.666 -37 -90.999s-56.667 -35 -96 -35z
M342.5 756.998c-15 0 -27.333 -4.66699 -37 -14s-14.5 -21.333 -14.5 -36s4.83301 -26.667 14.5 -36s22 -14 37 -14s27.333 4.66699 37 14s14.5 21.333 14.5 36s-4.83301 26.667 -14.5 36s-22 14 -37 14zM495 540.998h138v-540h-144l-15 38c-46.667 -38 -101 -57 -163 -57
c-82.667 0 -150.667 27.167 -204 81.5s-80 123.5 -80 207.5c0 83.333 26.667 151.833 80 205.5s121.333 80.5 204 80.5c62.667 0 117.667 -19.333 165 -58zM335.5 146.998c35 0 63.834 11.667 86.501 35s34 52.666 34 87.999s-11.333 64.666 -34 87.999s-51.667 35 -87 35
c-34.667 0 -63.334 -11.667 -86.001 -35s-34 -52.666 -34 -87.999s11.333 -64.666 34 -87.999s51.5 -35 86.5 -35z" />
    <glyph glyph-name="ae" unicode="&#xe6;" horiz-adv-x="1066" 
d="M1040 273c0 -12.667 -1.33496 -28.666 -4.00195 -47.999h-406c6.66699 -29.333 19.834 -51.833 39.501 -67.5s44.5 -23.5 74.5 -23.5c22.667 0 42.834 4.33301 60.501 13s30.834 20.667 39.501 36h185c-18 -60 -51.833 -108.333 -101.5 -145s-106.5 -55 -170.5 -55
c-68.667 0 -126.334 21.333 -173.001 64l-5 -47h-107l-6 47c-46.667 -43.333 -103 -65 -169 -65c-37.333 0 -72.833 7.5 -106.5 22.5s-62.334 35.167 -86.001 60.5s-42.5 55.666 -56.5 90.999s-21 73.333 -21 114c0 82.667 25.833 151 77.5 205s115.834 81 192.501 81
c67.333 0 124.333 -22.333 171 -67l8 51h99l7 -49c46.667 43.333 105 65 175 65c81.333 0 148.833 -27 202.5 -81s80.5 -121.333 80.5 -202zM744.998 412.001c-28 0 -51.5 -7.16699 -70.5 -21.5s-32.5 -34.833 -40.5 -61.5h223c-8 26.667 -21.667 47.167 -41 61.5
s-43 21.5 -71 21.5zM334.498 147.001c34.333 0 62.833 11.667 85.5 35s34 52.5 34 87.5s-11.333 64.167 -34 87.5s-51.167 35 -85.5 35s-63 -11.667 -86 -35s-34.5 -52.5 -34.5 -87.5s11.5 -64.167 34.5 -87.5s51.667 -35 86 -35z" />
    <glyph glyph-name="ccedilla" unicode="&#xe7;" horiz-adv-x="636" 
d="M614 228c-10 -69.333 -38.9971 -126.332 -86.9971 -170.999s-107.333 -69.334 -178 -74.001l-4 -16c29.333 -3.33301 52.666 -13.5 69.999 -30.5s26 -38.5 26 -64.5c0 -31.333 -11.833 -56.5 -35.5 -75.5s-54.5 -28.5 -92.5 -28.5h-77v81h64
c9.33301 0 16.833 2.5 22.5 7.5s8.5 11.667 8.5 20s-2.83301 15.166 -8.5 20.499s-13.167 8 -22.5 8h-46l-9 12l19 71c-70.667 12.667 -127.834 44.667 -171.501 96s-65.5 113.666 -65.5 186.999c0 54.667 12.833 103.834 38.5 147.501s61.167 77.667 106.5 102
s96.666 36.5 153.999 36.5c76 0 140.167 -22 192.5 -66s83.5 -101.667 93.5 -173h-181c-8 22 -21.5 39.5 -40.5 52.5s-40.5 19.5 -64.5 19.5c-32.667 0 -59.5 -11.167 -80.5 -33.5s-31.5 -51.166 -31.5 -86.499s10.5 -64.333 31.5 -87s47.833 -34 80.5 -34
c24.667 0 46.5 7.16699 65.5 21.5s32.167 33.5 39.5 57.5h183z" />
    <glyph glyph-name="egrave" unicode="&#xe8;" horiz-adv-x="641" 
d="M398 600h-137l-109 165h189zM615 275c0 -15.333 -1.33301 -31.667 -4 -49h-401c6 -30.667 18.5 -54 37.5 -70s43.167 -24 72.5 -24c22 0 41.667 4.5 59 13.5s30.333 21.5 39 37.5h185c-18.667 -62 -53.5 -111 -104.5 -147s-110.5 -54 -178.5 -54
c-84 0 -153.833 27.5 -209.5 82.5s-83.5 123.5 -83.5 205.5c0 54.667 12.667 104 38 148s60.333 78.333 105 103s94.667 37 150 37c57.333 0 108.5 -12.5 153.5 -37.5s79.833 -59 104.5 -102s37 -90.833 37 -143.5zM320 411.999c-26.667 0 -49.167 -7.16699 -67.5 -21.5
s-31.5 -34.833 -39.5 -61.5h219c-16.667 55.333 -54 83 -112 83z" />
    <glyph glyph-name="eacute" unicode="&#xe9;" horiz-adv-x="641" 
d="M486 765l-110 -165h-137l57 165h190zM615 275c0 -15.333 -1.33301 -31.667 -4 -49h-401c6 -30.667 18.5 -54 37.5 -70s43.167 -24 72.5 -24c22 0 41.667 4.5 59 13.5s30.333 21.5 39 37.5h185c-18.667 -62 -53.5 -111 -104.5 -147s-110.5 -54 -178.5 -54
c-84 0 -153.833 27.5 -209.5 82.5s-83.5 123.5 -83.5 205.5c0 54.667 12.667 104 38 148s60.333 78.333 105 103s94.667 37 150 37c57.333 0 108.5 -12.5 153.5 -37.5s79.833 -59 104.5 -102s37 -90.833 37 -143.5zM320 411.999c-26.667 0 -49.167 -7.16699 -67.5 -21.5
s-31.5 -34.833 -39.5 -61.5h219c-16.667 55.333 -54 83 -112 83z" />
    <glyph glyph-name="ecircumflex" unicode="&#xea;" horiz-adv-x="641" 
d="M321 676l-71 -76h-145l118 165h196l120 -165h-145zM615 275c0 -15.333 -1.33301 -31.667 -4 -49h-401c6 -30.667 18.5 -54 37.5 -70s43.167 -24 72.5 -24c22 0 41.667 4.5 59 13.5s30.333 21.5 39 37.5h185c-18.667 -62 -53.5 -111 -104.5 -147s-110.5 -54 -178.5 -54
c-84 0 -153.833 27.5 -209.5 82.5s-83.5 123.5 -83.5 205.5c0 54.667 12.667 104 38 148s60.333 78.333 105 103s94.667 37 150 37c57.333 0 108.5 -12.5 153.5 -37.5s79.833 -59 104.5 -102s37 -90.833 37 -143.5zM320 411.999c-26.667 0 -49.167 -7.16699 -67.5 -21.5
s-31.5 -34.833 -39.5 -61.5h219c-16.667 55.333 -54 83 -112 83z" />
    <glyph glyph-name="edieresis" unicode="&#xeb;" horiz-adv-x="641" 
d="M277 763v-157h-168v157h168zM531 763v-157h-168v157h168zM615 275c0 -15.333 -1.33301 -31.667 -4 -49h-401c6 -30.667 18.5 -54 37.5 -70s43.167 -24 72.5 -24c22 0 41.667 4.5 59 13.5s30.333 21.5 39 37.5h185c-18.667 -62 -53.5 -111 -104.5 -147
s-110.5 -54 -178.5 -54c-84 0 -153.833 27.5 -209.5 82.5s-83.5 123.5 -83.5 205.5c0 54.667 12.667 104 38 148s60.333 78.333 105 103s94.667 37 150 37c57.333 0 108.5 -12.5 153.5 -37.5s79.833 -59 104.5 -102s37 -90.833 37 -143.5zM320 411.999
c-26.667 0 -49.167 -7.16699 -67.5 -21.5s-31.5 -34.833 -39.5 -61.5h219c-16.667 55.333 -54 83 -112 83z" />
    <glyph glyph-name="igrave" unicode="&#xec;" horiz-adv-x="303" 
d="M222 600h-140l-86 165h190zM59 0v540h186v-540h-186z" />
    <glyph glyph-name="iacute" unicode="&#xed;" horiz-adv-x="303" 
d="M74 600l36 165h190l-86 -165h-140zM59 0v540h186v-540h-186z" />
    <glyph glyph-name="icircumflex" unicode="&#xee;" horiz-adv-x="303" 
d="M151 672l-59 -72h-141l108 165h184l109 -165h-141zM59 0v540h186v-540h-186z" />
    <glyph glyph-name="idieresis" unicode="&#xef;" horiz-adv-x="303" 
d="M-44 604v161h170v-161h-170zM190 604v161h170v-161h-170zM59 0v540h186v-540h-186z" />
    <glyph glyph-name="eth" unicode="&#xf0;" horiz-adv-x="658" 
d="M434 726c125.333 -78 187.998 -210.333 187.998 -397c0 -106 -27 -190.333 -81 -253s-127.333 -94 -220 -94c-86.667 0 -157.334 25.833 -212.001 77.5s-82 119.167 -82 202.5c0 75.333 24.833 137.833 74.5 187.5s112.834 74.5 189.501 74.5
c59.333 0 111.333 -20 156 -60c-9.33301 70 -49.666 121.333 -120.999 154l-86 -86l-62 57l57 57c-28.667 4.66699 -58.667 7 -90 7v145c78.667 0 148.334 -11 209.001 -33l68 67l61 -57zM320.998 147c32.667 0 59.832 10.833 81.499 32.5s32.5 49.167 32.5 82.5
c0 34 -10.667 61.833 -32 83.5s-48.666 32.5 -81.999 32.5c-32.667 0 -59.834 -11 -81.501 -33s-32.5 -49.667 -32.5 -83c0 -21.333 4.83301 -40.833 14.5 -58.5s23.334 -31.5 41.001 -41.5s37.167 -15 58.5 -15z" />
    <glyph glyph-name="ntilde" unicode="&#xf1;" horiz-adv-x="645" 
d="M231 615l-0.000976562 -9.99902h-102v12c0 44.667 11.333 80 34 106s54.334 39 95.001 39c29.333 0 60.333 -10.333 93 -31c20 -12.667 35.333 -19 46 -19c10 0 18 3.16699 24 9.5s9 15.166 9 26.499v11h101v-12c0 -30 -5 -56 -15 -78s-24.667 -38.667 -44 -50
s-42 -17 -68 -17c-12.667 0 -25.667 1.83301 -39 5.5s-23.166 7.16699 -29.499 10.5l-28.5 15c-20.667 11.333 -35.334 17 -44.001 17c-9.33301 0 -17 -3.33301 -23 -10s-9 -15 -9 -25zM384.999 556.001c62.667 0 112.832 -20.668 150.499 -62.001s56.5 -96.333 56.5 -165
v-329h-186v304c0 62.667 -23.333 94 -70 94c-19.333 0 -35.833 -4.33301 -49.5 -13s-24 -21.167 -31 -37.5s-10.5 -36.166 -10.5 -59.499v-288h-186v540h130l26 -56c42.667 48 99.334 72 170.001 72z" />
    <glyph glyph-name="ograve" unicode="&#xf2;" horiz-adv-x="660" 
d="M407 600h-137l-110 165h190zM330 -18c-88 0 -160.501 27.166 -217.501 81.499s-85.5 123.166 -85.5 206.499c0 84 28.5 153 85.5 207s129.5 81 217.5 81s160.5 -27.167 217.5 -81.5s85.5 -123.166 85.5 -206.499s-28.667 -152.166 -86 -206.499
s-129.666 -81.5 -216.999 -81.5zM329.999 148.999c34 0 61.834 11.3311 83.501 33.998s32.5 51.667 32.5 87s-10.833 64.333 -32.5 87s-49.5 34 -83.5 34c-22.667 0 -42.834 -5.16699 -60.501 -15.5s-31.5 -24.666 -41.5 -42.999s-15 -39.166 -15 -62.499
c0 -35.333 11 -64.333 33 -87s50 -34 84 -34z" />
    <glyph glyph-name="oacute" unicode="&#xf3;" horiz-adv-x="660" 
d="M248 600l57 165h190l-110 -165h-137zM330 -18c-88 0 -160.501 27.166 -217.501 81.499s-85.5 123.166 -85.5 206.499c0 84 28.5 153 85.5 207s129.5 81 217.5 81s160.5 -27.167 217.5 -81.5s85.5 -123.166 85.5 -206.499s-28.667 -152.166 -86 -206.499
s-129.666 -81.5 -216.999 -81.5zM329.999 148.999c34 0 61.833 11.333 83.5 34s32.5 51.667 32.5 87s-10.833 64.333 -32.5 87s-49.5 34 -83.5 34s-62 -11.333 -84 -34s-33 -51.667 -33 -87s11 -64.333 33 -87s50 -34 84 -34z" />
    <glyph glyph-name="ocircumflex" unicode="&#xf4;" horiz-adv-x="660" 
d="M548 600h-145l-73 76l-71 -76h-145l118 165h196zM330 -18c-88 0 -160.501 27.166 -217.501 81.499s-85.5 123.166 -85.5 206.499c0 84 28.5 153 85.5 207s129.5 81 217.5 81s160.5 -27.167 217.5 -81.5s85.5 -123.166 85.5 -206.499s-28.667 -152.166 -86 -206.499
s-129.666 -81.5 -216.999 -81.5zM329.999 148.999c34 0 61.833 11.333 83.5 34s32.5 51.667 32.5 87s-10.833 64.333 -32.5 87s-49.5 34 -83.5 34s-62 -11.333 -84 -34s-33 -51.667 -33 -87s11 -64.333 33 -87s50 -34 84 -34z" />
    <glyph glyph-name="otilde" unicode="&#xf5;" horiz-adv-x="660" 
d="M404 602c-12.667 0 -25.666 1.83398 -38.999 5.50098s-23.166 7.16699 -29.499 10.5l-28.5 15c-20.667 11.333 -35.334 17 -44.001 17c-9.33301 0 -17 -3.33301 -23 -10s-9 -15 -9 -25v-10h-101v12c0 29.333 4.83301 54.833 14.5 76.5s24.167 38.5 43.5 50.5
s42.666 18 69.999 18c29.333 0 60.333 -10.333 93 -31c20 -12.667 35.667 -19 47 -19c10 0 17.833 3.16699 23.5 9.5s8.5 15.166 8.5 26.499v11h102v-12c0 -45.333 -11.5 -80.833 -34.5 -106.5s-54.167 -38.5 -93.5 -38.5zM330.001 -17.999
c-88 0 -160.501 27.166 -217.501 81.499s-85.5 123.166 -85.5 206.499c0 84 28.5 153 85.5 207s129.5 81 217.5 81s160.5 -27.167 217.5 -81.5s85.5 -123.166 85.5 -206.499s-28.667 -152.166 -86 -206.499s-129.666 -81.5 -216.999 -81.5zM330 149
c34 0 61.833 11.333 83.5 34s32.5 51.667 32.5 87s-10.833 64.333 -32.5 87s-49.5 34 -83.5 34s-62 -11.333 -84 -34s-33 -51.667 -33 -87s11 -64.333 33 -87s50 -34 84 -34z" />
    <glyph glyph-name="odieresis" unicode="&#xf6;" horiz-adv-x="660" 
d="M117 606v157h169v-157h-169zM372 606v157h168v-157h-168zM330 -18c-88 0 -160.501 27.166 -217.501 81.499s-85.5 123.166 -85.5 206.499c0 84 28.5 153 85.5 207s129.5 81 217.5 81s160.5 -27.167 217.5 -81.5s85.5 -123.166 85.5 -206.499
s-28.667 -152.166 -86 -206.499s-129.666 -81.5 -216.999 -81.5zM329.999 148.999c34 0 61.834 11.3311 83.501 33.998s32.5 51.667 32.5 87s-10.833 64.333 -32.5 87s-49.5 34 -83.5 34c-22.667 0 -42.834 -5.16699 -60.501 -15.5s-31.5 -24.666 -41.5 -42.999
s-15 -39.166 -15 -62.499c0 -35.333 11 -64.333 33 -87s50 -34 84 -34z" />
    <glyph glyph-name="divide" unicode="&#xf7;" horiz-adv-x="540" 
d="M269.5 446c-24.333 0 -44.833 8.5 -61.5 25.5s-25 37.5 -25 61.5s8.33301 44.333 25 61s37.167 25 61.5 25s45 -8.33301 62 -25s25.5 -37 25.5 -61s-8.5 -44.5 -25.5 -61.5s-37.667 -25.5 -62 -25.5zM32 252v148h476v-148h-476zM269.5 32
c-24.333 0 -44.834 8.5 -61.501 25.5s-25 37.5 -25 61.5s8.33301 44.333 25 61s37.334 25 62.001 25c24 0 44.5 -8.33301 61.5 -25s25.5 -37 25.5 -61s-8.5 -44.5 -25.5 -61.5s-37.667 -25.5 -62 -25.5z" />
    <glyph glyph-name="oslash" unicode="&#xf8;" horiz-adv-x="670" 
d="M528 495c36 -25.333 63.999 -57.667 83.999 -97s30 -83 30 -131c0 -83.333 -28 -151.666 -84 -204.999s-128 -80 -216 -80c-32 0 -63 4.33301 -93 13l-31 -56h-140l61 107c-35.333 26 -62.666 58.333 -81.999 97s-29 81.667 -29 129
c0 83.333 28.167 151.666 84.5 204.999s128.5 80 216.5 80c30 0 59 -3.66699 87 -11l30 55h140zM328.999 394.999c-36.667 0 -66.501 -11.501 -89.501 -34.501s-34.5 -52.5 -34.5 -88.5c0 -31.333 9 -57.666 27 -78.999l113 201c-5.33301 0.666992 -10.666 1 -15.999 1z
M341.998 143.998c36.667 0 66.333 11.5 89 34.5s34 52.5 34 88.5c0 32 -9 59 -27 81l-114 -203c5.33301 -0.666992 11.333 -1 18 -1z" />
    <glyph glyph-name="ugrave" unicode="&#xf9;" horiz-adv-x="635" 
d="M395 600h-136l-110 165h190zM318 -18c-80 0 -144.333 22.834 -193 68.501s-73 106.167 -73 181.5v308h186v-300c0 -28.667 7 -51 21 -67s33.5 -24 58.5 -24s44.667 8.16699 59 24.5s21.5 38.5 21.5 66.5v300h186v-308c0 -50 -11 -93.833 -33 -131.5
s-53.167 -66.834 -93.5 -87.501s-86.833 -31 -139.5 -31z" />
    <glyph glyph-name="uacute" unicode="&#xfa;" horiz-adv-x="635" 
d="M237 600l56 165h190l-110 -165h-136zM318 -18c-80 0 -144.333 22.834 -193 68.501s-73 106.167 -73 181.5v308h186v-300c0 -28.667 7 -51 21 -67s33.5 -24 58.5 -24s44.667 8.16699 59 24.5s21.5 38.5 21.5 66.5v300h186v-308c0 -50 -11 -93.833 -33 -131.5
s-53.167 -66.834 -93.5 -87.501s-86.833 -31 -139.5 -31z" />
    <glyph glyph-name="ucircumflex" unicode="&#xfb;" horiz-adv-x="635" 
d="M537 600h-146l-72 76l-72 -76h-145l119 165h196zM318 -18c-80 0 -144.333 22.834 -193 68.501s-73 106.167 -73 181.5v308h186v-300c0 -28.667 7 -51 21 -67s33.5 -24 58.5 -24s44.667 8.16699 59 24.5s21.5 38.5 21.5 66.5v300h186v-308c0 -50 -11 -93.833 -33 -131.5
s-53.167 -66.834 -93.5 -87.501s-86.833 -31 -139.5 -31z" />
    <glyph glyph-name="udieresis" unicode="&#xfc;" horiz-adv-x="635" 
d="M106 606v157h168v-157h-168zM360 606v157h169v-157h-169zM318 -18c-80 0 -144.333 22.833 -193 68.5s-73 106.167 -73 181.5v308h186v-300c0 -28.667 7 -51 21 -67s33.5 -24 58.5 -24s44.667 8.16699 59 24.5s21.5 38.5 21.5 66.5v300h186v-308
c0 -75.333 -24.333 -135.833 -73 -181.5s-113 -68.5 -193 -68.5z" />
    <glyph glyph-name="yacute" unicode="&#xfd;" horiz-adv-x="620" 
d="M478 765l-110 -165h-136l56 165h190zM423 540h200.001l-226 -516c-37.333 -84 -76 -142.5 -116 -175.5s-94.333 -49.5 -163 -49.5h-64v160h51c35.333 0 60.666 5.66699 75.999 17s29.333 34.333 42 69l-223 495h202l114 -297z" />
    <glyph glyph-name="thorn" unicode="&#xfe;" horiz-adv-x="686" 
d="M377 557c82 0 149.501 -27.001 202.501 -81.001s79.5 -122.667 79.5 -206s-26.333 -152.166 -79 -206.499s-119.334 -81.5 -200.001 -81.5c-51.333 0 -97.333 12.667 -138 38v-215h-183v927h183v-214c40.667 26 85.667 39 135 39zM351.001 145.999
c34.667 0 63.5 11.832 86.5 35.499s34.5 53.167 34.5 88.5c0 22.667 -5.16699 43.5 -15.5 62.5s-24.833 33.833 -43.5 44.5s-39.334 16 -62.001 16c-34.667 0 -63.5 -11.667 -86.5 -35s-34.5 -52.666 -34.5 -87.999c0 -23.333 5.16699 -44.5 15.5 -63.5
s24.833 -33.833 43.5 -44.5s39.334 -16 62.001 -16z" />
    <glyph glyph-name="ydieresis" unicode="&#xff;" horiz-adv-x="620" 
d="M101 606v157h168v-157h-168zM355 606v157h169v-157h-169zM423 540h200.001l-226 -516c-37.333 -84 -76 -142.5 -116 -175.5s-94.333 -49.5 -163 -49.5h-64v160h51c35.333 0 60.666 5.66699 75.999 17s29.333 34.333 42 69l-223 495h202l114 -297z" />
    <glyph glyph-name="Amacron" unicode="&#x100;" horiz-adv-x="744" 
d="M200 768v138h335v-138h-335zM532 0l-39 114h-248l-39 -114h-206l275 700h188l281 -700h-212zM446 265l-77 217l-77 -217h154z" />
    <glyph glyph-name="amacron" unicode="&#x101;" horiz-adv-x="692" 
d="M509 744v-129h-335v129h335zM495 541h138v-540h-143l-16 38c-46.667 -38 -101 -57 -163 -57c-54.667 0 -103.5 12.333 -146.5 37s-76.667 59 -101 103s-36.5 93.667 -36.5 149c0 83.333 26.667 151.833 80 205.5s121.333 80.5 204 80.5c62.667 0 117.667 -19.333 165 -58
zM336 147c34.667 0 63.334 11.667 86.001 35s34 52.666 34 87.999s-11.333 64.666 -34 87.999s-51.334 35 -86.001 35c-35.333 0 -64.333 -11.667 -87 -35s-34 -52.666 -34 -87.999c0 -17.333 3 -33.666 9 -48.999s14.333 -28.333 25 -39s23.5 -19.167 38.5 -25.5
s31.167 -9.5 48.5 -9.5z" />
    <glyph glyph-name="Abreve" unicode="&#x102;" horiz-adv-x="744" 
d="M368 753c-55.333 0 -99.833 15 -133.5 45s-50.5 69.667 -50.5 119h129v-5c0 -14.667 5 -26.5 15 -35.5s23.333 -13.5 40 -13.5c16 0 29 4.5 39 13.5s15 20.833 15 35.5v5h131c0 -49.333 -17 -89 -51 -119s-78.667 -45 -134 -45zM532 0l-39 114h-248l-39 -114h-206
l275 700h188l281 -700h-212zM446 265l-77 217l-77 -217h154z" />
    <glyph glyph-name="abreve" unicode="&#x103;" horiz-adv-x="692" 
d="M342.5 593c-38.333 0 -72.167 7.16797 -101.5 21.501s-52 34.5 -68 60.5s-24 56 -24 90h132v-5c0 -16.667 5.66699 -30.167 17 -40.5s26 -15.5 44 -15.5c12 0 22.5 2.33301 31.5 7s16 11.167 21 19.5s7.5 18.166 7.5 29.499v5h133c0 -34 -8 -64 -24 -90
s-38.5 -46.167 -67.5 -60.5s-62.667 -21.5 -101 -21.5zM494.999 541.001h138v-540h-143l-16 38c-46.667 -38 -101 -57 -163 -57c-54.667 0 -103.5 12.333 -146.5 37s-76.667 59 -101 103s-36.5 93.667 -36.5 149c0 83.333 26.667 151.833 80 205.5s121.333 80.5 204 80.5
c62.667 0 117.667 -19.333 165 -58zM335.499 147.001c35 0 63.834 11.667 86.501 35s34 52.666 34 87.999s-11.333 64.666 -34 87.999s-51.334 35 -86.001 35c-35.333 0 -64.333 -11.667 -87 -35s-34 -52.666 -34 -87.999s11.333 -64.666 34 -87.999s51.5 -35 86.5 -35z" />
    <glyph glyph-name="Aogonek" unicode="&#x104;" horiz-adv-x="743" 
d="M575 -90c0 -13.333 5.33398 -23.667 16.001 -31s25.667 -11 45 -11c20.667 0 40.334 3.66699 59.001 11v-90c-34.667 -20 -71.334 -30 -110.001 -30c-40.667 0 -74.334 10.333 -101.001 31s-40 47.667 -40 81c0 54.667 28.333 100.334 85 137.001l-36 106h-248l-39 -114
h-207l275 700h189l280 -697l2 -3c-55.333 -2 -97.5 -10.833 -126.5 -26.5s-43.5 -36.834 -43.5 -63.501zM446.001 264.999l-78 217l-76 -217h154z" />
    <glyph glyph-name="aogonek" unicode="&#x105;" horiz-adv-x="692" 
d="M582 -132c18 0 36.999 4.33398 56.999 13.001v-91c-32.667 -20 -68.667 -30 -108 -30c-24.667 0 -47 4.16699 -67 12.5s-36 21.166 -48 38.499s-18 37.333 -18 60c0 55.333 28.667 102.666 86 141.999l-10 26c-46.667 -38 -101 -57 -163 -57
c-82.667 0 -150.667 27.167 -204 81.5s-80 123.5 -80 207.5c0 83.333 26.667 151.833 80 205.5s121.333 80.5 204 80.5c62.667 0 117.667 -19.333 165 -58l19 42h138v-541c-70 -21.333 -105 -50.666 -105 -87.999c0 -14.667 4.83301 -25.667 14.5 -33s22.834 -11 39.501 -11
zM335.499 147.001c35 0 63.834 11.667 86.501 35s34 52.666 34 87.999s-11.333 64.666 -34 87.999s-51.334 35 -86.001 35c-35.333 0 -64.333 -11.667 -87 -35s-34 -52.666 -34 -87.999s11.333 -64.666 34 -87.999s51.5 -35 86.5 -35z" />
    <glyph glyph-name="Cacute" unicode="&#x106;" horiz-adv-x="784" 
d="M325 762l70 155h195l-129 -155h-136zM403 -18c-106 0 -194.502 35.002 -265.502 105.002s-106.5 157.333 -106.5 262c0 105.333 35.5 193.166 106.5 263.499s159.5 105.5 265.5 105.5c92 0 170.5 -27.667 235.5 -83s104.5 -127.333 118.5 -216h-195
c-12 36 -32.167 64.833 -60.5 86.5s-60.833 32.5 -97.5 32.5c-50 0 -91.167 -17.833 -123.5 -53.5s-48.5 -80.834 -48.5 -135.501c0 -35.333 7.33301 -67.166 22 -95.499s35.167 -50.5 61.5 -66.5s55.833 -24 88.5 -24c25.333 0 48.833 5.33301 70.5 16s40 25.667 55 45
s25.833 41.666 32.5 66.999h197c-13.333 -92 -52.666 -166.5 -117.999 -223.5s-144.666 -85.5 -237.999 -85.5z" />
    <glyph glyph-name="cacute" unicode="&#x107;" horiz-adv-x="636" 
d="M245 600l56 165h190l-110 -165h-136zM326 -18c-86.667 0 -158.165 27.1641 -214.498 81.4971s-84.5 123.5 -84.5 207.5c0 54.667 12.833 103.834 38.5 147.501s61.167 77.667 106.5 102s96.666 36.5 153.999 36.5c50 0 95.5 -10 136.5 -30s74.5 -48 100.5 -84
s42.333 -77.667 49 -125h-181c-8 22 -21.5 39.5 -40.5 52.5s-40.5 19.5 -64.5 19.5c-32.667 0 -59.5 -11.167 -80.5 -33.5s-31.5 -51.166 -31.5 -86.499s10.5 -64.333 31.5 -87s47.833 -34 80.5 -34c24.667 0 46.5 7.16699 65.5 21.5s32.167 33.5 39.5 57.5h183
c-10.667 -73.333 -42.334 -132.666 -95.001 -177.999s-117 -68 -193 -68z" />
    <glyph glyph-name="Ccircumflex" unicode="&#x108;" horiz-adv-x="784" 
d="M616 762h-145l-72 71l-71 -71h-145l118 155h196zM403 -18c-106 0 -194.502 35.002 -265.502 105.002s-106.5 157.333 -106.5 262c0 105.333 35.5 193.166 106.5 263.499s159.5 105.5 265.5 105.5c92 0 170.5 -27.667 235.5 -83s104.5 -127.333 118.5 -216h-195
c-12 36 -32.167 64.833 -60.5 86.5s-60.833 32.5 -97.5 32.5c-50 0 -91.167 -17.833 -123.5 -53.5s-48.5 -80.834 -48.5 -135.501c0 -35.333 7.33301 -67.166 22 -95.499s35.167 -50.5 61.5 -66.5s55.833 -24 88.5 -24c25.333 0 48.833 5.33301 70.5 16s40 25.667 55 45
s25.833 41.666 32.5 66.999h197c-13.333 -92 -52.666 -166.5 -117.999 -223.5s-144.666 -85.5 -237.999 -85.5z" />
    <glyph glyph-name="ccircumflex" unicode="&#x109;" horiz-adv-x="636" 
d="M544 600h-145l-72 76l-72 -76h-145l119 165h196zM326 -18c-57.333 0 -108.665 12.3311 -153.998 36.998s-80.833 59 -106.5 103s-38.5 93.5 -38.5 148.5s12.833 104.333 38.5 148s61.167 77.667 106.5 102s96.666 36.5 153.999 36.5c50 0 95.5 -10 136.5 -30
s74.5 -48 100.5 -84s42.333 -77.667 49 -125h-181c-8 22 -21.5 39.5 -40.5 52.5s-40.5 19.5 -64.5 19.5c-32.667 0 -59.5 -11.167 -80.5 -33.5s-31.5 -51.166 -31.5 -86.499s10.5 -64.333 31.5 -87s47.833 -34 80.5 -34c24.667 0 46.5 7.16699 65.5 21.5
s32.167 33.5 39.5 57.5h183c-10.667 -73.333 -42.334 -132.666 -95.001 -177.999s-117 -68 -193 -68z" />
    <glyph glyph-name="Cdotaccent" unicode="&#x10a;" horiz-adv-x="784" 
d="M308 762v155h183v-155h-183zM403 -18c-106 0 -194.502 35.002 -265.502 105.002s-106.5 157.333 -106.5 262c0 105.333 35.5 193.166 106.5 263.499s159.5 105.5 265.5 105.5c92 0 170.5 -27.667 235.5 -83s104.5 -127.333 118.5 -216h-195
c-12 36 -32.167 64.833 -60.5 86.5s-60.833 32.5 -97.5 32.5c-50 0 -91.167 -17.833 -123.5 -53.5s-48.5 -80.834 -48.5 -135.501c0 -35.333 7.33301 -67.166 22 -95.499s35.167 -50.5 61.5 -66.5s55.833 -24 88.5 -24c25.333 0 48.833 5.33301 70.5 16s40 25.667 55 45
s25.833 41.666 32.5 66.999h197c-13.333 -92 -52.666 -166.5 -117.999 -223.5s-144.666 -85.5 -237.999 -85.5z" />
    <glyph glyph-name="cdotaccent" unicode="&#x10b;" horiz-adv-x="636" 
d="M233 604v161h183v-161h-183zM326 -18c-86.667 0 -158.165 27.1641 -214.498 81.4971s-84.5 123.5 -84.5 207.5c0 54.667 12.833 103.834 38.5 147.501s61.167 77.667 106.5 102s96.666 36.5 153.999 36.5c50 0 95.5 -10 136.5 -30s74.5 -48 100.5 -84
s42.333 -77.667 49 -125h-181c-8 22 -21.5 39.5 -40.5 52.5s-40.5 19.5 -64.5 19.5c-32.667 0 -59.5 -11.167 -80.5 -33.5s-31.5 -51.166 -31.5 -86.499s10.5 -64.333 31.5 -87s47.833 -34 80.5 -34c24.667 0 46.5 7.16699 65.5 21.5s32.167 33.5 39.5 57.5h183
c-10.667 -73.333 -42.334 -132.666 -95.001 -177.999s-117 -68 -193 -68z" />
    <glyph glyph-name="Ccaron" unicode="&#x10c;" horiz-adv-x="784" 
d="M472 917h144l-119 -155h-195l-119 155h145l71 -71zM403 -18c-106 0 -194.502 35.002 -265.502 105.002s-106.5 157.333 -106.5 262c0 105.333 35.5 193.166 106.5 263.499s159.5 105.5 265.5 105.5c92 0 170.5 -27.667 235.5 -83s104.5 -127.333 118.5 -216h-195
c-12 36 -32.167 64.833 -60.5 86.5s-60.833 32.5 -97.5 32.5c-49.333 0 -90.333 -17.833 -123 -53.5s-49 -80.834 -49 -135.501c0 -35.333 7.33301 -67.166 22 -95.499s35.167 -50.5 61.5 -66.5s55.833 -24 88.5 -24c25.333 0 48.833 5.33301 70.5 16s40 25.667 55 45
s25.833 41.666 32.5 66.999h197c-13.333 -92 -52.666 -166.5 -117.999 -223.5s-144.666 -85.5 -237.999 -85.5z" />
    <glyph glyph-name="ccaron" unicode="&#x10d;" horiz-adv-x="636" 
d="M398 765h145l-120 -165h-196l-118 165h145l71 -76zM326 -18c-57.333 0 -108.665 12.3311 -153.998 36.998s-80.666 59 -105.999 103s-38 93.5 -38 148.5s12.667 104.333 38 148s60.666 77.667 105.999 102s96.666 36.5 153.999 36.5c76 0 140.167 -22 192.5 -66
s83.5 -101.667 93.5 -173h-181c-8 22 -21.5 39.5 -40.5 52.5s-40.5 19.5 -64.5 19.5c-32.667 0 -59.5 -11.167 -80.5 -33.5s-31.5 -51.166 -31.5 -86.499s10.5 -64.333 31.5 -87s47.833 -34 80.5 -34c24.667 0 46.5 7.16699 65.5 21.5s32.167 33.5 39.5 57.5h183
c-10.667 -73.333 -42.334 -132.666 -95.001 -177.999s-117 -68 -193 -68z" />
    <glyph glyph-name="Dcaron" unicode="&#x10e;" horiz-adv-x="745" 
d="M387 762h-196l-119 155h146l71 -71l72 71h145zM351 700c106 0 192.667 -32.668 260 -98.001s101 -149.166 101 -251.499s-33.833 -186.333 -101.5 -252s-154.167 -98.5 -259.5 -98.5h-283v700h283zM342 176.999c51.333 0 93 16 125 48s48 74 48 126
c0 51.333 -15.833 92.833 -47.5 124.5s-73.5 47.5 -125.5 47.5h-81v-346h81z" />
    <glyph glyph-name="dcaron" unicode="&#x10f;" horiz-adv-x="727" 
d="M445 520v215h184v-735h-138l-17 40c-46.667 -38.667 -101 -58 -163 -58c-82.667 0 -150.667 27 -204 81s-80 123 -80 207s26.667 153 80 207s121.333 81 204 81c49.333 0 94 -12.667 134 -38zM670 735l152.999 0.000976562v-124
c0 -42.667 -13.167 -77.334 -39.5 -104.001s-62.166 -42 -107.499 -46v77c20 0.666992 35.667 6.5 47 17.5s17 25.167 17 42.5h-70v137zM335.999 146.001c34.667 0 63.498 11.834 86.498 35.501s34.5 53.167 34.5 88.5c0 17.333 -3.16699 33.666 -9.5 48.999
s-14.833 28.5 -25.5 39.5s-23.5 19.667 -38.5 26s-30.833 9.5 -47.5 9.5c-23.333 0 -44.166 -5.5 -62.499 -16.5s-32.666 -25.833 -42.999 -44.5s-15.5 -39.667 -15.5 -63c0 -35.333 11.5 -64.833 34.5 -88.5s51.833 -35.5 86.5 -35.5z" />
    <glyph glyph-name="Dcroat" unicode="&#x110;" horiz-adv-x="781" 
d="M387 700c106 0 192.667 -32.668 260 -98.001s101 -149.166 101 -251.499s-33.833 -186.333 -101.5 -252s-154.167 -98.5 -259.5 -98.5h-283v273h-84v155h84v272h283zM378 176.999c34 0 64.168 7.16797 90.501 21.501s46.666 34.666 60.999 60.999s21.5 56.833 21.5 91.5
c0 51.333 -15.833 92.833 -47.5 124.5s-73.5 47.5 -125.5 47.5h-81v-95h117v-155h-117v-96h81z" />
    <glyph glyph-name="dcroat" unicode="&#x111;" horiz-adv-x="687" 
d="M700 692v-102h-71v-590h-138l-17 40c-46.667 -38.667 -101 -58 -163 -58c-54.667 0 -103.667 12.167 -147 36.5s-77 58.5 -101 102.5s-36 93.667 -36 149c0 84 26.667 153 80 207s121.333 81 204 81c49.333 0 94 -12.667 134 -38v70h-156v102h156v43h184v-43h71zM336 146
c34.667 0 63.5 11.834 86.5 35.501s34.5 53.167 34.5 88.5c0 17.333 -3.16699 33.666 -9.5 48.999s-14.833 28.5 -25.5 39.5s-23.5 19.667 -38.5 26s-30.833 9.5 -47.5 9.5c-34.667 0 -63.5 -11.833 -86.5 -35.5s-34.5 -53.167 -34.5 -88.5s11.5 -64.833 34.5 -88.5
s51.833 -35.5 86.5 -35.5z" />
    <glyph glyph-name="Emacron" unicode="&#x112;" horiz-adv-x="567" 
d="M125 768v138h335v-138h-335zM260 167h264v-167h-456v700h448v-167h-256v-103h230v-158h-230v-105z" />
    <glyph glyph-name="emacron" unicode="&#x113;" horiz-adv-x="641" 
d="M487 744v-129h-335v129h335zM615 275c0 -15.333 -1.33496 -31.668 -4.00195 -49.001h-401c6 -30.667 18.5 -54 37.5 -70s43.167 -24 72.5 -24c14.667 0 28.334 2 41.001 6s23.834 9.83301 33.501 17.5s17.5 16.834 23.5 27.501h185c-18.667 -62 -53.5 -111 -104.5 -147
s-110.5 -54 -178.5 -54c-84 0 -153.833 27.5 -209.5 82.5s-83.5 123.5 -83.5 205.5c0 54.667 12.667 104 38 148s60.333 78.333 105 103s94.667 37 150 37c57.333 0 108.5 -12.5 153.5 -37.5s79.833 -59 104.5 -102s37 -90.833 37 -143.5zM319.998 411.998
c-26.667 0 -49.167 -7.16699 -67.5 -21.5s-31.5 -34.833 -39.5 -61.5h219c-16.667 55.333 -54 83 -112 83z" />
    <glyph glyph-name="Ebreve" unicode="&#x114;" horiz-adv-x="567" 
d="M293 753c-55.333 0 -99.833 15 -133.5 45s-50.5 69.667 -50.5 119h129v-5c0 -14.667 5 -26.5 15 -35.5s23.333 -13.5 40 -13.5c16 0 29 4.5 39 13.5s15 20.833 15 35.5v5h131c0 -49.333 -17 -89 -51 -119s-78.667 -45 -134 -45zM260 167h264v-167h-456v700h448v-167h-256
v-103h230v-158h-230v-105z" />
    <glyph glyph-name="ebreve" unicode="&#x115;" horiz-adv-x="641" 
d="M320.5 593c-38.333 0 -72.167 7.16699 -101.5 21.5s-52 34.5 -68 60.5s-24 56 -24 90h132v-5c0 -16.667 5.66699 -30.167 17 -40.5s26 -15.5 44 -15.5s32.5 5.16699 43.5 15.5s16.5 23.833 16.5 40.5v5h133c0 -34 -8 -64 -24 -90s-38.5 -46.167 -67.5 -60.5
s-62.667 -21.5 -101 -21.5zM614.999 275c0 -15.333 -1.33496 -31.668 -4.00195 -49.001h-401c6 -30.667 18.5 -54 37.5 -70s43.167 -24 72.5 -24c14.667 0 28.334 2 41.001 6s23.834 9.83301 33.501 17.5s17.5 16.834 23.5 27.501h185c-18.667 -62 -53.5 -111 -104.5 -147
s-110.5 -54 -178.5 -54c-84 0 -153.833 27.5 -209.5 82.5s-83.5 123.5 -83.5 205.5c0 54.667 12.667 104 38 148s60.333 78.333 105 103s94.667 37 150 37c57.333 0 108.5 -12.5 153.5 -37.5s79.833 -59 104.5 -102s37 -90.833 37 -143.5zM319.997 411.998
c-26.667 0 -49.167 -7.16699 -67.5 -21.5s-31.5 -34.833 -39.5 -61.5h219c-16.667 55.333 -54 83 -112 83z" />
    <glyph glyph-name="Edotaccent" unicode="&#x116;" horiz-adv-x="567" 
d="M202 762v155h183v-155h-183zM260 167h264v-167h-456v700h448v-167h-256v-103h230v-158h-230v-105z" />
    <glyph glyph-name="edotaccent" unicode="&#x117;" horiz-adv-x="641" 
d="M411 765v-161h-183v161h183zM615 275c0 -15.333 -1.33496 -31.668 -4.00195 -49.001h-401c6 -30.667 18.5 -54 37.5 -70s43.167 -24 72.5 -24c14.667 0 28.334 2 41.001 6s23.834 9.83301 33.501 17.5s17.5 16.834 23.5 27.501h185c-18.667 -62 -53.5 -111 -104.5 -147
s-110.5 -54 -178.5 -54c-84 0 -153.833 27.5 -209.5 82.5s-83.5 123.5 -83.5 205.5c0 54.667 12.667 104 38 148s60.333 78.333 105 103s94.667 37 150 37c57.333 0 108.5 -12.5 153.5 -37.5s79.833 -59 104.5 -102s37 -90.833 37 -143.5zM319.998 411.998
c-26.667 0 -49.167 -7.16699 -67.5 -21.5s-31.5 -34.833 -39.5 -61.5h219c-16.667 55.333 -54 83 -112 83z" />
    <glyph glyph-name="Eogonek" unicode="&#x118;" horiz-adv-x="567" 
d="M468 -132c20.667 0 41.333 4.33398 62 13.001v-91c-34.667 -20 -71.667 -30 -111 -30c-40 0 -72.5 10.167 -97.5 30.5s-37.5 47.166 -37.5 80.499c0 48.667 25.333 91.667 76 129h-292v700h448v-167h-256v-103h230v-158h-230v-105h264v-167
c-35.333 -8.66699 -62.333 -21 -81 -37s-28 -33.333 -28 -52c0 -28.667 17.667 -43 53 -43z" />
    <glyph glyph-name="eogonek" unicode="&#x119;" horiz-adv-x="641" 
d="M615 272c0 -16.667 -1.33398 -32.665 -4.00098 -47.998h-402c12.667 -58.667 50.334 -88 113.001 -88c21.333 0 40.5 4.16699 57.5 12.5s29.833 20.166 38.5 35.499h185c-6 -20.667 -14 -39.667 -24 -57s-22.167 -33.333 -36.5 -48s-26 -25.834 -35 -33.501
s-22.167 -18.167 -39.5 -31.5c-14 -10.667 -24.167 -18.667 -30.5 -24s-13.666 -12.5 -21.999 -21.5s-14.333 -17.667 -18 -26s-5.5 -17.5 -5.5 -27.5c0 -15.333 5 -27 15 -35s23 -12 39 -12c19.333 0 38.666 4.66699 57.999 14v-91c-33.333 -20.667 -69.333 -31 -108 -31
c-40.667 0 -73.167 10.167 -97.5 30.5s-36.5 46.833 -36.5 79.5c0 40.667 19.333 79 58 115c-55.333 0 -105.333 12.333 -150 37s-79.667 58.834 -105 102.501s-38 92.5 -38 146.5c0 53.333 12.667 101.666 38 144.999s60.5 77.333 105.5 102s95.5 37 151.5 37
c84.667 0 154.667 -26.5 210 -79.5s83 -120.833 83 -203.5zM321.999 407.002c-57.333 0 -94 -25.333 -110 -76h218c-16.667 50.667 -52.667 76 -108 76z" />
    <glyph glyph-name="Ecaron" unicode="&#x11a;" horiz-adv-x="567" 
d="M391 762h-196l-118 155h145l71 -71l72 71h145zM260 167h264v-167h-456v700h448v-167h-256v-103h230v-158h-230v-105z" />
    <glyph glyph-name="ecaron" unicode="&#x11b;" horiz-adv-x="641" 
d="M418 600h-196l-119 165h145l72 -76l72 76h146zM615 275c0 -15.333 -1.33301 -31.667 -4 -49h-401c6 -30.667 18.5 -54 37.5 -70s43.167 -24 72.5 -24c22 0 41.667 4.5 59 13.5s30.333 21.5 39 37.5h185c-18.667 -62 -53.5 -111 -104.5 -147s-110.5 -54 -178.5 -54
c-84 0 -153.833 27.5 -209.5 82.5s-83.5 123.5 -83.5 205.5c0 54.667 12.667 104 38 148s60.333 78.333 105 103s94.667 37 150 37c86 0 156.667 -27.167 212 -81.5s83 -121.5 83 -201.5zM320 411.999c-26.667 0 -49.167 -7.16699 -67.5 -21.5s-31.5 -34.833 -39.5 -61.5
h219c-16.667 55.333 -54 83 -112 83z" />
    <glyph glyph-name="Gcircumflex" unicode="&#x11c;" horiz-adv-x="803" 
d="M407 833l-71 -71h-145l118 155h196l119 -155h-145zM389 374l384 -0.000976562c0 -75.333 -15.333 -142.833 -46 -202.5s-74 -106.167 -130 -139.5s-120 -50 -192 -50c-108 0 -197.167 34.667 -267.5 104s-105.5 157 -105.5 263c0 106.667 34.833 194.834 104.5 264.501
s158.5 104.5 266.5 104.5c91.333 0 171 -26 239 -78s109.333 -118.667 124 -200h-202c-12.667 29.333 -33.5 52.833 -62.5 70.5s-61.167 26.5 -96.5 26.5c-52.667 0 -95.167 -17.333 -127.5 -52s-48.5 -80 -48.5 -136c0 -36 7.16699 -68.167 21.5 -96.5
s34.833 -50.333 61.5 -66s57.667 -23.5 93 -23.5c36.667 0 69.5 8.16699 98.5 24.5s48.833 37.833 59.5 64.5h-174v122z" />
    <glyph glyph-name="gcircumflex" unicode="&#x11d;" horiz-adv-x="676" 
d="M316 676l-71 -76h-145l118 165h196l120 -165h-145zM491 540h126v-480c0 -84.667 -26 -151.667 -78 -201s-122.333 -74 -211 -74c-76.667 0 -140.334 18.167 -191.001 54.5s-82.334 86.5 -95.001 150.5h180c4 -11.333 11.5 -21.333 22.5 -30s23.5 -15 37.5 -19
s28.667 -6 44 -6c32 0 58.667 9.5 80 28.5s32 44.167 32 75.5v16c-42.667 -27.333 -89.667 -41 -141 -41c-77.333 0 -141.666 25.833 -192.999 77.5s-77 116.5 -77 194.5c0 76.667 25.833 141 77.5 193s115.834 78 192.501 78c64.667 0 121.667 -20.667 171 -62zM328 167
c33.333 0 60.833 11.167 82.5 33.5s32.5 50.833 32.5 85.5c0 34 -10.833 62 -32.5 84s-49.167 33 -82.5 33c-22 0 -41.667 -5 -59 -15s-31 -24 -41 -42s-15 -38 -15 -60c0 -34.667 10.833 -63.167 32.5 -85.5s49.167 -33.5 82.5 -33.5z" />
    <glyph glyph-name="Gbreve" unicode="&#x11e;" horiz-adv-x="803" 
d="M407.5 753c-55 0 -99.5 15 -133.5 45s-51 69.667 -51 119h129v-5c0 -14.667 5 -26.5 15 -35.5s23.333 -13.5 40 -13.5c16 0 29 4.5 39 13.5s15 20.833 15 35.5v5h131c0 -49.333 -17 -89 -51 -119s-78.5 -45 -133.5 -45zM389 374h384
c0 -114.667 -34.167 -208.667 -102.5 -282s-156.833 -110 -265.5 -110c-108 0 -197.167 34.667 -267.5 104s-105.5 157 -105.5 263c0 106.667 34.833 194.834 104.5 264.501s158.5 104.5 266.5 104.5c91.333 0 171 -26 239 -78s109.333 -118.667 124 -200h-202
c-12.667 29.333 -33.5 52.833 -62.5 70.5s-61.167 26.5 -96.5 26.5c-52.667 0 -95.167 -17.333 -127.5 -52s-48.5 -80 -48.5 -136c0 -36 7.16699 -68.167 21.5 -96.5s34.833 -50.333 61.5 -66s57.667 -23.5 93 -23.5c36.667 0 69.5 8.16699 98.5 24.5
s48.833 38.166 59.5 65.499h-174v121z" />
    <glyph glyph-name="gbreve" unicode="&#x11f;" horiz-adv-x="676" 
d="M315 593c-38 0 -71.667 7.16797 -101 21.501s-52 34.5 -68 60.5s-24 56 -24 90h132v-5c0 -16.667 5.66699 -30.167 17 -40.5s26 -15.5 44 -15.5c12 0 22.5 2.33301 31.5 7s16 11.167 21 19.5s7.5 18.166 7.5 29.499v5h133c0 -34 -8 -64 -24 -90
s-38.667 -46.167 -68 -60.5s-63 -21.5 -101 -21.5zM491 540.001h125.998v-480c0 -84.667 -26 -151.667 -78 -201s-122.333 -74 -211 -74c-51.333 0 -97 8.16699 -137 24.5s-72.667 40 -98 71s-42.333 67.5 -51 109.5h180c4 -11.333 11.5 -21.333 22.5 -30s23.5 -15 37.5 -19
s28.667 -6 44 -6c32 0 58.667 9.5 80 28.5s32 44.167 32 75.5v16c-42.667 -27.333 -89.667 -41 -141 -41c-77.333 0 -141.666 25.833 -192.999 77.5s-77 116.5 -77 194.5c0 76.667 25.833 141 77.5 193s115.834 78 192.501 78c64.667 0 121.667 -20.667 171 -62z
M327.998 167.001c33.333 0 60.833 11.167 82.5 33.5s32.5 50.833 32.5 85.5c0 34 -10.833 62 -32.5 84s-49.167 33 -82.5 33s-60.833 -11 -82.5 -33s-32.5 -50 -32.5 -84c0 -34.667 10.833 -63.167 32.5 -85.5s49.167 -33.5 82.5 -33.5z" />
    <glyph glyph-name="Gdotaccent" unicode="&#x120;" horiz-adv-x="803" 
d="M499 917v-155h-183v155h183zM389 374h384c0 -114.667 -34.167 -208.667 -102.5 -282s-156.833 -110 -265.5 -110c-108 0 -197.167 34.667 -267.5 104s-105.5 157 -105.5 263c0 106.667 34.833 194.834 104.5 264.501s158.5 104.5 266.5 104.5c91.333 0 171 -26 239 -78
s109.333 -118.667 124 -200h-202c-12.667 29.333 -33.5 52.833 -62.5 70.5s-61.167 26.5 -96.5 26.5c-52.667 0 -95.167 -17.333 -127.5 -52s-48.5 -80 -48.5 -136c0 -36 7.16699 -68.167 21.5 -96.5s34.833 -50.333 61.5 -66s57.667 -23.5 93 -23.5
c36.667 0 69.5 8.16699 98.5 24.5s48.833 38.166 59.5 65.499h-174v121z" />
    <glyph glyph-name="gdotaccent" unicode="&#x121;" horiz-adv-x="676" 
d="M406 765v-161h-183v161h183zM491 540h125.998v-480c0 -84.667 -26 -151.667 -78 -201s-122.333 -74 -211 -74c-51.333 0 -97 8.16699 -137 24.5s-72.667 40 -98 71s-42.333 67.5 -51 109.5h180c6 -17.333 18.833 -30.833 38.5 -40.5s41.5 -14.5 65.5 -14.5
c32 0 58.667 9.5 80 28.5s32 44.167 32 75.5v16c-42.667 -27.333 -89.667 -41 -141 -41c-77.333 0 -141.666 25.833 -192.999 77.5s-77 116.5 -77 194.5c0 76.667 25.833 141 77.5 193s115.834 78 192.501 78c64.667 0 121.667 -20.667 171 -62zM327.998 167
c33.333 0 60.833 11.167 82.5 33.5s32.5 50.833 32.5 85.5c0 34 -10.833 62 -32.5 84s-49.167 33 -82.5 33s-60.833 -11 -82.5 -33s-32.5 -50 -32.5 -84c0 -34.667 10.833 -63.167 32.5 -85.5s49.167 -33.5 82.5 -33.5z" />
    <glyph glyph-name="uni0122" unicode="&#x122;" horiz-adv-x="803" 
d="M389 374h384c0 -75.333 -15.333 -142.833 -46 -202.5s-74 -106.167 -130 -139.5s-120 -50 -192 -50c-108 0 -197.167 34.667 -267.5 104s-105.5 157 -105.5 263c0 106.667 34.833 194.834 104.5 264.501s158.5 104.5 266.5 104.5c91.333 0 171 -26 239 -78
s109.333 -118.667 124 -200h-202c-12.667 29.333 -33.5 52.833 -62.5 70.5s-61.167 26.5 -96.5 26.5c-52.667 0 -95.167 -17.333 -127.5 -52s-48.5 -80 -48.5 -136c0 -36 7.16699 -68.167 21.5 -96.5s34.833 -50.333 61.5 -66s57.667 -23.5 93 -23.5
c36.667 0 69.5 8.16699 98.5 24.5s48.833 38.166 59.5 65.499h-174v121zM332 -175l-0.000976562 137h153v-124c0 -42.667 -13.167 -77.5 -39.5 -104.5s-62.166 -42.167 -107.499 -45.5v77c13.333 0 24.833 2.66699 34.5 8s17 12.333 22 21s7.5 19 7.5 31h-70z" />
    <glyph glyph-name="uni0123" unicode="&#x123;" horiz-adv-x="676" 
d="M391 741v-137.001h-154v124c0 28.667 6 53.834 18 75.501s29.167 39 51.5 52s48.5 20.5 78.5 22.5v-76c-20 -1.33301 -35.667 -7.33301 -47 -18s-17 -25 -17 -43h70zM491 539.999h125.998v-480c0 -84.667 -26 -151.667 -78 -201s-122.333 -74 -211 -74
c-51.333 0 -97 8.16699 -137 24.5s-72.667 40 -98 71s-42.333 67.5 -51 109.5h180c6 -17.333 18.833 -30.833 38.5 -40.5s41.5 -14.5 65.5 -14.5c32 0 58.667 9.5 80 28.5s32 44.167 32 75.5v16c-42.667 -27.333 -89.667 -41 -141 -41
c-77.333 0 -141.666 25.833 -192.999 77.5s-77 116.5 -77 194.5c0 77.333 25.833 141.833 77.5 193.5s115.834 77.5 192.501 77.5c64.667 0 121.667 -20.667 171 -62zM327.998 166.999c33.333 0 60.833 11.167 82.5 33.5s32.5 50.833 32.5 85.5c0 34 -10.833 62 -32.5 84
s-49.167 33 -82.5 33s-60.833 -11 -82.5 -33s-32.5 -50 -32.5 -84c0 -34.667 10.833 -63.167 32.5 -85.5s49.167 -33.5 82.5 -33.5z" />
    <glyph glyph-name="Hcircumflex" unicode="&#x124;" horiz-adv-x="734" 
d="M367 833l-71 -71h-145l118 155h196l119 -155h-145zM472 700h195v-700h-195v269h-210v-269h-194v700h194v-253h210v253z" />
    <glyph glyph-name="hcircumflex" unicode="&#x125;" horiz-adv-x="645" 
d="M152 866l-72 -72h-145l119 156h195l120 -156h-145zM389 556c62 0 111.333 -20.999 148 -62.999s55 -98 55 -168v-325h-186v304c0 62.667 -23.333 94 -70 94c-11.333 0 -21.833 -1.66699 -31.5 -5s-18.167 -8 -25.5 -14s-13.5 -13.333 -18.5 -22
s-8.83301 -18.834 -11.5 -30.501s-4 -24.5 -4 -38.5v-288h-186v735h186v-231c42 34.667 90 52 144 52z" />
    <glyph glyph-name="Hbar" unicode="&#x126;" horiz-adv-x="758" 
d="M737 642v-123h-58v-519h-195v269h-210v-269h-195v519h-59v123h59v58h195v-58h210v58h195v-58h58zM484 443v76h-210v-76h210z" />
    <glyph glyph-name="hbar" unicode="&#x127;" horiz-adv-x="645" 
d="M389 556c62 0 111.333 -20.999 148 -62.999s55 -98 55 -168v-325h-186v304c0 62.667 -23.333 94 -70 94c-11.333 0 -21.833 -1.66699 -31.5 -5s-18.167 -8 -25.5 -14s-13.5 -13.333 -18.5 -22s-8.83301 -18.834 -11.5 -30.501s-4 -24.5 -4 -38.5v-288h-186v590h-74v102
h74v43h186v-43h151v-102h-151v-86c42 34.667 90 52 144 52z" />
    <glyph glyph-name="Itilde" unicode="&#x128;" horiz-adv-x="331" 
d="M233 760c-26.667 0 -56 10.333 -88 31c-17.333 11.333 -30.333 17 -39 17s-15.667 -3.33301 -21 -10s-8 -15 -8 -25v-9h-98v11c0 43.333 10.333 77.666 31 102.999s49.667 38 87 38c24.667 0 52.667 -10 84 -30c19.333 -12.667 33.333 -19 42 -19c18.667 0 28 12 28 36
v11h99v-13c0 -43.333 -10.5 -77.666 -31.5 -102.999s-49.5 -38 -85.5 -38zM68 0v700h195v-700h-195z" />
    <glyph glyph-name="itilde" unicode="&#x129;" horiz-adv-x="303" 
d="M220 601c-24 0 -53.3311 10.666 -87.998 31.999c-20 11.333 -34 17 -42 17c-9.33301 0 -16.5 -3.33301 -21.5 -10s-7.5 -15.334 -7.5 -26.001v-9h-102v12c0 22 2.66699 41.833 8 59.5s13.166 32.834 23.499 45.501s23.166 22.5 38.499 29.5s32.333 10.5 51 10.5
c12 0 24 -2 36 -6s20.667 -7.5 26 -10.5s13.666 -8.16699 24.999 -15.5c19.333 -12.667 33.333 -19 42 -19c20 0 30 12.333 30 37v11h101v-13c0 -22 -2.66699 -42.167 -8 -60.5s-13.166 -33.666 -23.499 -45.999s-23 -21.833 -38 -28.5s-31.833 -10 -50.5 -10z
M59.002 -0.000976562v540h186v-540h-186z" />
    <glyph glyph-name="Imacron" unicode="&#x12a;" horiz-adv-x="331" 
d="M17 768v138h298v-138h-298zM68 0v700h195v-700h-195z" />
    <glyph glyph-name="imacron" unicode="&#x12b;" horiz-adv-x="303" 
d="M9 615v129h285v-129h-285zM59 0v540h186v-540h-186z" />
    <glyph glyph-name="Ibreve" unicode="&#x12c;" horiz-adv-x="331" 
d="M166.5 753c-52.333 0 -94.5 15 -126.5 45s-48 69.667 -48 119h129v-5c0 -10 1.83301 -18.667 5.5 -26s9 -13 16 -17s14.833 -6 23.5 -6c13.333 0 24 4.5 32 13.5s12 20.833 12 35.5v5h131c0 -49.333 -16 -89 -48 -119s-74.167 -45 -126.5 -45zM68 0v700h195v-700h-195z
" />
    <glyph glyph-name="ibreve" unicode="&#x12d;" horiz-adv-x="303" 
d="M152 593c-54.667 0 -98.832 15.833 -132.499 47.5s-50.5 73.167 -50.5 124.5h132v-5c0 -16.667 4.66699 -30.167 14 -40.5s21.666 -15.5 36.999 -15.5s27.5 5.16699 36.5 15.5s13.5 23.833 13.5 40.5v5h133c0 -34 -7.5 -64 -22.5 -90s-36.5 -46.167 -64.5 -60.5
s-60 -21.5 -96 -21.5zM59.002 0v540h186v-540h-186z" />
    <glyph glyph-name="Iogonek" unicode="&#x12e;" horiz-adv-x="331" 
d="M233 -132c20.667 0 41.333 4.33496 62 13.002v-91c-34.667 -20 -71.667 -30 -111 -30c-40 0 -72.5 10.167 -97.5 30.5s-37.5 47.166 -37.5 80.499c0 47.333 25 90.333 75 129h-56v700h195v-700c-55.333 -26.667 -83 -56.334 -83 -89.001c0 -28.667 17.667 -43 53 -43z
" />
    <glyph glyph-name="iogonek" unicode="&#x12f;" horiz-adv-x="303" 
d="M242 765v-161h-183v161h183zM195 -132c19.333 0 39 4.33203 59 12.999v-91c-34 -20 -70 -30 -108 -30s-69.833 9.83301 -95.5 29.5s-38.5 46.834 -38.5 81.501c0 47.333 24.667 90.333 74 129h-27v540h186v-540c-68 -22 -102 -51.667 -102 -89
c0 -28.667 17.333 -43 52 -43z" />
    <glyph glyph-name="Idotaccent" unicode="&#x130;" horiz-adv-x="331" 
d="M74 762v155h183v-155h-183zM68 0v700h195v-700h-195z" />
    <glyph glyph-name="dotlessi" unicode="&#x131;" horiz-adv-x="303" 
d="M59 0v540h186v-540h-186z" />
    <glyph glyph-name="IJ" unicode="&#x132;" horiz-adv-x="930" 
d="M68 0v700h195v-700h-195zM597 -18c-39.333 0 -75.999 6.33203 -109.999 18.999s-63 30.334 -87 53.001s-42.667 50 -56 82s-20 66.667 -20 104v28h194v-18c0 -26.667 7.16699 -48 21.5 -64s33.5 -24 57.5 -24c23.333 0 42.166 8 56.499 24s21.5 37.333 21.5 64v450h194
v-460c0 -76 -25 -138 -75 -186s-115.667 -72 -197 -72z" />
    <glyph glyph-name="ij" unicode="&#x133;" horiz-adv-x="625" 
d="M60 608v157h183v-157h-183zM382 608v157h183v-157h-183zM59 0v540h186v-540h-186zM268 -206v164h46c44.667 0 67 24 67 72v510h186v-525c0 -69.333 -20.167 -123.5 -60.5 -162.5s-96.5 -58.5 -168.5 -58.5h-70z" />
    <glyph glyph-name="Jcircumflex" unicode="&#x134;" horiz-adv-x="622" 
d="M460 829l-59 -67h-141l108 155h184l109 -155h-142zM367 250l0.00195312 450h194v-460c0 -76 -25 -138 -75 -186s-115.667 -72 -197 -72c-80.667 0 -146.334 24 -197.001 72s-76 110 -76 186v28h194v-18c0 -26.667 7.16699 -48 21.5 -64s33.5 -24 57.5 -24
c23.333 0 42.166 8 56.499 24s21.5 37.333 21.5 64z" />
    <glyph glyph-name="jcircumflex" unicode="&#x135;" horiz-adv-x="315" 
d="M162 672l-59 -72h-141l108 165h185l109 -165h-142zM71 33v507h186v-523c0 -68.667 -20.167 -122.5 -60.5 -161.5s-96.833 -58.5 -169.5 -58.5h-69v164h45c45.333 0 68 24 68 72z" />
    <glyph glyph-name="uni0136" unicode="&#x136;" horiz-adv-x="677" 
d="M445 361l245 -361h-229l-200 309v-309h-193v700h193v-295l185 295h223zM274 -175v137.001h154v-124c0 -28 -6 -53 -18 -75s-29 -39.333 -51 -52s-48.333 -20.334 -79 -23.001v76c20.667 1.33301 36.667 7.33301 48 18s17 25 17 43h-71z" />
    <glyph glyph-name="uni0137" unicode="&#x137;" horiz-adv-x="597" 
d="M253 228v-228h-186v735h186v-407l128 212h209l-168 -257l185 -283h-219zM242 -184v137.001h154v-124c0 -42.667 -13.333 -77.334 -40 -104.001s-62.667 -42 -108 -46v77c20 0.666992 35.667 6.5 47 17.5s17 25.167 17 42.5h-70z" />
    <glyph glyph-name="kgreenlandic" unicode="&#x138;" horiz-adv-x="589" 
d="M599 0h-219l-135 229v-229h-186v540h186v-212l129 212h208l-169 -258z" />
    <glyph glyph-name="Lacute" unicode="&#x139;" horiz-adv-x="531" 
d="M357 917l-128 -155h-137l71 155h194zM263 177h249v-177h-444v700h195v-523z" />
    <glyph glyph-name="lacute" unicode="&#x13a;" horiz-adv-x="303" 
d="M78 797l70 155h195l-129 -155h-136zM59 0v735h186v-735h-186z" />
    <glyph glyph-name="uni013B" unicode="&#x13b;" horiz-adv-x="531" 
d="M263 177h249v-177h-444v700h195v-523zM213 -175v137h154v-124c0 -42.667 -13.333 -77.5 -40 -104.5s-62.667 -42.167 -108 -45.5v76c13.333 0.666992 24.833 3.66699 34.5 9s17 12.333 22 21s7.5 19 7.5 31h-70z" />
    <glyph glyph-name="uni013C" unicode="&#x13c;" horiz-adv-x="303" 
d="M59 0v735h186v-735h-186zM80 -321v77.001c20 0.666992 35.667 6.5 47 17.5s17 25.167 17 42.5h-70v137h154v-124c0 -42.667 -13.333 -77.334 -40 -104.001s-62.667 -42 -108 -46z" />
    <glyph glyph-name="Lcaron" unicode="&#x13d;" horiz-adv-x="531" 
d="M347 538c13.333 0.666992 24.833 3.50098 34.5 8.50098s17 12 22 21s7.5 19.167 7.5 30.5h-70v137h154v-124c0 -42.667 -13.333 -77.334 -40 -104.001s-62.667 -42 -108 -46v77zM263 177.001h249v-177h-444v700h195v-523z" />
    <glyph glyph-name="lcaron" unicode="&#x13e;" horiz-adv-x="303" 
d="M59 0v735h186v-735h-186zM296 461v77.001c20.667 0.666992 36.667 6.5 48 17.5s17 25.167 17 42.5h-71v137h154v-124c0 -42.667 -13.167 -77.334 -39.5 -104.001s-62.5 -42 -108.5 -46z" />
    <glyph glyph-name="Ldot" unicode="&#x13f;" horiz-adv-x="540" 
d="M263 177h249v-177h-444v700h195v-523zM504 424v-170h-172v170h172z" />
    <glyph glyph-name="ldot" unicode="&#x140;" horiz-adv-x="484" 
d="M59 0v735h186v-735h-186zM306 273v173h181v-173h-181z" />
    <glyph glyph-name="Lslash" unicode="&#x141;" horiz-adv-x="531" 
d="M263 177h249v-177h-444v219l-68 -31v156l68 32v324h195v-232l129 61v-159l-129 -60v-133z" />
    <glyph glyph-name="lslash" unicode="&#x142;" horiz-adv-x="303" 
d="M322 562v-163l-77 -37v-362h-186v272l-77 -37v163l77 37v300h186v-210z" />
    <glyph glyph-name="Nacute" unicode="&#x143;" horiz-adv-x="760" 
d="M572 917l-129 -155h-136l71 155h194zM505 700h187v-700h-159l-278 380v-380h-187v700h168l269 -367v367z" />
    <glyph glyph-name="nacute" unicode="&#x144;" horiz-adv-x="645" 
d="M494 765l-110 -165h-136l57 165h189zM385 556c62.667 0 112.832 -20.668 150.499 -62.001s56.5 -96.333 56.5 -165v-329h-186v304c0 62.667 -23.333 94 -70 94c-19.333 0 -35.833 -4.33301 -49.5 -13s-24 -21.167 -31 -37.5s-10.5 -36.166 -10.5 -59.499v-288h-186v540
h130l26 -56c42.667 48 99.334 72 170.001 72z" />
    <glyph glyph-name="uni0145" unicode="&#x145;" horiz-adv-x="760" 
d="M505 700h187v-700h-159l-278 380v-380h-187v700h168l269 -367v367zM316 -175v137.001h154v-124c0 -28 -6 -53 -18 -75s-29.167 -39.333 -51.5 -52s-48.5 -20.334 -78.5 -23.001v76c13.333 0.666992 24.833 3.66699 34.5 9s17 12.333 22 21s7.5 19 7.5 31h-70z" />
    <glyph glyph-name="uni0146" unicode="&#x146;" horiz-adv-x="645" 
d="M385 556c62.667 0 112.832 -20.668 150.499 -62.001s56.5 -96.333 56.5 -165v-329h-186v304c0 62.667 -23.333 94 -70 94c-19.333 0 -35.833 -4.33301 -49.5 -13s-24 -21.167 -31 -37.5s-10.5 -36.166 -10.5 -59.499v-288h-186v540h130l26 -56
c42.667 48 99.334 72 170.001 72zM245.998 -184.001v137.001h154v-124c0 -42.667 -13.333 -77.334 -40 -104.001s-62.667 -42 -108 -46v77c13.333 0.666992 24.833 3.5 34.5 8.5s17 12 22 21s7.5 19.167 7.5 30.5h-70z" />
    <glyph glyph-name="Ncaron" unicode="&#x147;" horiz-adv-x="760" 
d="M479 762h-195l-119 155h145l72 -71l72 71h145zM505 700h187v-700h-159l-278 380v-380h-187v700h168l269 -367v367z" />
    <glyph glyph-name="ncaron" unicode="&#x148;" horiz-adv-x="645" 
d="M427 600h-196l-119 165h145l71 -76l73 76h145zM385 556c62.667 0 112.832 -20.668 150.499 -62.001s56.5 -96.333 56.5 -165v-329h-186v304c0 62.667 -23.333 94 -70 94c-19.333 0 -35.833 -4.33301 -49.5 -13s-24 -21.167 -31 -37.5s-10.5 -36.166 -10.5 -59.499v-288
h-186v540h130l26 -56c42.667 48 99.334 72 170.001 72z" />
    <glyph glyph-name="Eng" unicode="&#x14a;" horiz-adv-x="760" 
d="M423 -198v159h39c20 0 35.667 5.5 47 16.5s17 26.5 17 46.5l-271 356v-380h-187v700h168l269 -368v368h187v-674c0 -46 -9 -85.833 -27 -119.5s-43.833 -59.5 -77.5 -77.5s-73.167 -27 -118.5 -27h-46z" />
    <glyph glyph-name="eng" unicode="&#x14b;" horiz-adv-x="645" 
d="M384 555c63.333 0 113.833 -20.666 151.5 -61.999s56.5 -96.333 56.5 -165v-320c0 -25.333 -3.16699 -48.833 -9.5 -70.5s-15.5 -41 -27.5 -58s-26.333 -31.5 -43 -43.5s-36 -21.167 -58 -27.5s-45.667 -9.5 -71 -9.5h-60v152h25c18.667 0 33 5.16699 43 15.5
s15 25.166 15 44.499v292c0 62.667 -23.333 94 -70 94c-29.333 0 -51.833 -9.66699 -67.5 -29s-23.5 -46 -23.5 -80v-288h-186v540h130l26 -57c42.667 48 99 72 169 72z" />
    <glyph glyph-name="Omacron" unicode="&#x14c;" horiz-adv-x="832" 
d="M249 768v138h335v-138h-335zM417 -18c-112.667 0 -205.167 34.5 -277.5 103.5s-108.5 157.167 -108.5 264.5s36.167 195.5 108.5 264.5s164.833 103.5 277.5 103.5c112 0 204 -34.5 276 -103.5s108 -157.167 108 -264.5s-36 -195.5 -108 -264.5s-164 -103.5 -276 -103.5z
M417 162c53.333 0 97.166 17.667 131.499 53s51.5 80.333 51.5 135s-17.167 99.667 -51.5 135s-78.166 53 -131.499 53s-97.5 -17.667 -132.5 -53s-52.5 -80.333 -52.5 -135s17.5 -99.667 52.5 -135s79.167 -53 132.5 -53z" />
    <glyph glyph-name="omacron" unicode="&#x14d;" horiz-adv-x="660" 
d="M161 615v129h335v-129h-335zM330 -18c-88 0 -160.501 27.166 -217.501 81.499s-85.5 123.166 -85.5 206.499c0 84 28.5 153 85.5 207s129.5 81 217.5 81s160.5 -27.167 217.5 -81.5s85.5 -123.166 85.5 -206.499s-28.667 -152.166 -86 -206.499
s-129.666 -81.5 -216.999 -81.5zM329.999 148.999c34 0 61.834 11.3311 83.501 33.998s32.5 51.667 32.5 87s-10.833 64.333 -32.5 87s-49.5 34 -83.5 34c-22.667 0 -42.834 -5.16699 -60.501 -15.5s-31.5 -24.666 -41.5 -42.999s-15 -39.166 -15 -62.499
c0 -35.333 11 -64.333 33 -87s50 -34 84 -34z" />
    <glyph glyph-name="Obreve" unicode="&#x14e;" horiz-adv-x="832" 
d="M417 753c-55.333 0 -100 15 -134 45s-51 69.667 -51 119h129v-5c0 -14.667 5.16699 -26.5 15.5 -35.5s23.5 -13.5 39.5 -13.5s29 4.5 39 13.5s15 20.833 15 35.5v5h131c0 -49.333 -16.833 -89 -50.5 -119s-78.167 -45 -133.5 -45zM417 -18
c-112.667 0 -205.167 34.5 -277.5 103.5s-108.5 157.167 -108.5 264.5s36.167 195.5 108.5 264.5s164.833 103.5 277.5 103.5c112 0 204 -34.5 276 -103.5s108 -157.167 108 -264.5s-36 -195.5 -108 -264.5s-164 -103.5 -276 -103.5zM417 162
c53.333 0 97.166 17.667 131.499 53s51.5 80.333 51.5 135s-17.167 99.667 -51.5 135s-78.166 53 -131.499 53s-97.5 -17.667 -132.5 -53s-52.5 -80.333 -52.5 -135s17.5 -99.667 52.5 -135s79.167 -53 132.5 -53z" />
    <glyph glyph-name="obreve" unicode="&#x14f;" horiz-adv-x="660" 
d="M329.5 593c-38.333 0 -72.167 7.16699 -101.5 21.5s-52 34.5 -68 60.5s-24 56 -24 90h132v-5c0 -16.667 5.66699 -30.167 17 -40.5s26 -15.5 44 -15.5s32.5 5.16699 43.5 15.5s16.5 23.833 16.5 40.5v5h133c0 -34 -8 -64 -24 -90s-38.5 -46.167 -67.5 -60.5
s-62.667 -21.5 -101 -21.5zM329.999 -18c-88 0 -160.501 27.166 -217.501 81.499s-85.5 123.166 -85.5 206.499c0 84 28.5 153 85.5 207s129.5 81 217.5 81s160.5 -27.167 217.5 -81.5s85.5 -123.166 85.5 -206.499s-28.667 -152.166 -86 -206.499
s-129.666 -81.5 -216.999 -81.5zM329.998 148.999c34 0 61.834 11.3311 83.501 33.998s32.5 51.667 32.5 87s-10.833 64.333 -32.5 87s-49.5 34 -83.5 34c-22.667 0 -42.834 -5.16699 -60.501 -15.5s-31.5 -24.666 -41.5 -42.999s-15 -39.166 -15 -62.499
c0 -35.333 11 -64.333 33 -87s50 -34 84 -34z" />
    <glyph glyph-name="Ohungarumlaut" unicode="&#x150;" horiz-adv-x="832" 
d="M237 760l49 155h170l-89 -155h-130zM443 760l75 155h177l-119 -155h-133zM417 -18c-112.667 0 -205.167 34.5 -277.5 103.5s-108.5 157.167 -108.5 264.5s36.167 195.5 108.5 264.5s164.833 103.5 277.5 103.5c112 0 204 -34.5 276 -103.5s108 -157.167 108 -264.5
s-36 -195.5 -108 -264.5s-164 -103.5 -276 -103.5zM417 162c53.333 0 97.166 17.667 131.499 53s51.5 80.333 51.5 135s-17.167 99.667 -51.5 135s-78.166 53 -131.499 53s-97.5 -17.667 -132.5 -53s-52.5 -80.333 -52.5 -135s17.5 -99.667 52.5 -135s79.167 -53 132.5 -53z
" />
    <glyph glyph-name="ohungarumlaut" unicode="&#x151;" horiz-adv-x="660" 
d="M144 600l48 165h176l-88 -165h-136zM355 600l75 165h175l-112 -165h-138zM330 -18c-88 0 -160.501 27.166 -217.501 81.499s-85.5 123.166 -85.5 206.499c0 84 28.5 153 85.5 207s129.5 81 217.5 81s160.5 -27.167 217.5 -81.5s85.5 -123.166 85.5 -206.499
s-28.667 -152.166 -86 -206.499s-129.666 -81.5 -216.999 -81.5zM329.999 148.999c34 0 61.834 11.3311 83.501 33.998s32.5 51.667 32.5 87s-10.833 64.333 -32.5 87s-49.5 34 -83.5 34c-22.667 0 -42.834 -5.16699 -60.501 -15.5s-31.5 -24.666 -41.5 -42.999
s-15 -39.166 -15 -62.499c0 -35.333 11 -64.333 33 -87s50 -34 84 -34z" />
    <glyph glyph-name="OE" unicode="&#x152;" horiz-adv-x="971" 
d="M928 167l0.000976562 -166.999h-412c-38 -12 -77.667 -18 -119 -18c-68.667 0 -130.834 15.5 -186.501 46.5s-99.5 74.667 -131.5 131s-48 120.166 -48 191.499c0 69.333 15.667 132 47 188s75 99.667 131 131s118.667 47 188 47c42 0 81.667 -5.66699 119 -17h404v-167
h-250v-103h224v-158h-224v-105h258zM232.001 351.001c0 -58.667 17.168 -104.667 51.501 -138s80.166 -50 137.499 -50c18.667 0 38.667 2 60 6v363c-24 4.66699 -45.333 7 -64 7c-53.333 0 -97.5 -17.667 -132.5 -53s-52.5 -80.333 -52.5 -135z" />
    <glyph glyph-name="oe" unicode="&#x153;" horiz-adv-x="1051" 
d="M1025 273c0 -14.667 -1.33203 -30.667 -3.99902 -48h-402c6 -30 18.667 -52.833 38 -68.5s44 -23.5 74 -23.5c22 0 41.5 4.5 58.5 13.5s30.167 21.833 39.5 38.5h185c-19.333 -62 -54.333 -111.333 -105 -148s-110 -55 -178 -55c-78 0 -143.333 27.333 -196 82
c-53.333 -54.667 -121.666 -82 -204.999 -82c-88.667 0 -161.334 27 -218.001 81s-85 123 -85 207s28.333 152.833 85 206.5s129.334 80.5 218.001 80.5c83.333 0 151.666 -27 204.999 -81c52 54 117.333 81 196 81c85.333 0 155.666 -26.833 210.999 -80.5
s83 -121.5 83 -203.5zM731.001 410c-56.667 0 -93 -27 -109 -81h220c-16.667 54 -53.667 81 -111 81zM330.001 149c34 0 61.833 11.167 83.5 33.5s32.5 51.333 32.5 87s-10.833 64.667 -32.5 87s-49.5 33.5 -83.5 33.5s-62 -11.167 -84 -33.5s-33 -51.333 -33 -87
s11 -64.667 33 -87s50 -33.5 84 -33.5z" />
    <glyph glyph-name="Racute" unicode="&#x154;" horiz-adv-x="676" 
d="M502 917l-129 -155h-136l70 155h195zM444 0l-114 214h-69v-214h-193v700h303c50 0 94.667 -10.333 134 -31s70.166 -50 92.499 -88s33.5 -81 33.5 -129c0 -42 -9.66699 -80.167 -29 -114.5s-46.666 -61.833 -81.999 -82.5l139 -255h-215zM261 529v-152h88
c26 0 46.667 7 62 21s23 32.333 23 55c0 14.667 -3.33301 27.667 -10 39s-16.5 20.333 -29.5 27s-28.167 10 -45.5 10h-88z" />
    <glyph glyph-name="racute" unicode="&#x155;" horiz-adv-x="422" 
d="M400 766l-110 -166h-136l56 166h190zM361 543h49.001v-171h-72c-32.667 0 -56.334 -7.66699 -71.001 -23s-22 -40 -22 -74v-275h-186v540h124l29 -60c36 42 85.667 63 149 63z" />
    <glyph glyph-name="uni0156" unicode="&#x156;" horiz-adv-x="676" 
d="M520 255l139.002 -255h-215l-114 214h-69v-214h-193v700h303c50 0 94.667 -10.333 134 -31s70.166 -50 92.499 -88s33.5 -81 33.5 -129c0 -28 -4.33301 -54.5 -13 -79.5s-21.334 -47.5 -38.001 -67.5s-36.667 -36.667 -60 -50zM261.002 529v-152h88c26 0 46.667 7 62 21
s23 32.333 23 55c0 14.667 -3.33301 27.667 -10 39s-16.5 20.333 -29.5 27s-28.167 10 -45.5 10h-88zM272.002 -175v137h154v-124c0 -42.667 -13.333 -77.5 -40 -104.5s-62.667 -42.167 -108 -45.5v76c13.333 0.666992 24.833 3.66699 34.5 9s17 12.333 22 21s7.5 19 7.5 31
h-70z" />
    <glyph glyph-name="uni0157" unicode="&#x157;" horiz-adv-x="422" 
d="M361 543h49.001v-171h-72c-32.667 0 -56.334 -7.66699 -71.001 -23s-22 -40 -22 -74v-275h-186v540h124l29 -60c36 42 85.667 63 149 63zM75.001 -184v137h154v-124c0 -28 -6 -52.833 -18 -74.5s-29.167 -39 -51.5 -52s-48.5 -20.833 -78.5 -23.5v77
c20 0.666992 35.667 6.5 47 17.5s17 25.167 17 42.5h-70z" />
    <glyph glyph-name="Rcaron" unicode="&#x158;" horiz-adv-x="676" 
d="M409 762h-196l-118 155h145l71 -71l72 71h145zM444 0l-114 214h-69v-214h-193v700h303c50 0 94.667 -10.333 134 -31s70.166 -50 92.499 -88s33.5 -81 33.5 -129c0 -42 -9.66699 -80.167 -29 -114.5s-46.666 -61.833 -81.999 -82.5l139 -255h-215zM261 529v-152h88
c26 0 46.667 7 62 21s23 32.333 23 55c0 14.667 -3.33301 27.667 -10 39s-16.5 20.333 -29.5 27s-28.167 10 -45.5 10h-88z" />
    <glyph glyph-name="rcaron" unicode="&#x159;" horiz-adv-x="422" 
d="M332 600h-196l-119 166h146l71 -76l73 76h145zM212 480c36 42 85.668 63 149.001 63h49v-171h-72c-32.667 0 -56.334 -7.66699 -71.001 -23s-22 -40 -22 -74v-275h-186v540h124z" />
    <glyph glyph-name="Sacute" unicode="&#x15a;" horiz-adv-x="629" 
d="M226 762l71 155h194l-129 -155h-136zM316 -17c-86.667 0 -155.335 21.4961 -206.002 64.4961s-76 102.5 -76 178.5h199c0 -24 7.83301 -42.333 23.5 -55s35.167 -19 58.5 -19c21.333 0 39.833 5.33301 55.5 16s23.5 25 23.5 43c0 6 -0.666992 11.167 -2 15.5
s-3.83301 8.5 -7.5 12.5s-7.16699 7.5 -10.5 10.5s-8.5 6 -15.5 9s-12.833 5.33301 -17.5 7s-11.834 3.83398 -21.501 6.50098l-22 6c-5 1.33301 -13.167 3.33301 -24.5 6l-45 12c-10 2.66699 -24.667 7.33398 -44 14.001s-34.333 13.167 -45 19.5s-23 15.166 -37 26.499
s-24.667 23.333 -32 36s-13.666 28.334 -18.999 47.001s-8 39 -8 61c0 68 23.5 121.167 70.5 159.5s112.167 57.5 195.5 57.5s148.166 -20.333 194.499 -61s69.5 -96.667 69.5 -168h-193c0 21.333 -7 37.5 -21 48.5s-31.333 16.5 -52 16.5c-18.667 0 -34.667 -4 -48 -12
s-20 -20 -20 -36c0 -6 1.33301 -11.667 4 -17s7 -10.166 13 -14.499s11.833 -8 17.5 -11s14 -6.33301 25 -10s20 -6.5 27 -8.5s17.833 -4.66699 32.5 -8l46 -12.5c10.667 -3 25.834 -8 45.501 -15s35 -13.833 46 -20.5s23.833 -15.667 38.5 -27
s25.834 -23.666 33.501 -36.999s14.334 -29.333 20.001 -48s8.5 -39 8.5 -61c0 -74 -25.667 -131.167 -77 -171.5s-119 -60.5 -203 -60.5z" />
    <glyph glyph-name="sacute" unicode="&#x15b;" horiz-adv-x="534" 
d="M183 600l57 165h190l-110 -165h-137zM267 -18c-73.333 0 -131.172 17.6621 -173.505 52.9951s-63.833 82.666 -64.5 141.999h179c0 -18.667 5.66699 -33 17 -43s26.333 -15 45 -15c9.33301 0 18 1.5 26 4.5s14.5 7.83301 19.5 14.5s7.5 14.334 7.5 23.001
c0 10 -4.5 18.333 -13.5 25s-19.167 11.5 -30.5 14.5s-27.333 6.16699 -48 9.5c-17.333 2.66699 -32.166 5.33398 -44.499 8.00098s-26.833 6.83398 -43.5 12.501s-30.667 12.5 -42 20.5s-22.333 17.667 -33 29s-18.667 25.5 -24 42.5s-8 36.167 -8 57.5
c0 54 21 97.167 63 129.5s97.667 48.5 167 48.5c68.667 0 123.834 -16.667 165.501 -50s62.834 -77.666 63.501 -132.999h-174c0 11.333 -2.5 20.833 -7.5 28.5s-11.667 13.334 -20 17.001s-18.166 5.5 -29.499 5.5c-15.333 0 -27.5 -3.66699 -36.5 -11s-13.5 -17 -13.5 -29
c0 -5.33301 1 -9.83301 3 -13.5s5.5 -7.16699 10.5 -10.5s9.5 -6 13.5 -8s10.5 -4 19.5 -6s16.167 -3.5 21.5 -4.5l25 -4.5c0.666992 0 2 -0.333008 4 -1c16.667 -2.66699 29.334 -5 38.001 -7s21 -5.16699 37 -9.5s28.667 -9 38 -14s19.833 -11.833 31.5 -20.5
s20.667 -18.167 27 -28.5s11.833 -23.166 16.5 -38.499s7 -32.333 7 -51c0 -56.667 -21.833 -102 -65.5 -136s-101.5 -51 -173.5 -51z" />
    <glyph glyph-name="Scircumflex" unicode="&#x15c;" horiz-adv-x="629" 
d="M518 762h-145l-73 71l-71 -71h-145l119 155h195zM316 -17c-86.667 0 -155.335 21.4961 -206.002 64.4961s-76 102.5 -76 178.5h199c0 -24 7.83301 -42.333 23.5 -55s35.167 -19 58.5 -19c21.333 0 39.833 5.33301 55.5 16s23.5 25 23.5 43c0 6 -0.666992 11.167 -2 15.5
s-3.83301 8.5 -7.5 12.5s-7.16699 7.5 -10.5 10.5s-8.5 6 -15.5 9s-12.833 5.33301 -17.5 7s-11.834 3.83398 -21.501 6.50098l-22 6c-5 1.33301 -13.167 3.33301 -24.5 6l-45 12c-10 2.66699 -24.667 7.33398 -44 14.001s-34.333 13.167 -45 19.5s-23 15.166 -37 26.499
s-24.667 23.333 -32 36s-13.666 28.334 -18.999 47.001s-8 39 -8 61c0 68 23.5 121.167 70.5 159.5s112.167 57.5 195.5 57.5s148.166 -20.333 194.499 -61s69.5 -96.667 69.5 -168h-193c0 21.333 -7 37.5 -21 48.5s-31.333 16.5 -52 16.5c-18.667 0 -34.667 -4 -48 -12
s-20 -20 -20 -36c0 -6 1.33301 -11.667 4 -17s7 -10.166 13 -14.499s11.833 -8 17.5 -11s14 -6.33301 25 -10s20 -6.5 27 -8.5s17.833 -4.66699 32.5 -8l46 -12.5c10.667 -3 25.834 -8 45.501 -15s35 -13.833 46 -20.5s23.833 -15.667 38.5 -27
s25.834 -23.666 33.501 -36.999s14.334 -29.333 20.001 -48s8.5 -39 8.5 -61c0 -74 -25.667 -131.167 -77 -171.5s-119 -60.5 -203 -60.5z" />
    <glyph glyph-name="scircumflex" unicode="&#x15d;" horiz-adv-x="534" 
d="M483 600h-145l-73 76l-71 -76h-145l118 165h196zM267 -18c-73.333 0 -131.172 17.6621 -173.505 52.9951s-63.833 82.666 -64.5 141.999h179c0 -18.667 5.66699 -33 17 -43s26.333 -15 45 -15c9.33301 0 18 1.5 26 4.5s14.5 7.83301 19.5 14.5s7.5 14.334 7.5 23.001
c0 10 -4.5 18.333 -13.5 25s-19.167 11.5 -30.5 14.5s-27.333 6.16699 -48 9.5c-17.333 2.66699 -32.166 5.33398 -44.499 8.00098s-26.833 6.83398 -43.5 12.501s-30.667 12.5 -42 20.5s-22.333 17.667 -33 29s-18.667 25.5 -24 42.5s-8 36.167 -8 57.5
c0 54 21 97.167 63 129.5s97.667 48.5 167 48.5c68.667 0 123.834 -16.667 165.501 -50s62.834 -77.666 63.501 -132.999h-174c0 11.333 -2.5 20.833 -7.5 28.5s-11.667 13.334 -20 17.001s-18.166 5.5 -29.499 5.5c-15.333 0 -27.5 -3.66699 -36.5 -11s-13.5 -17 -13.5 -29
c0 -5.33301 1 -10 3 -14s5.5 -7.5 10.5 -10.5s9.5 -5.5 13.5 -7.5s10.5 -4 19.5 -6s16.167 -3.5 21.5 -4.5l25 -4.5c0.666992 0 2 -0.333008 4 -1c16.667 -2.66699 29.334 -5 38.001 -7s21 -5.16699 37 -9.5s28.667 -9 38 -14s19.833 -11.833 31.5 -20.5
s20.667 -18.167 27 -28.5s11.833 -23.166 16.5 -38.499s7 -32.333 7 -51c0 -56.667 -21.833 -102 -65.5 -136s-101.5 -51 -173.5 -51z" />
    <glyph glyph-name="Scedilla" unicode="&#x15e;" horiz-adv-x="629" 
d="M596 215c0 -66.667 -20.833 -119.672 -62.5 -159.005s-97.834 -62.666 -168.501 -69.999l-5 -23c28 -6 49.833 -17.5 65.5 -34.5s23.5 -38.5 23.5 -64.5c0 -30.667 -12 -56 -36 -76s-55.667 -30 -95 -30h-91v84h76c9.33301 0 17 2.66699 23 8s9 12.333 9 21
s-3 15.667 -9 21s-13.667 8 -23 8h-52l-8 9l19 77c-71.333 8.66699 -127.166 34 -167.499 76s-60.5 96.667 -60.5 164h199c0 -24 7.83301 -42.333 23.5 -55s35.167 -19 58.5 -19c21.333 0 39.833 5.33301 55.5 16s23.5 25 23.5 43c0 6 -0.666992 11.167 -2 15.5
s-3.83301 8.5 -7.5 12.5s-7.16699 7.5 -10.5 10.5s-8.5 6 -15.5 9s-12.833 5.33301 -17.5 7s-11.834 3.83398 -21.501 6.50098l-22 6c-5 1.33301 -13.167 3.33301 -24.5 6l-45 12c-10 2.66699 -24.667 7.33398 -44 14.001s-34.333 13.167 -45 19.5s-23 15.166 -37 26.499
s-24.667 23.333 -32 36s-13.666 28.334 -18.999 47.001s-8 39 -8 61c0 68 23.5 121.167 70.5 159.5s112.167 57.5 195.5 57.5s148.166 -20.333 194.499 -61s69.5 -96.667 69.5 -168h-193c0 21.333 -7 37.5 -21 48.5s-31.333 16.5 -52 16.5c-18.667 0 -34.667 -4 -48 -12
s-20 -20 -20 -36c0 -4.66699 0.833008 -9.16699 2.5 -13.5s4.16699 -8.16602 7.5 -11.499s6.66602 -6.5 9.99902 -9.5s8.33301 -5.83301 15 -8.5l17 -7c4.66699 -2 11.667 -4.33301 21 -7s16.666 -4.66699 21.999 -6l24 -6l46 -12.5c10.667 -3 25.834 -8 45.501 -15
s35 -13.833 46 -20.5s23.833 -15.667 38.5 -27s25.834 -23.666 33.501 -36.999s14.334 -29.333 20.001 -48s8.5 -39 8.5 -61z" />
    <glyph glyph-name="scedilla" unicode="&#x15f;" horiz-adv-x="534" 
d="M506 169c0 -50.667 -18.0059 -92.502 -54.0059 -125.502s-84.333 -52.833 -145 -59.5l-7 -24c30 -3.33301 53.667 -13.333 71 -30s26 -38.334 26 -65.001c0 -31.333 -12 -56.5 -36 -75.5s-54.667 -28.5 -92 -28.5h-78v81h64c6.66699 0 12.334 1.16699 17.001 3.5
s8.33398 5.66602 11.001 9.99902s4 9.16602 4 14.499c0 8 -3 14.667 -9 20s-13.667 8 -23 8h-45l-10 12l21 75c-59.333 7.33301 -106 28 -140 62s-51.333 77.333 -52 130h179c0 -18.667 5.66699 -33 17 -43s26.333 -15 45 -15c9.33301 0 18 1.5 26 4.5
s14.5 7.83301 19.5 14.5s7.5 14.334 7.5 23.001c0 10 -4.5 18.333 -13.5 25s-19.167 11.5 -30.5 14.5s-27.5 6.16699 -48.5 9.5s-38.667 6.66602 -53 9.99902s-31.166 9.16602 -50.499 17.499s-35 18.166 -47 29.499s-22.333 26.666 -31 45.999s-13 41.666 -13 66.999
c0 54 21 97.167 63 129.5s97.667 48.5 167 48.5c68.667 0 123.834 -16.667 165.501 -50s62.834 -77.666 63.501 -132.999h-174c0 11.333 -2.5 20.833 -7.5 28.5s-11.667 13.334 -20 17.001s-18.166 5.5 -29.499 5.5c-15.333 0 -27.5 -3.66699 -36.5 -11s-13.5 -17 -13.5 -29
c0 -7.33301 2.16699 -13.666 6.5 -18.999s11.666 -9.66602 21.999 -12.999s19.5 -6 27.5 -8s20.333 -4.33301 37 -7c14 -2.66699 23.833 -4.5 29.5 -5.5s15.5 -3.16699 29.5 -6.5s24.333 -6.16602 31 -8.49902s15.834 -6.16602 27.501 -11.499s20.5 -10.666 26.5 -15.999
s13.167 -12.166 21.5 -20.499s14.5 -17.166 18.5 -26.499s7.5 -20.5 10.5 -33.5s4.5 -26.833 4.5 -41.5z" />
    <glyph glyph-name="Scaron" unicode="&#x160;" horiz-adv-x="629" 
d="M373 917h145l-120 -155h-195l-119 155h145l71 -71zM316 -17c-86.667 0 -155.335 21.4961 -206.002 64.4961s-76 102.5 -76 178.5h199c0 -24 7.83301 -42.333 23.5 -55s35.167 -19 58.5 -19c21.333 0 39.833 5.33301 55.5 16s23.5 25 23.5 43
c0 6 -0.666992 11.167 -2 15.5s-3.83301 8.5 -7.5 12.5s-7.16699 7.5 -10.5 10.5s-8.5 6 -15.5 9s-12.833 5.33301 -17.5 7s-11.834 3.83398 -21.501 6.50098l-22 6c-5 1.33301 -13.167 3.33301 -24.5 6l-45 12c-10 2.66699 -24.667 7.33398 -44 14.001
s-34.333 13.167 -45 19.5s-23 15.166 -37 26.499s-24.667 23.333 -32 36s-13.666 28.334 -18.999 47.001s-8 39 -8 61c0 68 23.5 121.167 70.5 159.5s112.167 57.5 195.5 57.5s148.166 -20.333 194.499 -61s69.5 -96.667 69.5 -168h-193c0 21.333 -7 37.5 -21 48.5
s-31.333 16.5 -52 16.5c-18.667 0 -34.667 -4 -48 -12s-20 -20 -20 -36c0 -6 1.33301 -11.667 4 -17s7 -10.166 13 -14.499s11.833 -8 17.5 -11s14 -6.33301 25 -10s20 -6.5 27 -8.5s17.833 -4.66699 32.5 -8l46 -12.5c10.667 -3 25.834 -8 45.501 -15s35 -13.833 46 -20.5
s23.833 -15.667 38.5 -27s25.834 -23.666 33.501 -36.999s14.334 -29.333 20.001 -48s8.5 -39 8.5 -61c0 -74 -25.667 -131.167 -77 -171.5s-119 -60.5 -203 -60.5z" />
    <glyph glyph-name="scaron" unicode="&#x161;" horiz-adv-x="534" 
d="M336 765h145l-119 -165h-196l-119 165h145l72 -76zM267 -18c-73.333 0 -131.173 17.668 -173.506 53.001s-63.833 82.666 -64.5 141.999h179c0 -18.667 5.66699 -33 17 -43s26.333 -15 45 -15c14.667 0 27.167 3.66699 37.5 11s15.5 17.666 15.5 30.999
c0 14 -7.5 24.333 -22.5 31s-38.167 12.667 -69.5 18c-21.333 3.33301 -39.166 6.66602 -53.499 9.99902s-31.166 9.16602 -50.499 17.499s-35 18.166 -47 29.499s-22.333 26.666 -31 45.999s-13 41.666 -13 66.999c0 54 21 97.167 63 129.5s97.667 48.5 167 48.5
c45.333 0 85.333 -7.66699 120 -23s61.334 -36.833 80.001 -64.5s28.334 -59.5 29.001 -95.5h-174c0 16.667 -5.16699 29.334 -15.5 38.001s-24.166 13 -41.499 13c-15.333 0 -27.5 -3.66699 -36.5 -11s-13.5 -17 -13.5 -29c0 -5.33301 1 -10 3 -14s5.5 -7.5 10.5 -10.5
s9.5 -5.5 13.5 -7.5s10.5 -4 19.5 -6s16.167 -3.5 21.5 -4.5l25 -4.5c14 -2.66699 23.833 -4.5 29.5 -5.5s15.5 -3.16699 29.5 -6.5s24.333 -6.16602 31 -8.49902s15.834 -6.16602 27.501 -11.499s20.5 -10.666 26.5 -15.999s13.167 -12.166 21.5 -20.499
s14.5 -17.166 18.5 -26.499s7.5 -20.5 10.5 -33.5s4.5 -26.833 4.5 -41.5c0 -56.667 -21.833 -102 -65.5 -136s-101.5 -51 -173.5 -51z" />
    <glyph glyph-name="uni0162" unicode="&#x162;" horiz-adv-x="611" 
d="M402 0h-48.001l-8 -33c18.667 -4 34.834 -10.333 48.501 -19s24 -19.5 31 -32.5s10.5 -28.167 10.5 -45.5c0 -30.667 -12 -56 -36 -76s-55.667 -30 -95 -30h-92v84h76c10 0 18 2.66699 24 8s9 12.333 9 21s-3 15.5 -9 20.5s-14 7.5 -24 7.5h-53l-8 10l21 85h-40v526h-190
v174h574v-174h-191v-526z" />
    <glyph glyph-name="uni0163" unicode="&#x163;" horiz-adv-x="451" 
d="M423 0h-107l-9 -33c29.333 -3.33301 52.833 -13.5 70.5 -30.5s26.5 -38.833 26.5 -65.5c0 -30.667 -12 -55.5 -36 -74.5s-55 -28.5 -93 -28.5h-77v81h64c6 0 11.333 1.16699 16 3.5s8.33398 5.5 11.001 9.5s4 9 4 15c0 8 -2.83301 14.667 -8.5 20s-13.167 8 -22.5 8h-46
l-9 12l25 91c-40.667 10.667 -72.334 32 -95.001 64s-34 72.333 -34 121v204h-99v43l242 258h38v-158h136v-143h-131v-172c0 -19.333 5.5 -34.5 16.5 -45.5s26.167 -16.5 45.5 -16.5h72v-163z" />
    <glyph glyph-name="Tcaron" unicode="&#x164;" horiz-adv-x="611" 
d="M403 762h-195l-119 155h145l71 -71l73 71h144zM593 700v-174h-191v-526h-193v526h-190v174h574z" />
    <glyph glyph-name="tcaron" unicode="&#x165;" horiz-adv-x="531" 
d="M435 735l152.999 0.000976562v-124c0 -42.667 -13.167 -77.334 -39.5 -104.001s-62.166 -42 -107.499 -46v77c13.333 0.666992 24.833 3.5 34.5 8.5s17 12 22 21s7.5 19.167 7.5 30.5h-70v137zM288.999 225.001c0 -19.333 5.5 -34.5 16.5 -45.5s26.167 -16.5 45.5 -16.5
h72v-163h-128c-60 0 -107 17.167 -141 51.5s-51 81.5 -51 141.5v204h-99v43l242 258h38v-158h125v-143h-120v-172z" />
    <glyph glyph-name="Tbar" unicode="&#x166;" horiz-adv-x="611" 
d="M593 526h-191v-125h108v-154h-108v-247h-193v247h-98v154h98v125h-190v174h574v-174z" />
    <glyph glyph-name="tbar" unicode="&#x167;" horiz-adv-x="469" 
d="M364 162l73.001 -0.000976562v-162h-111c-64.667 0 -115.834 18.833 -153.501 56.5s-56.5 88.834 -56.5 153.501v16h-101v110h101v61h-99v43l242 258h38v-158h136v-143h-132v-61h135v-110h-136v-4c0 -40 21.333 -60 64 -60z" />
    <glyph glyph-name="Utilde" unicode="&#x168;" horiz-adv-x="732" 
d="M439 758c-10 0 -19.3311 0.833008 -27.998 2.5s-18 4.66699 -28 9s-16.667 7.33301 -20 9s-10.333 5.5 -21 11.5c-20.667 11.333 -35.334 17 -44.001 17c-9.33301 0.666992 -17 -2.5 -23 -9.5s-9 -15.833 -9 -26.5v-10h-102v13c0 29.333 5 55 15 77s24.667 39 44 51
s42.666 18 69.999 18c28.667 0 59.667 -10.333 93 -31c20 -13.333 35.333 -20 46 -20c10 0 18 3.33301 24 10s9 15.667 9 27v11h101v-13c0 -45.333 -11.333 -81 -34 -107s-53.667 -39 -93 -39zM365.502 -18c-89.667 0 -163 26.667 -220 80s-85.5 123 -85.5 209v429h197v-426
c0 -34 10 -61.167 30 -81.5s46.167 -30.5 78.5 -30.5s58.5 10.167 78.5 30.5s30 47.5 30 81.5v426h197v-429c0 -86 -28.5 -155.667 -85.5 -209s-130.333 -80 -220 -80z" />
    <glyph glyph-name="utilde" unicode="&#x169;" horiz-adv-x="635" 
d="M392 602c-12.667 0 -25.666 1.83398 -38.999 5.50098s-23 7.16699 -29 10.5l-28 15c-20.667 11.333 -35.334 17 -44.001 17c-9.33301 0 -17.166 -3.33301 -23.499 -10s-9.5 -15 -9.5 -25v-10h-101v12c0 44.667 11.167 80 33.5 106s54.166 39 95.499 39
c28.667 0 59.667 -10.333 93 -31c20 -12.667 35.333 -19 46 -19c10 0 17.833 3.16699 23.5 9.5s8.5 15.166 8.5 26.499v11h102v-12c0 -45.333 -11.333 -80.833 -34 -106.5s-54 -38.5 -94 -38.5zM318.001 -17.999c-80 0 -144.333 22.833 -193 68.5s-73 106.167 -73 181.5v308
h186v-300c0 -28.667 7 -51 21 -67s33.5 -24 58.5 -24s44.667 8.16699 59 24.5s21.5 38.5 21.5 66.5v300h186v-308c0 -75.333 -24.333 -135.833 -73 -181.5s-113 -68.5 -193 -68.5z" />
    <glyph glyph-name="Umacron" unicode="&#x16a;" horiz-adv-x="732" 
d="M198 768v138h335v-138h-335zM365.5 -18c-89.667 0 -163 26.667 -220 80s-85.5 123 -85.5 209v429h197v-426c0 -34 10 -61.167 30 -81.5s46.167 -30.5 78.5 -30.5s58.5 10.167 78.5 30.5s30 47.5 30 81.5v426h197v-429c0 -86 -28.5 -155.667 -85.5 -209
s-130.333 -80 -220 -80z" />
    <glyph glyph-name="umacron" unicode="&#x16b;" horiz-adv-x="635" 
d="M150 615v129h335v-129h-335zM318 -18c-80 0 -144.333 22.834 -193 68.501s-73 106.167 -73 181.5v308h186v-300c0 -28.667 7 -51 21 -67s33.5 -24 58.5 -24s44.667 8.16699 59 24.5s21.5 38.5 21.5 66.5v300h186v-308c0 -50 -11 -93.833 -33 -131.5
s-53.167 -66.834 -93.5 -87.501s-86.833 -31 -139.5 -31z" />
    <glyph glyph-name="Ubreve" unicode="&#x16c;" horiz-adv-x="732" 
d="M366 753c-55.333 0 -99.833 15 -133.5 45s-50.5 69.667 -50.5 119h129v-5c0 -14.667 5 -26.5 15 -35.5s23 -13.5 39 -13.5s29 4.5 39 13.5s15 20.833 15 35.5v5h131c0 -49.333 -16.833 -89 -50.5 -119s-78.167 -45 -133.5 -45zM365.5 -18
c-89.667 0 -162.998 26.667 -219.998 80s-85.5 123 -85.5 209v429h197v-426c0 -22 4.66699 -41.667 14 -59s22.166 -30.5 38.499 -39.5s35.166 -13.5 56.499 -13.5c32 0 58 10.167 78 30.5s30 47.5 30 81.5v426h197v-429c0 -86 -28.5 -155.667 -85.5 -209
s-130.333 -80 -220 -80z" />
    <glyph glyph-name="ubreve" unicode="&#x16d;" horiz-adv-x="635" 
d="M318 593c-58 0 -104.667 15.834 -140 47.501s-53 73.167 -53 124.5h132v-5c0 -16.667 5.66699 -30.167 17 -40.5s26 -15.5 44 -15.5c12 0 22.5 2.33301 31.5 7s15.833 11.167 20.5 19.5s7 18.166 7 29.499v5h134c0 -51.333 -17.667 -92.833 -53 -124.5
s-82 -47.5 -140 -47.5zM318 -17.999c-80 0 -144.333 22.833 -193 68.5s-73 106.167 -73 181.5v308h186v-300c0 -28.667 7 -51 21 -67s33.5 -24 58.5 -24s44.667 8.16699 59 24.5s21.5 38.5 21.5 66.5v300h186v-308c0 -75.333 -24.333 -135.833 -73 -181.5
s-113 -68.5 -193 -68.5z" />
    <glyph glyph-name="Uring" unicode="&#x16e;" horiz-adv-x="732" 
d="M366 734c-41.333 0 -75.166 12.333 -101.499 37s-39.5 57 -39.5 97c0 26.667 6 50.167 18 70.5s28.667 36 50 47s45.666 16.5 72.999 16.5c41.333 0 75 -12.333 101 -37s39 -57 39 -97s-13 -72.333 -39 -97s-59.667 -37 -101 -37zM366 815c15.333 0 28.333 5 39 15
s16 22.667 16 38c0 10 -2.5 19 -7.5 27s-11.667 14.333 -20 19s-17.5 7 -27.5 7c-16 0 -29.167 -5 -39.5 -15s-15.5 -22.667 -15.5 -38s5.16699 -28 15.5 -38s23.5 -15 39.5 -15zM365.5 -18c-89.667 0 -163 26.667 -220 80s-85.5 123 -85.5 209v429h197v-426
c0 -34 10 -61.167 30 -81.5s46.167 -30.5 78.5 -30.5s58.5 10.167 78.5 30.5s30 47.5 30 81.5v426h197v-429c0 -86 -28.5 -155.667 -85.5 -209s-130.333 -80 -220 -80z" />
    <glyph glyph-name="uring" unicode="&#x16f;" horiz-adv-x="635" 
d="M318 581c-39.333 0 -71.334 11.6699 -96.001 35.0029s-37 53.666 -37 90.999s12.333 67.666 37 90.999s56.5 35 95.5 35s70.833 -11.667 95.5 -35s37 -53.666 37 -90.999c0 -18.667 -3.16699 -35.834 -9.5 -51.501s-15.333 -28.834 -27 -39.501
s-25.667 -19.167 -42 -25.5s-34.166 -9.5 -53.499 -9.5zM317.999 657.003c10 0 18.834 2.16699 26.501 6.5s13.667 10.333 18 18s6.5 16.167 6.5 25.5c0 14.667 -4.83301 26.667 -14.5 36s-21.834 14 -36.501 14c-10 0 -18.833 -2.16699 -26.5 -6.5
s-13.834 -10.333 -18.501 -18s-7 -16.167 -7 -25.5s2.33301 -17.833 7 -25.5s10.834 -13.667 18.501 -18s16.5 -6.5 26.5 -6.5zM318 -17.9971c-80 0 -144.333 22.834 -193 68.501s-73 106.167 -73 181.5v308h186v-300c0 -28.667 7 -51 21 -67s33.5 -24 58.5 -24
s44.667 8.16699 59 24.5s21.5 38.5 21.5 66.5v300h186v-308c0 -50 -11 -93.833 -33 -131.5s-53.167 -66.834 -93.5 -87.501s-86.833 -31 -139.5 -31z" />
    <glyph glyph-name="Uhungarumlaut" unicode="&#x170;" horiz-adv-x="732" 
d="M186 760l49 155h170l-89 -155h-130zM392 760l75 155h177l-119 -155h-133zM365.5 -18c-89.667 0 -163 26.667 -220 80s-85.5 123 -85.5 209v429h197v-426c0 -34 10 -61.167 30 -81.5s46.167 -30.5 78.5 -30.5s58.5 10.167 78.5 30.5s30 47.5 30 81.5v426h197v-429
c0 -86 -28.5 -155.667 -85.5 -209s-130.333 -80 -220 -80z" />
    <glyph glyph-name="uhungarumlaut" unicode="&#x171;" horiz-adv-x="635" 
d="M133 600l48 165h176l-88 -165h-136zM343 600l76 165h175l-112 -165h-139zM318 -18c-80 0 -144.333 22.834 -193 68.501s-73 106.167 -73 181.5v308h186v-300c0 -28.667 7 -51 21 -67s33.5 -24 58.5 -24s44.667 8.16699 59 24.5s21.5 38.5 21.5 66.5v300h186v-308
c0 -50 -11 -93.833 -33 -131.5s-53.167 -66.834 -93.5 -87.501s-86.833 -31 -139.5 -31z" />
    <glyph glyph-name="Uogonek" unicode="&#x172;" horiz-adv-x="732" 
d="M474 700h197.002v-427c0 -30.667 -3.83301 -59.167 -11.5 -85.5s-16.5 -47.833 -26.5 -64.5s-24.333 -33.5 -43 -50.5s-33.834 -29.333 -45.501 -37l-48.5 -30.5c-9.33301 -5.33301 -16.333 -9.5 -21 -12.5l-18 -11.5c-7.33301 -4.66699 -13 -8.66699 -17 -12
s-8.5 -7.5 -13.5 -12.5s-8.66699 -9.66699 -11 -14s-4.33301 -9.16602 -6 -14.499s-2.5 -11 -2.5 -17c0 -14.667 5.16699 -25.5 15.5 -32.5s23.833 -10.5 40.5 -10.5c19.333 0 39.333 4.33301 60 13v-92c-36 -20 -74.333 -30 -115 -30c-40 0 -73.333 10.167 -100 30.5
s-40 48.166 -40 83.499c0 19.333 5.16699 39 15.5 59s25.166 38 44.499 54c-80 8 -144.667 38 -194 90s-74 117.667 -74 197v427h197v-423c0 -34 10 -61.333 30 -82s46.167 -31 78.5 -31s58.5 10.333 78.5 31s30 48 30 82v423z" />
    <glyph glyph-name="uogonek" unicode="&#x173;" horiz-adv-x="634" 
d="M396 540l186.002 -0.00292969v-307c0 -49.333 -10.5 -90.166 -31.5 -122.499s-52.833 -64.833 -95.5 -97.5c-26.667 -19.333 -45.667 -35.666 -57 -48.999s-17 -28.333 -17 -45c0 -14.667 4.83301 -25.834 14.5 -33.501s22.5 -11.5 38.5 -11.5
c17.333 0 36.666 4.33301 57.999 13v-93c-34.667 -19.333 -70.334 -29 -107.001 -29c-38.667 0 -70.667 10.333 -96 31s-38 48.334 -38 83.001c0 35.333 15.333 70.333 46 105c-74.667 4.66699 -134.167 29.667 -178.5 75s-66.5 104 -66.5 176v305h186v-299
c0 -18.667 3 -34.667 9 -48s15 -23.666 27 -30.999s26 -11 42 -11c25.333 0 45 8 59 24s21 38 21 66v299z" />
    <glyph glyph-name="Wcircumflex" unicode="&#x174;" horiz-adv-x="1050" 
d="M523 833l-71 -71h-145l119 155h195l120 -155h-145zM839 700h205l-216 -700h-169l-135 338l-131 -338h-170l-219 700h207l113 -403l167 400h67l170 -401z" />
    <glyph glyph-name="wcircumflex" unicode="&#x175;" horiz-adv-x="867" 
d="M433 676l-71 -76h-145l118 165h196l120 -165h-145zM672 540h190l-172 -540h-150l-107 242l-104 -242h-150l-177 540h195l82 -284l128 282h50l134 -284z" />
    <glyph glyph-name="Ycircumflex" unicode="&#x176;" horiz-adv-x="699" 
d="M350 833l-71 -71h-146l119 155h196l119 -155h-145zM692 700l-245 -426v-274h-196v274l-243 426h214l128 -253l128 253h214z" />
    <glyph glyph-name="ycircumflex" unicode="&#x177;" horiz-adv-x="620" 
d="M314 676l-72 -76h-145l119 165h196l120 -165h-146zM423 540h200.001l-226 -516c-37.333 -84 -76 -142.5 -116 -175.5s-94.333 -49.5 -163 -49.5h-64v160h51c35.333 0 60.666 5.66699 75.999 17s29.333 34.333 42 69l-223 495h202l114 -297z" />
    <glyph glyph-name="Ydieresis" unicode="&#x178;" horiz-adv-x="699" 
d="M138 762v155h171v-155h-171zM392 762v155h172v-155h-172zM692 700l-245 -426v-274h-196v274l-243 426h214l128 -253l128 253h214z" />
    <glyph glyph-name="Zacute" unicode="&#x179;" horiz-adv-x="603" 
d="M501 917l-129 -155h-136l70 155h195zM307 180h270v-180h-554v40l259 480h-242v180h525v-44z" />
    <glyph glyph-name="zacute" unicode="&#x17a;" horiz-adv-x="516" 
d="M427 765l-110 -165h-136l57 165h189zM281 165h206v-165h-467v28l207 348h-188v164h446v-30z" />
    <glyph glyph-name="Zdotaccent" unicode="&#x17b;" horiz-adv-x="603" 
d="M402 917v-155h-183v155h183zM307 180h270v-180h-554v40l259 480h-242v180h525v-44z" />
    <glyph glyph-name="zdotaccent" unicode="&#x17c;" horiz-adv-x="516" 
d="M353 765v-161h-183v161h183zM281 165h206v-165h-467v28l207 348h-188v164h446v-30z" />
    <glyph glyph-name="Zcaron" unicode="&#x17d;" horiz-adv-x="603" 
d="M408 762h-196l-118 155h145l71 -71l72 71h145zM307 180h270v-180h-554v40l259 480h-242v180h525v-44z" />
    <glyph glyph-name="zcaron" unicode="&#x17e;" horiz-adv-x="516" 
d="M359 600h-196l-118 165h145l71 -76l73 76h145zM281 165h206v-165h-467v28l207 348h-188v164h446v-30z" />
    <glyph glyph-name="longs" unicode="&#x17f;" horiz-adv-x="324" 
d="M59 0v564c0 54.667 14.833 96.667 44.5 126s72.5 44 128.5 44h134v-158h-74c-31.333 0 -47 -15.667 -47 -47v-529h-186z" />
    <glyph glyph-name="florin" unicode="&#x192;" horiz-adv-x="471" 
d="M373 537c-32 0 -50.335 -15.667 -55.002 -47l-6 -45h115l-20 -138h-111l-54 -376c-7.33301 -50.667 -27.666 -90.667 -60.999 -120s-75.666 -44 -126.999 -44h-106l21 151h39c20 0 36.333 5.83301 49 17.5s20.667 27.5 24 47.5l47 324h-89l20 138h89l13 86
c4 30 13.5 55.5 28.5 76.5s34.333 36.833 58 47.5s51.167 16 82.5 16h127l-18 -134h-66z" />
    <glyph glyph-name="AEacute" unicode="&#x1fc;" horiz-adv-x="948" 
d="M743 917l-128 -155h-137l71 155h194zM647 167h258v-167h-444v113h-206l-63 -113h-213l402 700h515v-166h-249v-104h223v-158h-223v-105zM338 262h123v222z" />
    <glyph glyph-name="aeacute" unicode="&#x1fd;" horiz-adv-x="1066" 
d="M694 765l-110 -165h-136l57 165h189zM1040 273c0 -12.667 -1.33496 -28.666 -4.00195 -47.999h-406c6.66699 -29.333 19.834 -51.833 39.501 -67.5s44.5 -23.5 74.5 -23.5c22.667 0 42.834 4.33301 60.501 13s30.834 20.667 39.501 36h185
c-18 -60 -51.833 -108.333 -101.5 -145s-106.5 -55 -170.5 -55c-68.667 0 -126.334 21.333 -173.001 64l-5 -47h-107l-6 47c-46.667 -43.333 -103 -65 -169 -65c-37.333 0 -72.833 7.5 -106.5 22.5s-62.334 35.167 -86.001 60.5s-42.5 55.666 -56.5 90.999
s-21 73.333 -21 114c0 82.667 25.833 151 77.5 205s115.834 81 192.501 81c67.333 0 124.333 -22.333 171 -67l8 51h99l7 -49c46.667 43.333 105 65 175 65c81.333 0 148.833 -27 202.5 -81s80.5 -121.333 80.5 -202zM744.998 412.001c-28 0 -51.5 -7.16699 -70.5 -21.5
s-32.5 -34.833 -40.5 -61.5h223c-8 26.667 -21.667 47.167 -41 61.5s-43 21.5 -71 21.5zM334.498 147.001c34.333 0 62.833 11.667 85.5 35s34 52.5 34 87.5s-11.333 64.167 -34 87.5s-51.167 35 -85.5 35s-63 -11.667 -86 -35s-34.5 -52.5 -34.5 -87.5
s11.5 -64.167 34.5 -87.5s51.667 -35 86 -35z" />
    <glyph glyph-name="Oslashacute" unicode="&#x1fe;" horiz-adv-x="851" 
d="M609 917l-129 -155h-136l71 155h194zM679 627c43.333 -34 77.5 -75.999 102.5 -125.999s37.5 -102.667 37.5 -158c0 -105.333 -35.833 -191.833 -107.5 -259.5s-163.5 -101.5 -275.5 -101.5c-42 0 -84 6.33301 -126 19l-36 -60h-188l84 133
c-43.333 34 -77.333 75.667 -102 125s-37 101.333 -37 156c0 105.333 36 192.166 108 260.499s164 102.5 276 102.5c41.333 0 82.333 -6 123 -18l34 57h188zM416 546.001c-55.333 0 -100.833 -18.166 -136.5 -54.499s-53.5 -82.5 -53.5 -138.5
c0 -46.667 15 -87.334 45 -122.001l182 311c-12 2.66699 -24.333 4 -37 4zM433 154.002c36.667 0 69.667 8.00195 99 24.002s52.166 38.667 68.499 68s24.5 62.666 24.5 99.999c0 47.333 -15.667 88.666 -47 123.999l-183 -312c12.667 -2.66699 25.334 -4 38.001 -4z" />
    <glyph glyph-name="oslashacute" unicode="&#x1ff;" horiz-adv-x="670" 
d="M500 765l-110 -165h-136l57 165h189zM528 495c36 -25.333 63.999 -57.667 83.999 -97s30 -83 30 -131c0 -83.333 -28 -151.666 -84 -204.999s-128 -80 -216 -80c-32.667 0 -63.667 4.33301 -93 13l-31 -56h-140l61 107c-35.333 26 -62.666 58.333 -81.999 97
s-29 81.667 -29 129c0 83.333 28.167 151.666 84.5 204.999s128.5 80 216.5 80c30 0 59 -3.66699 87 -11l30 55h140zM328.999 394.999c-36.667 0 -66.501 -11.501 -89.501 -34.501s-34.5 -52.5 -34.5 -88.5c0 -31.333 9 -57.666 27 -78.999l113 201
c-5.33301 0.666992 -10.666 1 -15.999 1zM341.998 143.998c36.667 0 66.333 11.5 89 34.5s34 52.5 34 88.5c0 32 -9 59 -27 81l-114 -203c5.33301 -0.666992 11.333 -1 18 -1z" />
    <glyph glyph-name="uni0218" unicode="&#x218;" horiz-adv-x="629" 
d="M316 -17c-86.667 0 -155.335 21.4961 -206.002 64.4961s-76 102.5 -76 178.5h199c0 -24 7.83301 -42.333 23.5 -55s35.167 -19 58.5 -19c21.333 0 39.833 5.33301 55.5 16s23.5 25 23.5 43c0 6 -0.666992 11.167 -2 15.5s-3.83301 8.5 -7.5 12.5s-7.16699 7.5 -10.5 10.5
s-8.5 6 -15.5 9s-12.833 5.33301 -17.5 7s-11.834 3.83398 -21.501 6.50098l-22 6c-5 1.33301 -13.167 3.33301 -24.5 6l-45 12c-10 2.66699 -24.667 7.33398 -44 14.001s-34.333 13.167 -45 19.5s-23 15.166 -37 26.499s-24.667 23.333 -32 36
s-13.666 28.334 -18.999 47.001s-8 39 -8 61c0 68 23.5 121.167 70.5 159.5s112.167 57.5 195.5 57.5s148.166 -20.333 194.499 -61s69.5 -96.667 69.5 -168h-193c0 21.333 -7 37.5 -21 48.5s-31.333 16.5 -52 16.5c-18.667 0 -34.667 -4 -48 -12s-20 -20 -20 -36
c0 -6 1.33301 -11.667 4 -17s7 -10.166 13 -14.499s11.833 -8 17.5 -11s14 -6.33301 25 -10s20 -6.5 27 -8.5s17.833 -4.66699 32.5 -8l46 -12.5c10.667 -3 25.834 -8 45.501 -15s35 -13.833 46 -20.5s23.833 -15.667 38.5 -27s25.834 -23.666 33.501 -36.999
s14.334 -29.333 20.001 -48s8.5 -39 8.5 -61c0 -74 -25.667 -131.167 -77 -171.5s-119 -60.5 -203 -60.5zM254.999 -318.004v76.999c20 0.666992 35.833 6.33398 47.5 17.001s17.5 25 17.5 43h-71v137h154v-124c0 -28 -6 -52.833 -18 -74.5s-29.167 -39 -51.5 -52
s-48.5 -20.833 -78.5 -23.5z" />
    <glyph glyph-name="uni0219" unicode="&#x219;" horiz-adv-x="534" 
d="M267 -18c-73.333 0 -131.172 17.665 -173.505 52.998s-63.833 82.666 -64.5 141.999h179c0 -18.667 5.66699 -33 17 -43s26.333 -15 45 -15c9.33301 0 18 1.5 26 4.5s14.5 7.83301 19.5 14.5s7.5 14.334 7.5 23.001c0 10 -4.5 18.333 -13.5 25s-19.167 11.5 -30.5 14.5
s-27.5 6.16699 -48.5 9.5s-38.667 6.66602 -53 9.99902s-31.166 9.16602 -50.499 17.499s-35 18.166 -47 29.499s-22.333 26.666 -31 45.999s-13 41.666 -13 66.999c0 54 21 97.167 63 129.5s97.667 48.5 167 48.5c68.667 0 123.834 -16.667 165.501 -50
s62.834 -77.666 63.501 -132.999h-174c0 11.333 -2.5 20.833 -7.5 28.5s-11.667 13.334 -20 17.001s-18.166 5.5 -29.499 5.5c-15.333 0 -27.5 -3.66699 -36.5 -11s-13.5 -17 -13.5 -29c0 -5.33301 1 -10 3 -14s5.5 -7.5 10.5 -10.5s9.5 -5.5 13.5 -7.5s10.5 -4 19.5 -6
s16.167 -3.5 21.5 -4.5l25 -4.5c14 -2.66699 23.833 -4.5 29.5 -5.5s15.5 -3.16699 29.5 -6.5s24.333 -6.16602 31 -8.49902s15.834 -6.16602 27.501 -11.499s20.5 -10.666 26.5 -15.999s13.167 -12.166 21.5 -20.499s14.5 -17.166 18.5 -26.499s7.5 -20.5 10.5 -33.5
s4.5 -26.833 4.5 -41.5c0 -56.667 -21.833 -102 -65.5 -136s-101.5 -51 -173.5 -51zM207.994 -328.002v77c20 1.33301 35.667 7.33301 47 18s17 24.667 17 42h-70v137h154v-124c0 -42 -13.333 -76.5 -40 -103.5s-62.667 -42.5 -108 -46.5z" />
    <glyph glyph-name="uni021A" unicode="&#x21a;" horiz-adv-x="611" 
d="M593 700v-174h-191v-526h-193v526h-190v174h574zM228 -175v137h154v-124c0 -42.667 -13.333 -77.5 -40 -104.5s-62.667 -42.167 -108 -45.5v76c13.333 0.666992 24.833 3.66699 34.5 9s17 12.333 22 21s7.5 19 7.5 31h-70z" />
    <glyph glyph-name="uni021B" unicode="&#x21b;" horiz-adv-x="451" 
d="M351 163h72v-163h-128c-60 0 -107 17.167 -141 51.5s-51 81.5 -51 141.5v204h-99v43l242 258h38v-158h136v-143h-131v-172c0 -19.333 5.5 -34.5 16.5 -45.5s26.167 -16.5 45.5 -16.5zM189 -184l-0.000976562 137.001h153v-124c0 -42.667 -13.167 -77.334 -39.5 -104.001
s-62.166 -42 -107.499 -46v77c20 0.666992 35.667 6.5 47 17.5s17 25.167 17 42.5h-70z" />
    <glyph glyph-name="circumflex" unicode="&#x2c6;" horiz-adv-x="600" 
d="M533 600h-145l-73 76l-71 -76h-145l119 165h195z" />
    <glyph glyph-name="caron" unicode="&#x2c7;" horiz-adv-x="600" 
d="M358 765h145l-120 -165h-195l-119 165h145l71 -76z" />
    <glyph glyph-name="breve" unicode="&#x2d8;" horiz-adv-x="600" 
d="M279 593c-58 0 -104.667 15.834 -140 47.501s-53 73.167 -53 124.5h132v-5c0 -16.667 5.66699 -30.167 17 -40.5s26 -15.5 44 -15.5c12 0 22.5 2.33301 31.5 7s16 11.167 21 19.5s7.5 18.166 7.5 29.499v5h133c0 -34 -8 -64 -24 -90s-38.667 -46.167 -68 -60.5
s-63 -21.5 -101 -21.5z" />
    <glyph glyph-name="dotaccent" unicode="&#x2d9;" horiz-adv-x="337" 
d="M76 604v161h183v-161h-183z" />
    <glyph glyph-name="ring" unicode="&#x2da;" horiz-adv-x="439" 
d="M219.5 581c-39 0 -70.833 11.6689 -95.5 35.002s-37 53.666 -37 90.999c0 24.667 5.66699 46.5 17 65.5s27 33.833 47 44.5s42.667 16 68 16c19.333 0 37.166 -3.16699 53.499 -9.5s30.333 -14.833 42 -25.5s20.834 -23.834 27.501 -39.501s10 -32.834 10 -51.501
c0 -37.333 -12.333 -67.666 -37 -90.999s-56.5 -35 -95.5 -35zM219 657.002c15.333 0 27.833 4.66699 37.5 14s14.5 21.333 14.5 36s-4.83301 26.667 -14.5 36s-22.167 14 -37.5 14c-9.33301 0 -18 -2.16699 -26 -6.5s-14.167 -10.333 -18.5 -18s-6.5 -16.167 -6.5 -25.5
s2.16699 -17.833 6.5 -25.5s10.5 -13.667 18.5 -18s16.667 -6.5 26 -6.5z" />
    <glyph glyph-name="ogonek" unicode="&#x2db;" horiz-adv-x="440" 
d="M233 -240c-38.667 0 -70.499 10.501 -95.499 31.501s-37.5 48.5 -37.5 82.5c0 46.667 21 89.167 63 127.5s101 68.166 177 89.499v-79c-75.333 -21.333 -113 -54.333 -113 -99c0 -14 5.16699 -25 15.5 -33s23.833 -12 40.5 -12c17.333 0 35.666 4.33301 54.999 13v-91
c-32 -20 -67 -30 -105 -30z" />
    <glyph glyph-name="tilde" unicode="&#x2dc;" horiz-adv-x="600" 
d="M369 602c-12.667 0 -25.668 1.83398 -39.001 5.50098s-23 7.16699 -29 10.5s-15.667 8.33301 -29 15c-20 11.333 -34.333 17 -43 17c-9.33301 0 -17.166 -3.33301 -23.499 -10s-9.5 -15 -9.5 -25v-10h-101v12c0 29.333 4.83301 54.833 14.5 76.5s24.334 38.5 44.001 50.5
s43.167 18 70.5 18c28.667 0 59.667 -10.333 93 -31c19.333 -12.667 34.666 -19 45.999 -19c10 0 17.833 3.16699 23.5 9.5s8.5 15.166 8.5 26.499v11h102v-12c0 -45.333 -11.333 -80.833 -34 -106.5s-54 -38.5 -94 -38.5z" />
    <glyph glyph-name="hungarumlaut" unicode="&#x2dd;" horiz-adv-x="638" 
d="M84 600l49 165h175l-87 -165h-137zM295 600l75 165h176l-112 -165h-139z" />
    <glyph glyph-name="gravecomb" unicode="&#x300;" 
d="M-84 600h-137l-109 165h189z" />
    <glyph glyph-name="acutecomb" unicode="&#x301;" 
d="M-341 600l57 165h190l-110 -165h-137z" />
    <glyph glyph-name="uni0302" unicode="&#x302;" 
d="M-85 600h-145l-73 76l-71 -76h-146l119 165h196z" />
    <glyph glyph-name="tildecomb" unicode="&#x303;" 
d="M-231 602c-12.667 0 -25.667 1.83203 -39 5.49902s-23 7.16699 -29 10.5s-15.667 8.33301 -29 15c-20 11.333 -34.333 17 -43 17c-6 0 -11.5 -1.5 -16.5 -4.5s-9 -7.16699 -12 -12.5s-4.5 -11.333 -4.5 -18v-10h-101v12c0 29.333 4.83301 54.833 14.5 76.5
s24.334 38.5 44.001 50.5s43.167 18 70.5 18c28.667 0 59.667 -10.333 93 -31c19.333 -12.667 34.666 -19 45.999 -19c6.66699 0 12.5 1.33301 17.5 4s8.66699 6.83398 11 12.501s3.5 12.167 3.5 19.5v11h102v-12c0 -45.333 -11.333 -80.833 -34 -106.5s-54 -38.5 -94 -38.5
z" />
    <glyph glyph-name="uni0304" unicode="&#x304;" 
d="M-422 615v129h335v-129h-335z" />
    <glyph glyph-name="uni0306" unicode="&#x306;" 
d="M-277.5 593c-38.333 0 -72 7.16699 -101 21.5s-51.5 34.5 -67.5 60.5s-24 56 -24 90h131v-5c0 -16.667 5.66699 -30.167 17 -40.5s26.166 -15.5 44.499 -15.5s32.833 5.16699 43.5 15.5s16 23.833 16 40.5v5h134c0 -34 -8 -64 -24 -90s-38.667 -46.167 -68 -60.5
s-63.166 -21.5 -101.499 -21.5z" />
    <glyph glyph-name="uni0307" unicode="&#x307;" 
d="M-261 604v161h183v-161h-183z" />
    <glyph glyph-name="uni0308" unicode="&#x308;" 
d="M-523 606v157h168v-157h-168zM-268 606v157h168v-157h-168z" />
    <glyph glyph-name="uni030A" unicode="&#x30a;" 
d="M-219.5 581c-39 0 -70.833 11.667 -95.5 35s-37 53.666 -37 90.999c0 24.667 5.66699 46.5 17 65.5s27 33.833 47 44.5s42.833 16 68.5 16s48.5 -5.33301 68.5 -16s35.667 -25.5 47 -44.5s17 -40.833 17 -65.5c0 -37.333 -12.333 -67.666 -37 -90.999
s-56.5 -35 -95.5 -35zM-219 657c9.33301 0 18 2.16699 26 6.5s14.167 10.333 18.5 18s6.5 16.167 6.5 25.5c0 14.667 -4.83301 26.667 -14.5 36s-22 14 -37 14s-27.333 -4.66699 -37 -14s-14.5 -21.333 -14.5 -36s4.83301 -26.667 14.5 -36s22.167 -14 37.5 -14z" />
    <glyph glyph-name="uni030B" unicode="&#x30b;" 
d="M-580 600l48 165h176l-88 -165h-136zM-370 600l76 165h175l-112 -165h-139z" />
    <glyph glyph-name="uni030C" unicode="&#x30c;" 
d="M-242 765h145l-120 -165h-195l-119 165h145l71 -76z" />
    <glyph glyph-name="uni0312" unicode="&#x312;" 
d="M-261 741h71v-137h-154v124c0 42.667 13.167 77.5 39.5 104.5s62.5 42.167 108.5 45.5v-76c-20 -1.33301 -35.833 -7.33301 -47.5 -18s-17.5 -25 -17.5 -43z" />
    <glyph glyph-name="uni0326" unicode="&#x326;" 
d="M-181 -321l-0.000976562 77.001c20 0.666992 35.667 6.5 47 17.5s17 25.167 17 42.5h-70v137h153v-124c0 -42.667 -13.167 -77.334 -39.5 -104.001s-62.166 -42 -107.499 -46z" />
    <glyph glyph-name="uni0327" unicode="&#x327;" 
d="M-272 -33c29.333 -3.33301 52.833 -13.498 70.5 -30.498s26.5 -38.833 26.5 -65.5c0 -30.667 -12 -55.5 -36 -74.5s-54.667 -28.5 -92 -28.5h-78v81h64c9.33301 0 17 2.5 23 7.5s9 11.833 9 20.5c0 5.33301 -1.33301 10.166 -4 14.499s-6.5 7.66602 -11.5 9.99902
s-10.5 3.5 -16.5 3.5h-45l-10 12l39 139h87z" />
    <glyph glyph-name="uni0328" unicode="&#x328;" 
d="M-207 -240c-39.333 0 -71.332 10.501 -95.999 31.501s-37 48.5 -37 82.5c0 46.667 21 89.167 63 127.5s101 68.166 177 89.499v-79c-75.333 -21.333 -113 -54.333 -113 -99c0 -14 5 -25 15 -33s23.667 -12 41 -12s35.666 4.33301 54.999 13v-91c-32 -20 -67 -30 -105 -30
z" />
    <glyph glyph-name="uni0335" unicode="&#x335;" 
d="M-507 600v102h411v-102h-411z" />
    <glyph glyph-name="uni0337" unicode="&#x337;" 
d="M-459 202v163l340 165v-164z" />
    <glyph glyph-name="tonos" unicode="&#x384;" horiz-adv-x="435" 
d="M99 600l56 165h190l-110 -165h-136z" />
    <glyph glyph-name="dieresistonos" unicode="&#x385;" horiz-adv-x="603" 
d="M209 599l36 166h164l-74 -166h-126zM51 622v126h129v-126h-129zM422 622v126h129v-126h-129z" />
    <glyph glyph-name="Alphatonos" unicode="&#x386;" horiz-adv-x="744" 
d="M-34 542l67 158h186l-123 -158h-130zM532 0l-39 114h-248l-39 -114h-206l275 700h188l281 -700h-212zM446 265l-77 217l-77 -217h154z" />
    <glyph glyph-name="Epsilontonos" unicode="&#x388;" horiz-adv-x="567" 
d="M-205 542l67 158h185l-122 -158h-130zM260 167h264v-167h-456v700h448v-167h-256v-103h230v-158h-230v-105z" />
    <glyph glyph-name="Etatonos" unicode="&#x389;" horiz-adv-x="734" 
d="M-204 542l67 158h185l-122 -158h-130zM472 700h195v-700h-195v269h-210v-269h-194v700h194v-253h210v253z" />
    <glyph glyph-name="Iotatonos" unicode="&#x38a;" horiz-adv-x="331" 
d="M-204 542l67 158h185l-122 -158h-130zM68 0v700h195v-700h-195z" />
    <glyph glyph-name="Omicrontonos" unicode="&#x38c;" horiz-adv-x="832" 
d="M417 -18c-112.667 0 -205.167 34.5 -277.5 103.5s-108.5 157.167 -108.5 264.5s36.167 195.5 108.5 264.5s164.833 103.5 277.5 103.5c112 0 204 -34.5 276 -103.5s108 -157.167 108 -264.5s-36 -195.5 -108 -264.5s-164 -103.5 -276 -103.5zM-117 542l67 158h186
l-123 -158h-130zM417 162c53.333 0 97.166 17.667 131.499 53s51.5 80.333 51.5 135s-17.167 99.667 -51.5 135s-78.166 53 -131.499 53s-97.5 -17.667 -132.5 -53s-52.5 -80.333 -52.5 -135s17.5 -99.667 52.5 -135s79.167 -53 132.5 -53z" />
    <glyph glyph-name="Upsilontonos" unicode="&#x38e;" horiz-adv-x="699" 
d="M478 700h214l-245 -426v-274h-196v274l-242 425l-122 -157h-130l67 158h398l128 -253z" />
    <glyph glyph-name="Omegatonos" unicode="&#x38f;" horiz-adv-x="871" 
d="M736 172l89.999 -0.000976562v-172h-347v160c28.667 12.667 53.5 29.167 74.5 49.5s37.167 43.5 48.5 69.5s17 53.333 17 82c0 50 -17.667 92 -53 126s-78.666 51 -129.999 51s-94.666 -17 -129.999 -51s-53 -76 -53 -126c0 -22 3.33301 -43 10 -63
s15.834 -38.667 27.501 -56s26.167 -33 43.5 -47s36.666 -25.667 57.999 -35v-160h-347v172h91c-52.667 66.667 -79 138.334 -79 215.001c0 44.667 9.16699 87.167 27.5 127.5s43.666 75.5 75.999 105.5s72.333 53.833 120 71.5s99.5 26.5 155.5 26.5
s107.833 -8.83301 155.5 -26.5s87.667 -41.5 120 -71.5s57.5 -65.167 75.5 -105.5s27 -82.833 27 -127.5c0 -77.333 -26 -149 -78 -215zM-36.001 699.999h185l-122 -158h-130z" />
    <glyph glyph-name="iotadieresistonos" unicode="&#x390;" horiz-adv-x="379" 
d="M83 599l34 166h155l-70 -166h-119zM-74 621v126h129v-126h-129zM283 621v126h129v-126h-129zM273 -2c-48 0 -88.333 8.16797 -121 24.501s-57.167 40.666 -73.5 72.999s-24.5 71.833 -24.5 118.5v326h186v-307c0 -47.333 24.333 -71 73 -71h53v-164h-93z" />
    <glyph glyph-name="Alpha" unicode="&#x391;" horiz-adv-x="744" 
d="M532 0l-39 114h-248l-39 -114h-206l275 700h188l281 -700h-212zM446 265l-77 217l-77 -217h154z" />
    <glyph glyph-name="Beta" unicode="&#x392;" horiz-adv-x="651" 
d="M510 370c33.333 -16 59.498 -39.001 78.498 -69.001s28.5 -64 28.5 -102c0 -56.667 -21.667 -104 -65 -142s-97.333 -57 -162 -57h-322v700h316c40.667 0 77.334 -7.66699 110.001 -23s58.334 -36.666 77.001 -63.999s28 -58 28 -92c0 -30.667 -8 -59.5 -24 -86.5
s-37.667 -48.5 -65 -64.5zM415.998 488.999c0 18 -6 32.667 -18 44s-28 17 -48 17h-97v-122h97c13.333 0 25 2.5 35 7.5s17.667 12.167 23 21.5s8 20 8 32zM357.998 157.999c20.667 0 37.334 6 50.001 18s19 27.333 19 46s-6.33301 34 -19 46s-29.334 18 -50.001 18h-105
v-128h105z" />
    <glyph glyph-name="Gamma" unicode="&#x393;" horiz-adv-x="513" 
d="M494 700v-174h-232v-526h-194v700h426z" />
    <glyph glyph-name="uni0394" unicode="&#x394;" horiz-adv-x="736" 
d="M453 700l285 -700h-737l278 700h174zM366 460l-105 -297h210z" />
    <glyph glyph-name="Epsilon" unicode="&#x395;" horiz-adv-x="567" 
d="M260 167h264v-167h-456v700h448v-167h-256v-103h230v-158h-230v-105z" />
    <glyph glyph-name="Zeta" unicode="&#x396;" horiz-adv-x="603" 
d="M307 180h270v-180h-554v40l259 480h-242v180h525v-44z" />
    <glyph glyph-name="Eta" unicode="&#x397;" horiz-adv-x="734" 
d="M472 700h195v-700h-195v269h-210v-269h-194v700h194v-253h210v253z" />
    <glyph glyph-name="Theta" unicode="&#x398;" horiz-adv-x="833" 
d="M417 -18c-112.667 0 -205.001 34.5 -277.001 103.5s-108 157.167 -108 264.5c0 70.667 16.167 134 48.5 190s77.833 99.667 136.5 131s125.334 47 200.001 47c112.667 0 205 -34.5 277 -103.5s108 -157.167 108 -264.5s-36 -195.5 -108 -264.5
s-164.333 -103.5 -277 -103.5zM416.999 162c35.333 0 67.3311 8 95.998 24s51 38.333 67 67s24 61 24 97c0 54.667 -17.667 99.667 -53 135s-80.166 53 -134.499 53s-99.166 -17.667 -134.499 -53s-53 -80.333 -53 -135s17.667 -99.667 53 -135s80.333 -53 135 -53z
M298.997 282v139h235v-139h-235z" />
    <glyph glyph-name="Iota" unicode="&#x399;" horiz-adv-x="331" 
d="M68 0v700h195v-700h-195z" />
    <glyph glyph-name="Kappa" unicode="&#x39a;" horiz-adv-x="677" 
d="M690 0h-229l-200 309v-309h-193v700h193v-295l185 295h223l-224 -339z" />
    <glyph glyph-name="Lambda" unicode="&#x39b;" horiz-adv-x="705" 
d="M702 0h-217l-133 439l-139 -439h-211l260 700h181z" />
    <glyph glyph-name="Mu" unicode="&#x39c;" horiz-adv-x="982" 
d="M954 0h-194l-55 403l-185 -404h-57l-186 404l-54 -403h-195l106 700h192l165 -381l166 381h193z" />
    <glyph glyph-name="Nu" unicode="&#x39d;" horiz-adv-x="760" 
d="M505 700h187v-700h-159l-278 380v-380h-187v700h168l269 -367v367z" />
    <glyph glyph-name="Xi" unicode="&#x39e;" horiz-adv-x="568" 
d="M50 525v175h468v-175h-468zM89 270v165h390v-165h-390zM42 0v178h483v-178h-483z" />
    <glyph glyph-name="Omicron" unicode="&#x39f;" horiz-adv-x="832" 
d="M417 -18c-112.667 0 -205.167 34.5 -277.5 103.5s-108.5 157.167 -108.5 264.5s36.167 195.5 108.5 264.5s164.833 103.5 277.5 103.5c112 0 204 -34.5 276 -103.5s108 -157.167 108 -264.5s-36 -195.5 -108 -264.5s-164 -103.5 -276 -103.5zM417 162
c53.333 0 97.166 17.667 131.499 53s51.5 80.333 51.5 135s-17.167 99.667 -51.5 135s-78.166 53 -131.499 53s-97.5 -17.667 -132.5 -53s-52.5 -80.333 -52.5 -135s17.5 -99.667 52.5 -135s79.167 -53 132.5 -53z" />
    <glyph glyph-name="Pi" unicode="&#x3a0;" horiz-adv-x="721" 
d="M68 700h586v-700h-196v524h-195v-524h-195v700z" />
    <glyph glyph-name="Rho" unicode="&#x3a1;" horiz-adv-x="645" 
d="M366 700c74.667 0 136.5 -23.833 185.5 -71.5s73.5 -108.167 73.5 -181.5s-24.667 -134 -74 -182s-111 -72 -185 -72h-105v-193h-193v700h298zM343 362c24.667 0 44.834 7.83301 60.501 23.5s23.5 36.167 23.5 61.5c0 16 -3.5 30.5 -10.5 43.5s-16.833 23.167 -29.5 30.5
s-27.334 11 -44.001 11h-82v-170h82z" />
    <glyph glyph-name="Sigma" unicode="&#x3a3;" horiz-adv-x="581" 
d="M314 173h229v-173h-531v41l231 314l-225 304v41h516v-173h-212l123 -159v-26z" />
    <glyph glyph-name="Tau" unicode="&#x3a4;" horiz-adv-x="611" 
d="M593 700v-174h-191v-526h-193v526h-190v174h574z" />
    <glyph glyph-name="Upsilon" unicode="&#x3a5;" horiz-adv-x="699" 
d="M692 700l-245 -426v-274h-196v274l-243 426h214l128 -253l128 253h214z" />
    <glyph glyph-name="Phi" unicode="&#x3a6;" horiz-adv-x="876" 
d="M848 352.5c0 -83 -28.5 -154.667 -85.5 -215s-134.833 -95.5 -233.5 -105.5v-74h-183v74c-65.333 6.66699 -122.5 25.5 -171.5 56.5s-85.667 69.167 -110 114.5s-36.5 95.333 -36.5 150c0 82.667 28.5 154.167 85.5 214.5s134.833 95.5 233.5 105.5v68h181v-68
c99.333 -10 177.5 -45.167 234.5 -105.5s85.5 -132 85.5 -215zM219 353c0 -40 12 -74.333 36 -103s56.333 -45.334 97 -50.001v307c-40.667 -5.33301 -73 -22.666 -97 -51.999s-36 -63.333 -36 -102zM523 200c41.333 4.66699 73.833 21.333 97.5 50s35.5 63 35.5 103
c0 39.333 -11.833 73.5 -35.5 102.5s-56.167 46.167 -97.5 51.5v-307z" />
    <glyph glyph-name="Chi" unicode="&#x3a7;" horiz-adv-x="664" 
d="M667 0h-219l-115 215l-116 -215h-219l210 364l-198 336h217l105 -198l106 198h215l-197 -339z" />
    <glyph glyph-name="Psi" unicode="&#x3a8;" horiz-adv-x="846" 
d="M613 700h192.001v-269c0 -54 -12 -102 -36 -144s-57.667 -74.667 -101 -98s-92.666 -35 -147.999 -35v-154h-194v154c-84 0 -152.5 25.667 -205.5 77s-79.5 118 -79.5 200v269h192v-268c0 -31.333 8.66699 -55.666 26 -72.999s41.333 -26 72 -26v367h184v-367h1
c14.667 0 28.167 2.16699 40.5 6.5s22.666 10.833 30.999 19.5s14.666 19.167 18.999 31.5s6.5 26.166 6.5 41.499v268z" />
    <glyph glyph-name="uni03A9" unicode="&#x3a9;" horiz-adv-x="871" 
d="M736 172l89.999 -0.000976562v-172h-347v160c28.667 12.667 53.5 29.167 74.5 49.5s37.167 43.5 48.5 69.5s17 53.333 17 82c0 50 -17.667 92 -53 126s-78.666 51 -129.999 51s-94.666 -17 -129.999 -51s-53 -76 -53 -126c0 -22 3.33301 -43 10 -63
s15.834 -38.667 27.501 -56s26.167 -33 43.5 -47s36.666 -25.667 57.999 -35v-160h-347v172h91c-52.667 66.667 -79 138.334 -79 215.001c0 44.667 9.16699 87.167 27.5 127.5s43.666 75.5 75.999 105.5s72.333 53.833 120 71.5s99.5 26.5 155.5 26.5
s107.833 -8.83301 155.5 -26.5s87.667 -41.5 120 -71.5s57.5 -65.167 75.5 -105.5s27 -82.833 27 -127.5c0 -77.333 -26 -149 -78 -215z" />
    <glyph glyph-name="Iotadieresis" unicode="&#x3aa;" horiz-adv-x="331" 
d="M-38 762v155h170v-155h-170zM198 762v155h169v-155h-169zM68 0v700h195v-700h-195z" />
    <glyph glyph-name="Upsilondieresis" unicode="&#x3ab;" horiz-adv-x="699" 
d="M138 762v155h171v-155h-171zM392 762v155h172v-155h-172zM692 700l-245 -426v-274h-196v274l-243 426h214l128 -253l128 253h214z" />
    <glyph glyph-name="alphatonos" unicode="&#x3ac;" horiz-adv-x="692" 
d="M512 765l-110 -166h-137l57 166h190zM495 541h138v-540h-143l-16 38c-46.667 -38 -101 -57 -163 -57c-54.667 0 -103.5 12.333 -146.5 37s-76.667 59 -101 103s-36.5 93.667 -36.5 149c0 83.333 26.667 151.833 80 205.5s121.333 80.5 204 80.5
c62.667 0 117.667 -19.333 165 -58zM336 147c34.667 0 63.334 11.667 86.001 35s34 52.666 34 87.999s-11.333 64.666 -34 87.999s-51.334 35 -86.001 35c-35.333 0 -64.333 -11.667 -87 -35s-34 -52.666 -34 -87.999c0 -17.333 3 -33.666 9 -48.999s14.333 -28.333 25 -39
s23.5 -19.167 38.5 -25.5s31.167 -9.5 48.5 -9.5z" />
    <glyph glyph-name="epsilontonos" unicode="&#x3ad;" horiz-adv-x="523" 
d="M443 765l-110 -166h-136l57 166h189zM334 184l171.999 0.000976562c-1.33301 -61.333 -23.5 -110.166 -66.5 -146.499s-100.167 -54.5 -171.5 -54.5c-72 0 -130 16.667 -174 50s-66 77.333 -66 132c0 56 26 97 78 123c-41.333 26.667 -62 61 -62 103
c0 49.333 20.667 89.166 62 119.499s95.333 45.5 162 45.5s120.667 -16 162 -48s63 -74.667 65 -128h-169c-1.33301 15.333 -7 27.166 -17 35.499s-23 12.5 -39 12.5c-16.667 0 -29.667 -4 -39 -12s-14 -18.667 -14 -32s4.66699 -23.666 14 -30.999s22.333 -11 39 -11h63
v-121h-63c-18 0 -32.667 -4.16699 -44 -12.5s-17 -19.833 -17 -34.5s5.33301 -26.334 16 -35.001s25 -13 43 -13c20 0 35.833 5.16699 47.5 15.5s17.834 24.5 18.501 42.5z" />
    <glyph glyph-name="etatonos" unicode="&#x3ae;" horiz-adv-x="645" 
d="M522 765l-110 -166h-136l57 166h189zM386 557c41.333 0 77.5 -9.33398 108.5 -28.001s55 -45.167 72 -79.5s25.5 -74.166 25.5 -119.499v-525h-186v494c0 62.667 -23.333 94 -70 94c-29.333 0 -51.833 -9.5 -67.5 -28.5s-23.5 -45.833 -23.5 -80.5v-284h-186v540h130
l26 -56c42.667 48.667 99.667 73 171 73z" />
    <glyph glyph-name="iotatonos" unicode="&#x3af;" horiz-adv-x="379" 
d="M72 599l56 166h190l-110 -166h-136zM273 -2c-72 0 -126.5 18.332 -163.5 54.999s-55.5 90.334 -55.5 161.001v326h186v-307c0 -47.333 24.333 -71 73 -71h53v-164h-93z" />
    <glyph glyph-name="upsilondieresistonos" unicode="&#x3b0;" horiz-adv-x="635" 
d="M226 599l35 166h164l-73 -166h-126zM67 622v126h129v-126h-129zM438 622v126h129v-126h-129zM318 -18c-80 0 -144.333 22.834 -193 68.501s-73 106.167 -73 181.5v308h186v-300c0 -28.667 7 -51 21 -67s33.5 -24 58.5 -24s44.667 8.16699 59 24.5s21.5 38.5 21.5 66.5
v300h186v-308c0 -50 -11 -93.833 -33 -131.5s-53.167 -66.834 -93.5 -87.501s-86.833 -31 -139.5 -31z" />
    <glyph glyph-name="alpha" unicode="&#x3b1;" horiz-adv-x="692" 
d="M495 541h138v-540h-143l-16 38c-46.667 -38 -101 -57 -163 -57c-54.667 0 -103.5 12.333 -146.5 37s-76.667 59 -101 103s-36.5 93.667 -36.5 149c0 83.333 26.667 151.833 80 205.5s121.333 80.5 204 80.5c62.667 0 117.667 -19.333 165 -58zM335.5 147
c35 0 63.834 11.667 86.501 35s34 52.666 34 87.999s-11.333 64.666 -34 87.999s-51.334 35 -86.001 35c-35.333 0 -64.333 -11.667 -87 -35s-34 -52.666 -34 -87.999s11.333 -64.666 34 -87.999s51.5 -35 86.5 -35z" />
    <glyph glyph-name="beta" unicode="&#x3b2;" horiz-adv-x="631" 
d="M500 389c22 -12 40.6699 -26.666 56.0029 -43.999s27 -37 35 -59s12 -46 12 -72c0 -70.667 -25.333 -125.834 -76 -165.501s-114.334 -59.5 -191.001 -59.5c-36.667 0 -69.334 5 -98.001 15v-199h-179v672c0 85.333 23.667 152.333 71 201s112.666 73 195.999 73
c47.333 0 89.833 -8.5 127.5 -25.5s67.5 -41.667 89.5 -74s33 -69.833 33 -112.5c0 -62 -25.333 -112 -76 -150zM326.003 141.001c31.333 0 56.5029 7.5 75.5029 22.5s28.5 35.833 28.5 62.5s-8.83301 47 -26.5 61s-42.5 21 -74.5 21h-44v145h41
c17.333 0 32.666 3.16699 45.999 9.5s23.666 15.5 30.999 27.5s11 26 11 42c0 11.333 -2.33301 21.666 -7 30.999s-11 17.333 -19 24s-17 11.834 -27 15.501s-20.667 5.5 -32 5.5c-30 0 -52.667 -10.333 -68 -31s-23 -50 -23 -88v-332c29.333 -10.667 58.666 -16 87.999 -16
z" />
    <glyph glyph-name="gamma" unicode="&#x3b3;" horiz-adv-x="602" 
d="M601 540l-206 -506v-229h-184v228l-211 507h193l110 -320l105 320h193z" />
    <glyph glyph-name="delta" unicode="&#x3b4;" horiz-adv-x="627" 
d="M343 568c55.333 -25.333 102.167 -54.335 140.5 -87.002s67.5 -68.5 87.5 -107.5s30 -79.5 30 -121.5c0 -77.333 -27.5 -141.666 -82.5 -192.999s-123.5 -77 -205.5 -77c-83.333 0 -152 25.333 -206 76s-81 115.334 -81 194.001c0 68 23.5 124.167 70.5 168.5
s104.167 66.833 171.5 67.5c-63.333 36 -134 65.667 -212 89v140h492v-149h-205zM314.001 138.998c21.333 0 40.668 4.83301 58.001 14.5s30.666 23 39.999 40s14 36.5 14 58.5c0 32.667 -10.5 59.667 -31.5 81s-47.833 32 -80.5 32s-59.5 -10.667 -80.5 -32
s-31.5 -48.333 -31.5 -81c0 -33.333 10.5 -60.5 31.5 -81.5s47.833 -31.5 80.5 -31.5z" />
    <glyph glyph-name="epsilon" unicode="&#x3b5;" horiz-adv-x="523" 
d="M334 184l171.999 0.000976562c-1.33301 -61.333 -23.5 -110.166 -66.5 -146.499s-100.167 -54.5 -171.5 -54.5c-72 0 -130 16.667 -174 50s-66 77.333 -66 132c0 56 26 97 78 123c-41.333 26.667 -62 61 -62 103c0 49.333 20.667 89.166 62 119.499s95.333 45.5 162 45.5
s120.667 -16 162 -48s63 -74.667 65 -128h-169c-1.33301 15.333 -7 27.166 -17 35.499s-23 12.5 -39 12.5c-16.667 0 -29.667 -4 -39 -12s-14 -18.667 -14 -32s4.66699 -23.666 14 -30.999s22.333 -11 39 -11h63v-121h-63c-18 0 -32.667 -4.16699 -44 -12.5
s-17 -19.833 -17 -34.5s5.33301 -26.334 16 -35.001s25 -13 43 -13c20 0 35.833 5.16699 47.5 15.5s17.834 24.5 18.501 42.5z" />
    <glyph glyph-name="zeta" unicode="&#x3b6;" horiz-adv-x="534" 
d="M533 640c-210 -148.667 -314.999 -279.331 -314.999 -391.998c0 -21.333 4.33301 -39.666 13 -54.999s20 -27 34 -35s30 -15.5 48 -22.5s36.5 -13 55.5 -18s37.5 -12.5 55.5 -22.5s34 -21.333 48 -34s25.333 -30.834 34 -54.501s13 -51.167 13 -82.5
c0 -34.667 -4.66699 -74.334 -14 -119.001h-174c6 30 9 54.333 9 73c0 19.333 -4.33301 36.166 -13 50.499s-20.334 25.333 -35.001 33s-31.5 15.5 -50.5 23.5s-38.167 15 -57.5 21s-38.5 14.667 -57.5 26s-35.667 24 -50 38s-26 33.167 -35 57.5s-13.5 52.5 -13.5 84.5
c0 122 72 239.667 216 353h-195v170h484v-95z" />
    <glyph glyph-name="eta" unicode="&#x3b7;" horiz-adv-x="645" 
d="M386 557c41.333 0 77.5 -9.33398 108.5 -28.001s55 -45.167 72 -79.5s25.5 -74.166 25.5 -119.499v-525h-186v494c0 62.667 -23.333 94 -70 94c-29.333 0 -51.833 -9.5 -67.5 -28.5s-23.5 -45.833 -23.5 -80.5v-284h-186v540h130l26 -56c42.667 48.667 99.667 73 171 73z
" />
    <glyph glyph-name="theta" unicode="&#x3b8;" horiz-adv-x="714" 
d="M357 722c98.667 0 177.334 -34.167 236.001 -102.5s88 -157.166 88 -266.499c0 -110 -29.333 -199.333 -88 -268s-137.334 -103 -236.001 -103c-99.333 0 -178.333 34.333 -237 103s-88 158 -88 268c0 109.333 29.333 198.166 88 266.499s137.667 102.5 237 102.5z
M357 556c-37.333 0 -67.832 -11.833 -91.499 -35.5s-39.167 -57.5 -46.5 -101.5h276c-8 44 -23.833 77.833 -47.5 101.5s-53.834 35.5 -90.501 35.5zM357.001 149c36 0 66 12.001 90 36.001s40 58 48 102h-276c4.66699 -29.333 13.167 -54.333 25.5 -75
s28 -36.334 47 -47.001s40.833 -16 65.5 -16z" />
    <glyph glyph-name="iota" unicode="&#x3b9;" horiz-adv-x="379" 
d="M273 -2c-48 0 -88.333 8.16797 -121 24.501s-57.167 40.666 -73.5 72.999s-24.5 71.833 -24.5 118.5v326h186v-307c0 -47.333 24.333 -71 73 -71h53v-164h-93z" />
    <glyph glyph-name="kappa" unicode="&#x3ba;" horiz-adv-x="589" 
d="M599 0h-219l-135 229v-229h-186v540h186v-212l129 212h208l-169 -258z" />
    <glyph glyph-name="lambda" unicode="&#x3bb;" horiz-adv-x="602" 
d="M600 0l-200.001 0.000976562l-97 295l-104 -295h-200l214 502c-12 29.333 -26.167 50.166 -42.5 62.499s-40.166 18.5 -71.499 18.5h-33v158h50c69.333 0 124 -16.333 164 -49s76.333 -91 109 -175z" />
    <glyph glyph-name="uni03BC" unicode="&#x3bc;" horiz-adv-x="665" 
d="M421 540h186.001v-540h-125l-32 64c-38.667 -48.667 -90.334 -73 -155.001 -73c-21.333 0 -41 3.66699 -59 11v-195h-177v733h186v-282c0 -23.333 2.66699 -42.333 8 -57s13.5 -25.667 24.5 -33s25.167 -11 42.5 -11c31.333 0 56 10.167 74 30.5s27 47.833 27 82.5v270z
" />
    <glyph glyph-name="nu" unicode="&#x3bd;" horiz-adv-x="607" 
d="M407 540h199l-217 -540h-169l-220 540h204l102 -320z" />
    <glyph glyph-name="xi" unicode="&#x3be;" horiz-adv-x="562" 
d="M358 125l33.5068 -12.502c8.33301 -3 19.166 -7.33301 32.499 -13s24.166 -11 32.499 -16s17.833 -11.5 28.5 -19.5s19.167 -16.5 25.5 -25.5s12.5 -19.167 18.5 -30.5s10.333 -24 13 -38s4 -29.333 4 -46c0 -34.667 -4.66699 -74.334 -14 -119.001h-179
c6.66699 26.667 10 51.334 10 74.001c0 13.333 -2.83301 25.666 -8.5 36.999s-12 20.5 -19 27.5s-17.833 14.333 -32.5 22s-26.834 13.5 -36.501 17.5s-24.167 9.66699 -43.5 17c-18 6 -31.333 10.833 -40 14.5s-21.167 9.33398 -37.5 17.001s-28.833 14.667 -37.5 21
s-18.834 14.833 -30.501 25.5s-20.334 21.667 -26.001 33s-10.834 25 -15.501 41s-7 33 -7 51c0 80 38.333 139.667 115 179c-63.333 36.667 -95 87.667 -95 153c0 60 24.167 109 72.5 147s111.166 57 188.499 57c76 0 137.833 -20 185.5 -60s71.834 -92.333 72.501 -157
h-187c-0.666992 18.667 -7.33398 33.834 -20.001 45.501s-29 17.5 -49 17.5c-20.667 0 -37.334 -6 -50.001 -18s-19 -27.333 -19 -46c0 -13.333 3 -25 9 -35s14.5 -17.833 25.5 -23.5s23.833 -8.5 38.5 -8.5h59v-151h-60c-26 0 -46.333 -7 -61 -21s-22 -32 -22 -54
c0 -9.33301 1.33301 -18.166 4 -26.499s7.33398 -15.666 14.001 -21.999s13 -11.833 19 -16.5s15 -9.66699 27 -15s21.667 -9.33301 29 -12s18.333 -6.33398 33 -11.001z" />
    <glyph glyph-name="omicron" unicode="&#x3bf;" horiz-adv-x="660" 
d="M330 -18c-88 0 -160.501 27.166 -217.501 81.499s-85.5 123.166 -85.5 206.499c0 84 28.5 153 85.5 207s129.5 81 217.5 81s160.5 -27.167 217.5 -81.5s85.5 -123.166 85.5 -206.499s-28.667 -152.166 -86 -206.499s-129.666 -81.5 -216.999 -81.5zM329.999 148.999
c34 0 61.834 11.3311 83.501 33.998s32.5 51.667 32.5 87s-10.833 64.333 -32.5 87s-49.5 34 -83.5 34c-22.667 0 -42.834 -5.16699 -60.501 -15.5s-31.5 -24.666 -41.5 -42.999s-15 -39.166 -15 -62.499c0 -35.333 11 -64.333 33 -87s50 -34 84 -34z" />
    <glyph glyph-name="pi" unicode="&#x3c0;" horiz-adv-x="636" 
d="M59 540h518v-540h-185v380h-148v-380h-185v540z" />
    <glyph glyph-name="rho" unicode="&#x3c1;" horiz-adv-x="675" 
d="M348 556c88 0 160 -26.833 216 -80.5s84 -122.167 84 -205.5c0 -82.667 -28 -151.167 -84 -205.5s-125.667 -81.5 -209 -81.5c-44.667 0 -85.667 11.333 -123 34v-212h-185v453c0 90 27.833 162.167 83.5 216.5s128.167 81.5 217.5 81.5zM347.5 150
c34.333 0 62.334 11.167 84.001 33.5s32.5 51.166 32.5 86.499s-10.833 64.166 -32.5 86.499s-49.834 33.5 -84.501 33.5s-62.667 -11.167 -84 -33.5s-32 -51.166 -32 -86.499s10.833 -64.166 32.5 -86.499s49.667 -33.5 84 -33.5z" />
    <glyph glyph-name="uni03C2" unicode="&#x3c2;" horiz-adv-x="616" 
d="M396 -195c6 27.333 8.99902 50.0029 8.99902 68.0029c0 10.667 -1.5 20.5 -4.5 29.5s-6.33301 16.667 -10 23s-9.66699 12.666 -18 18.999s-15.333 11.166 -21 14.499s-14.834 7.5 -27.501 12.5s-22.167 8.5 -28.5 10.5l-32.5 10l-36.5 12
c-8.33301 2.66699 -20.166 7 -35.499 13s-27.333 11.5 -36 16.5s-19.5 11.833 -32.5 20.5s-23.333 17.5 -31 26.5s-16 20.167 -25 33.5s-15.833 27.5 -20.5 42.5s-8.66699 32.333 -12 52s-5 40.5 -5 62.5c-0.666992 83.333 26.833 151.666 82.5 204.999
s126.834 80 213.501 80c50 0 95.5 -9.83301 136.5 -29.5s74.167 -47.5 99.5 -83.5s41 -77.667 47 -125h-181c-8.66699 23.333 -22.167 41 -40.5 53s-39.166 18 -62.499 18c-32 0 -58.167 -11 -78.5 -33s-30.5 -50.333 -30.5 -85c0 -19.333 3.33301 -36.5 10 -51.5
s14.167 -26.833 22.5 -35.5s21 -17 38 -25s31.333 -13.833 43 -17.5s28.5 -8.16699 50.5 -13.5l42.5 -12c9.66699 -2.66699 23 -7.16699 40 -13.5s30.167 -12.5 39.5 -18.5s20 -14.333 32 -25s21.167 -22 27.5 -34s11.666 -26.833 15.999 -44.5s6.5 -36.834 6.5 -57.501
c0 -35.333 -4.33301 -74.666 -13 -117.999h-174z" />
    <glyph glyph-name="sigma" unicode="&#x3c3;" horiz-adv-x="702" 
d="M683 541l0.000976562 -161.001h-93c24 -37.333 36 -77 36 -119c0 -77.333 -27 -142.833 -81 -196.5s-125.667 -80.5 -215 -80.5c-88.667 0 -161.334 26.333 -218.001 79s-85 120.334 -85 203.001c0 80 28.333 145.833 85 197.5s129 77.5 217 77.5h354zM329.001 147.999
c16.667 0 32.166 3.00195 46.499 9.00195s26.5 14.167 36.5 24.5s17.833 22.666 23.5 36.999s8.5 30.166 8.5 47.499c0 35.333 -10.667 63.833 -32 85.5s-49 32.5 -83 32.5c-17.333 0 -33.166 -2.83301 -47.499 -8.5s-26.5 -13.667 -36.5 -24s-17.833 -22.833 -23.5 -37.5
s-8.5 -30.667 -8.5 -48c0 -34.667 10.667 -63 32 -85s49.333 -33 84 -33z" />
    <glyph glyph-name="tau" unicode="&#x3c4;" horiz-adv-x="503" 
d="M465 379l-131 -0.000976562v-146c0 -47.333 24.333 -71 73 -71h53v-164h-93c-72 0 -126.5 18.333 -163.5 55s-55.5 90.334 -55.5 161.001v165h-133v161h450v-161z" />
    <glyph glyph-name="upsilon" unicode="&#x3c5;" horiz-adv-x="635" 
d="M318 -18c-80 0 -144.333 22.834 -193 68.501s-73 106.167 -73 181.5v308h186v-300c0 -28.667 7 -51 21 -67s33.5 -24 58.5 -24s44.667 8.16699 59 24.5s21.5 38.5 21.5 66.5v300h186v-308c0 -50 -11 -93.833 -33 -131.5s-53.167 -66.834 -93.5 -87.501
s-86.833 -31 -139.5 -31z" />
    <glyph glyph-name="phi" unicode="&#x3c6;" horiz-adv-x="798" 
d="M771 267c0 -31.333 -4.33398 -60.998 -13.001 -88.998s-21.334 -53.167 -38.001 -75.5s-36.5 -41.833 -59.5 -58.5s-49.167 -30 -78.5 -40s-60.666 -16 -93.999 -18v-168h-176v168c-84 4.66699 -152.5 33 -205.5 85s-79.5 117.333 -79.5 196
c0 63.333 17.833 119.166 53.5 167.499s84.834 82.5 147.501 102.5l54 -148c-50 -24.667 -75 -65.334 -75 -122.001c0 -33.333 10.333 -60.833 31 -82.5s48 -34.5 82 -38.5v402h144c91.333 0 165.333 -26 222 -78s85 -119.667 85 -203zM477.999 146.002
c34 4 61.333 16.999 82 38.999s31 49.333 31 82s-10.333 59.834 -31 81.501s-48 34.167 -82 37.5v-240z" />
    <glyph glyph-name="chi" unicode="&#x3c7;" horiz-adv-x="580" 
d="M586 0h-208l-88 160l-91 -160h-205l179 280l-166 260h205l78 -136l82 136h202l-167 -255z" />
    <glyph glyph-name="psi" unicode="&#x3c8;" horiz-adv-x="828" 
d="M600 540l177 0.000976562v-291c0 -78.667 -23.167 -142.334 -69.5 -191.001s-107.166 -73 -182.499 -73h-15v-177h-192v177h-16c-74.667 0 -135.167 24.5 -181.5 73.5s-69.5 112.5 -69.5 190.5v291h177v-286c0 -28 9.16699 -51.833 27.5 -71.5s41.166 -29.5 68.499 -29.5
h1v386h177v-386h4c26.667 0 49 9.66699 67 29s27 43.333 27 72v286z" />
    <glyph glyph-name="omega" unicode="&#x3c9;" horiz-adv-x="864" 
d="M768 540c42.667 -96 63.998 -187.334 63.998 -274.001c0 -87.333 -19.333 -155.833 -58 -205.5s-91.667 -74.5 -159 -74.5c-44 0 -82.167 11.833 -114.5 35.5s-55.166 56.834 -68.499 99.501c-8.66699 -28.667 -21.834 -53 -39.501 -73s-38.667 -35.333 -63 -46
s-51.166 -16 -80.499 -16c-67.333 0 -120.333 25 -159 75s-58 118.333 -58 205c0 88 21.333 179.333 64 274h187c-42.667 -84 -64 -171 -64 -261c0 -26 2.5 -48 7.5 -66s12.5 -31.833 22.5 -41.5s22 -14.5 36 -14.5c19.333 0 34.333 8.16699 45 24.5s16 38.833 16 67.5v183
h172v-183c0 -28.667 5.33301 -51.167 16 -67.5s25.667 -24.5 45 -24.5c20.667 0 36.834 10.667 48.501 32s17.5 51.333 17.5 90c0 88 -21.333 175 -64 261h187z" />
    <glyph glyph-name="iotadieresis" unicode="&#x3ca;" horiz-adv-x="379" 
d="M-63 606v157h168v-157h-168zM191 606v157h168v-157h-168zM273 -2c-72 0 -126.5 18.332 -163.5 54.999s-55.5 90.334 -55.5 161.001v326h186v-307c0 -47.333 24.333 -71 73 -71h53v-164h-93z" />
    <glyph glyph-name="upsilondieresis" unicode="&#x3cb;" horiz-adv-x="635" 
d="M106 606v157h168v-157h-168zM360 606v157h169v-157h-169zM318 -18c-80 0 -144.333 22.833 -193 68.5s-73 106.167 -73 181.5v308h186v-300c0 -28.667 7 -51 21 -67s33.5 -24 58.5 -24s44.667 8.16699 59 24.5s21.5 38.5 21.5 66.5v300h186v-308
c0 -75.333 -24.333 -135.833 -73 -181.5s-113 -68.5 -193 -68.5z" />
    <glyph glyph-name="omicrontonos" unicode="&#x3cc;" horiz-adv-x="660" 
d="M252 599l57 166h190l-110 -166h-137zM330 -18c-88 0 -160.501 27.166 -217.501 81.499s-85.5 123.166 -85.5 206.499c0 84 28.5 153 85.5 207s129.5 81 217.5 81s160.5 -27.167 217.5 -81.5s85.5 -123.166 85.5 -206.499s-28.667 -152.166 -86 -206.499
s-129.666 -81.5 -216.999 -81.5zM329.999 148.999c34 0 61.833 11.333 83.5 34s32.5 51.667 32.5 87s-10.833 64.333 -32.5 87s-49.5 34 -83.5 34s-62 -11.333 -84 -34s-33 -51.667 -33 -87s11 -64.333 33 -87s50 -34 84 -34z" />
    <glyph glyph-name="upsilontonos" unicode="&#x3cd;" horiz-adv-x="635" 
d="M241 599l56 166h190l-110 -166h-136zM318 -18c-80 0 -144.333 22.834 -193 68.501s-73 106.167 -73 181.5v308h186v-300c0 -28.667 7 -51 21 -67s33.5 -24 58.5 -24s44.667 8.16699 59 24.5s21.5 38.5 21.5 66.5v300h186v-308c0 -50 -11 -93.833 -33 -131.5
s-53.167 -66.834 -93.5 -87.501s-86.833 -31 -139.5 -31z" />
    <glyph glyph-name="omegatonos" unicode="&#x3ce;" horiz-adv-x="864" 
d="M602 765l-110 -166h-136l57 166h189zM768 540c42.667 -96 63.998 -187.334 63.998 -274.001c0 -87.333 -19.333 -155.833 -58 -205.5s-91.667 -74.5 -159 -74.5c-44 0 -82.167 11.833 -114.5 35.5s-55.166 56.834 -68.499 99.501
c-8.66699 -28.667 -21.834 -53 -39.501 -73s-38.667 -35.333 -63 -46s-51.166 -16 -80.499 -16c-67.333 0 -120.333 25 -159 75s-58 118.333 -58 205c0 88 21.333 179.333 64 274h187c-42.667 -84 -64 -171 -64 -261c0 -26 2.5 -48 7.5 -66s12.5 -31.833 22.5 -41.5
s22 -14.5 36 -14.5c19.333 0 34.333 8.16699 45 24.5s16 38.833 16 67.5v183h172v-183c0 -28.667 5.33301 -51.167 16 -67.5s25.667 -24.5 45 -24.5c20.667 0 36.834 10.667 48.501 32s17.5 51.333 17.5 90c0 88 -21.333 175 -64 261h187z" />
    <glyph glyph-name="uni0401" unicode="&#x401;" horiz-adv-x="567" 
d="M81 762v155h171v-155h-171zM336 762v155h171v-155h-171zM260 167h264v-167h-456v700h448v-167h-256v-103h230v-158h-230v-105z" />
    <glyph glyph-name="uni0402" unicode="&#x402;" horiz-adv-x="768" 
d="M504 463c44.667 0 84.833 -9.33398 120.5 -28.001s64 -46 85 -82s31.5 -77.667 31.5 -125c0 -71.333 -22.5 -128.666 -67.5 -171.999s-104.5 -65 -178.5 -65h-22v162h11c23.333 0 41.833 7.16699 55.5 21.5s20.5 31.833 20.5 52.5c0 21.333 -6.83301 39.333 -20.5 54
s-32.5 22 -56.5 22c-35.333 0 -66.333 -15 -93 -45v-258h-187v529h-184v171h562v-171h-191v-95c34 19.333 72 29 114 29z" />
    <glyph glyph-name="uni0403" unicode="&#x403;" horiz-adv-x="513" 
d="M442 917l-128 -155h-137l71 155h194zM494 700v-174h-232v-526h-194v700h426z" />
    <glyph glyph-name="uni0404" unicode="&#x404;" horiz-adv-x="787" 
d="M568 290l194.001 0.000976562c-12.667 -91.333 -52.167 -165.5 -118.5 -222.5s-146.833 -85.5 -241.5 -85.5c-106.667 0 -195.167 35 -265.5 105s-105.5 157.667 -105.5 263s35.333 193 106 263s159 105 265 105c92 0 170.667 -27.167 236 -81.5s106 -126.5 122 -216.5
h-196c-12 36.667 -32.5 65.667 -61.5 87s-62.5 32 -100.5 32c-26 0 -50 -4.5 -72 -13.5s-40.833 -22.167 -56.5 -39.5s-27.834 -37.333 -36.501 -60h227v-152h-227c5.33301 -13.333 11.833 -26 19.5 -38s16.667 -22.5 27 -31.5s21.5 -16.833 33.5 -23.5
s25.167 -11.667 39.5 -15s29.5 -5 45.5 -5c40 0 74.833 11.667 104.5 35s50.167 54.666 61.5 93.999z" />
    <glyph glyph-name="uni0405" unicode="&#x405;" horiz-adv-x="629" 
d="M316 -17c-86.667 0 -155.335 21.4961 -206.002 64.4961s-76 102.5 -76 178.5h199c0 -24 7.83301 -42.333 23.5 -55s35.167 -19 58.5 -19c21.333 0 39.833 5.33301 55.5 16s23.5 25 23.5 43c0 6 -0.666992 11.167 -2 15.5s-3.83301 8.5 -7.5 12.5s-7.16699 7.5 -10.5 10.5
s-8.5 6 -15.5 9s-12.833 5.33301 -17.5 7s-11.834 3.83398 -21.501 6.50098l-22 6c-5 1.33301 -13.167 3.33301 -24.5 6l-45 12c-10 2.66699 -24.667 7.33398 -44 14.001s-34.333 13.167 -45 19.5s-23 15.166 -37 26.499s-24.667 23.333 -32 36
s-13.666 28.334 -18.999 47.001s-8 39 -8 61c0 68 23.5 121.167 70.5 159.5s112.167 57.5 195.5 57.5s148.166 -20.333 194.499 -61s69.5 -96.667 69.5 -168h-193c0 21.333 -7 37.5 -21 48.5s-31.333 16.5 -52 16.5c-18.667 0 -34.667 -4 -48 -12s-20 -20 -20 -36
c0 -6 1.33301 -11.667 4 -17s7 -10.166 13 -14.499s11.833 -8 17.5 -11s14 -6.33301 25 -10s20 -6.5 27 -8.5s17.833 -4.66699 32.5 -8l46 -12.5c10.667 -3 25.834 -8 45.501 -15s35 -13.833 46 -20.5s23.833 -15.667 38.5 -27s25.834 -23.666 33.501 -36.999
s14.334 -29.333 20.001 -48s8.5 -39 8.5 -61c0 -74 -25.667 -131.167 -77 -171.5s-119 -60.5 -203 -60.5z" />
    <glyph glyph-name="uni0406" unicode="&#x406;" horiz-adv-x="331" 
d="M68 0v700h195v-700h-195z" />
    <glyph glyph-name="uni0407" unicode="&#x407;" horiz-adv-x="331" 
d="M-38 762v155h170v-155h-170zM198 762v155h169v-155h-169zM68 0v700h195v-700h-195z" />
    <glyph glyph-name="uni0408" unicode="&#x408;" horiz-adv-x="622" 
d="M289 -18c-80.667 0 -146.332 24 -196.999 72s-76 110 -76 186v28h194v-18c0 -26.667 7.16699 -48 21.5 -64s33.5 -24 57.5 -24c23.333 0 42.166 8 56.499 24s21.5 37.333 21.5 64v450h194v-460c0 -76 -25 -138 -75 -186s-115.667 -72 -197 -72z" />
    <glyph glyph-name="uni0409" unicode="&#x409;" horiz-adv-x="1086" 
d="M806 494c50 0 94.832 -10.332 134.499 -30.999s70.5 -49.834 92.5 -87.501s33 -80.167 33 -127.5c0 -72.667 -24.333 -132.167 -73 -178.5s-111 -69.5 -187 -69.5h-293v524h-141l-27 -243c-21.333 -188.667 -110.333 -283 -267 -283h-56v179h33
c30 0 52.833 8.83301 68.5 26.5s25.834 46.167 30.501 85.5l48 411h497v-206h107zM782.999 165.001c26.667 0 48.334 7.66699 65.001 23s25 35.333 25 60s-8.33301 44.667 -25 60s-38.334 23 -65.001 23h-84v-166h84z" />
    <glyph glyph-name="uni040A" unicode="&#x40a;" horiz-adv-x="1034" 
d="M765 473c73.333 0 133.333 -22.168 180 -66.501s70 -101.166 70 -170.499s-23.333 -126 -70 -170s-106.667 -66 -180 -66h-303v272h-200v-272h-194v700h194v-249h200v249h193v-227h110zM744 163.999c23.333 0 42.167 6.66602 56.5 19.999s21.5 30.666 21.5 51.999
c0 14.667 -3.16699 27.334 -9.5 38.001s-15.5 18.834 -27.5 24.501s-25.667 8.5 -41 8.5h-91v-143h91z" />
    <glyph glyph-name="uni040B" unicode="&#x40b;" horiz-adv-x="790" 
d="M501 458c75.333 0 136.501 -24.668 183.501 -74.001s70.5 -113.666 70.5 -192.999v-191h-196v184c0 34.667 -7.83301 61.667 -23.5 81s-37.834 29 -66.501 29c-20 0 -43.333 -4.66699 -70 -14v-280h-194v529h-186v171h569v-171h-189v-88c36 11.333 70 17 102 17z" />
    <glyph glyph-name="uni040E" unicode="&#x40e;" horiz-adv-x="662" 
d="M180 768v130h321v-130h-321zM456 700l207.998 -0.000976562l-194 -470c-35.333 -85.333 -76.166 -145.666 -122.499 -180.999s-108.166 -53 -185.499 -53h-62v176h50c26 0 47 3.16699 63 9.5s29.667 17.5 41 33.5l-254 485h221l133 -289z" />
    <glyph glyph-name="uni040F" unicode="&#x40f;" horiz-adv-x="713" 
d="M646 700v-700h-198v-125h-183v125h-197v700h194v-523h189v523h195z" />
    <glyph glyph-name="uni0410" unicode="&#x410;" horiz-adv-x="744" 
d="M532 0l-39 114h-248l-39 -114h-206l275 700h188l281 -700h-212zM446 265l-77 217l-77 -217h154z" />
    <glyph glyph-name="uni0411" unicode="&#x411;" horiz-adv-x="631" 
d="M374 446c44.667 0 84.333 -9.33203 119 -27.999s61.667 -44.834 81 -78.501s29 -72.5 29 -116.5c0 -65.333 -21.333 -118.833 -64 -160.5s-97.667 -62.5 -165 -62.5h-306v700h473v-171h-288v-83h121zM338.999 155.001c20 0 36.501 6.33203 49.501 18.999
s19.5 29.334 19.5 50.001c0 20 -6.33301 36.333 -19 49s-29.334 19 -50.001 19h-86v-137h86z" />
    <glyph glyph-name="uni0412" unicode="&#x412;" horiz-adv-x="651" 
d="M510 370c33.333 -16 59.498 -39.001 78.498 -69.001s28.5 -64 28.5 -102c0 -56.667 -21.667 -104 -65 -142s-97.333 -57 -162 -57h-322v700h316c40.667 0 77.334 -7.66699 110.001 -23s58.334 -36.666 77.001 -63.999s28 -58 28 -92c0 -30.667 -8 -59.5 -24 -86.5
s-37.667 -48.5 -65 -64.5zM415.998 488.999c0 18 -6 32.667 -18 44s-28 17 -48 17h-97v-122h97c13.333 0 25 2.5 35 7.5s17.667 12.167 23 21.5s8 20 8 32zM357.998 157.999c20.667 0 37.334 6 50.001 18s19 27.333 19 46s-6.33301 34 -19 46s-29.334 18 -50.001 18h-105
v-128h105z" />
    <glyph glyph-name="uni0413" unicode="&#x413;" horiz-adv-x="513" 
d="M494 700v-174h-232v-526h-194v700h426z" />
    <glyph glyph-name="uni0414" unicode="&#x414;" horiz-adv-x="786" 
d="M678 177l71 -0.000976562v-303h-177v126h-371v-126h-177v303h64c20.667 22 35 60.833 43 116.5s19 174.834 33 357.501l3 49h511v-523zM339 524.999c-3.33301 -64.667 -7.5 -119.334 -12.5 -164.001s-11.333 -81.667 -19 -111s-17.167 -53.666 -28.5 -72.999h210v348
h-150z" />
    <glyph glyph-name="uni0415" unicode="&#x415;" horiz-adv-x="567" 
d="M260 167h264v-167h-456v700h448v-167h-256v-103h230v-158h-230v-105z" />
    <glyph glyph-name="uni0416" unicode="&#x416;" horiz-adv-x="1014" 
d="M1024 0h-225l-197 315v-315h-190v315l-197 -315h-225l242 361l-219 339h222l177 -300v300h190v-300l177 300h222l-219 -339z" />
    <glyph glyph-name="uni0417" unicode="&#x417;" horiz-adv-x="605" 
d="M472 364c68 -38 101.666 -93.332 100.999 -165.999c0 -45.333 -13.333 -84.833 -40 -118.5s-60.334 -58.334 -101.001 -74.001s-85.334 -23.5 -134.001 -23.5c-49.333 0 -94.333 9 -135 27s-73.5 45.5 -98.5 82.5s-37.5 80.167 -37.5 129.5h192
c0 -23.333 7.66699 -41.833 23 -55.5s33.666 -20.5 54.999 -20.5c22.667 0 41.667 6.5 57 19.5s23 29.833 23 50.5c0 20 -7.5 36.167 -22.5 48.5s-35.5 18.5 -61.5 18.5h-57v154h55c23.333 0 41.833 5.83301 55.5 17.5s20.5 26.5 20.5 44.5c0 20 -6.66699 35.833 -20 47.5
s-30 17.5 -50 17.5s-37.167 -6.33301 -51.5 -19s-21.833 -29.334 -22.5 -50.001h-187c0 47.333 12.833 88.333 38.5 123s58.334 60.167 98.001 76.5s82.834 24.5 129.501 24.5c44.667 0 85.834 -7.5 123.501 -22.5s68.834 -38.667 93.501 -71s37 -70.166 37 -113.499
c0 -62 -28 -111 -84 -147z" />
    <glyph glyph-name="uni0418" unicode="&#x418;" horiz-adv-x="753" 
d="M534 700h151v-700h-189v373l-279 -373h-149v700h189v-375z" />
    <glyph glyph-name="uni0419" unicode="&#x419;" horiz-adv-x="753" 
d="M219 768v130h321v-130h-321zM534 700h151v-700h-189v373l-279 -373h-149v700h189v-375z" />
    <glyph glyph-name="uni041A" unicode="&#x41a;" horiz-adv-x="677" 
d="M690 0h-229l-200 309v-309h-193v700h193v-295l185 295h223l-224 -339z" />
    <glyph glyph-name="uni041B" unicode="&#x41b;" horiz-adv-x="769" 
d="M203 700h498.001v-700h-193v524h-135l-27 -243c-21.333 -188.667 -110.333 -283 -267 -283h-56v177h33c12 0 22.833 1.33301 32.5 4s18.167 7 25.5 13s13.666 13.5 18.999 22.5s9.83301 19.5 13.5 31.5s6.5 26 8.5 42z" />
    <glyph glyph-name="uni041C" unicode="&#x41c;" horiz-adv-x="982" 
d="M954 0h-194l-55 403l-185 -404h-57l-186 404l-54 -403h-195l106 700h192l165 -381l166 381h193z" />
    <glyph glyph-name="uni041D" unicode="&#x41d;" horiz-adv-x="734" 
d="M472 700h195v-700h-195v269h-210v-269h-194v700h194v-253h210v253z" />
    <glyph glyph-name="uni041E" unicode="&#x41e;" horiz-adv-x="832" 
d="M417 -18c-112.667 0 -205.167 34.5 -277.5 103.5s-108.5 157.167 -108.5 264.5s36.167 195.5 108.5 264.5s164.833 103.5 277.5 103.5c112 0 204 -34.5 276 -103.5s108 -157.167 108 -264.5s-36 -195.5 -108 -264.5s-164 -103.5 -276 -103.5zM417 162
c53.333 0 97.166 17.667 131.499 53s51.5 80.333 51.5 135s-17.167 99.667 -51.5 135s-78.166 53 -131.499 53s-97.5 -17.667 -132.5 -53s-52.5 -80.333 -52.5 -135s17.5 -99.667 52.5 -135s79.167 -53 132.5 -53z" />
    <glyph glyph-name="uni041F" unicode="&#x41f;" horiz-adv-x="721" 
d="M68 700h586v-700h-196v524h-195v-524h-195v700z" />
    <glyph glyph-name="uni0420" unicode="&#x420;" horiz-adv-x="645" 
d="M366 700c74.667 0 136.5 -23.833 185.5 -71.5s73.5 -108.167 73.5 -181.5s-24.667 -134 -74 -182s-111 -72 -185 -72h-105v-193h-193v700h298zM343 362c24.667 0 44.834 7.83301 60.501 23.5s23.5 36.167 23.5 61.5c0 16 -3.5 30.5 -10.5 43.5s-16.833 23.167 -29.5 30.5
s-27.334 11 -44.001 11h-82v-170h82z" />
    <glyph glyph-name="uni0421" unicode="&#x421;" horiz-adv-x="784" 
d="M403 -18c-106 0 -194.503 35.002 -265.503 105.002s-106.5 157.333 -106.5 262c0 105.333 35.5 193.166 106.5 263.499s159.5 105.5 265.5 105.5c92 0 170.5 -27.667 235.5 -83s104.5 -127.333 118.5 -216h-195c-8 24 -19.667 44.833 -35 62.5s-33.666 31.5 -54.999 41.5
s-44 15 -68 15c-50 0 -91.167 -17.833 -123.5 -53.5s-48.5 -80.834 -48.5 -135.501c0 -35.333 7.33301 -67.166 22 -95.499s35.167 -50.5 61.5 -66.5s55.833 -24 88.5 -24c25.333 0 48.833 5.33301 70.5 16s40 25.667 55 45s25.833 41.666 32.5 66.999h197
c-13.333 -92 -52.666 -166.5 -117.999 -223.5s-144.666 -85.5 -237.999 -85.5z" />
    <glyph glyph-name="uni0422" unicode="&#x422;" horiz-adv-x="611" 
d="M593 700v-174h-191v-526h-193v526h-190v174h574z" />
    <glyph glyph-name="uni0423" unicode="&#x423;" horiz-adv-x="662" 
d="M456 700l207.997 -0.000976562l-194 -470c-35.333 -85.333 -76.166 -145.666 -122.499 -180.999s-108.166 -53 -185.499 -53h-62v176h50c17.333 0 32.333 1.33301 45 4s23.834 7.16699 33.501 13.5s18.167 14.833 25.5 25.5l-254 485h221l133 -289z" />
    <glyph glyph-name="uni0424" unicode="&#x424;" horiz-adv-x="925" 
d="M894 350.5c0 -61.667 -13 -118.669 -39 -171.002s-64.833 -95.833 -116.5 -130.5s-111.834 -55 -180.501 -61v-102h-190v102c-68.667 6 -128.834 26.333 -180.501 61s-90.667 78 -117 130s-39.5 108.667 -39.5 170s13.167 118.333 39.5 171s65.333 96.334 117 131.001
s111.834 55 180.501 61v87h190v-87c68.667 -6 128.834 -26.167 180.501 -60.5s90.5 -77.666 116.5 -129.999s39 -109.333 39 -171zM224 349.998c0 -47.333 13.666 -89.167 40.999 -125.5s64.333 -58.166 111 -65.499v381c-31.333 -4.66699 -58.666 -16.5 -81.999 -35.5
s-40.833 -41.833 -52.5 -68.5s-17.5 -55.334 -17.5 -86.001zM549.999 158.997c46.667 7.33301 83.667 29.168 111 65.501s41 78 41 125s-13.667 88.667 -41 125s-64.333 58.166 -111 65.499v-381z" />
    <glyph glyph-name="uni0425" unicode="&#x425;" horiz-adv-x="664" 
d="M667 0h-219l-115 215l-116 -215h-219l210 364l-198 336h217l105 -198l106 198h215l-197 -339z" />
    <glyph glyph-name="uni0426" unicode="&#x426;" horiz-adv-x="749" 
d="M641 177h69v-303h-176v126h-466v700h194v-523h185v523h194v-523z" />
    <glyph glyph-name="uni0427" unicode="&#x427;" horiz-adv-x="674" 
d="M411 700l195 -0.00195312v-700h-195v219c-36 -10 -71 -15 -105 -15c-51.333 0 -96.833 10.5 -136.5 31.5s-71.5 53 -95.5 96s-36 93.833 -36 152.5v216h196v-212c0 -23.333 3.83301 -43.166 11.5 -59.499s18.667 -28.666 33 -36.999s31.5 -12.5 51.5 -12.5
c23.333 0 50.333 5.66699 81 17v304z" />
    <glyph glyph-name="uni0428" unicode="&#x428;" horiz-adv-x="989" 
d="M728 700h194v-700h-854v700h193v-523h142v523h183v-523h142v523z" />
    <glyph glyph-name="uni0429" unicode="&#x429;" horiz-adv-x="1030" 
d="M922 177h71v-303h-176v126h-749v700h193v-523h142v523h183v-523h142v523h194v-523z" />
    <glyph glyph-name="uni042A" unicode="&#x42a;" horiz-adv-x="755" 
d="M476 497c50 0 94.667 -10.501 134 -31.501s70 -50.333 92 -88s33 -80.5 33 -128.5c0 -73.333 -24.167 -133.166 -72.5 -179.499s-110.5 -69.5 -186.5 -69.5h-297v528h-159v172h348v-203h108zM452 165.999c26.667 0 48.167 7.66699 64.5 23s24.5 35.333 24.5 60
c0 24 -8.16699 43.667 -24.5 59s-37.833 23 -64.5 23h-84v-165h84z" />
    <glyph glyph-name="uni042B" unicode="&#x42b;" horiz-adv-x="950" 
d="M365 497c50 0 94.667 -10.501 134 -31.501s70 -50.333 92 -88s33 -80.5 33 -128.5c0 -73.333 -24.167 -133.166 -72.5 -179.499s-110.5 -69.5 -186.5 -69.5h-297v700h190v-203h107zM687 699.999h195v-700h-195v700zM341 165.999c26.667 0 48.167 7.66699 64.5 23
s24.5 35.333 24.5 60c0 16 -3.66699 30.167 -11 42.5s-17.833 22 -31.5 29s-29.167 10.5 -46.5 10.5h-83v-165h83z" />
    <glyph glyph-name="uni042C" unicode="&#x42c;" horiz-adv-x="644" 
d="M365 497c50 0 94.667 -10.501 134 -31.501s70 -50.333 92 -88s33 -80.5 33 -128.5c0 -73.333 -24.167 -133.166 -72.5 -179.499s-110.5 -69.5 -186.5 -69.5h-297v700h190v-203h107zM341 165.999c26.667 0 48.167 7.66699 64.5 23s24.5 35.333 24.5 60
c0 16 -3.66699 30.167 -11 42.5s-17.833 22 -31.5 29s-29.167 10.5 -46.5 10.5h-83v-165h83z" />
    <glyph glyph-name="uni042D" unicode="&#x42d;" horiz-adv-x="787" 
d="M386 718c106 0 194.17 -35.001 264.503 -105.001s105.5 -157.667 105.5 -263s-35 -193 -105 -263s-158.333 -105 -265 -105c-94.667 0 -175.334 28.5 -242.001 85.5s-106.334 131.167 -119.001 222.5h194c11.333 -39.333 31.833 -70.666 61.5 -93.999
s64.834 -35 105.501 -35c38.667 0 72.5 10.167 101.5 30.5s49.833 47.833 62.5 82.5h-226v152h226c-12.667 34.667 -33.5 62.167 -62.5 82.5s-62.833 30.5 -101.5 30.5s-72.5 -10.667 -101.5 -32s-49.5 -50.333 -61.5 -87h-196c10.667 59.333 32.667 111.5 66 156.5
s75.166 79.833 125.499 104.5s106.166 37 167.499 37z" />
    <glyph glyph-name="uni042E" unicode="&#x42e;" horiz-adv-x="1092" 
d="M686 718c109.333 0 199 -34 269 -102s105 -156.667 105 -266s-35.167 -198 -105.5 -266s-160.833 -102 -271.5 -102c-60 0 -114.833 11.5 -164.5 34.5s-91 55.667 -124 98s-55.167 91.5 -66.5 147.5h-67v-262h-193v700h193v-260h67c12 56 34.5 105 67.5 147
s74.333 74.333 124 97s105.167 34 166.5 34zM682 162c52.667 0 95.6689 17.5 129.002 52.5s50 80.167 50 135.5c0 36 -7.5 68.333 -22.5 97s-36.167 51 -63.5 67s-58.333 24 -93 24c-52.667 0 -95.834 -17.5 -129.501 -52.5s-50.5 -80.167 -50.5 -135.5
c0 -36.667 7.66699 -69.167 23 -97.5s36.666 -50.5 63.999 -66.5s58.333 -24 93 -24z" />
    <glyph glyph-name="uni042F" unicode="&#x42f;" horiz-adv-x="676" 
d="M297 700l312.002 -0.000976562v-700h-191v219h-65l-114 -219h-216l139 253c-38.667 19.333 -68.834 46.333 -90.501 81s-32.5 74.334 -32.5 119.001c0 47.333 11 89.833 33 127.5s52.667 67 92 88s83.666 31.5 132.999 31.5zM325.002 373.999h93v156h-93
c-25.333 0 -45.833 -7 -61.5 -21s-23.5 -32.667 -23.5 -56s7.83301 -42.333 23.5 -57s36.167 -22 61.5 -22z" />
    <glyph glyph-name="uni0430" unicode="&#x430;" horiz-adv-x="692" 
d="M495 541h138v-540h-143l-16 38c-46.667 -38 -101 -57 -163 -57c-54.667 0 -103.5 12.333 -146.5 37s-76.667 59 -101 103s-36.5 93.667 -36.5 149c0 83.333 26.667 151.833 80 205.5s121.333 80.5 204 80.5c62.667 0 117.667 -19.333 165 -58zM335.5 147
c35 0 63.834 11.667 86.501 35s34 52.666 34 87.999s-11.333 64.666 -34 87.999s-51.334 35 -86.001 35c-35.333 0 -64.333 -11.667 -87 -35s-34 -52.666 -34 -87.999s11.333 -64.666 34 -87.999s51.5 -35 86.5 -35z" />
    <glyph glyph-name="uni0431" unicode="&#x431;" horiz-adv-x="662" 
d="M368 517c78.667 0 142.668 -24.1689 192.001 -72.502s74 -111.166 74 -188.499c0 -82.667 -27 -149 -81 -199s-125.333 -75 -214 -75c-94.667 0 -168.834 29.833 -222.501 89.5s-80.5 141.834 -80.5 246.501c0 77.333 11.333 144.333 34 201s57 103.167 103 139.5
s104 62.833 174 79.5l200 49v-173l-200 -49c-75.333 -18 -120.666 -52 -135.999 -102c47.333 36 99.666 54 156.999 54zM339.001 142.998c32.667 0 59.834 11 81.501 33s32.5 49.667 32.5 83s-10.833 61 -32.5 83s-48.834 33 -81.501 33s-59.834 -11 -81.501 -33
s-32.5 -49.667 -32.5 -83s10.833 -61 32.5 -83s48.834 -33 81.501 -33z" />
    <glyph glyph-name="uni0432" unicode="&#x432;" horiz-adv-x="579" 
d="M461 286c28 -10.667 49.834 -27.333 65.501 -50s23.5 -49.334 23.5 -80.001c0 -45.333 -16.333 -82.666 -49 -111.999s-75 -44 -127 -44h-315v540h311c48 0 87.167 -12.667 117.5 -38s45.5 -58 45.5 -98c0 -26 -6.33301 -49.167 -19 -69.5s-30.334 -36.5 -53.001 -48.5z
M363.001 377.001c0 13.333 -4.33301 24.167 -13 32.5s-20.667 12.5 -36 12.5h-82v-91h82c15.333 0 27.333 4.33301 36 13s13 19.667 13 33zM320.001 125.002c16 0 28.667 4.16699 38 12.5s14 20.166 14 35.499c0 14.667 -4.5 26.334 -13.5 35.001s-21.833 13 -38.5 13h-88
v-96h88z" />
    <glyph glyph-name="uni0433" unicode="&#x433;" horiz-adv-x="452" 
d="M437 540v-160h-196v-380h-182v540h378z" />
    <glyph glyph-name="uni0434" unicode="&#x434;" horiz-adv-x="682" 
d="M580 164h67.999v-290h-160v126h-310v-126h-159v290h60c17.333 18 30.333 51.5 39 100.5s19.334 140.833 32.001 275.5h430v-376zM306.999 384c-8.66699 -109.333 -24.333 -182.667 -47 -220h147v220h-100z" />
    <glyph glyph-name="uni0435" unicode="&#x435;" horiz-adv-x="641" 
d="M615 275c0 -15.333 -1.33496 -31.668 -4.00195 -49.001h-401c6 -30.667 18.5 -54 37.5 -70s43.167 -24 72.5 -24c14.667 0 28.334 2 41.001 6s23.834 9.83301 33.501 17.5s17.5 16.834 23.5 27.501h185c-18.667 -62 -53.5 -111 -104.5 -147s-110.5 -54 -178.5 -54
c-84 0 -153.833 27.5 -209.5 82.5s-83.5 123.5 -83.5 205.5c0 54.667 12.667 104 38 148s60.333 78.333 105 103s94.667 37 150 37c57.333 0 108.5 -12.5 153.5 -37.5s79.833 -59 104.5 -102s37 -90.833 37 -143.5zM319.998 411.998c-26.667 0 -49.167 -7.16699 -67.5 -21.5
s-31.5 -34.833 -39.5 -61.5h219c-16.667 55.333 -54 83 -112 83z" />
    <glyph glyph-name="uni0436" unicode="&#x436;" horiz-adv-x="861" 
d="M871 0h-210l-145 233v-233h-177v229l-138 -229h-209l181 281l-164 259h203l127 -213v213h177v-218l133 218h203l-166 -258z" />
    <glyph glyph-name="uni0437" unicode="&#x437;" horiz-adv-x="522" 
d="M416 288c52.667 -28 78.9971 -71.666 78.9971 -130.999c0 -52.667 -22.833 -95 -68.5 -127s-101.834 -48 -168.501 -48c-71.333 0 -129.166 17.667 -173.499 53s-67.166 84 -68.499 146h172c0.666992 -18 7 -32 19 -42s28 -15 48 -15c18 0 32.167 4.5 42.5 13.5
s15.5 20.5 15.5 34.5c0 9.33301 -2.33301 17.666 -7 24.999s-11.667 13.166 -21 17.499s-20.666 6.5 -33.999 6.5h-58v117h58c18 0 31.667 4 41 12s14 18.5 14 31.5s-4.66699 23.5 -14 31.5s-22.666 12 -39.999 12c-16 0 -29 -4.16699 -39 -12.5s-16 -20.166 -18 -35.499
h-168c2.66699 55.333 25.5 99.333 68.5 132s96.833 49 161.5 49c62 0 114.333 -15.167 157 -45.5s64 -69.5 64 -117.5c0 -44 -20.667 -79.667 -62 -107z" />
    <glyph glyph-name="uni0438" unicode="&#x438;" horiz-adv-x="623" 
d="M457 540h107v-540h-179v242l-217 -242h-109v540h179v-240z" />
    <glyph glyph-name="uni0439" unicode="&#x439;" horiz-adv-x="623" 
d="M465 735v-120h-287v120h287zM457 540h107v-540h-179v242l-217 -242h-109v540h179v-240z" />
    <glyph glyph-name="uni043A" unicode="&#x43a;" horiz-adv-x="589" 
d="M599 0h-219l-135 229v-229h-186v540h186v-212l129 212h208l-169 -258z" />
    <glyph glyph-name="uni043B" unicode="&#x43b;" horiz-adv-x="638" 
d="M158 540h421.001v-540h-183v384h-84l-15 -153c-8.66699 -81.333 -31.834 -140.5 -69.501 -177.5s-91.5 -55.5 -161.5 -55.5h-49v153h24c25.333 0 44.5 6.66699 57.5 20s21.167 35 24.5 65z" />
    <glyph glyph-name="uni043C" unicode="&#x43c;" horiz-adv-x="811" 
d="M787 0h-176l-39 275l-143 -277h-47l-143 278l-40 -276h-175l83 540h164l135 -273l137 273h158z" />
    <glyph glyph-name="uni043D" unicode="&#x43d;" horiz-adv-x="636" 
d="M392 540h185v-540h-185v190h-148v-190h-185v540h185v-186h148v186z" />
    <glyph glyph-name="uni043E" unicode="&#x43e;" horiz-adv-x="660" 
d="M330 -18c-88 0 -160.501 27.166 -217.501 81.499s-85.5 123.166 -85.5 206.499c0 84 28.5 153 85.5 207s129.5 81 217.5 81s160.5 -27.167 217.5 -81.5s85.5 -123.166 85.5 -206.499s-28.667 -152.166 -86 -206.499s-129.666 -81.5 -216.999 -81.5zM329.999 148.999
c34 0 61.834 11.3311 83.501 33.998s32.5 51.667 32.5 87s-10.833 64.333 -32.5 87s-49.5 34 -83.5 34c-22.667 0 -42.834 -5.16699 -60.501 -15.5s-31.5 -24.666 -41.5 -42.999s-15 -39.166 -15 -62.499c0 -35.333 11 -64.333 33 -87s50 -34 84 -34z" />
    <glyph glyph-name="uni043F" unicode="&#x43f;" horiz-adv-x="636" 
d="M59 540h518v-540h-185v380h-148v-380h-185v540z" />
    <glyph glyph-name="uni0440" unicode="&#x440;" horiz-adv-x="684" 
d="M374 558c82.667 0 150.5 -27 203.5 -81s79.5 -123 79.5 -207s-26.5 -153 -79.5 -207s-120.833 -81 -203.5 -81c-48 0 -92 12 -132 36v-213h-183v735h126l23 -43c46.667 40.667 102 61 166 61zM349 146c34.667 0 63.499 11.833 86.499 35.5s34.5 53.167 34.5 88.5
s-11.5 64.833 -34.5 88.5s-51.833 35.5 -86.5 35.5s-63.5 -11.833 -86.5 -35.5s-34.5 -53.167 -34.5 -88.5c0 -23.333 5.16699 -44.5 15.5 -63.5s24.833 -33.833 43.5 -44.5s39.334 -16 62.001 -16z" />
    </font>
</defs>
</svg>
