<svg width="200" height="44" viewBox="0 0 200 44" fill="none" xmlns="http://www.w3.org/2000/svg">
<path d="M15.4836 0C6.9545 0 0 7.04078 0 15.75C0 28.063 15.418 42.0444 15.418 42.0444C15.418 42.0444 31 28.063 31 15.75C31 7.04078 24.0455 0 15.4836 0ZM15.5492 27.9963C8.56191 27.9963 3.41164 22.8909 3.41164 15.8167C3.41164 8.74257 8.4963 3.63718 15.5164 3.63718C21.4868 3.63718 26.3746 7.4412 27.3587 12.8135H20.7651C19.945 10.8782 17.9111 9.61016 15.582 9.61016C12.1376 9.61016 9.84127 12.1462 9.84127 15.8501C9.84127 19.554 12.1048 22.0233 15.5492 22.0233C17.9439 22.0233 20.0106 20.8554 20.7323 19.0535H15.0571V15.0159H27.5556C27.5884 22.6239 22.7005 27.9963 15.5492 27.9963Z" fill="#FF6900"/>
<path d="M52 17.9092C52 18.4316 51.9673 18.954 51.8692 19.509H38.9191C39.3115 21.5007 40.5869 22.5455 42.4836 22.5455C43.8898 22.5455 45.0671 21.9251 45.6558 20.913H51.6403C50.3976 24.8962 46.8657 27.3776 42.4836 27.3776C37.0224 27.3776 33 23.3943 33 18.0725C33 12.7179 37.0224 8.8 42.4836 8.8C48.1084 8.76735 52 12.7832 52 17.9092ZM39.0172 16.1788H46.0809C45.5577 14.4484 44.2823 13.5015 42.4836 13.5015C40.7177 13.5015 39.5077 14.4484 39.0172 16.1788Z" fill="#FF6900"/>
<path d="M67 21.1526V26.4H62.7157C58.7349 26.4 56.306 24.0534 56.306 20.1748V13.6237H53V12.2222L61.0964 3.91113H62.3783V8.99558H66.8988V13.6237H62.5133V19.1645C62.5133 20.403 63.2892 21.1526 64.6048 21.1526H67Z" fill="#FF6900"/>
<path d="M97 16.062V27.3776H90.9415V16.8389C90.9415 14.9474 90.25 14.0354 88.9659 14.0354C87.2866 14.0354 86.4305 15.2176 86.4305 17.4807V27.3776H80.5366V16.8389C80.5366 15.0149 79.878 14.0354 78.5939 14.0354C76.9476 14.0354 76.0585 15.2514 76.0585 17.4807V27.3776H70V9.34025H74.2476L75.1037 11.2656C76.3878 9.74558 78.2317 8.7998 80.2402 8.7998C82.3805 8.7998 84.1915 9.77936 85.2781 11.4682C86.5293 9.84692 88.5049 8.7998 90.6781 8.7998C94.4976 8.7998 97 11.806 97 16.062Z" fill="#FF6900"/>
<path d="M119 9.29042V26.7888H114.259L113.725 25.546C112.255 26.6907 110.419 27.3776 108.349 27.3776C102.907 27.3776 99 23.4854 99 18.056C99 12.6266 102.907 8.7998 108.349 8.7998C110.452 8.7998 112.322 9.48666 113.791 10.6641L114.426 9.32312L119 9.29042ZM113.157 18.056C113.157 15.7992 111.454 14.0657 109.15 14.0657C106.846 14.0657 105.144 15.7665 105.144 18.056C105.144 20.3455 106.846 22.0463 109.15 22.0463C111.454 22.0463 113.157 20.3455 113.157 18.056Z" fill="#FF6900"/>
<path d="M140 16.386V27.3776H134.076V17.2289C134.076 15.1385 133.335 14.0933 131.822 14.0933C129.987 14.0933 128.924 15.4419 128.924 17.7347V27.3439H123V9.33927H127.153L127.958 11.1937C129.246 9.71015 131.146 8.7998 133.367 8.7998C137.36 8.7998 140 11.7669 140 16.386Z" fill="#FF6900"/>
<path d="M152.631 27.3776C147.048 27.3776 143 23.4596 143 18.0397C143 12.6525 147.015 8.7998 152.663 8.7998C157.56 8.7998 161.249 11.9015 161.902 16.5378H156.058C155.569 15.1012 154.23 14.187 152.663 14.187C150.541 14.187 149.04 15.7869 149.04 18.0724C149.04 20.3579 150.574 21.9904 152.663 21.9904C154.263 21.9904 155.569 21.0109 156.091 19.4437H162C161.282 24.1779 157.56 27.3776 152.631 27.3776Z" fill="#FF6900"/>
<path d="M184 9.29042V26.7888H179.259L178.725 25.546C177.255 26.6907 175.419 27.3776 173.349 27.3776C167.907 27.3776 164 23.4854 164 18.056C164 12.6266 167.907 8.7998 173.349 8.7998C175.452 8.7998 177.322 9.48666 178.791 10.6641L179.426 9.32312L184 9.29042ZM178.124 18.056C178.124 15.7992 176.421 14.0657 174.117 14.0657C171.813 14.0657 170.11 15.7665 170.11 18.056C170.11 20.3455 171.813 22.0463 174.117 22.0463C176.421 22.0463 178.124 20.3455 178.124 18.056Z" fill="#FF6900"/>
<path d="M200 8.7998V14.3284H197.545C195.297 14.3284 194.363 15.2771 194.363 17.5017V26.3998H188V8.89795H192.254L193.256 10.8281C194.571 9.38865 196.161 8.7998 198.34 8.7998H200V8.7998Z" fill="#FF6900"/>
<path d="M67 32.3526H64.1045V41.0668H62.8955V32.3526H60V31.2891H67V32.3526Z" fill="white"/>
<path d="M68 42.0444V34.2222H70.764C71.7079 34.2222 72.4494 34.4075 72.9551 34.7783C73.4607 35.149 73.7303 35.668 73.7303 36.3724C73.7303 36.7431 73.6292 37.0767 73.427 37.3362C73.2247 37.5957 72.9213 37.8552 72.5506 38.0035C72.9888 38.1147 73.3258 38.3372 73.5955 38.6708C73.8652 39.0045 74 39.3752 74 39.8201C74 40.5244 73.764 41.0805 73.2921 41.4883C72.8202 41.8961 72.1461 42.0444 71.2697 42.0444H68V42.0444ZM69.2135 37.5216H70.7978C71.9438 37.5216 72.5169 37.1509 72.5169 36.4094C72.5169 35.668 71.9775 35.2973 70.8989 35.2602H69.2472V37.5216H69.2135ZM69.2135 38.5967V40.9693H71.236C71.7416 40.9693 72.1124 40.8581 72.382 40.6727C72.618 40.4503 72.7528 40.1908 72.7528 39.783C72.7528 39.0045 72.2472 38.5967 71.2022 38.5967H69.2135Z" fill="white"/>
<path d="M75 38.044C75 37.2939 75.1244 36.651 75.3731 36.0438C75.6218 35.4366 75.9637 35.008 76.4301 34.6865C76.8964 34.365 77.3938 34.2222 77.9845 34.2222C78.886 34.2222 79.601 34.5793 80.1606 35.2937C80.7202 36.0081 81 36.9367 81 38.1154V38.2226C81 38.9727 80.8756 39.6156 80.6269 40.1871C80.3782 40.7585 80.0363 41.2229 79.5699 41.5443C79.1036 41.8658 78.6062 42.0444 78.0155 42.0444C77.114 42.0444 76.399 41.6872 75.8394 40.9729C75.2798 40.2585 75 39.3298 75 38.1511V38.044ZM76.1503 38.2226C76.1503 39.0441 76.3057 39.7227 76.6477 40.2228C76.9896 40.7228 77.4249 40.9729 78.0155 40.9729C78.5751 40.9729 79.0415 40.7228 79.3834 40.1871C79.7254 39.687 79.8808 38.9369 79.8808 38.044C79.8808 37.2225 79.6943 36.5438 79.3523 36.0438C79.0104 35.5437 78.544 35.258 77.9845 35.258C77.4249 35.258 76.9896 35.508 76.6477 36.0081C76.3057 36.5081 76.1503 37.2582 76.1503 38.2226Z" fill="white"/>
<path d="M86.1844 40.9729C86.6201 40.9729 86.9888 40.83 87.324 40.5442C87.6592 40.2585 87.8268 39.9013 87.8603 39.5084H89C88.9665 39.937 88.8324 40.3656 88.5642 40.7585C88.2961 41.1514 87.9609 41.4729 87.5251 41.6872C87.0894 41.9015 86.6536 42.0444 86.1508 42.0444C85.1788 42.0444 84.4078 41.6872 83.838 41.0086C83.2682 40.3299 83 39.3655 83 38.1869V37.9725C83 37.2225 83.1341 36.5795 83.3687 36.0081C83.6034 35.4366 83.9721 35.008 84.4749 34.6865C84.9777 34.365 85.514 34.2222 86.1508 34.2222C86.9553 34.2222 87.5922 34.4722 88.1285 34.9722C88.6648 35.4723 88.933 36.1509 88.9665 36.9367H87.8603C87.8268 36.4367 87.6592 36.0438 87.324 35.7223C87.0223 35.4009 86.6201 35.258 86.1844 35.258C85.6145 35.258 85.1788 35.4723 84.8436 35.8652C84.5084 36.2938 84.3073 36.8653 84.2737 37.5797H86.9218V38.6512H84.2737C84.3073 39.4013 84.5084 39.9728 84.8436 40.3656C85.1788 40.7585 85.6145 40.9729 86.1844 40.9729Z" fill="white"/>
<path d="M97.6896 41.9015C97.6207 41.7586 97.5517 41.4729 97.5172 41.1157C96.931 41.7229 96.2414 42.0444 95.4483 42.0444C94.7241 42.0444 94.1379 41.8301 93.6897 41.4015C93.2414 40.9729 93 40.4371 93 39.7942C93 39.0084 93.2759 38.4012 93.8621 37.9725C94.4483 37.5439 95.2414 37.3296 96.3103 37.3296H97.5172V36.7224C97.5172 36.2581 97.3793 35.9009 97.1379 35.6509C96.8621 35.4009 96.4828 35.258 96 35.258C95.5517 35.258 95.1724 35.3651 94.8966 35.6152C94.5862 35.8652 94.4483 36.1152 94.4483 36.4724H93.2069C93.2069 36.0795 93.3448 35.7223 93.5862 35.3651C93.8276 35.008 94.2069 34.7222 94.6207 34.5436C95.069 34.3293 95.5517 34.2222 96.069 34.2222C96.8966 34.2222 97.5517 34.4365 98.0345 34.8651C98.5172 35.2937 98.7586 35.9009 98.7586 36.651V40.1156C98.7586 40.7943 98.8276 41.3657 99 41.7586V41.8658H97.6896V41.9015ZM95.6207 40.9014C96 40.9014 96.3793 40.7943 96.7241 40.58C97.069 40.3656 97.3448 40.1156 97.4828 39.7584V38.2226H96.5172C95 38.2226 94.2414 38.6869 94.2414 39.6156C94.2414 40.0085 94.3793 40.3299 94.6207 40.58C94.8621 40.7943 95.2069 40.9014 95.6207 40.9014Z" fill="white"/>
<path d="M101 41.0666V34.2222H103.764C104.708 34.2222 105.449 34.3844 105.955 34.7087C106.461 35.0331 106.73 35.4873 106.73 36.1036C106.73 36.428 106.629 36.7199 106.427 36.947C106.225 37.174 105.921 37.4011 105.551 37.5309C105.989 37.6282 106.326 37.8228 106.596 38.1147C106.865 38.4067 107 38.7311 107 39.1203C107 39.7366 106.764 40.2232 106.292 40.58C105.82 40.9369 105.146 41.0666 104.27 41.0666H101V41.0666ZM102.213 37.1092H103.798C104.944 37.1092 105.517 36.7848 105.517 36.136C105.517 35.4873 104.978 35.1629 103.899 35.1304H102.247V37.1092H102.213ZM102.213 38.0499V40.1259H104.236C104.742 40.1259 105.112 40.0286 105.382 39.8664C105.618 39.6718 105.753 39.4447 105.753 39.0879C105.753 38.4067 105.247 38.0499 104.202 38.0499H102.213Z" fill="white"/>
<path d="M114 35.1629H111.593V41.0666H110.373V35.1629H108V34.2222H114V35.1629V35.1629Z" fill="white"/>
<path d="M114 38.044C114 37.2939 114.124 36.651 114.373 36.0438C114.622 35.4366 114.964 35.008 115.43 34.6865C115.896 34.365 116.394 34.2222 116.984 34.2222C117.886 34.2222 118.601 34.5793 119.161 35.2937C119.72 36.0081 120 36.9367 120 38.1154V38.2226C120 38.9727 119.876 39.6156 119.627 40.1871C119.378 40.7585 119.036 41.2229 118.57 41.5443C118.104 41.8658 117.606 42.0444 117.016 42.0444C116.114 42.0444 115.399 41.6872 114.839 40.9729C114.28 40.2585 114 39.3298 114 38.1511V38.044ZM115.15 38.2226C115.15 39.0441 115.306 39.7227 115.648 40.2228C115.99 40.7228 116.425 40.9729 117.016 40.9729C117.575 40.9729 118.041 40.7228 118.383 40.1871C118.725 39.6513 118.881 38.9369 118.881 38.044C118.881 37.2225 118.725 36.5438 118.352 36.0438C117.979 35.5437 117.544 35.258 116.984 35.258C116.425 35.258 115.99 35.508 115.648 36.0081C115.306 36.5081 115.15 37.2582 115.15 38.2226Z" fill="white"/>
<path d="M125 42.0444V34.2222H127.764C128.708 34.2222 129.449 34.4075 129.955 34.7783C130.461 35.149 130.73 35.668 130.73 36.3724C130.73 36.7431 130.629 37.0767 130.427 37.3362C130.225 37.5957 129.921 37.8552 129.551 38.0035C129.989 38.1147 130.326 38.3372 130.596 38.6708C130.865 39.0045 131 39.3752 131 39.8201C131 40.5244 130.764 41.0805 130.292 41.4883C129.82 41.8961 129.146 42.0444 128.27 42.0444H125V42.0444ZM126.247 37.5216H127.831C128.978 37.5216 129.551 37.1509 129.551 36.4094C129.551 35.668 129.011 35.2973 127.933 35.2602H126.281V37.5216H126.247ZM126.247 38.5967V40.9693H128.27C128.775 40.9693 129.146 40.8581 129.416 40.6727C129.685 40.4874 129.787 40.1908 129.787 39.783C129.787 39.0045 129.281 38.5967 128.236 38.5967H126.247Z" fill="white"/>
<path d="M139.169 40.9729C139.607 40.9729 139.978 40.83 140.315 40.5442C140.652 40.2585 140.82 39.9013 140.854 39.5084H142C141.966 39.937 141.831 40.3656 141.596 40.7585C141.36 41.1514 140.989 41.4729 140.551 41.6872C140.112 41.9015 139.674 42.0444 139.169 42.0444C138.191 42.0444 137.416 41.6872 136.843 41.0086C136.27 40.3299 136 39.4013 136 38.1869V37.9725C136 37.2225 136.135 36.5795 136.371 36.0081C136.607 35.4366 136.978 35.008 137.483 34.6865C137.989 34.365 138.528 34.2222 139.169 34.2222C139.978 34.2222 140.618 34.4722 141.157 34.9722C141.697 35.4723 141.966 36.1509 142 36.9367H140.854C140.82 36.4367 140.652 36.0438 140.315 35.7223C139.978 35.4009 139.607 35.258 139.169 35.258C138.562 35.258 138.056 35.508 137.719 35.9723C137.382 36.4367 137.213 37.1153 137.213 38.0083V38.2583C137.213 39.1155 137.382 39.7942 137.719 40.2585C138.056 40.7228 138.562 40.9729 139.169 40.9729Z" fill="white"/>
<path d="M147.034 40.2649L149.475 34.2222H151V42.0444H149.78V36.3353L147.475 42.0444H146.593L144.22 36.2241V42.0444H143V34.2222H144.593L147.034 40.2649Z" fill="white"/>
<path d="M157.69 41.9015C157.621 41.7586 157.552 41.4729 157.517 41.1157C156.931 41.7229 156.241 42.0444 155.448 42.0444C154.724 42.0444 154.138 41.8301 153.69 41.4015C153.241 40.9729 153 40.4371 153 39.7942C153 39.0084 153.276 38.4012 153.862 37.9725C154.448 37.5439 155.241 37.3296 156.31 37.3296H157.517V36.7224C157.517 36.2581 157.379 35.9009 157.138 35.6509C156.897 35.4009 156.483 35.258 156 35.258C155.552 35.258 155.172 35.3651 154.897 35.6152C154.621 35.8652 154.448 36.1152 154.448 36.4724H153.207C153.207 36.0795 153.345 35.7223 153.586 35.3651C153.828 35.008 154.207 34.7222 154.621 34.5436C155.034 34.365 155.552 34.2222 156.069 34.2222C156.897 34.2222 157.552 34.4365 158.034 34.8651C158.517 35.2937 158.759 35.9009 158.759 36.651V40.1156C158.759 40.7943 158.828 41.3657 159 41.7586V41.8658H157.69V41.9015ZM155.621 40.9014C156 40.9014 156.379 40.7943 156.724 40.58C157.069 40.3656 157.345 40.1156 157.483 39.7584V38.2226H156.517C155 38.2226 154.241 38.6869 154.241 39.6156C154.241 40.0085 154.379 40.3299 154.621 40.58C154.862 40.83 155.207 40.9014 155.621 40.9014Z" fill="white"/>
<path d="M167 37.9094C167 38.9629 166.765 39.8189 166.263 40.4773C165.76 41.1357 165.089 41.432 164.251 41.432C163.38 41.432 162.709 41.1687 162.207 40.6419V43.9999H161V34.3539H162.106L162.173 35.1111C162.676 34.5185 163.346 34.2222 164.218 34.2222C165.056 34.2222 165.726 34.5514 166.229 35.1769C166.732 35.8024 166.966 36.6913 166.966 37.8106V37.9094H167ZM165.793 37.7448C165.793 36.9547 165.626 36.3292 165.29 35.9012C164.955 35.4732 164.486 35.2098 163.883 35.2098C163.145 35.2098 162.609 35.539 162.24 36.1646V39.4897C162.609 40.1152 163.145 40.4444 163.916 40.4444C164.486 40.4444 164.955 40.2139 165.29 39.753C165.626 39.2921 165.793 38.6666 165.793 37.7448Z" fill="white"/>
<path d="M173 35.1629H170.593V41.0666H169.373V35.1629H167V34.2222H173V35.1629Z" fill="white"/>
<path d="M173 37.8615C173 36.6938 173.223 35.7596 173.669 35.0924C174.116 34.4251 174.689 34.0915 175.454 34.0915C175.805 34.0915 176.124 34.1582 176.378 34.2917V31.2891H177.526V34.3584C177.813 34.1916 178.163 34.1249 178.546 34.1249C179.311 34.1249 179.916 34.4585 180.331 35.1257C180.745 35.793 181 36.7605 181 38.0283C181 39.0625 180.777 39.8966 180.363 40.4971C179.916 41.0976 179.343 41.4313 178.578 41.4313C178.163 41.4313 177.845 41.3645 177.558 41.2311V44.0002H176.41V41.2311C176.124 41.3645 175.837 41.4313 175.486 41.4313C174.721 41.4313 174.147 41.131 173.701 40.4971C173.255 39.8966 173.064 39.0625 173.064 37.9949V37.8615H173ZM174.147 37.9949C174.147 38.7956 174.275 39.3961 174.562 39.7965C174.817 40.1968 175.231 40.397 175.741 40.397C175.996 40.397 176.187 40.3637 176.41 40.2636V35.1591C176.251 35.0924 176.028 35.059 175.773 35.059C175.263 35.059 174.88 35.2926 174.594 35.7596C174.307 36.2267 174.147 36.9941 174.147 37.9949ZM179.853 37.8615C179.853 36.9607 179.693 36.2934 179.406 35.793C179.12 35.2926 178.705 35.059 178.195 35.059C177.94 35.059 177.717 35.0924 177.526 35.1925V40.2969C177.717 40.3637 177.94 40.397 178.227 40.397C178.737 40.397 179.151 40.1968 179.438 39.7631C179.725 39.3628 179.853 38.7289 179.853 37.8615Z" fill="white"/>
<path d="M183 37.5663C183 36.9099 183.145 36.3474 183.435 35.8161C183.725 35.2848 184.124 34.9097 184.668 34.6285C185.212 34.3472 185.793 34.2222 186.482 34.2222C187.534 34.2222 188.368 34.5347 189.021 35.1598C189.674 35.7848 190 36.5974 190 37.6288V37.7225C190 38.3788 189.855 38.9414 189.565 39.4414C189.275 39.9415 188.876 40.3478 188.332 40.6291C187.788 40.9103 187.207 41.0666 186.518 41.0666C185.466 41.0666 184.632 40.7541 183.979 40.129C183.326 39.504 183 38.6914 183 37.66V37.5663ZM184.306 37.7225C184.306 38.4413 184.487 39.0352 184.886 39.4727C185.285 39.9102 185.793 40.129 186.482 40.129C187.135 40.129 187.679 39.9102 188.078 39.4414C188.477 39.0039 188.658 38.3476 188.658 37.5663C188.658 36.8474 188.477 36.2536 188.041 35.8161C187.642 35.3785 187.098 35.1285 186.446 35.1285C185.793 35.1285 185.285 35.3473 184.886 35.7848C184.487 36.2224 184.306 36.8787 184.306 37.7225Z" fill="white"/>
<path d="M197 41.0666H195.722V38.1472H192.278V41.0666H191V34.2222H192.278V37.2065H195.722V34.2222H197V41.0666Z" fill="white"/>
<path d="M199 32.002C199 31.7983 199.048 31.6286 199.119 31.4928C199.214 31.357 199.333 31.2891 199.5 31.2891C199.667 31.2891 199.786 31.357 199.881 31.4928C199.976 31.6286 200 31.7983 200 32.002C200 32.2057 199.952 32.3755 199.881 32.5113C199.786 32.6471 199.667 32.715 199.5 32.715C199.333 32.715 199.214 32.6471 199.119 32.5113C199.048 32.3415 199 32.1718 199 32.002ZM199.929 41.0668H199.071V33.9033H199.929V41.0668Z" fill="white"/>
</svg>
