<svg width="200" height="44" viewBox="0 0 200 44" fill="none" xmlns="http://www.w3.org/2000/svg">
<path d="M15.7097 0C7.05604 0 0 7.33141 0 16.4001C0 29.2214 15.6431 43.78 15.6431 43.78C15.6431 43.78 31.4526 29.2214 31.4526 16.4001C31.4526 7.33141 24.3966 0 15.7097 0ZM15.7762 29.1519C8.68692 29.1519 3.46145 23.8358 3.46145 16.4696C3.46145 9.10346 8.62035 3.78732 15.743 3.78732C21.8005 3.78732 26.7597 7.74837 27.7582 13.3425H21.0683C20.2362 11.3272 18.1726 10.0069 15.8095 10.0069C12.3148 10.0069 9.98496 12.6476 9.98496 16.5044C9.98496 20.3612 12.2815 22.9324 15.7762 22.9324C18.2059 22.9324 20.3028 21.7163 21.035 19.84H15.277V15.6357H27.9579C27.9912 23.5578 23.032 29.1519 15.7762 29.1519Z" fill="#FF6900"/>
<path d="M52.2572 19.0381C52.2572 19.594 52.2239 20.15 52.124 20.7407H38.9439C39.3433 22.8602 40.6413 23.972 42.5717 23.972C44.0029 23.972 45.2011 23.3119 45.8002 22.2347H51.891C50.6263 26.4737 47.0317 29.1144 42.5717 29.1144C37.0135 29.1144 32.9196 24.8754 32.9196 19.2118C32.9196 13.5135 37.0135 9.34396 42.5717 9.34396C48.2965 9.30921 52.2572 13.583 52.2572 19.0381ZM39.0437 17.1966H46.2329C45.7004 15.355 44.4023 14.3474 42.5717 14.3474C40.7745 14.3474 39.543 15.355 39.0437 17.1966Z" fill="#FF6900"/>
<path d="M66.8 22.8938V28.4879H62.5731C58.6456 28.4879 56.2492 25.9862 56.2492 21.8515V14.8675H52.9875V13.3734L60.9755 4.51318H62.2402V9.93356H66.7002V14.8675H62.3734V20.7743C62.3734 22.0947 63.1389 22.8938 64.4369 22.8938H66.8Z" fill="#FF6900"/>
<path d="M96.957 16.8503V28.4902H90.8328V17.6494C90.8328 15.7037 90.1339 14.7655 88.8358 14.7655C87.1384 14.7655 86.273 15.9816 86.273 18.3096V28.4902H80.3153V17.6494C80.3153 15.7732 79.6497 14.7655 78.3516 14.7655C76.6875 14.7655 75.7888 16.0164 75.7888 18.3096V28.4902H69.6647V9.93582H73.9582L74.8236 11.9163C76.1217 10.3528 77.9855 9.37988 80.0158 9.37988C82.1792 9.37988 84.0098 10.3875 85.1081 12.1248C86.3729 10.457 88.3699 9.37988 90.5666 9.37988C94.4274 9.37988 96.957 12.4723 96.957 16.8503Z" fill="#FF6900"/>
<path d="M119.521 9.90107V28.4902H114.795L114.262 27.1699C112.798 28.386 110.967 29.1156 108.904 29.1156C103.478 29.1156 99.5844 24.9809 99.5844 19.213C99.5844 13.4452 103.478 9.37988 108.904 9.37988C111 9.37988 112.864 10.1095 114.329 11.3604L114.961 9.93582L119.521 9.90107ZM113.696 19.213C113.696 16.8155 111.999 14.974 109.702 14.974C107.406 14.974 105.708 16.7808 105.708 19.213C105.708 21.6452 107.406 23.452 109.702 23.452C111.999 23.452 113.696 21.6452 113.696 19.213Z" fill="#FF6900"/>
<path d="M140.991 17.1977V28.5249H134.867V18.0664C134.867 15.9121 134.101 14.835 132.537 14.835C130.64 14.835 129.541 16.2249 129.541 18.5876V28.4902H123.417V9.93582H127.711L128.543 11.8469C129.874 10.318 131.838 9.37988 134.134 9.37988C138.262 9.37988 140.991 12.4375 140.991 17.1977Z" fill="#FF6900"/>
<path d="M153.438 29.1147C147.747 29.1147 143.62 24.9452 143.62 19.1774C143.62 13.4443 147.714 9.34424 153.472 9.34424C158.464 9.34424 162.225 12.6451 162.891 17.579H156.933C156.434 16.0502 155.069 15.0773 153.472 15.0773C151.308 15.0773 149.777 16.7799 149.777 19.2121C149.777 21.6443 151.341 23.3816 153.472 23.3816C155.102 23.3816 156.434 22.3393 156.966 20.6714H162.991C162.258 25.7096 158.464 29.1147 153.438 29.1147Z" fill="#FF6900"/>
<path d="M184.555 9.90107V28.4902H179.829L179.296 27.1699C177.832 28.386 176.001 29.1156 173.938 29.1156C168.513 29.1156 164.619 24.9809 164.619 19.213C164.619 13.4452 168.513 9.37988 173.938 9.37988C176.035 9.37988 177.899 10.1095 179.363 11.3604L179.995 9.93582L184.555 9.90107ZM178.697 19.213C178.697 16.8155 177 14.974 174.703 14.974C172.407 14.974 170.709 16.7808 170.709 19.213C170.709 21.6452 172.407 23.452 174.703 23.452C177 23.452 178.697 21.6452 178.697 19.213Z" fill="#FF6900"/>
<path d="M200 9.8335V15.7056H197.637C195.473 15.7056 194.575 16.7132 194.575 19.0759V28.5269H188.451V9.93773H192.545L193.51 11.9877C194.775 10.4589 196.306 9.8335 198.402 9.8335H200Z" fill="#FF6900"/>
<path d="M46.4139 39.1861C46.4139 40.8832 45.6783 41.7317 44.2069 41.7317C42.4885 41.7317 41.6276 40.7978 41.6241 38.9299C41.6241 37.0798 42.4137 36.153 43.9929 36.1494C44.6643 36.153 45.1217 36.3842 45.3652 36.8432H45.4695V35.3009C45.4695 34.5431 45.2226 34.1641 44.7286 34.1641C44.2382 34.1641 43.9929 34.5377 43.9929 35.2849V35.461H43.1738V35.2742C43.1738 34.5342 42.8955 34.1641 42.3389 34.1641C42.0433 34.1641 41.8954 34.5662 41.8954 35.3703H41.0867C41.0867 34.0752 41.4693 33.4277 42.2346 33.4277C42.8816 33.4277 43.3147 33.771 43.5338 34.4577H43.6381C43.8399 33.771 44.2399 33.4277 44.8382 33.4277C45.8887 33.4277 46.4105 33.9969 46.4035 35.1354L46.4139 39.1861ZM45.4435 38.9833C45.44 37.5993 44.953 36.9073 43.9825 36.9073C43.0607 36.9073 42.6016 37.5815 42.605 38.9299C42.6016 40.2819 43.1425 40.9579 44.2277 40.9579C45.0347 40.9579 45.44 40.2997 45.4435 38.9833ZM52.7405 41.9025C52.737 43.3007 51.9717 43.9998 50.4447 43.9998C48.7924 43.9998 47.9663 43.2847 47.9663 41.8545C47.9663 41.3457 48.2115 40.9027 48.702 40.5256H49.6829C49.182 40.9348 48.9316 41.3759 48.9316 41.8491C48.9316 42.7777 49.4394 43.242 50.4551 43.242C51.3665 43.242 51.8221 42.8133 51.8221 41.9559V38.3482C51.8221 37.3911 51.4099 36.9126 50.5856 36.9126C49.7612 36.9126 49.349 37.3075 49.349 38.0974C49.349 38.4923 49.4568 38.8694 49.6725 39.2288L48.7542 39.2341C48.5594 38.9673 48.462 38.5972 48.462 38.124C48.462 36.8076 49.1681 36.1512 50.5803 36.1548C52.017 36.1548 52.737 36.8877 52.7405 38.3535V41.9025ZM59.067 38.8072C59.0705 40.7569 58.2687 41.7317 56.6616 41.7317C55.0825 41.7317 54.2929 40.86 54.2929 39.1167V35.4129C54.2894 34.1784 54.8668 33.5611 56.0251 33.5611H58.4357V34.3242H55.9207C55.4303 34.3242 55.185 34.6373 55.185 35.2635V36.8325H55.3677C55.5903 36.3771 56.0216 36.1494 56.6616 36.1494C58.2653 36.153 59.067 37.0389 59.067 38.8072ZM58.1018 38.8232C58.1018 37.5459 57.6182 36.9073 56.6512 36.9073C55.7017 36.9073 55.2268 37.5815 55.2268 38.9299C55.2268 40.2819 55.7017 40.9561 56.6512 40.9526C57.6182 40.9561 58.1018 40.2463 58.1018 38.8232ZM65.3987 38.8125C65.3987 40.0471 64.9814 41.0201 64.1465 41.7317H63.3847C64.0839 40.8067 64.4318 39.8336 64.4283 38.8125C64.4283 37.5494 63.9761 36.9179 63.0716 36.9179C62.0908 36.9179 61.6003 37.5441 61.6003 38.7965C61.6003 39.7998 61.9447 40.7782 62.6334 41.7317H61.8611C61.0333 40.9952 60.6229 40.0115 60.6298 38.7805C60.6229 37.03 61.4298 36.1548 63.0509 36.1548C64.6196 36.1548 65.4022 37.0407 65.3987 38.8125ZM78.0675 39.09C78.064 40.8512 77.257 41.7317 75.6465 41.7317C74.0777 41.7317 73.2933 40.9187 73.2933 39.2928C73.2933 38.9192 73.4325 38.5581 73.7107 38.2094H74.7021C74.4065 38.5617 74.2586 38.8925 74.2586 39.2021C74.2586 40.3726 74.7299 40.9579 75.6725 40.9579C76.6222 40.9579 77.097 40.3619 77.097 39.1701C77.097 38.4087 76.7683 37.8963 76.1108 37.6331C75.0951 37.2702 74.5838 36.5977 74.5769 35.6158H75.5213C75.5248 36.1886 75.7456 36.5657 76.1839 36.7472C77.4397 37.2097 78.0675 37.9906 78.0675 39.09ZM84.394 41.9719C84.394 43.3239 83.594 43.9998 81.9939 43.9998C80.4147 43.9998 79.6216 43.274 79.6146 41.8224C79.6216 41.4916 79.8076 41.1322 80.1729 40.7444H81.1747C80.7851 41.1714 80.5903 41.5307 80.5903 41.8224C80.5903 42.7689 81.0582 43.242 81.9939 43.242C82.9539 43.242 83.434 42.8454 83.434 42.0519V41.5289C83.434 40.6644 83.0217 40.2321 82.1974 40.2321H81.8165V39.4849H82.1974C82.9835 39.4885 83.3784 39.0633 83.3818 38.2094C83.3818 37.3449 82.9905 36.9126 82.2078 36.9126C81.3035 36.9126 80.8495 37.2719 80.846 37.9906C80.8495 38.3037 80.9295 38.6737 81.0861 39.1007H80.246C80.0373 38.8089 79.9329 38.4389 79.9329 37.9906C79.9329 36.7667 80.686 36.1548 82.1921 36.1548C83.6323 36.1548 84.3523 36.8468 84.3523 38.2308C84.3523 38.9744 83.954 39.5098 83.1574 39.8372V39.9439C83.9818 40.0969 84.394 40.6323 84.394 41.5503V41.9719ZM85.3568 40.184C85.3568 37.9462 86.2368 36.6813 87.9969 36.3896L87.9187 35.018H88.7848L88.7065 36.4109C90.4492 36.6885 91.3206 37.9568 91.3206 40.2161C91.3136 42.7315 90.3258 43.9892 88.357 43.9892C86.3569 43.9892 85.3568 42.7208 85.3568 40.184ZM86.3377 40.184C86.3377 42.2227 87.0039 43.242 88.3361 43.242C89.6927 43.242 90.3709 42.2227 90.3709 40.184C90.3709 38.4514 89.8162 37.3876 88.7065 36.9926L88.7848 39.8692H87.9239L87.9969 36.998C86.8908 37.3893 86.3377 38.4514 86.3377 40.184ZM97.6002 39.3088C97.6002 40.1485 97.2732 40.9561 96.6192 41.7317H95.6853C96.3079 41.0486 96.6192 40.3388 96.6192 39.6023V38.1027C96.6192 37.3378 96.3531 36.9571 95.8209 36.9606H95.4296C95.2069 36.9606 95.0957 37.3289 95.0957 38.0653V39.5436H94.2609V38.0653C94.2609 37.3289 94.146 36.9606 93.9165 36.9606H93.5147C92.9999 36.9606 92.7425 37.3662 92.7425 38.1774V39.565C92.7355 40.3264 93.0851 41.0486 93.7913 41.7317H92.779C92.0868 40.9312 91.7407 40.1111 91.7407 39.2715V38.7271C91.7407 37.0478 92.3999 36.2081 93.7182 36.2081C94.08 36.2081 94.3878 36.3932 94.6418 36.7632H94.7305C94.9739 36.3932 95.2626 36.2081 95.5966 36.2081C96.9323 36.2081 97.6002 37.0514 97.6002 38.7378V39.3088ZM103.4 39.09C103.4 40.8512 102.629 41.7317 101.088 41.7317C99.436 41.7317 98.6099 40.7978 98.6099 38.9299C98.6099 37.0763 99.4082 36.1494 101.005 36.1494C101.687 36.1494 102.146 36.3718 102.382 36.8165H102.487V35.4396C102.487 34.5964 101.993 34.1748 101.005 34.1748C100.198 34.1784 99.7943 34.4506 99.7943 34.9913V35.3222H98.8186V34.9913C98.8186 33.9453 99.5473 33.4223 101.005 33.4223C102.601 33.4223 103.4 34.0948 103.4 35.4396V39.09ZM102.419 39.09C102.419 37.642 101.947 36.9179 101.005 36.9179C100.062 36.9179 99.5908 37.585 99.5908 38.9192C99.5873 40.2783 100.083 40.9579 101.078 40.9579C101.972 40.9579 102.419 40.3353 102.419 39.09ZM110.264 39.3088C110.264 40.1485 109.937 40.9561 109.283 41.7317H108.349C108.971 41.0486 109.283 40.3388 109.283 39.6023V38.1027C109.283 37.3378 109.017 36.9571 108.484 36.9606H108.093C107.87 36.9606 107.759 37.3289 107.759 38.0653V39.5436H106.924V38.0653C106.924 37.3289 106.81 36.9606 106.58 36.9606H106.178C105.663 36.9606 105.406 37.3662 105.406 38.1774V39.565C105.399 40.3264 105.749 41.0486 106.455 41.7317H105.443C104.75 40.9312 104.404 40.1111 104.404 39.2715V38.7271C104.404 37.0478 105.063 36.2081 106.382 36.2081C106.743 36.2081 107.051 36.3932 107.305 36.7632H107.394C107.637 36.3932 107.926 36.2081 108.26 36.2081C109.596 36.2081 110.264 37.0514 110.264 38.7378V39.3088ZM116.063 38.8285C116.063 40.764 115.277 41.7317 113.705 41.7317C112.094 41.7317 111.284 40.7622 111.273 38.8232C111.284 37.304 111.962 36.3949 113.308 36.0961V35.3596C113.312 34.9326 113.03 34.6694 112.463 34.5697C111.973 34.4737 111.727 34.0894 111.727 33.417H112.672C112.672 33.7336 112.891 33.94 113.329 34.0361C113.889 34.2389 114.169 34.6694 114.169 35.3276V36.0961C115.432 36.5159 116.063 37.4267 116.063 38.8285ZM115.082 38.8232C115.086 37.5032 114.613 36.8432 113.663 36.8432C112.72 36.8539 112.249 37.505 112.249 38.7965C112.249 40.2374 112.733 40.9579 113.7 40.9579C114.621 40.9579 115.082 40.2463 115.082 38.8232ZM122.385 38.8125C122.385 40.0471 121.967 41.0201 121.132 41.7317H120.371C121.07 40.8067 121.418 39.8336 121.414 38.8125C121.414 37.5494 120.962 36.9179 120.057 36.9179C119.076 36.9179 118.586 37.5441 118.586 38.7965C118.586 39.7998 118.93 40.7782 119.619 41.7317H118.847C118.019 40.9952 117.609 40.0115 117.616 38.7805C117.609 37.03 118.416 36.1548 120.037 36.1548C121.605 36.1548 122.388 37.0407 122.385 38.8125ZM126.348 36.9073C125.391 36.9073 124.913 37.4819 124.913 38.631C124.913 40.136 125.44 41.2994 126.494 42.1213C127.551 42.9467 128.08 43.5729 128.08 43.9998H127.088C126.963 43.3737 126.61 42.9894 126.029 42.8472C125.452 42.7084 125 42.824 124.673 43.194L124.271 42.687C124.487 42.3632 124.789 42.1782 125.179 42.132L125.247 42.0573C124.38 41.1287 123.947 39.9777 123.947 38.6044C123.947 36.9713 124.747 36.1548 126.348 36.1548C127.927 36.1548 128.716 36.9926 128.716 38.6684C128.716 39.0277 128.614 39.3693 128.408 39.6931C128.203 40.0133 128.135 40.4509 128.205 41.0059L127.375 41.0113C127.306 40.4527 127.351 40.0239 127.511 39.7251C127.671 39.4262 127.751 39.0687 127.751 38.6524C127.751 37.489 127.283 36.9073 126.348 36.9073ZM135.048 38.8125C135.048 40.0471 134.631 41.0201 133.796 41.7317H133.034C133.733 40.8067 134.081 39.8336 134.078 38.8125C134.078 37.5494 133.625 36.9179 132.721 36.9179C131.74 36.9179 131.25 37.5441 131.25 38.7965C131.25 39.7998 131.594 40.7782 132.283 41.7317H131.51C130.683 40.9952 130.272 40.0115 130.279 38.7805C130.272 37.03 131.079 36.1548 132.7 36.1548C134.269 36.1548 135.052 37.0407 135.048 38.8125ZM142.343 40.184C142.343 37.9462 143.222 36.6813 144.982 36.3896L144.905 35.018H145.77L145.692 36.4109C147.435 36.6885 148.307 37.9568 148.307 40.2161C148.3 42.7315 147.312 43.9892 145.343 43.9892C143.343 43.9892 142.343 42.7208 142.343 40.184ZM143.323 40.184C143.323 42.2227 143.99 43.242 145.321 43.242C146.678 43.242 147.357 42.2227 147.357 40.184C147.357 38.4514 146.802 37.3876 145.692 36.9926L145.77 39.8692H144.91L144.982 36.998C143.877 37.3893 143.323 38.4514 143.323 40.184ZM154.049 41.9025C154.045 43.3007 153.279 43.9998 151.752 43.9998C150.101 43.9998 149.274 43.2847 149.274 41.8545C149.274 41.3457 149.52 40.9027 150.011 40.5256H150.991C150.49 40.9348 150.24 41.3759 150.24 41.8491C150.24 42.7777 150.748 43.242 151.763 43.242C152.674 43.242 153.13 42.8133 153.13 41.9559V38.3482C153.13 37.3911 152.718 36.9126 151.893 36.9126C151.069 36.9126 150.657 37.3075 150.657 38.0974C150.657 38.4923 150.765 38.8694 150.981 39.2288L150.062 39.2341C149.868 38.9673 149.77 38.5972 149.77 38.124C149.77 36.8076 150.476 36.1512 151.888 36.1548C153.325 36.1548 154.045 36.8877 154.049 38.3535V41.9025ZM158.006 36.9073C157.05 36.9073 156.572 37.4819 156.572 38.631C156.572 40.136 157.098 41.2994 158.152 42.1213C159.21 42.9467 159.738 43.5729 159.738 43.9998H158.748C158.622 43.3737 158.269 42.9894 157.688 42.8472C157.111 42.7084 156.658 42.824 156.332 43.194L155.929 42.687C156.145 42.3632 156.448 42.1782 156.838 42.132L156.906 42.0573C156.039 41.1287 155.606 39.9777 155.606 38.6044C155.606 36.9713 156.406 36.1548 158.006 36.1548C159.585 36.1548 160.375 36.9926 160.375 38.6684C160.375 39.0277 160.273 39.3693 160.067 39.6931C159.862 40.0133 159.794 40.4509 159.864 41.0059L159.034 41.0113C158.964 40.4527 159.01 40.0239 159.17 39.7251C159.329 39.4262 159.41 39.0687 159.41 38.6524C159.41 37.489 158.942 36.9073 158.006 36.9073ZM166.712 41.9025C166.709 43.3007 165.943 43.9998 164.416 43.9998C162.764 43.9998 161.938 43.2847 161.938 41.8545C161.938 41.3457 162.183 40.9027 162.673 40.5256H163.654C163.154 40.9348 162.903 41.3759 162.903 41.8491C162.903 42.7777 163.411 43.242 164.427 43.242C165.338 43.242 165.793 42.8133 165.793 41.9559V38.3482C165.793 37.3911 165.382 36.9126 164.557 36.9126C163.733 36.9126 163.32 37.3075 163.32 38.0974C163.32 38.4923 163.428 38.8694 163.644 39.2288L162.726 39.2341C162.531 38.9673 162.433 38.5972 162.433 38.124C162.433 36.8076 163.139 36.1512 164.552 36.1548C165.989 36.1548 166.709 36.8877 166.712 38.3535V41.9025ZM173.597 42.0573C173.597 43.3523 172.797 43.9998 171.197 43.9998H170.904C169.409 43.9998 168.661 43.3079 168.661 41.9238H169.616C169.616 42.8026 170.049 43.242 170.915 43.242H171.161C172.127 43.242 172.611 42.8472 172.611 42.0573V41.5183C172.611 40.9276 172.512 40.6288 172.314 40.6217H171.896V39.8158H172.314C172.501 39.8123 172.595 39.5472 172.595 39.0206V38.0493C172.595 37.3235 172.422 36.9606 172.073 36.9606H171.641C171.435 36.9606 171.333 37.1794 171.333 37.6171V38.6951C171.333 40.4029 170.772 41.2567 169.652 41.2567C168.365 41.2603 167.722 40.5345 167.722 39.0793V38.3962C167.722 36.9375 168.374 36.2081 169.678 36.2081C170.158 36.2081 170.515 36.3842 170.748 36.7365H170.837C171.17 36.3842 171.579 36.2081 172.063 36.2081C173.075 36.2081 173.581 36.925 173.581 38.3589C173.581 39.2519 173.307 39.8478 172.757 40.1467V40.2534C173.317 40.5772 173.597 40.9917 173.597 41.4969V42.0573ZM170.451 37.8519C170.451 37.2577 170.287 36.9606 169.96 36.9606H169.559C168.995 36.9606 168.714 37.4267 168.714 38.3589V38.9993C168.714 40.056 169.02 40.5843 169.632 40.5843C170.178 40.5843 170.451 40.12 170.451 39.1914V37.8519ZM179.913 39.3088C179.913 40.1485 179.586 40.9561 178.932 41.7317H177.998C178.62 41.0486 178.932 40.3388 178.932 39.6023V38.1027C178.932 37.3378 178.666 36.9571 178.134 36.9606H177.742C177.52 36.9606 177.409 37.3289 177.409 38.0653V39.5436H176.573V38.0653C176.573 37.3289 176.459 36.9606 176.23 36.9606H175.827C175.313 36.9606 175.055 37.3662 175.055 38.1774V39.565C175.048 40.3264 175.398 41.0486 176.104 41.7317H175.092C174.399 40.9312 174.054 40.1111 174.054 39.2715V38.7271C174.054 37.0478 174.712 36.2081 176.031 36.2081C176.393 36.2081 176.701 36.3932 176.954 36.7632H177.044C177.286 36.3932 177.575 36.2081 177.909 36.2081C179.245 36.2081 179.913 37.0514 179.913 38.7378V39.3088ZM185.702 38.8072C185.706 40.7569 184.904 41.7317 183.297 41.7317C181.717 41.7317 180.927 40.86 180.927 39.1167V35.4129C180.925 34.1784 181.502 33.5611 182.66 33.5611H185.071V34.3242H182.556C182.065 34.3242 181.82 34.6373 181.82 35.2635V36.8325H182.003C182.225 36.3771 182.657 36.1494 183.297 36.1494C184.901 36.153 185.702 37.0389 185.702 38.8072ZM184.736 38.8232C184.736 37.5459 184.254 36.9073 183.286 36.9073C182.337 36.9073 181.862 37.5815 181.862 38.9299C181.862 40.2819 182.337 40.9561 183.286 40.9526C184.254 40.9561 184.736 40.2463 184.736 38.8232ZM192.045 39.1861C192.045 40.8832 191.308 41.7317 189.837 41.7317C188.119 41.7317 187.258 40.7978 187.254 38.9299C187.254 37.0798 188.044 36.153 189.623 36.1494C190.295 36.153 190.752 36.3842 190.995 36.8432H191.1V35.3009C191.1 34.5431 190.853 34.1641 190.359 34.1641C189.869 34.1641 189.623 34.5377 189.623 35.2849V35.461H188.804V35.2742C188.804 34.5342 188.526 34.1641 187.969 34.1641C187.673 34.1641 187.525 34.5662 187.525 35.3703H186.717C186.717 34.0752 187.1 33.4277 187.864 33.4277C188.511 33.4277 188.945 33.771 189.164 34.4577H189.268C189.47 33.771 189.87 33.4277 190.469 33.4277C191.519 33.4277 192.041 33.9969 192.034 35.1354L192.045 39.1861ZM191.074 38.9833C191.07 37.5993 190.584 36.9073 189.613 36.9073C188.691 36.9073 188.232 37.5815 188.236 38.9299C188.232 40.2819 188.773 40.9579 189.858 40.9579C190.665 40.9579 191.07 40.2997 191.074 38.9833ZM198.366 38.8125C198.366 40.0471 197.948 41.0201 197.114 41.7317H196.352C197.05 40.8067 197.398 39.8336 197.395 38.8125C197.395 37.5494 196.943 36.9179 196.038 36.9179C195.058 36.9179 194.567 37.5441 194.567 38.7965C194.567 39.7998 194.911 40.7782 195.6 41.7317H194.828C194 40.9952 193.59 40.0115 193.597 38.7805C193.59 37.03 194.396 36.1548 196.018 36.1548C197.587 36.1548 198.369 37.0407 198.366 38.8125Z" fill="white"/>
</svg>
