<svg width="200" height="44" viewBox="0 0 200 44" fill="none" xmlns="http://www.w3.org/2000/svg">
<path d="M15.7098 0C7.05611 0 0 6.90942 0 15.4562C0 27.5395 15.6433 41.2601 15.6433 41.2601C15.6433 41.2601 31.4529 27.5395 31.4529 15.4562C31.4529 6.90942 24.3968 0 15.7098 0ZM15.7764 27.474C8.687 27.474 3.46149 22.4638 3.46149 15.5216C3.46149 8.57948 8.62044 3.56932 15.7431 3.56932C21.8007 3.56932 26.76 7.30238 27.7585 12.5745H21.0685C20.2364 10.6752 18.1728 9.43087 15.8097 9.43087C12.3149 9.43087 9.98506 11.9196 9.98506 15.5544C9.98506 19.1892 12.2816 21.6124 15.7764 21.6124C18.2061 21.6124 20.303 20.4663 21.0352 18.698H15.2771V14.7357H27.9582C27.9915 22.2018 23.0322 27.474 15.7764 27.474Z" fill="#FF6900"/>
<path d="M52.2545 17.9425C52.2545 18.4664 52.2213 18.9904 52.1214 19.5471H38.9411C39.3405 21.5446 40.6386 22.5924 42.569 22.5924C44.0002 22.5924 45.1984 21.9703 45.7975 20.9551H51.8884C50.6236 24.9502 47.029 27.4389 42.569 27.4389C37.0107 27.4389 32.9168 23.4438 32.9168 18.1062C32.9168 12.7359 37.0107 8.80635 42.569 8.80635C48.2938 8.7736 52.2545 12.8014 52.2545 17.9425ZM39.041 16.207H46.2302C45.6977 14.4714 44.3996 13.5218 42.569 13.5218C40.7717 13.5218 39.5402 14.4714 39.041 16.207Z" fill="#FF6900"/>
<path d="M66.7977 21.5761V26.8482H62.5707C58.6432 26.8482 56.2468 24.4905 56.2468 20.5937V14.0118H52.985V12.6037L60.9731 4.25342H62.2379V9.36181H66.6979V14.0118H62.371V19.5786C62.371 20.8229 63.1365 21.5761 64.4346 21.5761H66.7977Z" fill="#FF6900"/>
<path d="M96.9555 15.8803V26.8502H90.8313V16.6334C90.8313 14.7996 90.1324 13.9155 88.8343 13.9155C87.1368 13.9155 86.2715 15.0616 86.2715 17.2556V26.8502H80.3137V16.6334C80.3137 14.8651 79.648 13.9155 78.35 13.9155C76.6858 13.9155 75.7871 15.0943 75.7871 17.2556V26.8502H69.663V9.36378H73.9565L74.8219 11.2303C76.12 9.75674 77.9839 8.83984 80.0141 8.83984C82.1776 8.83984 84.0082 9.78948 85.1065 11.4268C86.3713 9.85497 88.3683 8.83984 90.565 8.83984C94.4259 8.83984 96.9555 11.7542 96.9555 15.8803Z" fill="#FF6900"/>
<path d="M119.519 9.33104V26.8502H114.793L114.26 25.6058C112.796 26.752 110.965 27.4396 108.902 27.4396C103.477 27.4396 99.5825 23.5428 99.5825 18.107C99.5825 12.6711 103.477 8.83984 108.902 8.83984C110.999 8.83984 112.863 9.52751 114.327 10.7064L114.959 9.36378L119.519 9.33104ZM113.695 18.107C113.695 15.8475 111.997 14.112 109.701 14.112C107.404 14.112 105.707 15.8148 105.707 18.107C105.707 20.3992 107.404 22.102 109.701 22.102C111.997 22.102 113.695 20.3992 113.695 18.107Z" fill="#FF6900"/>
<path d="M140.989 16.2077V26.8829H134.865V17.0264C134.865 14.9961 134.1 13.981 132.535 13.981C130.638 13.981 129.54 15.2908 129.54 17.5176V26.8502H123.416V9.36378H127.709L128.541 11.1648C129.873 9.72399 131.836 8.83984 134.133 8.83984C138.26 8.83984 140.989 11.7215 140.989 16.2077Z" fill="#FF6900"/>
<path d="M153.437 27.4392C147.745 27.4392 143.618 23.5096 143.618 18.0738C143.618 12.6707 147.712 8.80664 153.47 8.80664C158.462 8.80664 162.223 11.9175 162.889 16.5675H156.931C156.432 15.1266 155.067 14.2097 153.47 14.2097C151.306 14.2097 149.775 15.8143 149.775 18.1065C149.775 20.3988 151.34 22.0361 153.47 22.0361C155.101 22.0361 156.432 21.0537 156.965 19.4819H162.989C162.257 24.2301 158.462 27.4392 153.437 27.4392Z" fill="#FF6900"/>
<path d="M184.554 9.33104V26.8502H179.828L179.295 25.6058C177.831 26.752 176 27.4396 173.937 27.4396C168.512 27.4396 164.617 23.5428 164.617 18.107C164.617 12.6711 168.512 8.83984 173.937 8.83984C176.034 8.83984 177.898 9.52751 179.362 10.7064L179.994 9.36378L184.554 9.33104ZM178.696 18.107C178.696 15.8475 176.999 14.112 174.702 14.112C172.406 14.112 170.708 15.8148 170.708 18.107C170.708 20.3992 172.406 22.102 174.702 22.102C176.999 22.102 178.696 20.3992 178.696 18.107Z" fill="#FF6900"/>
<path d="M200 9.26758V14.8017H197.637C195.473 14.8017 194.575 15.7513 194.575 17.978V26.885H188.451V9.36582H192.544L193.51 11.2978C194.774 9.85701 196.306 9.26758 198.402 9.26758H200V9.26758Z" fill="#FF6900"/>
<path d="M68.1619 38.2387H69.4369C69.3705 38.8277 69.1956 39.3547 68.9123 39.8199C68.6289 40.2851 68.2283 40.6542 67.7103 40.9273C67.1923 41.1962 66.546 41.3306 65.7712 41.3306C65.2045 41.3306 64.6888 41.2281 64.2239 41.0233C63.7635 40.8184 63.3673 40.5282 63.0352 40.1527C62.7032 39.7729 62.4464 39.3184 62.2649 38.7893C62.0878 38.2558 61.9993 37.6626 61.9993 37.0097V36.0815C61.9993 35.4286 62.0878 34.8375 62.2649 34.3083C62.4464 33.7749 62.7054 33.3183 63.0419 32.9384C63.3828 32.5586 63.7923 32.2663 64.2704 32.0615C64.7485 31.8566 65.2864 31.7542 65.8841 31.7542C66.6146 31.7542 67.2322 31.8865 67.7369 32.1511C68.2416 32.4157 68.6334 32.7827 68.9123 33.2521C69.1956 33.7173 69.3705 34.2571 69.4369 34.8716H68.1619C68.0999 34.4364 67.9848 34.0629 67.8166 33.7514C67.6483 33.4356 67.4093 33.1924 67.0994 33.0217C66.7895 32.851 66.3844 32.7656 65.8841 32.7656C65.4547 32.7656 65.0761 32.8446 64.7485 33.0025C64.4254 33.1604 64.1531 33.3844 63.9317 33.6746C63.7148 33.9648 63.551 34.3126 63.4403 34.718C63.3296 35.1234 63.2743 35.5737 63.2743 36.0687V37.0097C63.2743 37.4663 63.323 37.8952 63.4204 38.2964C63.5222 38.6975 63.675 39.0496 63.8786 39.3526C64.0822 39.6556 64.3412 39.8946 64.6556 40.0695C64.9699 40.2402 65.3418 40.3256 65.7712 40.3256C66.3157 40.3256 66.7496 40.2424 67.0728 40.0759C67.396 39.9095 67.6395 39.6705 67.8033 39.359C67.9715 39.0474 68.091 38.674 68.1619 38.2387ZM75.0982 40.0183V36.4528C75.0982 36.1797 75.0407 35.9428 74.9256 35.7422C74.815 35.5374 74.6467 35.3795 74.4209 35.2685C74.1951 35.1576 73.9162 35.1021 73.5841 35.1021C73.2742 35.1021 73.002 35.1533 72.7673 35.2557C72.5371 35.3581 72.3556 35.4926 72.2228 35.659C72.0944 35.8254 72.0302 36.0047 72.0302 36.1967H70.8017C70.8017 35.9492 70.8681 35.7038 71.001 35.4606C71.1338 35.2173 71.3241 34.9975 71.5721 34.8012C71.8244 34.6007 72.1254 34.4428 72.4751 34.3275C72.8293 34.208 73.2233 34.1483 73.6572 34.1483C74.1796 34.1483 74.6401 34.2336 75.0385 34.4043C75.4413 34.5751 75.7557 34.8332 75.9815 35.1789C76.2117 35.5203 76.3268 35.9492 76.3268 36.4656V39.6918C76.3268 39.9223 76.3467 40.1677 76.3866 40.428C76.4309 40.6883 76.4951 40.9124 76.5791 41.1001V41.2026H75.2975C75.2355 41.066 75.1868 40.8846 75.1514 40.6584C75.116 40.428 75.0982 40.2146 75.0982 40.0183ZM75.3108 37.0033L75.3241 37.8355H74.0822C73.7325 37.8355 73.4203 37.8632 73.1459 37.9187C72.8714 37.9699 72.6412 38.0488 72.4552 38.1555C72.2693 38.2622 72.1276 38.3966 72.0302 38.5588C71.9329 38.7167 71.8841 38.9024 71.8841 39.1157C71.8841 39.3334 71.9351 39.5318 72.0369 39.7111C72.1387 39.8903 72.2914 40.0332 72.495 40.1399C72.7031 40.2424 72.9577 40.2936 73.2588 40.2936C73.6351 40.2936 73.9671 40.2168 74.2549 40.0631C74.5427 39.9095 74.7707 39.7217 74.9389 39.4998C75.1115 39.2779 75.2045 39.0624 75.2178 38.8533L75.7424 39.423C75.7114 39.6022 75.6273 39.8007 75.4901 40.0183C75.3528 40.236 75.1691 40.4451 74.9389 40.6457C74.7131 40.8419 74.4431 41.0063 74.1287 41.1385C73.8188 41.2666 73.4691 41.3306 73.0795 41.3306C72.5925 41.3306 72.1652 41.2388 71.7978 41.0554C71.4348 40.8718 71.1514 40.6265 70.9478 40.3191C70.7486 40.0076 70.649 39.6598 70.649 39.2758C70.649 38.9045 70.7242 38.578 70.8748 38.2964C71.0252 38.0104 71.2422 37.7736 71.5255 37.5858C71.8089 37.3938 72.1498 37.2487 72.5482 37.1505C72.9467 37.0524 73.3916 37.0033 73.883 37.0033H75.3108ZM79.3518 35.3645V41.2026H78.1232V34.2763H79.3186L79.3518 35.3645ZM81.5963 34.2379L81.5897 35.3389C81.4879 35.3176 81.3905 35.3048 81.2975 35.3005C81.209 35.292 81.1072 35.2877 80.9921 35.2877C80.7087 35.2877 80.4586 35.3304 80.2416 35.4158C80.0247 35.5011 79.841 35.6206 79.6904 35.7742C79.54 35.9279 79.4204 36.1114 79.3319 36.3248C79.2478 36.5339 79.1924 36.7643 79.1659 37.0161L78.8205 37.2081C78.8205 36.7899 78.8626 36.3973 78.9467 36.0303C79.0352 35.6633 79.1702 35.3389 79.3518 35.0573C79.5333 34.7714 79.7635 34.5494 80.0424 34.3915C80.3258 34.2294 80.6622 34.1483 81.0518 34.1483C81.1403 34.1483 81.2422 34.159 81.3573 34.1803C81.4724 34.1974 81.5521 34.2166 81.5963 34.2379ZM87.1682 34.2763V41.2026H85.9331V34.2763H87.1682ZM85.8401 32.4391C85.8401 32.2471 85.8998 32.0849 86.0193 31.9526C86.1434 31.8203 86.3248 31.7542 86.5639 31.7542C86.7985 31.7542 86.9778 31.8203 87.1018 31.9526C87.2302 32.0849 87.2943 32.2471 87.2943 32.4391C87.2943 32.6226 87.2302 32.7805 87.1018 32.9128C86.9778 33.0409 86.7985 33.1049 86.5639 33.1049C86.3248 33.1049 86.1434 33.0409 86.0193 32.9128C85.8998 32.7805 85.8401 32.6226 85.8401 32.4391ZM90.2331 35.755V41.2026H89.0045V34.2763H90.1666L90.2331 35.755ZM89.9408 37.477L89.4295 37.4578C89.4339 36.9841 89.507 36.5467 89.6486 36.1455C89.7904 35.7401 89.9895 35.388 90.2464 35.0893C90.5031 34.7906 90.8085 34.5601 91.1627 34.3979C91.5214 34.2315 91.9175 34.1483 92.3514 34.1483C92.7056 34.1483 93.0244 34.1952 93.3077 34.2891C93.5911 34.3787 93.8324 34.5238 94.0315 34.7244C94.2352 34.925 94.3902 35.1853 94.4964 35.5054C94.6026 35.8212 94.6558 36.2074 94.6558 36.664V41.2026H93.4206V36.6512C93.4206 36.2885 93.3653 35.9983 93.2545 35.7806C93.1439 35.5587 92.9823 35.3987 92.7698 35.3005C92.5573 35.1981 92.2961 35.1469 91.9862 35.1469C91.6807 35.1469 91.4018 35.2088 91.1494 35.3325C90.9015 35.4563 90.6868 35.627 90.5054 35.8446C90.3283 36.0623 90.1888 36.3119 90.087 36.5936C89.9895 36.871 89.9408 37.1655 89.9408 37.477ZM101.642 40.4856L103.641 34.2763H104.956L102.074 42.2716C102.007 42.4423 101.919 42.6258 101.808 42.8221C101.702 43.0227 101.565 43.2126 101.396 43.3918C101.228 43.5711 101.025 43.7161 100.785 43.8271C100.551 43.9423 100.27 43.9999 99.9421 43.9999C99.8446 43.9999 99.7207 43.9871 99.5702 43.9615C99.4196 43.9359 99.3135 43.9146 99.2515 43.8975L99.2448 42.9373C99.2802 42.9416 99.3355 42.9459 99.4108 42.9501C99.4905 42.9586 99.5458 42.9629 99.5768 42.9629C99.8557 42.9629 100.093 42.9266 100.287 42.8541C100.482 42.7859 100.646 42.6684 100.779 42.502C100.916 42.3398 101.033 42.1159 101.131 41.8299L101.642 40.4856ZM100.175 34.2763L102.041 39.6534L102.359 40.9017L101.476 41.337L98.8331 34.2763H100.175ZM105.497 37.8163V37.669C105.497 37.1697 105.572 36.7067 105.723 36.2799C105.874 35.8489 106.09 35.4755 106.374 35.1597C106.657 34.8396 107 34.5921 107.403 34.4172C107.806 34.2379 108.258 34.1483 108.758 34.1483C109.263 34.1483 109.716 34.2379 110.119 34.4172C110.526 34.5921 110.872 34.8396 111.155 35.1597C111.443 35.4755 111.662 35.8489 111.813 36.2799C111.963 36.7067 112.038 37.1697 112.038 37.669V37.8163C112.038 38.3156 111.963 38.7786 111.813 39.2053C111.662 39.6321 111.443 40.0055 111.155 40.3256C110.872 40.6414 110.529 40.8889 110.126 41.0681C109.727 41.2431 109.276 41.3306 108.771 41.3306C108.266 41.3306 107.813 41.2431 107.41 41.0681C107.007 40.8889 106.662 40.6414 106.374 40.3256C106.09 40.0055 105.874 39.6321 105.723 39.2053C105.572 38.7786 105.497 38.3156 105.497 37.8163ZM106.726 37.669V37.8163C106.726 38.1619 106.768 38.4884 106.852 38.7957C106.936 39.0987 107.062 39.3675 107.23 39.6022C107.403 39.8369 107.618 40.0226 107.875 40.1591C108.131 40.2914 108.43 40.3576 108.771 40.3576C109.108 40.3576 109.402 40.2914 109.654 40.1591C109.911 40.0226 110.124 39.8369 110.292 39.6022C110.46 39.3675 110.586 39.0987 110.67 38.7957C110.759 38.4884 110.803 38.1619 110.803 37.8163V37.669C110.803 37.3276 110.759 37.0054 110.67 36.7024C110.586 36.3952 110.458 36.1242 110.285 35.8895C110.117 35.6505 109.904 35.4627 109.648 35.3261C109.395 35.1896 109.099 35.1213 108.758 35.1213C108.421 35.1213 108.125 35.1896 107.868 35.3261C107.616 35.4627 107.403 35.6505 107.23 35.8895C107.062 36.1242 106.936 36.3952 106.852 36.7024C106.768 37.0054 106.726 37.3276 106.726 37.669ZM117.839 39.6022V34.2763H119.074V41.2026H117.899L117.839 39.6022ZM118.072 38.1427L118.583 38.1299C118.583 38.5908 118.532 39.0176 118.43 39.4102C118.333 39.7985 118.173 40.1357 117.952 40.4216C117.731 40.7076 117.441 40.9316 117.082 41.0937C116.724 41.2516 116.287 41.3306 115.774 41.3306C115.424 41.3306 115.103 41.2815 114.811 41.1834C114.523 41.0852 114.275 40.9337 114.067 40.7288C113.859 40.524 113.698 40.2573 113.582 39.9287C113.472 39.6001 113.416 39.2053 113.416 38.7445V34.2763H114.645V38.7573C114.645 39.0688 114.68 39.327 114.751 39.5318C114.826 39.7324 114.926 39.8924 115.05 40.0119C115.178 40.1271 115.32 40.2082 115.475 40.2552C115.634 40.3021 115.798 40.3256 115.966 40.3256C116.489 40.3256 116.903 40.2296 117.208 40.0375C117.514 39.8412 117.733 39.5788 117.866 39.2502C118.003 38.9173 118.072 38.5481 118.072 38.1427ZM122.04 35.3645V41.2026H120.811V34.2763H122.006L122.04 35.3645ZM124.284 34.2379L124.277 35.3389C124.176 35.3176 124.078 35.3048 123.985 35.3005C123.897 35.292 123.795 35.2877 123.68 35.2877C123.396 35.2877 123.146 35.3304 122.929 35.4158C122.712 35.5011 122.529 35.6206 122.378 35.7742C122.228 35.9279 122.108 36.1114 122.02 36.3248C121.936 36.5339 121.88 36.7643 121.854 37.0161L121.508 37.2081C121.508 36.7899 121.55 36.3973 121.634 36.0303C121.723 35.6633 121.858 35.3389 122.04 35.0573C122.221 34.7714 122.451 34.5494 122.73 34.3915C123.014 34.2294 123.35 34.1483 123.74 34.1483C123.828 34.1483 123.93 34.159 124.045 34.1803C124.16 34.1974 124.24 34.2166 124.284 34.2379ZM132.705 39.3654C132.705 39.1947 132.665 39.0368 132.585 38.8917C132.51 38.7423 132.353 38.6079 132.114 38.4884C131.879 38.3646 131.525 38.258 131.051 38.1683C130.653 38.0873 130.292 37.9912 129.969 37.8803C129.65 37.7693 129.378 37.6349 129.152 37.477C128.931 37.3191 128.76 37.1334 128.641 36.9201C128.521 36.7067 128.461 36.457 128.461 36.1711C128.461 35.898 128.523 35.6398 128.647 35.3966C128.776 35.1533 128.955 34.9378 129.185 34.75C129.42 34.5622 129.701 34.415 130.029 34.3083C130.356 34.2016 130.721 34.1483 131.124 34.1483C131.7 34.1483 132.191 34.2464 132.599 34.4428C133.006 34.6391 133.318 34.9015 133.535 35.2301C133.752 35.5544 133.86 35.9151 133.86 36.3119H132.632C132.632 36.1199 132.572 35.9343 132.452 35.755C132.337 35.5715 132.167 35.42 131.941 35.3005C131.72 35.181 131.448 35.1213 131.124 35.1213C130.783 35.1213 130.507 35.1725 130.294 35.2749C130.086 35.3731 129.933 35.499 129.836 35.6526C129.743 35.8062 129.697 35.9684 129.697 36.1391C129.697 36.2671 129.719 36.3824 129.763 36.4848C129.812 36.5829 129.896 36.6747 130.015 36.76C130.135 36.8411 130.303 36.9179 130.52 36.9905C130.737 37.063 131.014 37.1356 131.35 37.2081C131.939 37.3362 132.424 37.4898 132.804 37.669C133.185 37.8483 133.469 38.068 133.654 38.3284C133.84 38.5887 133.933 38.9045 133.933 39.2758C133.933 39.5788 133.867 39.8561 133.734 40.1079C133.606 40.3597 133.418 40.5774 133.17 40.7609C132.926 40.9401 132.634 41.0809 132.293 41.1834C131.957 41.2815 131.578 41.3306 131.158 41.3306C130.524 41.3306 129.989 41.2218 129.55 41.0041C129.112 40.7865 128.78 40.5048 128.554 40.1591C128.329 39.8135 128.216 39.4486 128.216 39.0645H129.451C129.469 39.3889 129.566 39.647 129.743 39.8391C129.92 40.0269 130.137 40.1613 130.394 40.2424C130.651 40.3191 130.905 40.3576 131.158 40.3576C131.494 40.3576 131.775 40.3149 132.001 40.2296C132.231 40.1442 132.406 40.0269 132.526 39.8775C132.645 39.7281 132.705 39.5574 132.705 39.3654ZM136.633 35.6526V41.2026H135.398V34.2763H136.567L136.633 35.6526ZM136.381 37.477L135.81 37.4578C135.814 36.9841 135.878 36.5467 136.002 36.1455C136.126 35.7401 136.31 35.388 136.553 35.0893C136.797 34.7906 137.1 34.5601 137.463 34.3979C137.826 34.2315 138.247 34.1483 138.725 34.1483C139.061 34.1483 139.371 34.1952 139.654 34.2891C139.938 34.3787 140.184 34.5217 140.392 34.718C140.6 34.9143 140.761 35.1661 140.876 35.4734C140.991 35.7806 141.049 36.1519 141.049 36.5872V41.2026H139.821V36.6448C139.821 36.2821 139.756 35.9919 139.628 35.7742C139.504 35.5566 139.327 35.3987 139.097 35.3005C138.866 35.1981 138.596 35.1469 138.286 35.1469C137.923 35.1469 137.62 35.2088 137.377 35.3325C137.133 35.4563 136.938 35.627 136.792 35.8446C136.646 36.0623 136.54 36.3119 136.474 36.5936C136.412 36.871 136.381 37.1655 136.381 37.477ZM141.036 36.8241L140.212 37.0673C140.217 36.6875 140.281 36.3226 140.405 35.9727C140.533 35.6227 140.717 35.3112 140.956 35.0381C141.2 34.765 141.498 34.5494 141.853 34.3915C142.207 34.2294 142.612 34.1483 143.068 34.1483C143.453 34.1483 143.794 34.1974 144.09 34.2955C144.392 34.3937 144.644 34.5452 144.848 34.75C145.056 34.9506 145.213 35.2088 145.319 35.5246C145.425 35.8404 145.478 36.2159 145.478 36.6512V41.2026H144.243V36.6384C144.243 36.2501 144.179 35.9492 144.051 35.7358C143.927 35.5182 143.75 35.3667 143.519 35.2813C143.294 35.1917 143.024 35.1469 142.709 35.1469C142.439 35.1469 142.2 35.1917 141.992 35.2813C141.784 35.3709 141.609 35.4947 141.467 35.6526C141.326 35.8062 141.217 35.9833 141.142 36.1839C141.071 36.3845 141.036 36.5979 141.036 36.8241ZM151.439 40.0183V36.4528C151.439 36.1797 151.381 35.9428 151.266 35.7422C151.155 35.5374 150.987 35.3795 150.761 35.2685C150.535 35.1576 150.257 35.1021 149.925 35.1021C149.615 35.1021 149.342 35.1533 149.108 35.2557C148.877 35.3581 148.696 35.4926 148.563 35.659C148.435 35.8254 148.371 36.0047 148.371 36.1967H147.142C147.142 35.9492 147.208 35.7038 147.341 35.4606C147.474 35.2173 147.664 34.9975 147.912 34.8012C148.165 34.6007 148.466 34.4428 148.816 34.3275C149.17 34.208 149.564 34.1483 149.998 34.1483C150.52 34.1483 150.98 34.2336 151.379 34.4043C151.782 34.5751 152.096 34.8332 152.322 35.1789C152.552 35.5203 152.667 35.9492 152.667 36.4656V39.6918C152.667 39.9223 152.687 40.1677 152.727 40.428C152.771 40.6883 152.835 40.9124 152.919 41.1001V41.2026H151.638C151.576 41.066 151.527 40.8846 151.492 40.6584C151.456 40.428 151.439 40.2146 151.439 40.0183ZM151.651 37.0033L151.664 37.8355H150.423C150.073 37.8355 149.761 37.8632 149.486 37.9187C149.212 37.9699 148.982 38.0488 148.796 38.1555C148.61 38.2622 148.468 38.3966 148.371 38.5588C148.273 38.7167 148.224 38.9024 148.224 39.1157C148.224 39.3334 148.275 39.5318 148.377 39.7111C148.479 39.8903 148.632 40.0332 148.835 40.1399C149.044 40.2424 149.298 40.2936 149.599 40.2936C149.975 40.2936 150.307 40.2168 150.595 40.0631C150.883 39.9095 151.111 39.7217 151.279 39.4998C151.452 39.2779 151.545 39.0624 151.558 38.8533L152.083 39.423C152.052 39.6022 151.968 39.8007 151.83 40.0183C151.693 40.236 151.51 40.4451 151.279 40.6457C151.053 40.8419 150.783 41.0063 150.469 41.1385C150.159 41.2666 149.809 41.3306 149.42 41.3306C148.933 41.3306 148.506 41.2388 148.138 41.0554C147.775 40.8718 147.492 40.6265 147.288 40.3191C147.089 40.0076 146.989 39.6598 146.989 39.2758C146.989 38.9045 147.065 38.578 147.215 38.2964C147.366 38.0104 147.583 37.7736 147.866 37.5858C148.149 37.3938 148.49 37.2487 148.889 37.1505C149.287 37.0524 149.732 37.0033 150.223 37.0033H151.651ZM155.692 35.3645V41.2026H154.464V34.2763H155.659L155.692 35.3645ZM157.937 34.2379L157.93 35.3389C157.828 35.3176 157.731 35.3048 157.638 35.3005C157.549 35.292 157.448 35.2877 157.332 35.2877C157.049 35.2877 156.799 35.3304 156.582 35.4158C156.365 35.5011 156.181 35.6206 156.031 35.7742C155.88 35.9279 155.761 36.1114 155.672 36.3248C155.588 36.5339 155.533 36.7643 155.506 37.0161L155.161 37.2081C155.161 36.7899 155.203 36.3973 155.287 36.0303C155.376 35.6633 155.511 35.3389 155.692 35.0573C155.874 34.7714 156.104 34.5494 156.383 34.3915C156.666 34.2294 157.003 34.1483 157.392 34.1483C157.481 34.1483 157.583 34.159 157.698 34.1803C157.813 34.1974 157.892 34.2166 157.937 34.2379ZM162.276 34.2763V35.1853H158.392V34.2763H162.276ZM159.707 32.5928H160.935V39.487C160.935 39.7217 160.973 39.8988 161.049 40.0183C161.123 40.1378 161.22 40.2168 161.34 40.2552C161.459 40.2936 161.588 40.3128 161.726 40.3128C161.828 40.3128 161.934 40.3043 162.044 40.2872C162.159 40.2658 162.245 40.2488 162.304 40.236L162.309 41.2026C162.212 41.2324 162.084 41.2602 161.925 41.2858C161.769 41.3157 161.582 41.3306 161.36 41.3306C161.059 41.3306 160.782 41.273 160.53 41.1577C160.278 41.0425 160.076 40.8505 159.926 40.5816C159.78 40.3085 159.707 39.9415 159.707 39.4806V32.5928ZM164.81 35.6078V43.8656H163.575V34.2763H164.704L164.81 35.6078ZM169.652 37.6818V37.8163C169.652 38.3198 169.589 38.7871 169.465 39.2182C169.342 39.6449 169.16 40.0162 168.921 40.332C168.686 40.6478 168.397 40.8932 168.051 41.0681C167.706 41.2431 167.309 41.3306 166.863 41.3306C166.406 41.3306 166.003 41.258 165.653 41.1129C165.303 40.9678 165.007 40.7566 164.763 40.4792C164.52 40.2018 164.325 39.869 164.179 39.4806C164.038 39.0923 163.941 38.6548 163.887 38.1683V37.4514C163.941 36.9393 164.04 36.4805 164.186 36.0751C164.332 35.6697 164.524 35.324 164.763 35.0381C165.007 34.7479 165.302 34.5281 165.647 34.3787C165.992 34.2251 166.391 34.1483 166.842 34.1483C167.294 34.1483 167.694 34.2336 168.044 34.4043C168.394 34.5708 168.688 34.8098 168.927 35.1213C169.167 35.4328 169.346 35.8062 169.465 36.2415C169.589 36.6725 169.652 37.1527 169.652 37.6818ZM168.416 37.8163V37.6818C168.416 37.3362 168.378 37.0118 168.303 36.7088C168.228 36.4016 168.111 36.1327 167.952 35.9023C167.796 35.6675 167.597 35.484 167.353 35.3517C167.11 35.2152 166.82 35.1469 166.484 35.1469C166.174 35.1469 165.904 35.1981 165.674 35.3005C165.447 35.403 165.255 35.5416 165.096 35.7166C164.936 35.8873 164.806 36.0836 164.704 36.3055C164.607 36.5232 164.533 36.7494 164.485 36.9841V38.642C164.573 38.9408 164.697 39.2224 164.857 39.487C165.016 39.7473 165.229 39.9586 165.494 40.1207C165.76 40.2786 166.094 40.3576 166.497 40.3576C166.829 40.3576 167.114 40.2914 167.353 40.1591C167.597 40.0226 167.796 39.8369 167.952 39.6022C168.111 39.3675 168.228 39.0987 168.303 38.7957C168.378 38.4884 168.416 38.1619 168.416 37.8163ZM172.311 31.3701V41.2026H171.083V31.3701H172.311ZM172.019 37.477L171.507 37.4578C171.512 36.9841 171.585 36.5467 171.727 36.1455C171.868 35.7401 172.068 35.388 172.324 35.0893C172.582 34.7906 172.887 34.5601 173.241 34.3979C173.6 34.2315 173.996 34.1483 174.429 34.1483C174.784 34.1483 175.102 34.1952 175.386 34.2891C175.669 34.3787 175.911 34.5238 176.11 34.7244C176.313 34.925 176.468 35.1853 176.574 35.5054C176.681 35.8212 176.733 36.2074 176.733 36.664V41.2026H175.499V36.6512C175.499 36.2885 175.443 35.9983 175.333 35.7806C175.222 35.5587 175.061 35.3987 174.848 35.3005C174.635 35.1981 174.374 35.1469 174.064 35.1469C173.759 35.1469 173.48 35.2088 173.228 35.3325C172.98 35.4563 172.765 35.627 172.583 35.8446C172.407 36.0623 172.267 36.3119 172.165 36.5936C172.068 36.871 172.019 37.1655 172.019 37.477ZM178.112 37.8163V37.669C178.112 37.1697 178.187 36.7067 178.337 36.2799C178.488 35.8489 178.706 35.4755 178.988 35.1597C179.272 34.8396 179.615 34.5921 180.018 34.4172C180.42 34.2379 180.872 34.1483 181.372 34.1483C181.877 34.1483 182.331 34.2379 182.734 34.4172C183.141 34.5921 183.486 34.8396 183.77 35.1597C184.057 35.4755 184.277 35.8489 184.427 36.2799C184.578 36.7067 184.653 37.1697 184.653 37.669V37.8163C184.653 38.3156 184.578 38.7786 184.427 39.2053C184.277 39.6321 184.057 40.0055 183.77 40.3256C183.486 40.6414 183.143 40.8889 182.741 41.0681C182.342 41.2431 181.891 41.3306 181.386 41.3306C180.881 41.3306 180.427 41.2431 180.025 41.0681C179.622 40.8889 179.276 40.6414 178.988 40.3256C178.706 40.0055 178.488 39.6321 178.337 39.2053C178.187 38.7786 178.112 38.3156 178.112 37.8163ZM179.341 37.669V37.8163C179.341 38.1619 179.383 38.4884 179.466 38.7957C179.551 39.0987 179.677 39.3675 179.845 39.6022C180.018 39.8369 180.233 40.0226 180.489 40.1591C180.746 40.2914 181.045 40.3576 181.386 40.3576C181.722 40.3576 182.016 40.2914 182.269 40.1591C182.525 40.0226 182.738 39.8369 182.906 39.6022C183.075 39.3675 183.2 39.0987 183.285 38.7957C183.373 38.4884 183.418 38.1619 183.418 37.8163V37.669C183.418 37.3276 183.373 37.0054 183.285 36.7024C183.2 36.3952 183.072 36.1242 182.9 35.8895C182.731 35.6505 182.519 35.4627 182.262 35.3261C182.01 35.1896 181.713 35.1213 181.372 35.1213C181.036 35.1213 180.74 35.1896 180.482 35.3261C180.231 35.4627 180.018 35.6505 179.845 35.8895C179.677 36.1242 179.551 36.3952 179.466 36.7024C179.383 37.0054 179.341 37.3276 179.341 37.669ZM187.286 35.755V41.2026H186.057V34.2763H187.219L187.286 35.755ZM186.994 37.477L186.483 37.4578C186.487 36.9841 186.56 36.5467 186.701 36.1455C186.843 35.7401 187.042 35.388 187.3 35.0893C187.556 34.7906 187.861 34.5601 188.216 34.3979C188.574 34.2315 188.971 34.1483 189.405 34.1483C189.759 34.1483 190.077 34.1952 190.361 34.2891C190.645 34.3787 190.886 34.5238 191.085 34.7244C191.289 34.925 191.443 35.1853 191.55 35.5054C191.656 35.8212 191.709 36.2074 191.709 36.664V41.2026H190.474V36.6512C190.474 36.2885 190.418 35.9983 190.307 35.7806C190.197 35.5587 190.035 35.3987 189.823 35.3005C189.61 35.1981 189.35 35.1469 189.04 35.1469C188.734 35.1469 188.455 35.2088 188.202 35.3325C187.955 35.4563 187.74 35.627 187.558 35.8446C187.382 36.0623 187.242 36.3119 187.14 36.5936C187.042 36.871 186.994 37.1655 186.994 37.477ZM196.421 41.3306C195.921 41.3306 195.467 41.2495 195.059 41.0874C194.657 40.9209 194.309 40.6883 194.016 40.3896C193.729 40.0909 193.507 39.7367 193.353 39.327C193.198 38.9173 193.12 38.4692 193.12 37.9827V37.7138C193.12 37.1505 193.206 36.6491 193.379 36.2095C193.552 35.7657 193.786 35.3902 194.084 35.0829C194.38 34.7756 194.716 34.543 195.093 34.3851C195.469 34.2272 195.858 34.1483 196.261 34.1483C196.774 34.1483 197.217 34.2336 197.589 34.4043C197.965 34.5751 198.273 34.814 198.512 35.1213C198.751 35.4243 198.929 35.7828 199.044 36.1967C199.158 36.6064 199.217 37.0545 199.217 37.541V38.0723H193.85V37.1057H197.988V37.0161C197.97 36.7088 197.904 36.4101 197.789 36.1199C197.678 35.8297 197.501 35.5907 197.257 35.403C197.013 35.2152 196.682 35.1213 196.261 35.1213C195.983 35.1213 195.725 35.1789 195.491 35.2941C195.256 35.4051 195.055 35.5715 194.887 35.7934C194.719 36.0153 194.588 36.2863 194.494 36.6064C194.402 36.9265 194.356 37.2956 194.356 37.7138V37.9827C194.356 38.3113 194.402 38.6207 194.494 38.9109C194.593 39.1968 194.731 39.4486 194.913 39.6662C195.099 39.8839 195.323 40.0546 195.583 40.1783C195.85 40.3021 196.151 40.364 196.487 40.364C196.921 40.364 197.288 40.2786 197.589 40.1079C197.891 39.9372 198.154 39.7089 198.379 39.423L199.123 39.9927C198.969 40.2189 198.772 40.4344 198.533 40.6392C198.294 40.8441 197.998 41.0105 197.649 41.1385C197.304 41.2666 196.894 41.3306 196.421 41.3306Z" fill="white"/>
</svg>
